<svg width="25" height="26" viewBox="0 0 25 26" fill="none" xmlns="http://www.w3.org/2000/svg">
<path d="M13.4941 1.62745C13.2832 1.81495 11.6426 5.07081 11.6426 5.07081L10.4219 9.99464L15.1719 9.55909C15.1719 9.55909 19.123 2.21144 19.2031 2.04152C19.3457 1.73292 19.4219 1.60597 18.877 1.60597C18.332 1.60402 13.6914 1.45167 13.4941 1.62745Z" fill="#176CC7"/>
<path d="M15.9524 9.25442C15.7161 9.12747 8.75516 9.0181 8.5911 9.25442C8.44266 9.46927 8.52664 10.5962 8.58328 10.731C8.68485 10.9654 10.9329 11.9868 10.9329 11.9868L10.8899 12.4517C10.8899 12.4517 11.0735 12.4986 12.3802 12.4986C13.6868 12.4986 13.9446 12.4322 13.9446 12.4322L13.9485 12.0122C13.9485 12.0122 15.972 11.0279 16.0735 10.8911C16.1595 10.7779 16.1888 9.38138 15.9524 9.25442ZM13.8802 11.0357C13.8802 11.0357 13.9446 10.7486 13.8098 10.6822C13.6751 10.6138 11.3626 10.645 11.179 10.6548C10.9954 10.6646 10.9954 10.9927 10.9954 10.9927L9.53836 10.2427L9.51102 9.96341L15.0384 10.0025L15.0188 10.2661L13.8802 11.0357Z" fill="#F79429"/>
<path d="M11.5742 10.9341C11.3906 10.9341 11.2852 11.1255 11.2852 11.4556C11.2852 11.7642 11.3906 12.0239 11.623 12.0044C11.8145 11.9888 11.8809 11.6958 11.8633 11.436C11.8457 11.1255 11.8066 10.9341 11.5742 10.9341Z" fill="#FDFFFF"/>
<path d="M5.72461 18.7857C5.72461 23.4654 9.96485 25.4127 12.7793 25.3287C16.0586 25.231 19.5859 22.7427 19.2949 18.2779C19.0215 14.0884 15.4941 12.1666 12.4121 12.188C8.83008 12.2154 5.72461 14.6978 5.72461 18.7857Z" fill="#F79429"/>
<path d="M12.6309 24.6216C12.5821 24.6216 12.5313 24.6216 12.4825 24.6196C11.0177 24.5708 9.57039 23.9536 8.51179 22.9282C7.37898 21.8306 6.75789 20.3462 6.7657 18.7505C6.78328 14.854 10.1895 13.0474 12.5001 13.0474H12.5196C15.6505 13.061 18.2208 15.4946 18.293 18.7935C18.3243 20.2622 17.8555 21.7231 16.6759 22.8833C15.5743 23.9614 13.9805 24.6216 12.6309 24.6216ZM12.4962 13.6958C10.4239 13.6958 7.35945 15.3911 7.35164 18.7505C7.34578 21.2622 9.29109 23.8442 12.5313 23.9536C13.7657 23.9927 15.1583 23.5356 16.1837 22.5278C17.2501 21.479 17.7286 20.1118 17.7071 18.8032C17.6602 15.9653 15.3399 13.7075 12.5235 13.6958C12.5177 13.6919 12.502 13.6958 12.4962 13.6958Z" fill="#D25116"/>
<path d="M11.3448 12.8051C11.21 12.6196 9.82916 12.6723 8.34283 13.9516C6.86627 15.2231 6.64557 16.6294 6.91119 16.7036C7.21393 16.7876 7.58307 15.4282 8.85846 14.2856C10.0303 13.2407 11.6124 13.1743 11.3448 12.8051ZM17.2803 17.9165C16.8096 17.9829 17.2979 19.393 16.2061 20.9712C15.2588 22.3403 14.1846 22.8364 14.3096 23.1372C14.4776 23.5395 16.1983 22.5376 16.9952 20.9048C17.7159 19.4262 17.6299 17.8657 17.2803 17.9165Z" fill="#FEFFFA"/>
<path d="M4.98284 1.5259C4.85979 1.63918 9.56487 10.0181 9.56487 10.0181C9.56487 10.0181 10.3539 10.1196 12.1157 10.1353C13.8774 10.1509 14.7504 10.0337 14.7504 10.0337C14.7504 10.0337 11.0922 1.60988 10.8735 1.5259C10.766 1.48293 9.31682 1.46731 7.90081 1.45168C6.48284 1.4341 5.10003 1.41652 4.98284 1.5259Z" fill="#2E9DF4"/>
<path d="M14.6395 17.1489C14.4129 15.186 12.1278 15.022 11.1805 15.7759C10.2587 16.5102 10.3465 17.5337 10.993 17.6528C11.5028 17.7466 11.6356 17.3423 11.784 17.1567C12.12 16.7407 12.6551 16.7016 13.0047 17.0356C13.4012 17.4165 13.1571 18.3266 12.5614 18.3638C12.118 18.3911 11.8934 18.3677 11.8368 18.4438C11.7567 18.5513 11.7684 19.397 11.8504 19.4907C11.9442 19.5981 12.3192 19.5317 12.6415 19.5434C13.0848 19.561 13.5555 20.2173 13.245 20.7095C12.9227 21.2192 12.0653 20.9907 11.7567 20.6821C11.3485 20.2739 10.9403 20.5083 10.8036 20.6684C10.5887 20.9223 10.3602 21.5005 11.1532 22.063C11.9442 22.6255 14.3446 22.7329 14.829 20.9907C15.2508 19.4692 14.2665 18.8442 14.2665 18.8442C14.2665 18.8442 14.7684 18.2681 14.6395 17.1489Z" fill="#D25116"/>
</svg>
