<svg width="24" height="25" viewBox="0 0 24 25" fill="none" xmlns="http://www.w3.org/2000/svg">
<path d="M22 8.46136V8.53436C22 9.39436 22 9.82536 21.793 10.1774C21.586 10.5294 21.209 10.7384 20.457 11.1574L19.664 11.5974C20.21 9.74936 20.393 7.76336 20.46 6.06536L20.47 5.84436L20.472 5.79236C21.123 6.01836 21.489 6.18736 21.717 6.50336C22 6.89636 22 7.41836 22 8.46136ZM2 8.46136V8.53436C2 9.39436 2 9.82536 2.207 10.1774C2.414 10.5294 2.791 10.7384 3.543 11.1574L4.337 11.5974C3.79 9.74936 3.607 7.76336 3.54 6.06536L3.53 5.84436L3.529 5.79236C2.877 6.01836 2.511 6.18736 2.283 6.50336C2 6.89636 2 7.41936 2 8.46136Z" fill="url(#paint0_linear_644_870)"/>
<path fill-rule="evenodd" clip-rule="evenodd" d="M16.3774 2.6463C14.9305 2.40929 13.4665 2.29323 12.0004 2.2993C10.2174 2.2993 8.74737 2.4563 7.62337 2.6463C6.48437 2.8383 5.91537 2.9343 5.43937 3.5203C4.96437 4.1063 4.98937 4.7393 5.03937 6.0053C5.21237 10.3533 6.15037 15.7853 11.2504 16.2653V19.7993H9.82037C9.58928 19.7994 9.36537 19.8796 9.18671 20.0262C9.00805 20.1728 8.88567 20.3767 8.84037 20.6033L8.65037 21.5493H6.00037C5.80146 21.5493 5.61069 21.6283 5.47004 21.769C5.32939 21.9096 5.25037 22.1004 5.25037 22.2993C5.25037 22.4982 5.32939 22.689 5.47004 22.8296C5.61069 22.9703 5.80146 23.0493 6.00037 23.0493H18.0004C18.1993 23.0493 18.39 22.9703 18.5307 22.8296C18.6714 22.689 18.7504 22.4982 18.7504 22.2993C18.7504 22.1004 18.6714 21.9096 18.5307 21.769C18.39 21.6283 18.1993 21.5493 18.0004 21.5493H15.3504L15.1604 20.6033C15.1151 20.3767 14.9927 20.1728 14.814 20.0262C14.6354 19.8796 14.4115 19.7994 14.1804 19.7993H12.7504V16.2653C17.8504 15.7853 18.7894 10.3543 18.9614 6.0053C19.0114 4.7393 19.0374 4.1053 18.5614 3.5203C18.0854 2.9343 17.5164 2.8383 16.3774 2.6463ZM12.7874 6.1063C12.9244 6.16307 13.0416 6.25921 13.124 6.38257C13.2064 6.50592 13.2504 6.65095 13.2504 6.7993V10.7993C13.2504 10.9982 13.1714 11.189 13.0307 11.3296C12.89 11.4703 12.6993 11.5493 12.5004 11.5493C12.3015 11.5493 12.1107 11.4703 11.97 11.3296C11.8294 11.189 11.7504 10.9982 11.7504 10.7993V8.6093L11.5304 8.8293C11.4617 8.90299 11.3789 8.96209 11.2869 9.00308C11.1949 9.04407 11.0956 9.06611 10.9949 9.06789C10.8942 9.06967 10.7942 9.05114 10.7008 9.01342C10.6074 8.9757 10.5226 8.91956 10.4513 8.84834C10.3801 8.77712 10.324 8.69228 10.2862 8.5989C10.2485 8.50551 10.23 8.40548 10.2318 8.30478C10.2336 8.20407 10.2556 8.10476 10.2966 8.01276C10.3376 7.92076 10.3967 7.83796 10.4704 7.7693L11.9704 6.2693C12.0752 6.16441 12.2087 6.09294 12.3542 6.06393C12.4996 6.03491 12.6503 6.04966 12.7874 6.1063Z" fill="url(#paint1_linear_644_870)"/>
<defs>
<linearGradient id="paint0_linear_644_870" x1="12" y1="5.79236" x2="12" y2="11.5974" gradientUnits="userSpaceOnUse">
<stop offset="0.275" stop-color="#FF9501"/>
<stop offset="0.63" stop-color="#FFB507"/>
<stop offset="0.985" stop-color="#995900"/>
</linearGradient>
<linearGradient id="paint1_linear_644_870" x1="12.0005" y1="2.29907" x2="12.0005" y2="23.0493" gradientUnits="userSpaceOnUse">
<stop offset="0.275" stop-color="#FF9501"/>
<stop offset="0.63" stop-color="#FFB507"/>
<stop offset="0.985" stop-color="#995900"/>
</linearGradient>
</defs>
</svg>
