<svg width="27" height="28" viewBox="0 0 27 28" fill="none" xmlns="http://www.w3.org/2000/svg">
<path d="M14.5739 1.69367C14.3461 1.89617 12.5742 5.4125 12.5742 5.4125L11.2559 10.7302L16.3859 10.2598C16.3859 10.2598 20.6531 2.32437 20.7396 2.14086C20.8936 1.80758 20.9759 1.67047 20.3873 1.67047C19.7988 1.66836 14.787 1.50383 14.5739 1.69367Z" fill="#176CC7"/>
<path d="M17.2296 9.93084C16.9744 9.79373 9.45659 9.67561 9.2794 9.93084C9.11909 10.1629 9.20979 11.38 9.27096 11.5255C9.38065 11.7787 11.8085 12.8819 11.8085 12.8819L11.7621 13.3839C11.7621 13.3839 11.9604 13.4345 13.3716 13.4345C14.7828 13.4345 15.0612 13.3628 15.0612 13.3628L15.0654 12.9093C15.0654 12.9093 17.2507 11.8462 17.3604 11.6985C17.4532 11.5762 17.4849 10.068 17.2296 9.93084ZM14.9916 11.8546C14.9916 11.8546 15.0612 11.5445 14.9156 11.4728C14.7701 11.399 12.2726 11.4327 12.0743 11.4433C11.876 11.4538 11.876 11.8082 11.876 11.8082L10.2729 10.8526V10.6965L16.2424 10.7387L16.253 10.9159L14.9916 11.8546Z" fill="#CECDD2"/>
<path d="M12.4997 11.593C12.3014 11.593 12.1875 11.7997 12.1875 12.1562C12.1875 12.4895 12.3014 12.77 12.5524 12.749C12.7591 12.7321 12.8309 12.4157 12.8119 12.1351C12.7929 11.8018 12.7507 11.593 12.4997 11.593Z" fill="#FDFFFF"/>
<path d="M6.11133 20.1824C6.11133 25.2364 10.7625 27.3816 13.8021 27.2909C17.3438 27.1855 21.0816 24.4981 20.839 19.6761C20.6091 15.1072 16.7341 13.0759 13.4055 13.0991C9.53695 13.1286 6.11133 15.7674 6.11133 20.1824Z" fill="#CECDD2"/>
<path d="M13.6119 26.3501C13.5591 26.3501 13.5043 26.3501 13.4516 26.348C11.8695 26.2953 10.3065 25.6287 9.1632 24.5213C7.93977 23.3358 7.26898 21.7327 7.27742 20.0094C7.29641 15.8011 10.9752 13.85 13.4705 13.85H13.4916C16.873 13.8647 19.6489 16.493 19.7269 20.0558C19.7607 21.642 19.111 23.3063 17.837 24.5593C16.6473 25.7258 15.0695 26.3501 13.6119 26.3501ZM13.4663 14.5503C11.2283 14.5503 7.91867 16.3812 7.91023 20.0094C7.90391 22.722 10.0048 25.5106 13.5043 25.6287C14.8374 25.6709 16.2106 25.1604 17.3202 24.0699C18.4719 22.9372 19.1195 21.4775 19.0962 20.0642C19.0414 16.9993 16.5355 14.5608 13.4937 14.5461C13.4895 14.5461 13.4727 14.5503 13.4663 14.5503Z" fill="#9B9B9D"/>
<path d="M12.2541 13.7657C12.1085 13.5653 10.6172 13.6223 9.01198 15.0039C7.41729 16.3771 7.17893 17.8959 7.46581 17.976C7.79276 18.0667 8.19143 16.5986 9.56885 15.3646C10.8345 14.2361 12.5431 14.1644 12.2541 13.7657ZM18.5379 19.3028C18.0296 19.3745 18.5569 20.8975 17.3778 22.6019C16.3547 24.0805 15.1946 24.6163 15.3296 24.9412C15.511 25.3757 17.3693 24.2936 18.2299 22.5301C19.0083 20.9355 18.9155 19.2501 18.5379 19.3028Z" fill="#FEFFFA"/>
<path d="M5.38147 1.58403C5.24858 1.70637 10.3301 10.7556 10.3301 10.7556C10.3301 10.7556 11.1822 10.8653 13.0849 10.8822C14.9876 10.899 15.9304 10.7725 15.9304 10.7725C15.9304 10.7725 11.9796 1.67473 11.7433 1.58403C11.6273 1.53762 10.0622 1.52075 8.53287 1.50387C7.00147 1.48489 5.50803 1.46591 5.38147 1.58403Z" fill="#2E9DF4"/>
<path d="M11.9926 19.0137C12.212 19.0158 12.4082 18.7184 12.5896 18.537C12.9756 18.1489 13.3806 17.8409 13.8425 18.2586C14.9774 19.2901 12.6993 20.3363 11.8344 21.7665C11.189 22.8338 11.0582 23.6544 11.2375 23.8737C11.4168 24.0931 15.7811 24.0826 15.8401 23.9729C15.8992 23.8632 15.9604 22.4014 15.8591 22.3318C15.7579 22.2622 13.6126 22.3023 13.6126 22.3023C13.6126 22.3023 13.7919 21.8846 14.5281 21.2476C15.336 20.5494 15.9836 19.5896 15.8106 18.4548C15.452 16.1091 13.0895 16.0226 12.0665 16.839C11.0687 17.6342 11.2839 19.0053 11.9926 19.0137Z" fill="#9B9B9D"/>
</svg>
