<svg width="21" height="25" viewBox="0 0 21 25" fill="none" xmlns="http://www.w3.org/2000/svg">
<path d="M20.5435 8.58306e-06H0.456521C0.204294 8.58306e-06 0 0.199786 0 0.446437V24.5536C0 24.6719 0.0479341 24.7857 0.133532 24.8694C0.21913 24.9531 0.335544 25 0.45653 25H20.5435C20.6644 25 20.7809 24.9531 20.8665 24.8694C20.9521 24.7857 21 24.6719 21 24.5536V0.446437C21 0.328134 20.9521 0.214294 20.8665 0.13058C20.7809 0.0468656 20.6644 8.58306e-06 20.5435 8.58306e-06ZM20.0869 24.1071H0.913043V0.892865H20.0869V24.1071ZM10.5001 6.69629C11.4235 6.69629 12.2555 6.15278 12.6093 5.31795C12.9619 4.48423 12.7668 3.52444 12.114 2.88604C11.4611 2.24764 10.4796 2.05681 9.62706 2.40166C8.77336 2.74764 8.21756 3.56126 8.21756 4.46418C8.2187 5.69632 9.24014 6.69518 10.5001 6.69629ZM10.5001 3.12486C11.0537 3.12486 11.5536 3.45075 11.7658 3.95186C11.977 4.45186 11.8606 5.02775 11.4691 5.41169C11.0765 5.79449 10.4876 5.90835 9.97627 5.70186C9.46383 5.49427 9.13057 5.00543 9.13057 4.46415C9.13171 3.72532 9.74461 3.12598 10.5001 3.12486ZM6.84797 11.6071H14.1523C14.2733 11.6071 14.3897 11.5603 14.4753 11.4766C14.5609 11.3929 14.6088 11.279 14.6088 11.1607C14.6088 8.94197 12.769 7.14299 10.5003 7.14299C8.23153 7.14299 6.39175 8.94211 6.39175 11.1607C6.39175 11.279 6.43968 11.3928 6.52528 11.4766C6.61088 11.5603 6.72729 11.6071 6.84828 11.6071H6.84797ZM10.5001 8.03572C12.0877 8.03795 13.4344 9.17746 13.6626 10.7143H7.33765C7.56591 9.17746 8.91264 8.03795 10.5001 8.03572ZM2.28275 13.3929C2.28275 13.1462 2.48705 12.9464 2.73927 12.9464H7.30449C7.55672 12.9464 7.76101 13.1462 7.76101 13.3929C7.76101 13.6395 7.55672 13.8393 7.30449 13.8393H2.73927C2.48705 13.8393 2.28275 13.6395 2.28275 13.3929ZM2.28275 15.1786C2.28275 14.9319 2.48705 14.7321 2.73927 14.7321H14.1522C14.4044 14.7321 14.6087 14.9319 14.6087 15.1786C14.6087 15.4252 14.4044 15.625 14.1522 15.625H2.73927C2.48705 15.625 2.28275 15.4252 2.28275 15.1786ZM2.83172 20.4543L2.74041 21.8471C2.73014 22.0067 2.80775 22.1597 2.94471 22.2478C3.08166 22.336 3.25628 22.346 3.40237 22.2735L4.56537 21.6942L5.72836 22.2735C5.87445 22.3438 6.04794 22.3337 6.18602 22.2478C6.3264 22.163 6.40515 22.0078 6.39032 21.8471L6.29901 20.4543L7.18582 19.4967C7.29424 19.3795 7.3319 19.2165 7.28397 19.0659C7.23718 18.9152 7.11278 18.8003 6.95642 18.7634L5.6542 18.4532L4.96826 17.2009V17.1998C4.88038 17.0648 4.72859 16.9822 4.56538 16.9822C4.40218 16.9822 4.25039 17.0648 4.1625 17.1998L3.47657 18.4521L2.17435 18.7623V18.7634C2.01799 18.8003 1.89359 18.9152 1.84679 19.0659C1.79886 19.2165 1.83652 19.3795 1.94495 19.4967L2.83172 20.4543ZM3.89085 19.2735V19.2724C4.01753 19.2422 4.12367 19.1619 4.1853 19.0492L4.56536 18.3561L4.94542 19.0492C5.00705 19.1619 5.11319 19.2422 5.23987 19.2724L5.9954 19.4521L5.49322 19.9933V19.9945C5.4099 20.0837 5.36767 20.202 5.37566 20.3226L5.42816 21.1217L4.77305 20.7958H4.77191C4.6418 20.7311 4.48887 20.7311 4.35875 20.7958L3.70364 21.1217L3.75614 20.3226H3.75499C3.76298 20.202 3.72075 20.0837 3.63744 19.9945L3.13525 19.4532L3.89085 19.2735ZM12.8913 18.7634L11.589 18.4532L10.9031 17.2009V17.1998C10.8152 17.0648 10.6634 16.9822 10.5002 16.9822C10.337 16.9822 10.1852 17.0648 10.0973 17.1998L9.41141 18.4521L8.10919 18.7623V18.7634C7.95283 18.8003 7.82843 18.9152 7.78164 19.0659C7.7337 19.2165 7.77136 19.3795 7.87979 19.4967L8.76659 20.4543L8.67529 21.8471C8.66502 22.0067 8.74263 22.1597 8.87958 22.2478C9.01654 22.336 9.19116 22.346 9.33724 22.2735L10.5002 21.6942L11.6632 22.2735C11.8093 22.3438 11.9828 22.3337 12.1209 22.2478C12.2613 22.163 12.34 22.0078 12.3252 21.8471L12.2339 20.4543L13.1207 19.4967C13.2291 19.3795 13.2668 19.2165 13.2188 19.0659C13.1721 18.9152 13.0476 18.8003 12.8913 18.7634ZM11.4281 19.9945C11.3448 20.0837 11.3026 20.202 11.3106 20.3226L11.3631 21.1217L10.7079 20.7958H10.7068C10.5767 20.7311 10.4238 20.7311 10.2936 20.7958L9.63853 21.1217L9.69103 20.3226H9.68989C9.69788 20.202 9.65565 20.0837 9.57234 19.9945L9.07015 19.4532L9.82568 19.2735V19.2724C9.95236 19.2422 10.0585 19.1619 10.1201 19.0491L10.5002 18.3561L10.8803 19.0491C10.9419 19.1619 11.048 19.2422 11.1747 19.2724L11.9302 19.452L11.4281 19.9945ZM13.7164 19.0659C13.6685 19.2165 13.7061 19.3795 13.8146 19.4967L14.7014 20.4543L14.6101 21.8471C14.5998 22.0067 14.6774 22.1597 14.8144 22.2478C14.9513 22.336 15.1259 22.346 15.272 22.2735L16.435 21.6942L17.598 22.2735C17.7441 22.3438 17.9176 22.3337 18.0557 22.2478C18.1961 22.163 18.2748 22.0078 18.26 21.8471L18.1687 20.4543L19.0555 19.4967C19.1639 19.3795 19.2016 19.2165 19.1536 19.0659C19.1068 18.9152 18.9824 18.8003 18.8261 18.7634L17.5239 18.4532L16.8379 17.2009V17.1998C16.75 17.0648 16.5982 16.9822 16.435 16.9822C16.2718 16.9822 16.12 17.0648 16.0322 17.1998L15.3462 18.4521L14.044 18.7623V18.7634C13.8876 18.8003 13.7632 18.9152 13.7164 19.0659ZM15.7616 19.2724H15.7605C15.8872 19.2422 15.9933 19.1619 16.0549 19.0491L16.435 18.3561L16.8151 19.0491C16.8767 19.1619 16.9828 19.2422 17.1095 19.2724L17.865 19.452L17.3629 19.9933V19.9944C17.2795 20.0837 17.2373 20.202 17.2453 20.3226L17.2978 21.1217L16.6427 20.7958H16.6416C16.5114 20.7311 16.3585 20.7311 16.2284 20.7958L15.5733 21.1217L15.6258 20.3226H15.6246C15.6326 20.202 15.5904 20.0837 15.5071 19.9944L15.0049 19.4532L15.7616 19.2724Z" fill="#26576C"/>
</svg>
