<svg width="27" height="26" viewBox="0 0 27 26" fill="none" xmlns="http://www.w3.org/2000/svg">
<path d="M18.6131 1.10087C18.4224 0.653467 18.0711 0.30835 17.6239 0.128801C17.1771 -0.0507473 16.6895 -0.0422849 16.2513 0.152349C15.4917 0.490106 15.0834 1.30323 15.2002 2.10273C14.2172 4.24002 11.8194 8.10179 6.59722 10.6968L3.00887 12.2921C2.5678 12.4882 2.24096 12.8727 2.08854 13.3742C2.04638 13.5136 2.02331 13.6575 2.01106 13.8032L0.989472 14.2572C0.183372 14.6156 -0.209769 15.5225 0.112743 16.279L1.03127 18.4328C1.26478 18.9799 1.80963 19.3008 2.39844 19.3008C2.62365 19.3008 2.855 19.2537 3.07805 19.1547L4.09964 18.7003C4.21243 18.7901 4.33135 18.8714 4.45999 18.9347C4.71008 19.0576 4.97025 19.1194 5.22609 19.1194C5.44447 19.1194 5.65995 19.0745 5.86319 18.984L6.96226 18.4954C8.91427 20.8553 10.6385 23.3145 12.0853 25.8102C12.1556 25.9312 12.2814 26 12.4118 26C12.4626 26 12.5138 25.9897 12.5632 25.9676L15.4088 24.7023C15.5058 24.6593 15.5807 24.5765 15.6157 24.4746C15.6506 24.3727 15.642 24.2601 15.5923 24.1648C14.1945 21.4907 12.5343 19.1028 10.5348 16.8758C14.273 15.2286 18.0297 15.0508 21.2339 16.3908C21.556 16.9843 22.1636 17.3368 22.8014 17.3368C23.0403 17.3368 23.2828 17.2878 23.5152 17.1845C23.9531 16.9898 24.2914 16.6311 24.4669 16.1749C24.6428 15.7183 24.6345 15.2208 24.4439 14.7734L18.6127 1.09976L18.6131 1.10087ZM2.77536 18.4453C2.35267 18.633 1.88242 18.4891 1.72675 18.1241L0.808217 15.9703C0.655429 15.6116 0.877043 15.1524 1.29217 14.9677L2.0961 14.6104C2.12205 14.6991 2.14655 14.7878 2.18331 14.8742L3.44957 17.8434C3.48633 17.9295 3.53318 18.0086 3.5793 18.0881L2.77536 18.4453ZM5.56014 18.2746C5.32447 18.3795 5.0506 18.3662 4.78899 18.2375C4.50828 18.0995 4.27946 17.8497 4.14469 17.534L2.87842 14.5648C2.74365 14.2491 2.72059 13.9081 2.81284 13.6041C2.89896 13.3208 3.07589 13.1074 3.31156 13.0026L6.56227 11.5574L8.81049 16.8294L6.91937 17.6701L5.56014 18.2746ZM12.5664 25.1225C11.1708 22.753 9.53263 20.4185 7.6898 18.1727L9.46164 17.385L9.82307 17.2242C11.7563 19.3497 13.3649 21.625 14.7278 24.1615L12.5668 25.1221L12.5664 25.1225ZM9.50128 16.5078L7.24909 11.2266C9.25624 10.1865 11.0436 8.85972 12.5606 7.27212C13.7671 6.00939 14.7894 4.5833 15.5548 3.10828L20.7968 15.4C17.3518 14.2138 13.3905 14.5994 9.50128 16.5078ZM23.2126 16.4755C22.689 16.7084 22.0775 16.4626 21.8493 15.928L16.0182 2.25432C15.7901 1.71972 16.0308 1.09535 16.5544 0.862449C17.078 0.629551 17.6895 0.875326 17.9176 1.40993L23.7488 15.0836C23.9769 15.6182 23.7361 16.2426 23.2126 16.4755ZM6.33633 13.8562L5.99796 13.0633C5.93814 12.9231 5.77851 12.8591 5.64122 12.9202L4.05676 13.6244C3.91947 13.6855 3.85677 13.8485 3.91659 13.9886L4.25459 14.7815C4.28342 14.8488 4.33711 14.9015 4.40378 14.9283C4.43585 14.9412 4.46936 14.9475 4.50287 14.9475C4.53963 14.9475 4.57675 14.9397 4.61098 14.9246L6.19543 14.2204C6.26138 14.191 6.31291 14.1362 6.33921 14.0681C6.36552 14 6.36408 13.9239 6.33561 13.8565L6.33633 13.8562ZM4.64377 14.3069L4.52197 14.021L5.60951 13.5376L5.7313 13.8234L4.64377 14.3069ZM22.578 7.17498L25.1202 6.04471C25.3123 5.95935 25.5357 6.04912 25.6193 6.24523C25.7029 6.44134 25.615 6.66945 25.4229 6.75481L22.8807 7.88508C22.8313 7.90716 22.7801 7.91746 22.7293 7.91746C22.583 7.91746 22.4436 7.83026 22.3812 7.68456C22.2976 7.48846 22.3859 7.26034 22.578 7.17498ZM20.7802 3.50454L22.1502 1.28925C22.2619 1.10822 22.4962 1.05451 22.6735 1.16856C22.8508 1.28262 22.9034 1.52214 22.7917 1.7028L21.4216 3.91809C21.3495 4.03472 21.2263 4.09874 21.1005 4.09874C21.0314 4.09874 20.9615 4.07924 20.8984 4.03877C20.7211 3.92471 20.6685 3.68519 20.7802 3.50454ZM26.9933 11.8561C26.9591 12.0419 26.7998 12.1718 26.6211 12.1718C26.5977 12.1718 26.5742 12.1696 26.5505 12.1652L24.2878 11.7299C24.0821 11.6902 23.9466 11.4878 23.9855 11.2777C24.0244 11.0677 24.2226 10.9293 24.4284 10.9691L26.691 11.4043C26.8968 11.444 27.0323 11.646 26.9933 11.8561Z" fill="#25566B"/>
</svg>
