<svg width="23" height="26" viewBox="0 0 23 26" fill="none" xmlns="http://www.w3.org/2000/svg">
<path fill-rule="evenodd" clip-rule="evenodd" d="M19.3871 25.285H0.276333C0.124181 25.285 0 25.1619 0 25.0087V0.276333C0 0.124181 0.124181 0 0.276333 0H19.3871C19.5393 0 19.6635 0.124181 19.6635 0.276333V15.769C19.6635 15.9223 19.5393 16.0454 19.3871 16.0454C19.235 16.0454 19.1108 15.9223 19.1108 15.769V0.552712H0.551612V24.7326H19.1108V20.2486C19.1108 20.0954 19.2339 19.9723 19.3871 19.9723C19.5393 19.9723 19.6635 20.0954 19.6635 20.2486V25.0078C19.6635 25.16 19.5393 25.2841 19.3871 25.2841V25.285Z" fill="#25566B"/>
<path fill-rule="evenodd" clip-rule="evenodd" d="M12.5588 12.3978C12.4067 12.3978 12.2825 12.2748 12.2825 12.1215V10.4568C12.2825 9.53829 11.5341 8.78984 10.6156 8.78984H9.0437C8.1252 8.78984 7.37674 9.53718 7.37674 10.4568V12.1215C7.37674 12.2737 7.25256 12.3978 7.10041 12.3978C6.94826 12.3978 6.8252 12.2737 6.8252 12.1215V10.4568C6.8252 9.23399 7.81979 8.23828 9.0437 8.23828H10.6156C11.8395 8.23828 12.8341 9.23399 12.8341 10.4568V12.1215C12.8341 12.2737 12.7099 12.3978 12.5577 12.3978H12.5588Z" fill="#25566B"/>
<path fill-rule="evenodd" clip-rule="evenodd" d="M9.8316 5.41688C9.05407 5.41688 8.42084 6.05008 8.42084 6.82764C8.42084 7.60517 9.05404 8.2384 9.8316 8.2384C10.6091 8.2384 11.2424 7.60631 11.2424 6.82764C11.2424 6.05011 10.6092 5.41688 9.8316 5.41688ZM9.8316 8.79099C8.74865 8.79099 7.86816 7.91053 7.86816 6.82867C7.86816 5.74684 8.74862 4.86523 9.8316 4.86523C10.9134 4.86523 11.7939 5.74569 11.7939 6.82867C11.7939 7.9105 10.9135 8.79099 9.8316 8.79099Z" fill="#25566B"/>
<path fill-rule="evenodd" clip-rule="evenodd" d="M5.56436 3.95783C3.21162 6.31057 3.21162 10.1378 5.56436 12.4906C7.9171 14.8434 11.7444 14.8434 14.0972 12.4906C15.2372 11.3506 15.8637 9.83582 15.8637 8.2238C15.8637 6.61278 15.2361 5.09685 14.0972 3.95783C11.7444 1.60509 7.91716 1.60509 5.56436 3.95783ZM9.83119 14.8065C8.14411 14.8065 6.45822 14.1643 5.17371 12.8811C2.60616 10.3135 2.60616 6.13486 5.17371 3.56726C7.74125 0.999715 11.9199 0.999715 14.4875 3.56726C15.7316 4.81134 16.4163 6.4648 16.4163 8.2236C16.4163 9.98229 15.7316 11.637 14.4875 12.8811C13.2032 14.1643 11.5172 14.8065 9.83119 14.8065Z" fill="#25566B"/>
<path fill-rule="evenodd" clip-rule="evenodd" d="M6.66317 5.05664C4.91566 6.80416 4.91566 9.64568 6.66317 11.3933C8.40957 13.1397 11.2522 13.1397 12.9998 11.3933C14.7474 9.64691 14.7462 6.80427 12.9998 5.05664C11.2534 3.30913 8.41081 3.31024 6.66317 5.05664ZM9.83137 13.2549C8.54255 13.2549 7.25374 12.7649 6.27252 11.7838C4.3102 9.82144 4.3102 6.62851 6.27252 4.66608C8.23484 2.70376 11.4278 2.70376 13.3902 4.66608C15.3525 6.62839 15.3525 9.82133 13.3902 11.7838C12.409 12.7649 11.1202 13.2549 9.83251 13.2549H9.83137Z" fill="#25566B"/>
<path fill-rule="evenodd" clip-rule="evenodd" d="M14.3695 15.2471C14.299 15.2471 14.2285 15.2203 14.1748 15.1666L12.8558 13.8476C12.7473 13.739 12.7473 13.5645 12.8558 13.4571C12.9632 13.3486 13.1377 13.3486 13.2451 13.4571L14.3695 14.5804L16.1886 12.7624L15.0643 11.638C14.9557 11.5306 14.9557 11.3561 15.0643 11.2475C15.1717 11.1401 15.3462 11.1401 15.4547 11.2475L16.7737 12.5677C16.8811 12.6751 16.8811 12.8496 16.7737 12.9581L14.5653 15.1677C14.5116 15.2214 14.44 15.2482 14.3695 15.2482L14.3695 15.2471Z" fill="#25566B"/>
<path fill-rule="evenodd" clip-rule="evenodd" d="M15.1382 14.5944L19.7498 20.2574C20.2443 20.8649 20.7869 20.8895 21.1561 20.8045C21.7468 20.668 22.2749 20.14 22.4114 19.5493C22.4975 19.1801 22.4718 18.6375 21.8643 18.143L16.2012 13.5313L15.1382 14.5944ZM20.8573 21.3907C20.2823 21.3907 19.7386 21.1166 19.3224 20.6053L14.5544 14.7498C14.4649 14.6402 14.4727 14.4802 14.5734 14.3806L15.9886 12.9654C16.0882 12.8658 16.2482 12.8569 16.3589 12.9475L22.2144 17.7155C22.851 18.2335 23.1195 18.9473 22.9506 19.6745C22.766 20.4722 22.0791 21.158 21.2814 21.3437C21.1393 21.3761 20.9972 21.3929 20.8574 21.3929L20.8573 21.3907Z" fill="#25566B"/>
<path fill-rule="evenodd" clip-rule="evenodd" d="M5.27589 17.7086H14.3849V16.3974H5.27589V17.7086ZM14.6613 18.2601H5.00094C4.84879 18.2601 4.72461 18.1371 4.72461 17.9838V16.1211C4.72461 15.9689 4.84767 15.8447 5.00094 15.8447H14.6613C14.8135 15.8447 14.9376 15.9689 14.9376 16.1211V17.9838C14.9376 18.1359 14.8135 18.2601 14.6613 18.2601Z" fill="#25566B"/>
<path fill-rule="evenodd" clip-rule="evenodd" d="M16.8538 20.1279H2.80661C2.65445 20.1279 2.53027 20.0048 2.53027 19.8515C2.53027 19.6994 2.65445 19.5752 2.80661 19.5752H16.8538C17.006 19.5752 17.1302 19.6994 17.1302 19.8515C17.1302 20.0037 17.006 20.1279 16.8538 20.1279Z" fill="#25566B"/>
<path fill-rule="evenodd" clip-rule="evenodd" d="M15.3704 21.8876H4.29C4.13673 21.8876 4.01367 21.7646 4.01367 21.6113C4.01367 21.4591 4.13674 21.335 4.29 21.335H15.3704C15.5236 21.335 15.6467 21.4591 15.6467 21.6113C15.6467 21.7634 15.5236 21.8876 15.3704 21.8876Z" fill="#25566B"/>
<path fill-rule="evenodd" clip-rule="evenodd" d="M14.2009 23.6474H5.45993C5.30778 23.6474 5.18359 23.5243 5.18359 23.3711C5.18359 23.2189 5.30778 23.0947 5.45993 23.0947H14.2009C14.3531 23.0947 14.4773 23.2189 14.4773 23.3711C14.4773 23.5232 14.3531 23.6474 14.2009 23.6474Z" fill="#25566B"/>
</svg>
