<svg width="26" height="26" viewBox="0 0 26 26" fill="none" xmlns="http://www.w3.org/2000/svg">
<path d="M13 0C12.669 0 12.4183 0.129196 12.1377 0.28366C11.857 0.438133 11.561 0.636895 11.2744 0.833459C10.9879 1.03003 10.709 1.2244 10.4699 1.37801C10.2307 1.53158 10.0145 1.64131 9.96034 1.65553C9.90617 1.67044 9.66471 1.68696 9.38077 1.67392C9.09683 1.65901 8.75456 1.6256 8.40811 1.59863C8.06165 1.57194 7.71543 1.55095 7.39518 1.55748C7.07493 1.56341 6.78974 1.57853 6.50306 1.74308C6.2164 1.90852 6.06138 2.1467 5.89548 2.4207C5.72957 2.69465 5.57613 3.0107 5.42622 3.3242C5.27633 3.63769 5.12845 3.95143 4.99811 4.20405C4.86778 4.45665 4.7366 4.65644 4.69695 4.69607C4.65731 4.7358 4.45667 4.86691 4.20406 4.99724C3.95142 5.12769 3.6377 5.27014 3.3242 5.42009C3.01069 5.57011 2.69472 5.7287 2.4207 5.89461C2.1467 6.06035 1.90859 6.21027 1.74308 6.49694C1.57755 6.78363 1.56503 7.0688 1.55835 7.38905C1.55183 7.7093 1.57768 8.06167 1.60476 8.40811C1.63173 8.75457 1.66046 9.09683 1.67392 9.38077C1.68725 9.66479 1.67104 9.90529 1.65641 9.95946C1.64187 10.0137 1.53774 10.2307 1.38413 10.4699C1.23053 10.7091 1.03088 10.9879 0.834333 11.2744C0.637768 11.5611 0.444144 11.8508 0.289786 12.1315C0.135438 12.4123 0 12.669 0 13C0 13.331 0.135411 13.5817 0.289786 13.8623C0.444131 14.1431 0.637782 14.4329 0.834333 14.7194C1.0309 15.0061 1.23052 15.2909 1.38413 15.5301C1.53774 15.7694 1.64188 15.9855 1.65641 16.0397C1.67094 16.0939 1.68723 16.3292 1.67392 16.6131C1.66057 16.8971 1.6317 17.2393 1.60476 17.5858C1.57778 17.9322 1.55171 18.2846 1.55835 18.6048C1.56487 18.9251 1.57765 19.2103 1.74308 19.4969C1.90858 19.7836 2.14668 19.9395 2.4207 20.1054C2.6947 20.2711 3.01069 20.4239 3.3242 20.5738C3.6377 20.7238 3.95143 20.8662 4.20406 20.9966C4.45668 21.1271 4.6573 21.2642 4.69695 21.3039C4.73659 21.3437 4.86777 21.5433 4.99811 21.7959C5.12845 22.0485 5.27632 22.3571 5.42622 22.6706C5.57612 22.984 5.72959 23.2991 5.89548 23.5732C6.06139 23.8471 6.2164 24.0914 6.50306 24.2569C6.78973 24.4224 7.07493 24.4357 7.39518 24.4425C7.71543 24.4485 8.06165 24.4216 8.40811 24.3961C8.75456 24.3694 9.09682 24.3394 9.38077 24.3261C9.66471 24.3112 9.90618 24.3295 9.96034 24.3445C10.0145 24.3592 10.2307 24.4632 10.4699 24.6167C10.709 24.7703 10.9879 24.97 11.2744 25.1665C11.561 25.3631 11.857 25.5567 12.1377 25.7111C12.4183 25.8656 12.669 26.0009 13 26.0009C13.331 26.0009 13.5825 25.8656 13.8632 25.7111C14.1439 25.5566 14.439 25.3631 14.7256 25.1665C15.0121 24.97 15.2918 24.7703 15.531 24.6167C15.7702 24.4632 15.9864 24.359 16.0405 24.3445C16.0947 24.3296 16.3353 24.313 16.6192 24.3261C16.9032 24.341 17.2454 24.3694 17.5919 24.3961C17.9384 24.4228 18.2854 24.4493 18.6057 24.4425C18.926 24.4366 19.2103 24.4215 19.4969 24.2569C19.7836 24.0915 19.9395 23.8472 20.1054 23.5732C20.2713 23.2992 20.4248 22.984 20.5747 22.6706C20.7246 22.3571 20.8724 22.0486 21.0028 21.7959C21.1331 21.5434 21.2643 21.3436 21.3039 21.3039C21.3436 21.2642 21.5433 21.1268 21.7959 20.9966C22.0486 20.8662 22.3632 20.7237 22.6767 20.5738C22.9902 20.4238 23.3 20.2713 23.574 20.1054C23.8481 19.9394 24.0914 19.7836 24.2569 19.4969C24.4224 19.2102 24.4359 18.9251 24.4425 18.6048C24.449 18.2846 24.4232 17.9322 24.3961 17.5858C24.3692 17.2393 24.3404 16.897 24.327 16.6131C24.3136 16.3291 24.3298 16.0938 24.3445 16.0397C24.359 15.9854 24.4623 15.7693 24.6159 15.5301C24.7695 15.2909 24.97 15.006 25.1665 14.7194C25.3631 14.4328 25.5567 14.143 25.7111 13.8623C25.8654 13.5816 26 13.331 26 13C26 12.669 25.8655 12.4122 25.7111 12.1315C25.5567 11.8508 25.3631 11.561 25.1665 11.2744C24.97 10.9877 24.7695 10.709 24.6159 10.4699C24.4623 10.2306 24.359 10.0136 24.3445 9.95946C24.3299 9.9052 24.3137 9.66482 24.327 9.38077C24.3403 9.09674 24.3692 8.75457 24.3961 8.40811C24.4231 8.06167 24.4492 7.7093 24.4425 7.38905C24.4361 7.0688 24.4224 6.78363 24.2569 6.49694C24.0914 6.21024 23.8481 6.06049 23.574 5.89461C23.3 5.72858 22.9902 5.56999 22.6767 5.42009C22.3632 5.27008 22.0486 5.12763 21.7959 4.99724C21.5433 4.86679 21.3436 4.73568 21.3039 4.69607C21.2643 4.65635 21.1331 4.45668 21.0028 4.20405C20.8724 3.95145 20.7246 3.63769 20.5747 3.3242C20.4248 3.0107 20.2713 2.69473 20.1054 2.4207C19.9395 2.14676 19.7836 1.90857 19.4969 1.74308C19.2103 1.57765 18.926 1.564 18.6057 1.55748C18.2854 1.55155 17.9384 1.57289 17.5919 1.59863C17.2454 1.62531 16.9032 1.66058 16.6192 1.67392C16.3353 1.68882 16.0947 1.67053 16.0405 1.65553C15.9864 1.64062 15.7702 1.53159 15.531 1.37801C15.2918 1.22443 15.0121 1.02999 14.7256 0.833459C14.439 0.636895 14.1439 0.438004 13.8632 0.28366C13.5825 0.129195 13.331 0 13 0ZM13 0.897371C13.0041 0.897371 13.2051 0.945587 13.4342 1.07159C13.6634 1.1976 13.9365 1.37713 14.216 1.56886C14.4956 1.76068 14.7793 1.9669 15.0442 2.13705C15.3092 2.30723 15.5389 2.44651 15.8085 2.51876C16.0782 2.5911 16.345 2.57999 16.6595 2.56516C16.974 2.55026 17.3239 2.5221 17.6619 2.49601C17.9999 2.46933 18.3267 2.44952 18.5882 2.45486C18.8497 2.46079 19.0477 2.51669 19.0513 2.51876C19.0549 2.52079 19.1995 2.66017 19.335 2.88383C19.4704 3.10768 19.623 3.40619 19.7692 3.71204C19.9155 4.01788 20.0591 4.33481 20.2035 4.61466C20.3478 4.89453 20.4753 5.12993 20.6727 5.3273C20.8701 5.52475 21.1055 5.6522 21.3853 5.79656C21.6652 5.94093 21.9821 6.08466 22.288 6.2308C22.5938 6.37695 22.8872 6.52362 23.1109 6.6589C23.3346 6.7944 23.4791 6.94483 23.4812 6.94869C23.4833 6.95157 23.5397 7.15047 23.5452 7.41181C23.5504 7.67331 23.5302 8.00094 23.504 8.33895C23.4776 8.67694 23.4436 9.02597 23.4287 9.3405C23.414 9.655 23.403 9.92182 23.4751 10.1915C23.5474 10.461 23.6937 10.6855 23.8638 10.9505C24.034 11.2156 24.2333 11.5044 24.425 11.784C24.6168 12.0635 24.8033 12.3366 24.9293 12.5658C25.0553 12.7949 25.1026 12.9958 25.1026 13C25.1026 13.0029 25.0553 13.1988 24.9293 13.4281C24.8033 13.6573 24.6168 13.9365 24.425 14.216C24.2332 14.4956 24.034 14.7793 23.8638 15.0442C23.6937 15.3093 23.5474 15.5389 23.4751 15.8085C23.4029 16.078 23.4138 16.345 23.4287 16.6595C23.4435 16.974 23.4777 17.3178 23.504 17.6558C23.5304 17.9938 23.5506 18.3267 23.5452 18.5882C23.5397 18.8497 23.4833 19.0477 23.4812 19.0513C23.4792 19.0542 23.3346 19.1995 23.1109 19.335C22.8872 19.4705 22.5938 19.6168 22.288 19.7631C21.9821 19.9093 21.6652 20.059 21.3853 20.2035C21.1055 20.3478 20.8701 20.4693 20.6727 20.6666C20.4753 20.864 20.3478 21.1046 20.2035 21.3845C20.0591 21.6643 19.9154 21.9821 19.7692 22.288C19.623 22.5938 19.4704 22.8863 19.335 23.11C19.1995 23.3339 19.0549 23.4791 19.0513 23.4812C19.0478 23.4833 18.8497 23.5386 18.5882 23.5443C18.3267 23.5502 17.9999 23.5299 17.6619 23.504C17.3239 23.4773 16.974 23.4436 16.6595 23.4287C16.345 23.4138 16.0782 23.4022 15.8085 23.4751C15.5389 23.5475 15.3092 23.6929 15.0442 23.863C14.7793 24.0331 14.4956 24.2333 14.216 24.425C13.9365 24.6168 13.6634 24.7963 13.4342 24.9223C13.2051 25.0483 13.0042 25.1018 13 25.1018C12.9958 25.1018 12.7949 25.0483 12.5658 24.9223C12.3366 24.7963 12.0635 24.6167 11.784 24.425C11.5044 24.2332 11.2216 24.0331 10.9566 23.863C10.6917 23.6928 10.4611 23.5473 10.1915 23.4751C9.92185 23.4028 9.65502 23.4139 9.34049 23.4287C9.02597 23.4436 8.67694 23.4776 8.33895 23.504C8.00096 23.5307 7.67416 23.5496 7.41269 23.5443C7.15123 23.5383 6.95319 23.4833 6.94956 23.4812C6.946 23.4792 6.79524 23.3339 6.65977 23.11C6.52435 22.8862 6.37702 22.5938 6.23079 22.288C6.08454 21.9821 5.94092 21.6643 5.79655 21.3845C5.65217 21.1046 5.52555 20.864 5.32817 20.6666C5.13078 20.4691 4.89536 20.3478 4.61553 20.2035C4.33569 20.0591 4.01789 19.9094 3.71203 19.7631C3.40619 19.6169 3.11368 19.4706 2.88996 19.335C2.66624 19.1995 2.52173 19.0549 2.51963 19.0513C2.51753 19.0483 2.46115 18.8495 2.45572 18.5882C2.45039 18.3267 2.4697 17.9938 2.49599 17.6558C2.52238 17.3178 2.5564 16.974 2.57129 16.6595C2.58611 16.345 2.59702 16.0782 2.52488 15.8085C2.45263 15.5387 2.3072 15.3092 2.13705 15.0442C1.9669 14.7792 1.76762 14.4956 1.57587 14.216C1.3841 13.9365 1.19761 13.6573 1.07159 13.4281C0.945556 13.1989 0.898243 13.0042 0.898243 13C0.898243 12.997 0.945583 12.7949 1.07159 12.5658C1.19762 12.3366 1.38411 12.0635 1.57587 11.784C1.76762 11.5044 1.96689 11.2154 2.13705 10.9505C2.3072 10.6855 2.45263 10.4611 2.52488 10.1915C2.59713 9.92196 2.58617 9.655 2.57129 9.3405C2.55646 9.02597 2.52226 8.67694 2.49599 8.33895C2.46961 8.00094 2.45027 7.67328 2.45572 7.41181C2.46106 7.15032 2.51756 6.95231 2.51963 6.94869C2.52173 6.94564 2.66624 6.79438 2.88996 6.6589C3.11368 6.52342 3.40619 6.37704 3.71203 6.2308C4.01789 6.08462 4.3357 5.94091 4.61553 5.79656C4.89534 5.65216 5.13079 5.52475 5.32817 5.3273C5.52557 5.12985 5.65219 4.89447 5.79655 4.61466C5.94094 4.33478 6.08455 4.01788 6.23079 3.71204C6.37704 3.40619 6.52434 3.10755 6.65977 2.88383C6.79521 2.65999 6.94591 2.52084 6.94956 2.51876C6.95312 2.51673 7.15123 2.46018 7.41269 2.45486C7.67415 2.44893 8.00096 2.47027 8.33895 2.49601C8.67694 2.52269 9.02597 2.55034 9.34049 2.56516C9.65502 2.58007 9.92183 2.59169 10.1915 2.51876C10.4611 2.44642 10.6917 2.30726 10.9566 2.13705C11.2216 1.96687 11.5044 1.76063 11.784 1.56886C12.0635 1.37704 12.3366 1.19762 12.5658 1.07159C12.7949 0.945596 12.9958 0.897371 13 0.897371ZM13 4.44657C8.2816 4.44657 4.44569 8.28161 4.44569 13C4.44569 17.7184 8.2816 21.5499 13 21.5499C17.7184 21.5499 21.5534 17.7184 21.5534 13C21.5534 8.28161 17.7184 4.44657 13 4.44657ZM13 5.34306C14.9551 5.34306 16.7362 6.0735 18.0883 7.27612L15.5441 9.82026V9.05247H15.0976H13.612V7.79527V7.34528H12.7155V7.79527V9.05247H12.255C11.0203 9.05247 9.99535 10.0315 9.99535 11.249C9.99535 12.3612 10.8507 13.2748 11.9398 13.4246L7.27611 18.0883C6.07314 16.7369 5.34305 14.9555 5.34305 13C5.34305 8.7661 8.7661 5.34306 13 5.34306ZM18.7221 7.90909C19.9256 9.26134 20.6561 11.0441 20.6561 13C20.6561 17.2339 17.2339 20.6535 13 20.6535C11.0446 20.6535 9.26208 19.9243 7.90996 18.7221L10.455 16.1771V16.944H10.905H12.7155V18.2012V18.6512H13.612V18.2012V16.944H13.7477C14.9823 16.944 16.0038 15.9641 16.0038 14.7466C16.0038 13.6337 15.1499 12.7199 14.0602 12.571L18.7221 7.90909ZM12.255 9.94896H15.0976H15.4155L12.8144 12.55H12.255C11.4854 12.55 10.8918 11.9688 10.8918 11.249C10.8918 10.5293 11.4854 9.94896 12.255 9.94896ZM13.1856 13.4465H13.45H13.7477C14.5172 13.4465 15.1073 14.0269 15.1073 14.7466C15.1073 15.4663 14.5172 16.0476 13.7477 16.0476H10.905H10.5845L13.1856 13.4465Z" fill="#25566B"/>
</svg>
