<svg width="32" height="32" viewBox="0 0 32 32" fill="none" xmlns="http://www.w3.org/2000/svg">
<rect x="0.5" y="0.5" width="31" height="31" rx="4.5" fill="white" stroke="url(#paint0_linear_14903_843)"/>
<path fill-rule="evenodd" clip-rule="evenodd" d="M9.7 8H23.3C24.235 8 25 8.765 25 9.7V23.3C25 24.235 24.235 25 23.3 25H9.7C8.765 25 8 24.235 8 23.3V9.7C8 8.765 8.765 8 9.7 8ZM19.9016 16.4996C19.9016 14.6296 18.3716 13.0996 16.5016 13.0996C14.6316 13.0996 13.1016 14.6296 13.1016 16.4996C13.1016 18.3696 14.6316 19.8996 16.5016 19.8996C18.3716 19.8996 19.9016 18.3696 19.9016 16.4996ZM10.1252 23.3004C9.8702 23.3004 9.7002 23.1304 9.7002 22.8754V15.6504H11.4852C11.4002 15.9054 11.4002 16.2454 11.4002 16.5004C11.4002 19.3054 13.6952 21.6004 16.5002 21.6004C19.3052 21.6004 21.6002 19.3054 21.6002 16.5004C21.6002 16.2454 21.6002 15.9054 21.5152 15.6504H23.3002V22.8754C23.3002 23.1304 23.1302 23.3004 22.8752 23.3004H10.1252ZM22.875 12.25C23.13 12.25 23.3 12.08 23.3 11.825V10.125C23.3 9.87 23.13 9.7 22.875 9.7H21.175C20.92 9.7 20.75 9.87 20.75 10.125V11.825C20.75 12.08 20.92 12.25 21.175 12.25H22.875Z" fill="#F7910F"/>
<defs>
<linearGradient id="paint0_linear_14903_843" x1="0" y1="32" x2="32" y2="32" gradientUnits="userSpaceOnUse">
<stop stop-color="#24536B"/>
<stop offset="0.5" stop-color="#F7910F"/>
<stop offset="1" stop-color="#24536B"/>
</linearGradient>
</defs>
</svg>
