<svg width="32" height="32" viewBox="0 0 32 32" fill="none" xmlns="http://www.w3.org/2000/svg">
<rect x="0.5" y="0.5" width="31" height="31" rx="4.5" fill="white" stroke="url(#paint0_linear_14903_842)"/>
<path d="M26 9.89415C25.2563 10.2154 24.4638 10.4283 23.6375 10.5317C24.4875 10.032 25.1362 9.24677 25.4412 8.30031C24.6488 8.76554 23.7738 9.09415 22.8412 9.27754C22.0887 8.48862 21.0162 8 19.8462 8C17.5763 8 15.7487 9.81415 15.7487 12.0382C15.7487 12.3582 15.7762 12.6658 15.8438 12.9588C12.435 12.7951 9.41875 11.1865 7.3925 8.736C7.03875 9.34031 6.83125 10.032 6.83125 10.7766C6.83125 12.1748 7.5625 13.4142 8.6525 14.1317C7.99375 14.1194 7.3475 13.9311 6.8 13.6345C6.8 13.6468 6.8 13.6628 6.8 13.6788C6.8 15.6406 8.22125 17.2702 10.085 17.6455C9.75125 17.7354 9.3875 17.7785 9.01 17.7785C8.7475 17.7785 8.4825 17.7637 8.23375 17.7095C8.765 19.3083 10.2725 20.4837 12.065 20.5218C10.67 21.5963 8.89875 22.2437 6.98125 22.2437C6.645 22.2437 6.3225 22.2289 6 22.1883C7.81625 23.3415 9.96875 24 12.29 24C19.835 24 23.96 17.8462 23.96 12.512C23.96 12.3335 23.9538 12.1612 23.945 11.9902C24.7587 11.4215 25.4425 10.7114 26 9.89415Z" fill="#F7910F"/>
<defs>
<linearGradient id="paint0_linear_14903_842" x1="0" y1="32" x2="32" y2="32" gradientUnits="userSpaceOnUse">
<stop stop-color="#24536B"/>
<stop offset="0.5" stop-color="#F7910F"/>
<stop offset="1" stop-color="#24536B"/>
</linearGradient>
</defs>
</svg>
