<?xml version="1.0" standalone="no"?>
<!DOCTYPE svg PUBLIC "-//W3C//DTD SVG 20010904//EN"
 "http://www.w3.org/TR/2001/REC-SVG-20010904/DTD/svg10.dtd">
<svg version="1.0" xmlns="http://www.w3.org/2000/svg"
 width="3000.000000pt" height="2000.000000pt" viewBox="0 0 3000.000000 2000.000000"
 preserveAspectRatio="xMidYMid meet">

<g transform="translate(0.000000,2000.000000) scale(0.100000,-0.100000)"
fill="#000000" stroke="none">
<path d="M6781 19800 l1 -200 77 69 c42 38 95 89 119 113 l43 44 -90 87 c-74
71 -96 87 -121 87 l-31 0 2 -200z"/>
<path d="M16159 19015 c-541 -542 -985 -991 -987 -998 -1 -7 403 -417 898
-912 l900 -900 560 560 c308 308 560 554 560 546 0 -14 50 -58 62 -53 5 1 8
-5 8 -13 0 -8 5 -15 10 -15 6 0 15 -11 20 -25 5 -14 13 -25 17 -25 5 0 134
126 288 280 l280 280 -68 68 -67 67 633 633 c349 349 634 627 634 618 0 -8 -4
-13 -9 -10 -4 3 -8 3 -8 0 0 -2 15 -14 33 -25 18 -11 39 -32 47 -46 8 -14 19
-24 26 -21 8 3 11 0 8 -8 -3 -7 1 -16 9 -19 9 -3 114 95 290 271 l276 277 -38
40 c-21 22 -52 53 -70 70 l-31 29 -58 -57 -57 -56 -57 52 c-32 29 -58 57 -58
62 0 6 -29 37 -65 69 -36 33 -65 65 -65 73 0 7 -5 13 -11 13 -7 0 -22 10 -34
23 -12 12 -30 29 -41 38 -10 10 -28 28 -40 40 -11 13 -30 32 -42 42 -21 16
-103 17 -1396 17 l-1373 0 -984 -985z m591 -285 l0 -170 -165 0 -165 0 0 -170
0 -170 -165 0 -165 0 0 -165 0 -165 -170 0 -170 0 0 170 0 170 165 0 165 0 0
165 0 165 170 0 170 0 0 170 0 170 165 0 165 0 0 -170z m1368 -1407 c-1 -5 4
-19 11 -33 l12 -25 -20 25 c-10 13 -17 28 -15 32 7 10 15 10 12 1z"/>
<path d="M23718 19379 c343 -341 630 -619 637 -617 16 4 691 670 688 679 -1 3
8 12 21 19 13 7 29 23 36 36 7 13 16 21 20 19 4 -3 13 2 21 11 11 13 19 8 66
-38 l53 -53 283 283 282 282 -241 0 -241 0 -157 -155 c-86 -85 -160 -155 -164
-155 -4 0 -77 70 -162 155 l-155 155 -805 0 -805 -1 623 -620z"/>
<path d="M25422 19068 l-932 -933 973 -973 c771 -771 969 -974 957 -982 -12
-8 -11 -10 6 -10 11 0 21 -7 21 -15 0 -8 -5 -11 -11 -7 -17 10 -37 11 -31 2 3
-5 -6 -17 -20 -26 -14 -9 -28 -26 -31 -39 -3 -12 -21 -29 -39 -38 -20 -10 -37
-26 -40 -40 -4 -14 -21 -31 -40 -40 -20 -10 -37 -26 -40 -40 -4 -14 -21 -31
-40 -40 -20 -10 -37 -26 -40 -40 -4 -14 -21 -31 -40 -40 -20 -10 -37 -26 -40
-40 -4 -14 -21 -31 -40 -40 -20 -10 -37 -26 -40 -40 -4 -14 -21 -31 -40 -40
-20 -10 -37 -26 -40 -40 -4 -14 -21 -31 -41 -40 -19 -9 -34 -20 -35 -24 0 -5
-2 -16 -4 -25 -4 -20 11 -25 17 -6 3 8 6 7 10 -4 8 -20 -29 -19 -42 2 -5 8
-10 11 -10 6 0 -5 -11 1 -25 14 -13 12 -22 27 -18 33 3 6 2 7 -4 4 -5 -3 -753
738 -1663 1648 -910 910 -1658 1651 -1663 1648 -6 -3 -8 -194 -7 -482 2 -262
2 -561 2 -666 l-2 -190 -148 2 c-81 1 -155 5 -165 9 -11 4 -17 1 -17 -7 0 -12
-2 -12 -9 0 -5 7 -11 9 -13 5 -3 -5 3 -18 14 -29 15 -15 18 -16 13 -3 -4 9 -2
19 4 23 7 4 10 -2 7 -17 -2 -13 -9 -22 -16 -20 -8 2 -10 -3 -6 -13 3 -10 2
-14 -5 -10 -6 4 -8 13 -5 21 3 7 1 16 -3 19 -11 6 -33 -20 -24 -28 3 -4 1 -7
-5 -7 -15 0 -15 13 0 28 6 6 10 14 7 16 -2 3 -706 -697 -1564 -1554 l-1560
-1560 1753 -1753 1753 -1753 -3 -82 -3 -82 -1837 1837 -1837 1838 1495 1499
c821 824 1491 1503 1487 1509 -3 5 -2 7 4 4 6 -4 38 22 72 57 63 67 74 84 42
67 -10 -6 -21 -7 -25 -4 -3 3 -6 1 -6 -4 0 -6 4 -13 8 -15 5 -1 -2 -14 -16
-27 -23 -22 -24 -23 -18 -3 5 15 2 22 -11 25 -10 2 -6 3 9 1 20 -3 26 0 21 11
-4 13 -45 15 -254 15 -159 0 -249 4 -249 10 0 6 -18 10 -40 10 -37 0 -46 -7
-41 -33 1 -5 -3 -6 -9 -2 -6 3 -8 11 -5 16 4 5 1 17 -5 26 -9 15 -10 14 -4 -6
5 -21 4 -23 -12 -16 -45 18 -73 12 -104 -23 -16 -18 -30 -38 -30 -42 0 -5 -5
-12 -12 -16 -7 -5 -8 -2 -3 7 4 8 -516 -508 -1156 -1147 -640 -638 -1400
-1395 -1689 -1682 l-525 -522 1690 -1690 c929 -929 1685 -1690 1678 -1690 -6
0 -14 -8 -17 -18 -4 -10 -22 -26 -41 -35 -20 -10 -37 -26 -40 -40 -4 -14 -21
-31 -40 -40 -20 -10 -37 -26 -40 -40 -4 -14 -21 -31 -40 -40 -21 -10 -37 -26
-41 -41 -3 -14 -15 -28 -26 -31 -27 -9 -75 -58 -70 -73 2 -7 -1 -12 -7 -12 -6
0 -8 -7 -4 -16 5 -15 7 -15 15 0 10 18 28 22 28 5 0 -5 -4 -8 -9 -5 -5 3 -11
-1 -15 -9 -3 -8 0 -15 6 -15 6 0 8 -3 4 -7 -4 -4 -22 10 -41 32 -19 21 -35 36
-35 33 0 -4 -40 33 -89 80 -181 176 -329 317 -344 329 -13 11 -18 10 -25 -2
-4 -9 -26 -18 -48 -22 -24 -3 -49 -16 -65 -34 -15 -15 -29 -25 -32 -23 -7 7
-57 -25 -57 -36 0 -4 61 -71 136 -149 84 -87 133 -145 128 -152 -4 -8 -3 -9 4
-5 6 4 22 -6 36 -21 26 -29 32 -43 19 -43 -5 0 -8 6 -8 12 0 7 -7 13 -15 14
-8 0 -22 3 -30 7 -8 4 -240 6 -515 4 -409 -2 -499 -4 -497 -15 1 -8 -2 -11 -7
-7 -6 3 -8 12 -5 19 3 8 1 17 -5 21 -7 4 -8 0 -4 -11 5 -14 3 -16 -12 -11 -14
6 -15 5 -7 -5 8 -10 3 -13 -21 -13 -20 0 -31 -5 -29 -12 1 -7 -4 -13 -11 -13
-6 0 -401 -389 -877 -865 l-865 -865 1260 -1260 1260 -1260 -758 -758 -757
-757 262 -262 263 -263 -260 -260 -260 -260 1745 -1745 1745 -1745 2340 0
2340 0 1733 1733 c1569 1569 1732 1735 1732 1763 0 28 -28 59 -247 274 l-247
241 247 247 c213 213 247 251 247 277 0 26 -103 133 -864 894 -842 842 -863
864 -857 894 5 21 14 33 26 35 28 6 53 30 57 55 2 12 12 23 23 25 28 5 53 30
57 55 2 12 12 23 23 25 28 5 53 30 57 55 2 12 12 23 23 25 28 5 53 30 57 56 2
13 11 22 25 24 16 2 21 9 20 29 -3 33 13 38 41 13 11 -11 26 -20 32 -20 10 0
46 28 83 65 11 11 17 14 13 8 -4 -8 -1 -13 7 -13 8 0 18 8 21 17 9 21 84 -55
-1812 1844 l-1544 1546 34 35 c18 19 41 40 51 48 17 12 160 -128 1683 -1651
l1664 -1664 540 540 540 540 0 1860 0 1860 -540 -540 -540 -540 -547 548 -548
547 498 498 c417 417 495 500 485 512 -11 12 -11 12 3 2 13 -10 22 -5 51 26
l36 39 -49 -5 c-32 -3 -49 -1 -49 7 0 16 -816 16 -826 -1 -5 -8 -2 -9 9 -5 19
7 23 -8 6 -19 -6 -3 -15 -1 -19 6 -6 10 -9 9 -13 -1 -4 -11 -6 -11 -6 1 -1 8
218 234 486 502 l488 488 370 -371 c203 -204 421 -425 483 -490 l113 -118
-449 2 c-298 1 -448 -1 -445 -8 3 -5 0 -4 -8 3 -7 6 -20 12 -28 12 -10 0 -8
-7 9 -25 30 -32 54 -33 45 -2 -5 19 -5 20 5 4 8 -12 8 -22 2 -30 -7 -9 132
-155 484 -512 l494 -500 0 1125 0 1125 -537 537 -538 538 538 538 537 537 0
1918 0 1917 -1823 0 -1822 0 -933 -932z m1086 -175 l-3 -168 -167 -3 -168 -2
0 -165 0 -165 -165 0 -165 0 -2 -167 -3 -168 -167 -3 -168 -2 0 170 0 170 165
0 165 0 2 168 3 167 168 3 167 2 0 165 0 165 170 0 170 0 -2 -167z m-5362
-1355 c5 -8 2 -9 -9 -5 -10 4 -17 1 -17 -5 0 -6 -3 -9 -6 -5 -7 7 4 27 16 27
5 0 12 -5 16 -12z m-66 -21 c0 -2 -10 -12 -22 -23 l-23 -19 19 23 c18 21 26
27 26 19z m28 -30 c13 4 12 2 -3 -10 -11 -9 -22 -11 -23 -6 -2 5 -9 6 -15 2
-7 -4 -5 1 3 11 8 10 16 13 18 8 2 -6 11 -8 20 -5z m926 -36 c-9 -9 -45 -11
-39 -2 3 6 14 9 25 8 10 -1 17 -3 14 -6z m4396 -1305 c0 -2 -8 -10 -17 -17
-16 -13 -17 -12 -4 4 13 16 21 21 21 13z m5 -25 c-3 -6 4 -9 15 -8 11 1 20 6
20 11 0 5 3 7 6 3 3 -3 -1 -16 -10 -29 -9 -12 -16 -17 -16 -10 0 6 -5 12 -11
12 -5 0 -8 -4 -5 -8 3 -5 -1 -9 -9 -9 -8 0 -16 6 -19 13 -3 8 0 11 10 7 8 -3
14 -2 13 3 -2 14 0 24 7 24 3 0 3 -4 -1 -9z m-265 -1811 l0 -170 -165 0 -165
0 0 -165 0 -165 -170 0 -170 0 0 -170 0 -170 -167 2 -168 3 -3 168 -2 167 170
0 170 0 0 170 0 170 165 0 165 0 0 165 0 165 170 0 170 0 0 -170z m3704 -1501
c3 -3 -4 -5 -14 -6 -11 -1 -20 2 -20 7 0 8 25 8 34 -1z m72 -52 c2 -19 -11
-23 -21 -7 -3 6 0 10 7 10 10 0 9 3 -2 11 -12 8 -12 10 -1 7 8 -2 15 -12 17
-21z m-2036 9 c0 -2 -8 -10 -17 -17 -16 -13 -17 -12 -4 4 13 16 21 21 21 13z
m-1146 -1847 c-3 -5 -10 -7 -15 -3 -5 3 -7 10 -3 15 3 5 10 7 15 3 5 -3 7 -10
3 -15z m-2 -24 c9 0 20 4 25 9 5 5 2 6 -6 1 -10 -6 -12 -4 -6 5 7 11 10 10 19
-1 9 -12 96 -14 571 -13 308 1 540 -1 515 -6 -26 -4 66 -7 216 -6 227 1 261 3
256 16 -11 29 76 -52 318 -294 l245 -246 -690 -690 -690 -690 -693 692 -692
693 162 160 c378 371 410 400 422 385 6 -8 19 -15 28 -15z m-6048 -501 c-7 -3
-9 -14 -6 -26 5 -21 5 -21 -14 -2 -17 16 -18 20 -4 26 8 4 20 7 25 7 6 -1 5
-3 -1 -5z m5625 -3211 l2131 -2138 -717 -5 -718 -5 722 -3 722 -2 28 -24 28
-25 -765 -1 c-745 0 -813 -3 -770 -30 8 -5 11 -10 6 -10 -12 0 -236 220 -1236
1216 -443 441 -829 823 -858 848 -29 26 -58 43 -64 40 -7 -5 -9 -1 -5 9 5 13
1 17 -16 17 -12 0 -292 0 -621 0 -516 0 -602 -2 -616 -15 -23 -20 -41 -19 -33
3 3 9 3 15 0 12 -55 -42 -199 -183 -876 -857 -438 -435 -812 -806 -831 -824
-19 -17 -120 -115 -223 -218 -152 -150 -190 -183 -198 -171 -8 12 -9 11 -5 -5
6 -20 2 -20 -758 -15 -420 3 -762 2 -760 -2 9 -15 -15 -17 -27 -2 -11 14 -9
19 11 35 24 18 58 19 750 21 l725 3 -722 5 -721 5 2131 2136 c1173 1175 2137
2137 2144 2138 6 1 970 -961 2142 -2136z m3221 1427 l0 -170 -165 0 -165 0 0
-165 0 -165 -170 0 -170 0 0 -170 0 -170 -170 0 -170 0 0 170 0 170 170 0 170
0 0 170 0 170 165 0 165 0 0 165 0 165 170 0 170 0 0 -170z m-4753 -1562 c-3
-8 -6 -5 -6 6 -1 11 2 17 5 13 3 -3 4 -12 1 -19z m2793 -3550 c0 -5 -35 -8
-78 -8 l-77 0 -1625 1619 -1625 1619 -1620 -1619 -1620 -1619 -83 0 c-45 0
-82 3 -82 7 0 5 766 774 1702 1710 l1703 1703 1702 -1702 c937 -937 1703
-1706 1703 -1710z m636 2846 c2 -12 -1 -13 -12 -3 -7 6 -11 16 -8 21 7 11 17
3 20 -18z m-2396 -4924 l0 -170 -170 0 -170 0 0 -165 0 -165 -165 0 -165 0 -2
-167 -3 -168 -167 -3 -168 -2 0 170 0 170 165 0 165 0 2 168 3 167 168 3 167
2 0 165 0 165 170 0 170 0 0 -170z"/>
<path d="M23570 7059 c0 -5 5 -7 10 -4 6 3 10 8 10 11 0 2 -4 4 -10 4 -5 0
-10 -5 -10 -11z"/>
<path d="M26936 5031 c-4 -5 -2 -12 3 -15 5 -4 12 -2 15 3 4 5 2 12 -3 15 -5
4 -12 2 -15 -3z"/>
<path d="M26977 5033 c-3 -5 6 -9 20 -10 19 -1 22 1 12 8 -17 11 -26 11 -32 2z"/>
<path d="M21367 4999 c7 -7 15 -10 18 -7 3 3 -2 9 -12 12 -14 6 -15 5 -6 -5z"/>
<path d="M27016 5002 c-3 -5 1 -9 9 -9 8 0 12 4 9 9 -3 4 -7 8 -9 8 -2 0 -6
-4 -9 -8z"/>
<path d="M19880 4991 c0 -6 4 -13 10 -16 6 -3 7 1 4 9 -7 18 -14 21 -14 7z"/>
<path d="M26966 4986 c10 -8 21 -12 24 -10 5 6 -21 24 -34 24 -6 0 -1 -6 10
-14z"/>
<path d="M6306 19014 c-75 -71 -87 -87 -75 -98 8 -6 49 -45 92 -86 l78 -74 64
64 c61 61 65 67 65 110 0 43 -4 50 -63 108 -34 34 -65 62 -67 62 -3 -1 -45
-39 -94 -86z"/>
<path d="M1027 17692 l-197 -197 194 -194 c106 -106 198 -192 203 -190 5 2 71
67 145 145 l135 140 1 99 0 98 -115 121 c-64 67 -128 133 -142 148 l-26 28
-198 -198z"/>
<path d="M13327 17692 l-197 -197 198 -198 197 -197 198 198 197 197 -198 198
-197 197 -198 -198z"/>
<path d="M2817 17582 l-87 -87 90 -90 90 -90 85 85 c47 47 85 89 85 95 0 10
-160 175 -170 175 -3 0 -45 -39 -93 -88z"/>
<path d="M21160 17610 c-9 -6 -10 -10 -3 -10 6 0 15 5 18 10 8 12 4 12 -15 0z"/>
<path d="M22111 17563 c-1 -17 16 -25 25 -12 4 7 3 9 -4 5 -5 -3 -13 0 -15 6
-4 9 -6 10 -6 1z"/>
<path d="M13097 16682 l-88 -88 88 -87 88 -86 65 64 c62 61 65 67 64 111 -1
42 -5 50 -65 110 l-64 64 -88 -88z"/>
<path d="M15072 16268 c1 -54 4 -98 8 -98 3 0 26 20 50 45 l44 45 -52 53 -53
52 3 -97z"/>
<path d="M346 15341 c-85 -85 -150 -159 -151 -170 -1 -11 2 -18 6 -15 4 2 9 1
12 -3 2 -5 2 -2 0 6 -3 11 -1 12 12 1 8 -7 15 -16 15 -21 0 -4 10 -19 23 -33
12 -13 27 -30 34 -38 6 -7 55 -55 107 -107 53 -52 96 -95 96 -97 0 -1 78 -80
173 -176 398 -402 518 -528 513 -537 -4 -6 2 -8 13 -6 12 2 18 -2 17 -11 -1
-9 -275 -288 -609 -622 l-607 -607 0 -550 0 -550 250 -250 250 -250 813 815
c1191 1195 1135 1136 1113 1157 -10 10 -16 13 -12 6 3 -6 2 -14 -4 -18 -9 -6
-14 6 -11 31 1 6 -10 17 -24 24 -14 8 -24 18 -22 24 2 6 -14 23 -35 38 -21 16
-38 32 -38 37 0 10 -36 52 -44 52 -8 -1 -56 48 -55 56 0 4 -6 10 -13 13 -8 3
-34 27 -59 54 -86 94 -189 196 -199 196 -5 0 -10 4 -10 10 0 5 -24 35 -54 65
-30 31 -57 62 -60 70 -3 8 -10 15 -15 15 -5 0 -81 72 -168 160 -108 110 -160
156 -166 147 -6 -9 -7 -8 -6 3 3 31 -1 39 -18 33 -10 -4 17 29 59 73 l78 79
-523 523 c-287 287 -524 522 -527 522 -3 0 -72 -67 -154 -149z"/>
<path d="M2148 15036 c-2 -49 -1 -92 2 -97 3 -5 28 11 55 35 l50 45 -52 52
-51 52 -4 -87z"/>
<path d="M28920 12856 c0 -2 7 -7 16 -10 8 -3 12 -2 9 4 -6 10 -25 14 -25 6z"/>
<path d="M28460 12205 l-455 -455 458 -458 457 -457 457 457 458 458 -455 455
c-250 250 -457 455 -460 455 -3 0 -210 -205 -460 -455z"/>
<path d="M17247 12442 l-117 -117 121 -125 c67 -69 245 -250 396 -402 150
-153 268 -278 262 -278 -7 0 -9 -3 -5 -7 4 -4 -296 -310 -666 -680 l-673 -673
395 -395 c217 -217 400 -395 405 -395 16 0 1475 1464 1475 1480 0 15 9 5 -431
450 -183 184 -328 328 -324 320 8 -13 7 -13 -8 -1 -9 7 -17 16 -17 20 0 4 23
33 52 65 l51 58 -399 399 -399 399 -118 -118z"/>
<path d="M20965 10730 c-3 -5 -1 -10 4 -10 6 0 11 5 11 10 0 6 -2 10 -4 10 -3
0 -8 -4 -11 -10z"/>
<path d="M2192 10551 l0 -104 51 52 52 51 -52 52 -52 52 1 -103z"/>
<path d="M14175 8900 l-90 -90 90 -90 90 -90 90 90 90 90 -90 90 -90 90 -90
-90z"/>
<path d="M15632 8773 c-1 -19 0 -371 1 -411 1 -19 21 -3 116 92 l116 116 -110
110 c-60 60 -112 110 -116 110 -3 0 -6 -8 -7 -17z"/>
<path d="M15750 6995 l-1095 -1095 80 -80 80 -80 1017 1017 1018 1018 1018
-1018 1017 -1017 78 78 77 77 -1098 1098 -1097 1097 -1095 -1095z"/>
<path d="M29508 7312 c-269 -268 -488 -491 -488 -495 0 -4 9 -2 20 5 11 7 20
16 20 21 0 4 5 5 10 2 6 -3 10 -2 10 2 0 5 15 7 33 5 24 -3 39 3 60 22 20 18
39 26 66 26 27 0 44 7 62 26 15 16 31 23 42 20 15 -3 57 32 166 139 80 79 224
219 319 312 l173 168 -3 118 -3 117 -487 -488z"/>
<path d="M28843 6761 c-9 -14 -8 -18 3 -18 7 0 11 4 8 8 -2 4 4 9 13 11 16 3
16 4 2 10 -9 3 -20 -1 -26 -11z"/>
<path d="M16830 6455 c0 -8 -4 -15 -10 -15 -5 0 -10 -13 -10 -30 0 -16 -5 -30
-11 -30 -6 0 -9 7 -5 15 3 8 1 15 -4 15 -6 0 -10 -24 -11 -52 0 -29 -3 -47 -6
-40 -9 23 -20 12 -15 -18 2 -17 0 -30 -6 -30 -6 0 -12 -10 -14 -22 -2 -13 -9
-22 -15 -21 -7 2 -10 -6 -8 -18 2 -11 -2 -22 -10 -26 -9 -3 -15 -18 -15 -37 0
-24 -3 -27 -10 -16 -8 12 -10 11 -10 -7 0 -13 -4 -22 -8 -20 -15 4 -63 -53
-59 -71 4 -15 5 -15 6 2 1 12 6 16 17 12 9 -3 18 -6 20 -6 2 0 4 -7 4 -15 0
-8 -7 -15 -16 -15 -8 0 -13 -4 -10 -8 3 -5 -1 -20 -9 -35 -7 -14 -11 -28 -7
-31 3 -3 0 -6 -7 -6 -9 0 -12 10 -9 30 6 39 -8 39 -17 -1 -4 -17 -13 -33 -21
-36 -8 -3 -11 -9 -8 -15 3 -5 -2 -18 -11 -28 -9 -10 -14 -24 -10 -29 3 -6 1
-11 -4 -11 -6 0 -11 -11 -11 -24 0 -14 -5 -28 -10 -31 -6 -4 -8 -10 -5 -15 3
-4 -2 -11 -11 -14 -9 -4 -14 -9 -11 -13 10 -9 -13 -44 -24 -38 -5 4 -7 11 -4
16 4 5 -1 9 -10 9 -11 0 -15 -5 -11 -15 3 -9 0 -15 -9 -15 -9 0 -15 -10 -15
-25 0 -14 -4 -25 -10 -25 -5 0 -10 -6 -10 -14 0 -8 -6 -17 -12 -20 -10 -5 -10
-7 -1 -12 18 -8 -3 -44 -25 -44 -15 0 -15 -2 -2 -10 13 -9 13 -10 0 -11 -8 -1
-21 0 -29 1 -11 1 -10 -2 3 -15 17 -17 22 -36 9 -34 -23 4 -33 -3 -33 -24 0
-13 -9 -26 -22 -32 -13 -6 -26 -24 -30 -42 -5 -18 -15 -33 -22 -33 -9 0 -12
-8 -9 -24 6 -27 -15 -45 -28 -25 -7 11 -9 9 -9 -7 0 -13 -8 -24 -19 -27 -13
-3 -20 -18 -25 -56 -5 -35 -11 -51 -21 -51 -8 0 -15 -9 -15 -21 0 -11 -4 -17
-10 -14 -5 3 -10 2 -10 -4 0 -5 5 -13 10 -16 6 -3 10 -12 9 -18 0 -9 -2 -9 -5
0 -9 20 -32 3 -39 -29 -7 -28 -9 -29 -41 -24 -29 6 -33 4 -27 -10 4 -11 2 -15
-4 -11 -16 10 -21 -12 -17 -65 5 -48 -7 -68 -30 -49 -9 8 -16 2 -26 -24 -7
-19 -19 -36 -27 -39 -7 -3 -13 -19 -13 -36 0 -16 -5 -30 -11 -30 -5 0 -7 5 -4
11 4 6 -2 5 -14 -3 -12 -7 -24 -21 -27 -30 -6 -19 -24 -25 -24 -8 0 6 -4 10
-10 10 -5 0 -10 -11 -10 -24 0 -14 -5 -28 -10 -31 -6 -4 -8 -10 -5 -15 3 -5
-5 -10 -17 -12 -16 -2 -24 -11 -26 -28 -5 -34 -18 -46 -35 -31 -12 9 -16 8
-20 -3 -4 -11 -1 -13 10 -9 12 5 14 3 8 -6 -5 -9 180 -201 589 -610 l596 -596
481 480 c264 264 485 488 490 497 8 14 6 16 -7 11 -13 -5 -15 -3 -9 8 6 9 0 8
-19 -5 -20 -13 -27 -14 -24 -5 4 11 -9 13 -70 11 -41 -2 -85 1 -96 7 -27 13
-171 31 -246 31 -32 0 -77 7 -101 16 -29 10 -60 13 -89 9 -25 -3 -40 -2 -34 2
7 4 -45 9 -114 11 -75 2 -129 8 -133 14 -4 6 -12 7 -18 4 -8 -5 -11 260 -11
988 0 657 -3 996 -10 996 -5 0 -10 -7 -10 -15z m370 -2015 c0 -5 -7 -10 -15
-10 -8 0 -15 5 -15 10 0 6 7 10 15 10 8 0 15 -4 15 -10z m598 -76 c-1 -5 -9
-9 -16 -10 -10 -2 -11 1 -1 12 12 14 24 13 17 -2z"/>
<path d="M28306 6297 c3 -10 9 -15 12 -12 3 3 0 11 -7 18 -10 9 -11 8 -5 -6z"/>
<path d="M16001 5084 c0 -11 3 -14 6 -6 3 7 2 16 -1 19 -3 4 -6 -2 -5 -13z"/>
<path d="M13222 4337 l-193 -194 198 -196 198 -197 141 143 142 142 0 105 -1
105 -141 143 c-77 78 -143 142 -146 142 -3 0 -92 -87 -198 -193z"/>
<path d="M1312 3097 c-105 -106 -192 -197 -192 -202 0 -13 372 -385 385 -385
6 0 98 88 205 195 l195 195 -195 195 c-107 107 -197 195 -200 195 -3 0 -92
-87 -198 -193z"/>
<path d="M13700 2770 c-4 -48 -4 -190 0 -190 3 0 27 22 53 48 l47 48 -50 49
c-27 27 -50 47 -50 45z"/>
<path d="M16245 1370 l-1370 -1370 525 0 525 0 845 845 845 845 845 -845 845
-845 523 2 522 3 -1367 1368 -1368 1367 -1370 -1370z"/>
<path d="M710 2203 l0 -97 50 49 50 49 -47 48 c-26 26 -49 48 -50 48 -2 0 -3
-44 -3 -97z"/>
<path d="M28355 1139 l-800 -801 120 -114 c66 -63 124 -114 128 -114 5 0 53
44 106 98 204 202 608 598 643 629 20 17 38 37 41 45 3 8 180 -162 453 -435
l449 -447 253 0 252 0 0 548 0 547 -423 423 -422 422 -800 -801z"/>
<path d="M6355 1160 l-400 -400 380 -380 380 -380 735 0 736 0 31 29 c18 16
29 33 25 37 -4 5 11 -8 34 -28 34 -32 47 -38 84 -38 l45 0 380 380 380 380
-55 56 c-30 30 -85 83 -122 115 -56 50 -70 59 -85 50 -10 -6 -15 -11 -12 -11
3 0 -57 -62 -134 -138 -77 -75 -182 -177 -232 -227 -50 -49 -162 -159 -249
-244 l-158 -154 -677 677 c-372 372 -678 676 -681 676 -3 0 -185 -180 -405
-400z"/>
<path d="M16855 760 l-760 -760 1520 0 1520 0 -760 760 c-418 418 -760 760
-760 760 0 0 -342 -342 -760 -760z"/>
<path d="M4447 512 l-87 -87 88 -88 87 -87 65 65 c55 56 65 71 66 103 1 20 -3
46 -9 57 -12 23 -107 125 -116 125 -4 0 -46 -39 -94 -88z"/>
</g>
</svg>
