<svg xmlns="http://www.w3.org/2000/svg" viewBox="0 0 296.55 94.22"><defs><style>.cls-1{fill:#060606;}.cls-2{fill:#060707;}</style></defs><g id="Layer_2" data-name="Layer 2"><g id="Layer_1-2" data-name="Layer 1"><path class="cls-1" d="M42.81,0c.31.67.9,1.36.89,2q-.14,6.59-.53,13.15c0,.58-.85,1.11-1.31,1.67-.42-.47-1.24-.95-1.22-1.4.22-5.15.56-10.29.87-15.44Z"/><path class="cls-1" d="M0,43.67a11.23,11.23,0,0,1,2.88-.43,11.66,11.66,0,0,1,3.68,1c.69.31,1.16,1.12,1.72,1.71-.62.4-1.22,1.08-1.87,1.14C4,47.29,1.66,47.12,0,45Z"/><path class="cls-1" d="M46.6,82.74c-1.93-1.31-4.09-.55-6.16-.49-1.72.06-3.44.31-5.16.31-3.84,0-6.63-2.19-6.75-5.2-.15-3.53,2.35-6,6.36-6.45s8,.52,11.9,1.42a13.14,13.14,0,0,0,4.05.27,2.32,2.32,0,0,0,1.74-1.24,3.44,3.44,0,0,0-.81-2.21c-.29-.43-1-.62-1.44-.91-4.47-2.63-7.6-6.13-7.56-11.84H39.55c-.19,1.54-.29,3.11-.59,4.64-1.43,7-7.46,10.19-14.06,7.2-5.94-2.69-9-7.72-10.06-13.91-1.31-7.55-.39-14.78,4.27-21.16,9.11-12.48,28-15.9,40-7.2,5.95,4.29,9,10.34,9.61,17.58a33.46,33.46,0,0,1-3.36,18.63c-.26.51-.41,1.19-.83,1.48A16.08,16.08,0,0,1,62,64.91c-.14-.95-.61-2-.35-2.83,1-3.19,2.6-6.24,3.41-9.48C67.63,42.13,63.14,31.47,54.23,27c-9.37-4.65-18.34-3-26.66,2.68C19.89,35,16.74,42.66,17.82,51.81c.67,5.67,2.87,10.73,8.58,13.32,4.12,1.87,7.63.4,9-3.9a47.53,47.53,0,0,0,1-5.19,13.68,13.68,0,0,1-2.9-.74,23.94,23.94,0,0,1-5.24-3.2,4.78,4.78,0,0,1-.64-6.46c1.4-1.59,5-1.79,7-.36s3.74,3.23,4.06,5.82c.2,1.57.92,2,2.37,2.09S43.48,53,44,51.4c1.23-4.07,5.94-6.54,9.84-6.1,2,.22,3.84.91,4.49,2.78a4.88,4.88,0,0,1-1.65,5.44c-2.19,2-4.82,2.41-7.56,2.67-.91.08-1.83,0-3,0a9.5,9.5,0,0,0,4.51,8.15c.89.61,1.88,1.07,2.77,1.67,2.58,1.74,3.33,3.71,2.51,6.45-.68,2.29-2.56,3.73-5.51,3.51s-5.9-1.13-8.88-1.42a32.22,32.22,0,0,0-7.41.09A3.08,3.08,0,0,0,32,76.9,3.08,3.08,0,0,0,34.22,79c2.38.23,4.82-.15,7.24-.09a33.93,33.93,0,0,1,6.76.69,3.43,3.43,0,0,1,2.87,3.57c-.1,2-1.62,2.76-3.23,3.27a10.57,10.57,0,0,1-2.75.41,29.5,29.5,0,0,0-4.52.1,14.23,14.23,0,0,0-3.39,1.67c1,.81,2,2.26,3,2.28a21.43,21.43,0,0,0,6-1.18c1.32-.37,2.86-1.67,3.72.2s-1,2.56-2.31,2.92a30.84,30.84,0,0,1-7.32,1.35,8.65,8.65,0,0,1-4.49-1.68,4.46,4.46,0,0,1-1.92-5.3,4.87,4.87,0,0,1,4.4-3.32c1.49-.19,3-.09,4.53-.18,1.25-.07,2.51-.22,3.76-.34Zm.27-29.2a66.26,66.26,0,0,0,6.58-2c.71-.3,1.06-1.46,1.57-2.23-1-.36-2.07-1.17-3-1C49.63,48.76,47.94,50.37,46.87,53.54Zm-11.95-.95.5-.61a5.89,5.89,0,0,0-3.14-4.43c-.48-.23-1.42-.25-1.67,0a1.71,1.71,0,0,0,0,1.68C32,50.47,33.47,51.5,34.92,52.59Z"/><path class="cls-1" d="M13.48,33.6c-.36.45-.64,1.14-1.06,1.24a2.72,2.72,0,0,1-2-.28c-1.56-1.15-3-2.44-4.45-3.74C4.28,29.27,2.56,27.73,1,26c-.43-.47-.22-1.52-.31-2.3.84,0,2-.41,2.47,0,3.25,2.72,6.36,5.6,9.49,8.46A5.65,5.65,0,0,1,13.48,33.6Z"/><path class="cls-1" d="M70.47,31.15c-.76-.53-1.54-.79-1.65-1.22-.15-.59,0-1.66.38-1.91q5.65-3.49,11.47-6.71a1.78,1.78,0,0,1,1.65.53c.28.52.31,1.73,0,1.93C78.44,26.29,74.48,28.68,70.47,31.15Z"/><path class="cls-1" d="M24.39,18.81c-.31.43-.57,1.16-1,1.32a1.88,1.88,0,0,1-1.71-.33,13.83,13.83,0,0,1-3-8.47,1.57,1.57,0,0,1,1-1.18c.52-.09,1.47.17,1.63.54C22.33,13.29,23.29,16,24.39,18.81Z"/><path class="cls-1" d="M64.14,11.71c-1.55,2.48-3,5-4.67,7.37a1.75,1.75,0,0,1-1.72.17,2,2,0,0,1-.67-1.79A80.79,80.79,0,0,1,61,10.32c.24-.38,1.31-.52,1.88-.36S63.55,10.86,64.14,11.71Z"/><path class="cls-2" d="M137,22.05a10.47,10.47,0,0,1-1.4,5.27A14.83,14.83,0,0,1,132,31.56a17.45,17.45,0,0,1-4.94,2.8,14.05,14.05,0,0,1-5.37,1h-.55v-.62A14.33,14.33,0,0,0,125.4,33a14.12,14.12,0,0,0,3.51-2.91,13.91,13.91,0,0,0,2.38-3.86,11.72,11.72,0,0,0,.87-4.48,11.07,11.07,0,0,0-.37-2.92,6.73,6.73,0,0,0-1.18-2.38,5.53,5.53,0,0,0-2-1.58,6.57,6.57,0,0,0-2.91-.59,17.44,17.44,0,0,0-4.89.72,22.34,22.34,0,0,0-4.79,2,24.57,24.57,0,0,0-4.32,3.1,22.42,22.42,0,0,0-3.52,3.92,19.3,19.3,0,0,0-2.36,4.55,14.66,14.66,0,0,0-.86,4.93,12.43,12.43,0,0,0,.78,4.63,11,11,0,0,0,2.1,3.41,12.93,12.93,0,0,0,3.08,2.5A30.63,30.63,0,0,0,114.67,46c1.33.57,2.69,1.09,4.08,1.57s2.75,1,4.08,1.55a32.66,32.66,0,0,1,3.75,1.84,13.46,13.46,0,0,1,3.09,2.42,10.58,10.58,0,0,1,2.1,3.3,12.11,12.11,0,0,1,.77,4.5,10.69,10.69,0,0,1-1.15,5,11.45,11.45,0,0,1-3,3.7A13.31,13.31,0,0,1,124,72.15a16.47,16.47,0,0,1-5,.78,13.9,13.9,0,0,1-5.17-1,15.46,15.46,0,0,1-4.27-2.55,18.11,18.11,0,0,1-3.3-3.68A21.15,21.15,0,0,1,104,61.42l.52-.27a32.41,32.41,0,0,0,2.38,3.6,18.58,18.58,0,0,0,3,3.17,14.71,14.71,0,0,0,3.73,2.25,11.34,11.34,0,0,0,4.47.86,11.68,11.68,0,0,0,3.65-.55,8.56,8.56,0,0,0,2.92-1.58,7.24,7.24,0,0,0,1.95-2.55,8.09,8.09,0,0,0,.71-3.45,8.24,8.24,0,0,0-1.21-4.65,10.78,10.78,0,0,0-3.17-3.1A21.94,21.94,0,0,0,118.45,53l-5.15-1.81q-2.62-.9-5.15-2.06a17.93,17.93,0,0,1-4.47-2.91,13.19,13.19,0,0,1-3.17-4.36,15,15,0,0,1-1.21-6.39A19.51,19.51,0,0,1,100.37,29a21.08,21.08,0,0,1,2.94-5.6,23.89,23.89,0,0,1,4.43-4.56,28.63,28.63,0,0,1,5.5-3.43,29.43,29.43,0,0,1,6.14-2.15,28.26,28.26,0,0,1,6.45-.75,17,17,0,0,1,4.35.55,10,10,0,0,1,3.55,1.71,8.17,8.17,0,0,1,2.38,3A10,10,0,0,1,137,22.05Z"/><path class="cls-2" d="M165.17,54.6a19.77,19.77,0,0,1-1.59,2.59,12,12,0,0,1-2.07,2.2,9.48,9.48,0,0,1-2.61,1.53,8.92,8.92,0,0,1-3.28.57A9.09,9.09,0,0,1,150.2,60a12.16,12.16,0,0,1-3.57-4.24c-.27.11-.54.21-.81.29l-.77.26c-.05.39-.09.75-.14,1.07s-.09.62-.14.89-.1.62-.17,1a3.54,3.54,0,0,1-.34,1,2.14,2.14,0,0,1-.66.74,1.89,1.89,0,0,1-1.14.3,1.59,1.59,0,0,1-1.44-.64,5.62,5.62,0,0,1-.66-1.4,34,34,0,0,1-.94-4c-.29-1.56-.54-3.18-.75-4.84s-.36-3.31-.48-4.94-.17-3.08-.17-4.35c0-1.51,0-3.11.14-4.8s.25-3.39.48-5.12.55-3.42,1-5.11a33.73,33.73,0,0,1,1.53-4.84,24.8,24.8,0,0,1,2.22-4.29,15.21,15.21,0,0,1,3-3.43,8.81,8.81,0,0,1,1.81-1.13,4.57,4.57,0,0,1,2-.49,3,3,0,0,1,.95.19.72.72,0,0,1,.54.71,1.22,1.22,0,0,1-.28.65,46.45,46.45,0,0,0-7.13,14.42A58,58,0,0,0,142.09,44a67.1,67.1,0,0,0,.32,6.77q.33,3.26.88,6.81c.09-1.2.22-2.48.4-3.85a39.26,39.26,0,0,1,.72-4,27.67,27.67,0,0,1,1.19-3.84,13.57,13.57,0,0,1,1.79-3.26,8.64,8.64,0,0,1,2.5-2.26,6.5,6.5,0,0,1,3.36-.84,4.9,4.9,0,0,1,3.37,1.19A4.11,4.11,0,0,1,158,43.92a7.36,7.36,0,0,1-.38,2.31,10.16,10.16,0,0,1-1,2.16,13.93,13.93,0,0,1-1.45,1.91,12,12,0,0,1-1.67,1.55,28.07,28.07,0,0,1-2.72,1.86,15.7,15.7,0,0,0,1.24,2,9.71,9.71,0,0,0,1.52,1.66,6.77,6.77,0,0,0,1.84,1.12,6.06,6.06,0,0,0,2.26.41,6.6,6.6,0,0,0,2.15-.36,9.09,9.09,0,0,0,2-1,10.54,10.54,0,0,0,1.74-1.41,13.77,13.77,0,0,0,1.46-1.71ZM151.56,43.82a3.85,3.85,0,0,0-2.83,1.09,8.49,8.49,0,0,0-1.8,2.72,16.65,16.65,0,0,0-1.09,3.6c-.25,1.31-.46,2.55-.62,3.72a19.42,19.42,0,0,0,3.15-1.6,14.16,14.16,0,0,0,2.6-2.09,10,10,0,0,0,1.76-2.43,5.84,5.84,0,0,0,.65-2.7,2.83,2.83,0,0,0-.46-1.6A1.53,1.53,0,0,0,151.56,43.82Z"/><path class="cls-2" d="M181.15,55a13.23,13.23,0,0,1-4.26,4.29,11.57,11.57,0,0,1-2.75,1.25,10.23,10.23,0,0,1-3,.45,8.58,8.58,0,0,1-3.42-.65,7.14,7.14,0,0,1-2.52-1.81,8,8,0,0,1-1.55-2.72,10.77,10.77,0,0,1-.53-3.43,12.12,12.12,0,0,1,.58-3.79,14.07,14.07,0,0,1,1.62-3.36,16.57,16.57,0,0,1,2.43-2.88,21.61,21.61,0,0,1,3-2.34l.41.31a17.74,17.74,0,0,0-2.73,4.48,13,13,0,0,0-1.06,5.17,12.22,12.22,0,0,0,.37,3,7.76,7.76,0,0,0,1.13,2.53,5.88,5.88,0,0,0,2,1.76,6.16,6.16,0,0,0,2.93.65,9.11,9.11,0,0,0,3.88-.86,13.78,13.78,0,0,0,3.32-2.17ZM171.5,32.07a3.29,3.29,0,0,1-.31,1.38,4.24,4.24,0,0,1-.81,1.23,4.31,4.31,0,0,1-1.15.87,2.85,2.85,0,0,1-1.34.35,1.83,1.83,0,0,1-1.43-.59,2.09,2.09,0,0,1-.54-1.48,3.32,3.32,0,0,1,.31-1.36,4.47,4.47,0,0,1,.81-1.19,4.32,4.32,0,0,1,1.14-.84,2.84,2.84,0,0,1,1.32-.33,2,2,0,0,1,1.45.55A1.91,1.91,0,0,1,171.5,32.07Z"/><path class="cls-2" d="M197.72,56.08a8.86,8.86,0,0,1-3.1,3.6A8,8,0,0,1,190.07,61a6,6,0,0,1-3.75-1.27,12,12,0,0,1-2.92-3.35,23.26,23.26,0,0,1-2.13-4.66,46.52,46.52,0,0,1-1.45-5.29,49,49,0,0,1-.82-5.18,41.06,41.06,0,0,1-.26-4.36c0-1.52.08-3.18.24-5a50.76,50.76,0,0,1,.79-5.49A43.08,43.08,0,0,1,181.2,21a22.1,22.1,0,0,1,2.14-4.64,11.29,11.29,0,0,1,2.91-3.23A6.17,6.17,0,0,1,190,11.92,4.17,4.17,0,0,1,193,13a7.52,7.52,0,0,1,1.79,2.64,12.6,12.6,0,0,1,.88,3.32,24.9,24.9,0,0,1,.22,3.13A30.43,30.43,0,0,1,195,29.4a33.91,33.91,0,0,1-2.41,6.79A30.37,30.37,0,0,1,189,42a24.32,24.32,0,0,1-4.44,4.36c.32,1.53.7,3,1.15,4.49a19.61,19.61,0,0,0,1.64,3.89,9.75,9.75,0,0,0,2.22,2.76,4.37,4.37,0,0,0,2.88,1.05,5.59,5.59,0,0,0,2.79-.66A7.28,7.28,0,0,0,197.41,56ZM183.53,34.83c0,.51,0,1.13,0,1.86s0,1.54.1,2.43.14,1.83.26,2.84.26,2,.45,3.1a22.35,22.35,0,0,0,3.92-4.58,26.32,26.32,0,0,0,2.66-5.43,31.76,31.76,0,0,0,1.5-6.13,46.79,46.79,0,0,0,.46-6.7c0-.3,0-.69,0-1.17a14.8,14.8,0,0,0-.12-1.55,15.84,15.84,0,0,0-.29-1.65,7.15,7.15,0,0,0-.52-1.5,3.34,3.34,0,0,0-.82-1.1,1.76,1.76,0,0,0-1.19-.43,2.82,2.82,0,0,0-2.29,1.29,11.9,11.9,0,0,0-1.69,3.29,30.64,30.64,0,0,0-1.17,4.41c-.31,1.6-.56,3.15-.74,4.63s-.31,2.81-.38,4S183.53,34.39,183.53,34.83Z"/><path class="cls-2" d="M215.25,10.61a11.62,11.62,0,0,0-.26,1.23c-.08.49-.16,1-.26,1.63,1.68.14,3.42.32,5.22.55s3.57.53,5.29.88,3.37.77,4.94,1.24a31.18,31.18,0,0,1,4.26,1.6l-.28.66c-2.52-.32-5-.55-7.56-.67s-5-.19-7.53-.19c-.8,0-1.61,0-2.42.07l-2.47.13q-.27,2.55-.55,5.67t-.5,6.56c-.15,2.3-.27,4.67-.38,7.12s-.17,4.89-.22,7.33-.05,4.85,0,7.2.12,4.6.26,6.72.33,4.09.59,5.91a33.39,33.39,0,0,0,1,4.72,5.59,5.59,0,0,0,.19.63,1.85,1.85,0,0,1,.12.64,1.29,1.29,0,0,1-.28.88,1.05,1.05,0,0,1-.86.33A3,3,0,0,1,212,71c-.5-.27-.94-.54-1.33-.79a4.31,4.31,0,0,1-1.59-2.2,16.3,16.3,0,0,1-.79-3.27,29.61,29.61,0,0,1-.27-3.45c0-1.13,0-2,0-2.79q0-2.61.12-5.79t.35-6.66q.23-3.49.57-7.2c.22-2.47.5-4.92.82-7.34s.69-4.79,1.09-7.11.85-4.5,1.36-6.55c-1.7.12-3.4.27-5.08.47s-3.33.43-4.93.7-3.12.58-4.58.92a40.47,40.47,0,0,0-4,1.12,2,2,0,0,1-.89.2.88.88,0,0,1-1-1,2.93,2.93,0,0,1,.38-1.41,11.86,11.86,0,0,1,.75-1.27,5.27,5.27,0,0,1,1.74-1.47A16.11,16.11,0,0,1,197.29,15a24.45,24.45,0,0,1,3.17-.83c1.11-.22,2.19-.4,3.25-.55s2-.25,3-.31,1.69-.09,2.29-.09,1.41,0,2.17,0l2.34.12c.37-1.14.75-2.17,1.14-3.06Z"/><path class="cls-2" d="M246.15,55a10.23,10.23,0,0,1-1.57,2.48,11.3,11.3,0,0,1-2.05,1.88,10.13,10.13,0,0,1-2.27,1.2,6.43,6.43,0,0,1-2.24.43,7.51,7.51,0,0,1-3.38-.69,6.15,6.15,0,0,1-2.23-1.86,7.44,7.44,0,0,1-1.24-2.75,14.18,14.18,0,0,1-.38-3.38,22,22,0,0,1,.2-2.86,23.34,23.34,0,0,1,.59-2.86c0-.14.09-.3.14-.5a2.59,2.59,0,0,0,.07-.5q0-.16-.21-.27c-.39-.14-.81-.27-1.24-.4s-.87-.27-1.29-.43a8.9,8.9,0,0,1-1.21-.55,3.44,3.44,0,0,1-1-.79,14.74,14.74,0,0,1-.69,4.18,21.78,21.78,0,0,1-1.74,4.07A22.24,22.24,0,0,1,221.9,55a20.54,20.54,0,0,1-3.07,2.93l-.34-.34A13.91,13.91,0,0,0,220.31,55a21,21,0,0,0,1.42-3.17,23.63,23.63,0,0,0,.91-3.34,16.59,16.59,0,0,0,.33-3.17,7.22,7.22,0,0,0-.14-1.43c-.09-.45-.19-.88-.29-1.29s-.2-.81-.3-1.19a5,5,0,0,1-.13-1.16,1.9,1.9,0,0,1,.62-1.51,2.27,2.27,0,0,1,1.58-.55,1,1,0,0,1,.79.29,2.61,2.61,0,0,1,.48.71c.14.27.3.56.49.86a2.22,2.22,0,0,0,.79.76,5.24,5.24,0,0,0,1.65.55c.67.11,1.37.21,2.1.31l2.21.27a8.71,8.71,0,0,1,2,.47,3.79,3.79,0,0,1,1.43.89,2.1,2.1,0,0,1,.55,1.54,4.91,4.91,0,0,1-.09.94,4.08,4.08,0,0,1-.25.88c-.28,1-.52,2-.71,3a15.12,15.12,0,0,0-.29,3,12.74,12.74,0,0,0,.19,2.32,4.63,4.63,0,0,0,.7,1.81,3.49,3.49,0,0,0,1.38,1.17,5,5,0,0,0,2.21.41,6,6,0,0,0,3.37-.94,9.74,9.74,0,0,0,2.55-2.5Z"/><path class="cls-2" d="M260,41.82a.94.94,0,0,1-.28.68.87.87,0,0,1-.65.29,1.33,1.33,0,0,1-.66-.19l-.77-.43a5.46,5.46,0,0,0-1-.43,4,4,0,0,0-1.29-.19,4.74,4.74,0,0,0-3,1.05,9.42,9.42,0,0,0-2.24,2.6,13.64,13.64,0,0,0-1.39,3.31,12.09,12.09,0,0,0-.48,3.17,10.37,10.37,0,0,0,.17,1.94,5.32,5.32,0,0,0,.6,1.72,3.29,3.29,0,0,0,1.19,1.24,3.63,3.63,0,0,0,1.93.47,6.23,6.23,0,0,0,2.38-.47,9.24,9.24,0,0,0,2.13-1.22A9.93,9.93,0,0,1,257,53a17,17,0,0,1,.85-2.42A16.06,16.06,0,0,1,259,48.37a14.58,14.58,0,0,1,1.39-1.9l.45.28a13.83,13.83,0,0,0-.55,2.41,17,17,0,0,0-.17,2.45,12.59,12.59,0,0,0,.2,2.34,5.32,5.32,0,0,0,.73,1.91,3.64,3.64,0,0,0,1.41,1.28,5.1,5.1,0,0,0,2.31.46,6.51,6.51,0,0,0,3.17-.79,9.9,9.9,0,0,0,2.54-2l.28.14a10.77,10.77,0,0,1-1.62,2.31,15,15,0,0,1-2.22,2,11.24,11.24,0,0,1-2.6,1.39,7.62,7.62,0,0,1-2.72.52,4.41,4.41,0,0,1-3.1-1.09,5.48,5.48,0,0,1-1.66-2.74,14.05,14.05,0,0,1-3.22,2.43,7.55,7.55,0,0,1-3.74,1,5.8,5.8,0,0,1-2.56-.53,5.47,5.47,0,0,1-1.88-1.43,6.19,6.19,0,0,1-1.15-2.12,8.07,8.07,0,0,1-.4-2.56,11,11,0,0,1,.5-3.19,16.35,16.35,0,0,1,1.38-3.22,17.87,17.87,0,0,1,2.08-3,16.23,16.23,0,0,1,2.64-2.48,13.21,13.21,0,0,1,3-1.69,8.92,8.92,0,0,1,3.24-.62,6,6,0,0,1,.93.09,5.64,5.64,0,0,1,1.07.29,2.57,2.57,0,0,1,.88.59A1.33,1.33,0,0,1,260,41.82Z"/><path class="cls-2" d="M296.55,54.6A19.77,19.77,0,0,1,295,57.19a11.67,11.67,0,0,1-2.07,2.2,9.48,9.48,0,0,1-2.61,1.53,8.92,8.92,0,0,1-3.28.57A9.09,9.09,0,0,1,281.58,60,12.16,12.16,0,0,1,278,55.74c-.27.11-.54.21-.81.29l-.77.26c-.05.39-.09.75-.14,1.07s-.09.62-.14.89-.1.62-.17,1a3.54,3.54,0,0,1-.34,1,2,2,0,0,1-.66.74,1.87,1.87,0,0,1-1.13.3,1.6,1.6,0,0,1-1.45-.64,5.62,5.62,0,0,1-.66-1.4,34,34,0,0,1-.94-4c-.29-1.56-.54-3.18-.74-4.84s-.37-3.31-.49-4.94-.17-3.08-.17-4.35c0-1.51.05-3.11.14-4.8s.25-3.39.48-5.12.55-3.42,1-5.11a33.73,33.73,0,0,1,1.53-4.84,24.8,24.8,0,0,1,2.22-4.29,15.21,15.21,0,0,1,3-3.43,8.81,8.81,0,0,1,1.81-1.13,4.58,4.58,0,0,1,2-.49,3,3,0,0,1,.94.19.72.72,0,0,1,.54.71,1.14,1.14,0,0,1-.28.65,46.45,46.45,0,0,0-7.13,14.42A58,58,0,0,0,273.47,44c0,2.35.11,4.6.32,6.77s.51,4.44.88,6.81c.09-1.2.23-2.48.4-3.85a39.26,39.26,0,0,1,.72-4A27.67,27.67,0,0,1,277,45.84a13.57,13.57,0,0,1,1.79-3.26,8.77,8.77,0,0,1,2.5-2.26,6.5,6.5,0,0,1,3.36-.84A4.9,4.9,0,0,1,288,40.67a4.11,4.11,0,0,1,1.35,3.25,7.36,7.36,0,0,1-.38,2.31,10.16,10.16,0,0,1-1,2.16,14.7,14.7,0,0,1-1.44,1.91,12.64,12.64,0,0,1-1.68,1.55,28.07,28.07,0,0,1-2.72,1.86,15.7,15.7,0,0,0,1.24,2,9.71,9.71,0,0,0,1.52,1.66,6.77,6.77,0,0,0,1.84,1.12,6.06,6.06,0,0,0,2.26.41,6.6,6.6,0,0,0,2.15-.36,9.09,9.09,0,0,0,2-1,10.54,10.54,0,0,0,1.74-1.41,13.77,13.77,0,0,0,1.46-1.71ZM282.94,43.82a3.85,3.85,0,0,0-2.83,1.09,8.49,8.49,0,0,0-1.8,2.72,17.23,17.23,0,0,0-1.09,3.6c-.25,1.31-.46,2.55-.62,3.72a19.42,19.42,0,0,0,3.15-1.6,14.16,14.16,0,0,0,2.6-2.09,10,10,0,0,0,1.76-2.43,5.85,5.85,0,0,0,.66-2.7,2.84,2.84,0,0,0-.47-1.6A1.53,1.53,0,0,0,282.94,43.82Z"/><path class="cls-2" d="M153.78,71.75V72a.87.87,0,0,0-.42.14,1.11,1.11,0,0,0-.3.36c0,.05-.16.39-.41,1l-2.78,7.32h-.26l-2.2-5.72L145,80.83h-.24l-2.92-7.25a8.26,8.26,0,0,0-.63-1.32.8.8,0,0,0-.59-.27v-.24h3.85V72a1,1,0,0,0-.62.15.39.39,0,0,0-.15.31,3.65,3.65,0,0,0,.32,1.06l1.74,4.3,1.39-3.36-.36-.94a7.43,7.43,0,0,0-.47-1,.89.89,0,0,0-.38-.37,1.28,1.28,0,0,0-.62-.12v-.24h4.3V72a2.29,2.29,0,0,0-.65.08.41.41,0,0,0-.21.15.36.36,0,0,0-.08.25,4.94,4.94,0,0,0,.29.92l1.62,4.2,1.45-3.8c.15-.39.24-.66.28-.81a1.9,1.9,0,0,0,.05-.4.53.53,0,0,0-.18-.42,1.24,1.24,0,0,0-.7-.17v-.24Z"/><path class="cls-2" d="M156.85,71.75v3.54a4,4,0,0,1,.92-.75,1.93,1.93,0,0,1,.87-.22,1.52,1.52,0,0,1,1,.33,1.61,1.61,0,0,1,.54.77,5.68,5.68,0,0,1,.14,1.49V79.3a1.69,1.69,0,0,0,.13.87.73.73,0,0,0,.53.22v.24h-3.1v-.24a.7.7,0,0,0,.49-.26,1.93,1.93,0,0,0,.11-.83V76.57a5.52,5.52,0,0,0-.05-.95.59.59,0,0,0-.2-.3.48.48,0,0,0-.32-.11.84.84,0,0,0-.51.18,2.23,2.23,0,0,0-.54.63V79.3a1.93,1.93,0,0,0,.1.82.61.61,0,0,0,.51.27v.24h-3.1v-.24a.79.79,0,0,0,.55-.24,1.92,1.92,0,0,0,.11-.85V73.08a1.67,1.67,0,0,0-.13-.86.77.77,0,0,0-.53-.23v-.24Z"/><path class="cls-2" d="M167,77.35h-3.36a3.17,3.17,0,0,0,.65,1.92,1.35,1.35,0,0,0,1.09.55,1.19,1.19,0,0,0,.71-.22,2.82,2.82,0,0,0,.69-.79L167,79a3.68,3.68,0,0,1-1.1,1.44,2.38,2.38,0,0,1-1.39.42,2.33,2.33,0,0,1-2.07-1,3.72,3.72,0,0,1-.56-2.09,3.5,3.5,0,0,1,.83-2.44,2.57,2.57,0,0,1,1.94-.91,2.09,2.09,0,0,1,1.61.77A3.43,3.43,0,0,1,167,77.35Zm-1.61-.44a6.58,6.58,0,0,0-.11-1.45,1.19,1.19,0,0,0-.36-.59.53.53,0,0,0-.37-.12.64.64,0,0,0-.55.33,2.87,2.87,0,0,0-.39,1.6v.23Z"/><path class="cls-2" d="M170.3,74.51V75.9a4.27,4.27,0,0,1,1.06-1.26,1.59,1.59,0,0,1,.89-.32.77.77,0,0,1,.58.23.86.86,0,0,1,.22.64,1,1,0,0,1-.21.68.65.65,0,0,1-.51.24.9.9,0,0,1-.61-.22l-.3-.25a.24.24,0,0,0-.15,0,.56.56,0,0,0-.36.15,1.3,1.3,0,0,0-.4.63,4.42,4.42,0,0,0-.21,1.4v1.78a1.46,1.46,0,0,0,0,.47.49.49,0,0,0,.23.26,1.21,1.21,0,0,0,.52.1v.24h-3.3v-.24a.72.72,0,0,0,.54-.22,2.06,2.06,0,0,0,.14-1V75.8a2.18,2.18,0,0,0-.06-.66.49.49,0,0,0-.19-.27.89.89,0,0,0-.43-.12v-.24Z"/><path class="cls-2" d="M178.65,77.35h-3.36a3.17,3.17,0,0,0,.65,1.92,1.35,1.35,0,0,0,1.09.55,1.19,1.19,0,0,0,.71-.22,3,3,0,0,0,.69-.79l.22.14a3.68,3.68,0,0,1-1.1,1.44,2.38,2.38,0,0,1-1.39.42,2.33,2.33,0,0,1-2.07-1,3.72,3.72,0,0,1-.56-2.09,3.5,3.5,0,0,1,.83-2.44,2.57,2.57,0,0,1,1.94-.91,2.09,2.09,0,0,1,1.61.77A3.43,3.43,0,0,1,178.65,77.35ZM177,76.91a6.58,6.58,0,0,0-.11-1.45,1.19,1.19,0,0,0-.36-.59.53.53,0,0,0-.37-.12.64.64,0,0,0-.55.33,2.87,2.87,0,0,0-.39,1.6v.23Z"/><path class="cls-2" d="M185.58,80.88l-2-4.54a6.26,6.26,0,0,0-.66-1.26,1.08,1.08,0,0,0-.51-.33v-.24h3.25v.24a.81.81,0,0,0-.45.12.35.35,0,0,0-.13.27,3.16,3.16,0,0,0,.33,1l1,2.39.72-1.85a4.81,4.81,0,0,0,.38-1.38.46.46,0,0,0-.16-.38.85.85,0,0,0-.56-.16v-.24h2.05v.24a.81.81,0,0,0-.5.23,6.63,6.63,0,0,0-.63,1.36L186,80.88A10.15,10.15,0,0,1,185,83a1.4,1.4,0,0,1-1.13.55,1.23,1.23,0,0,1-.88-.31,1,1,0,0,1-.34-.75.92.92,0,0,1,.23-.63.79.79,0,0,1,.57-.25.73.73,0,0,1,.53.21,1,1,0,0,1,.21.65.53.53,0,0,0,.06.32.16.16,0,0,0,.15.07.5.5,0,0,0,.33-.18,4.19,4.19,0,0,0,.62-1.26Z"/><path class="cls-2" d="M192.36,74.32a2.82,2.82,0,0,1,1.49.42,2.64,2.64,0,0,1,1,1.17,3.81,3.81,0,0,1,.36,1.66,3.45,3.45,0,0,1-.67,2.18,2.58,2.58,0,0,1-2.2,1.06,2.53,2.53,0,0,1-2.13-1,3.54,3.54,0,0,1-.75-2.24,3.65,3.65,0,0,1,.77-2.3A2.51,2.51,0,0,1,192.36,74.32Zm0,.47a.75.75,0,0,0-.57.25,1.77,1.77,0,0,0-.31,1c-.05.49-.08,1.18-.08,2.06a8.89,8.89,0,0,0,.09,1.31,1.34,1.34,0,0,0,.31.71.75.75,0,0,0,.54.24.72.72,0,0,0,.49-.16,1.14,1.14,0,0,0,.34-.62,15,15,0,0,0,.13-2.52,6.48,6.48,0,0,0-.12-1.53,1.21,1.21,0,0,0-.37-.6A.69.69,0,0,0,192.38,74.79Z"/><path class="cls-2" d="M202.09,74.51V79.3a1.69,1.69,0,0,0,.13.87.73.73,0,0,0,.53.22v.24h-2.5v-.82a3.12,3.12,0,0,1-.87.76,2,2,0,0,1-1,.24,1.41,1.41,0,0,1-.91-.31,1.56,1.56,0,0,1-.54-.75,5.1,5.1,0,0,1-.14-1.48V75.84a1.72,1.72,0,0,0-.13-.87.82.82,0,0,0-.53-.22v-.24h2.49v4.18a3.65,3.65,0,0,0,.06.85.54.54,0,0,0,.2.28.48.48,0,0,0,.31.1.8.8,0,0,0,.43-.12,2.75,2.75,0,0,0,.62-.69V75.84a1.88,1.88,0,0,0-.12-.87.85.85,0,0,0-.54-.22v-.24Z"/><path class="cls-2" d="M206.17,74.51V75.9a4.26,4.26,0,0,1,1.07-1.26,1.59,1.59,0,0,1,.88-.32.79.79,0,0,1,.59.23.86.86,0,0,1,.22.64,1,1,0,0,1-.21.68.69.69,0,0,1-.52.24.87.87,0,0,1-.6-.22l-.3-.25a.28.28,0,0,0-.15,0,.53.53,0,0,0-.36.15,1.31,1.31,0,0,0-.41.63,4.42,4.42,0,0,0-.21,1.4v1.78a1.57,1.57,0,0,0,0,.47.51.51,0,0,0,.24.26,1.18,1.18,0,0,0,.52.1v.24h-3.31v-.24a.68.68,0,0,0,.54-.22,1.93,1.93,0,0,0,.14-1V75.8a2.3,2.3,0,0,0,0-.66.55.55,0,0,0-.19-.27.93.93,0,0,0-.44-.12v-.24Z"/><path class="cls-2" d="M217.69,79.05l.2.16a3.13,3.13,0,0,1-1.08,1.21,2.59,2.59,0,0,1-1.37.39,2.4,2.4,0,0,1-2-.92,3.53,3.53,0,0,1-.73-2.22,3.7,3.7,0,0,1,.67-2.2,2.59,2.59,0,0,1,2.22-1.15,2.26,2.26,0,0,1,1.51.48,1.41,1.41,0,0,1,.56,1.07.81.81,0,0,1-.23.6.84.84,0,0,1-.59.22.87.87,0,0,1-.64-.26,1.47,1.47,0,0,1-.31-.91,1,1,0,0,0-.19-.57.47.47,0,0,0-.35-.17.64.64,0,0,0-.54.34,2.75,2.75,0,0,0-.34,1.54,5,5,0,0,0,.27,1.65,2.6,2.6,0,0,0,.76,1.18,1.32,1.32,0,0,0,.85.28,1.34,1.34,0,0,0,.61-.15A2.78,2.78,0,0,0,217.69,79.05Z"/><path class="cls-2" d="M222,79.73a3.18,3.18,0,0,1-2,1,1.18,1.18,0,0,1-.87-.34,1.16,1.16,0,0,1-.35-.86,1.66,1.66,0,0,1,.61-1.26A11.38,11.38,0,0,1,222,76.76v-.62a3,3,0,0,0-.07-.87.71.71,0,0,0-.29-.31.86.86,0,0,0-.47-.14,1.26,1.26,0,0,0-.7.19.35.35,0,0,0-.17.28.59.59,0,0,0,.18.34.83.83,0,0,1,.25.54.74.74,0,0,1-.24.55.87.87,0,0,1-.62.22,1,1,0,0,1-.69-.25.74.74,0,0,1-.28-.58,1.36,1.36,0,0,1,.37-.9,2.52,2.52,0,0,1,1-.66,4.36,4.36,0,0,1,1.39-.23,2.35,2.35,0,0,1,1.38.37,1.75,1.75,0,0,1,.66.81,5.23,5.23,0,0,1,.09,1.26v2.38a2.57,2.57,0,0,0,0,.52.28.28,0,0,0,.1.16.2.2,0,0,0,.15.06c.11,0,.23-.08.35-.25l.19.16a2.43,2.43,0,0,1-.67.71,1.54,1.54,0,0,1-.8.21,1.27,1.27,0,0,1-.82-.24A1.16,1.16,0,0,1,222,79.73Zm0-.48v-2a3.88,3.88,0,0,0-1.18,1,1.23,1.23,0,0,0-.25.72.76.76,0,0,0,.21.53.6.6,0,0,0,.46.18A1.29,1.29,0,0,0,222,79.25Z"/><path class="cls-2" d="M227.89,74.51V75.9A4.27,4.27,0,0,1,229,74.64a1.59,1.59,0,0,1,.89-.32.77.77,0,0,1,.58.23.86.86,0,0,1,.22.64,1,1,0,0,1-.21.68.65.65,0,0,1-.51.24.88.88,0,0,1-.61-.22l-.3-.25a.24.24,0,0,0-.15,0,.56.56,0,0,0-.36.15,1.3,1.3,0,0,0-.4.63,4.42,4.42,0,0,0-.21,1.4v1.78a1.46,1.46,0,0,0,.05.47.49.49,0,0,0,.23.26,1.21,1.21,0,0,0,.52.1v.24h-3.3v-.24a.72.72,0,0,0,.54-.22,2.06,2.06,0,0,0,.14-1V75.8a2.18,2.18,0,0,0-.06-.66.49.49,0,0,0-.19-.27.89.89,0,0,0-.43-.12v-.24Z"/><path class="cls-2" d="M236.24,77.35h-3.36a3.17,3.17,0,0,0,.65,1.92,1.35,1.35,0,0,0,1.09.55,1.19,1.19,0,0,0,.71-.22,3,3,0,0,0,.69-.79l.22.14a3.68,3.68,0,0,1-1.1,1.44,2.38,2.38,0,0,1-1.39.42,2.33,2.33,0,0,1-2.07-1,3.72,3.72,0,0,1-.56-2.09,3.5,3.5,0,0,1,.83-2.44,2.57,2.57,0,0,1,1.94-.91,2.09,2.09,0,0,1,1.61.77A3.43,3.43,0,0,1,236.24,77.35Zm-1.61-.44a6.58,6.58,0,0,0-.11-1.45,1.19,1.19,0,0,0-.36-.59.53.53,0,0,0-.37-.12.64.64,0,0,0-.55.33,2.87,2.87,0,0,0-.39,1.6v.23Z"/><path class="cls-2" d="M242.19,77.35h-3.36a3.17,3.17,0,0,0,.65,1.92,1.35,1.35,0,0,0,1.09.55,1.19,1.19,0,0,0,.71-.22,2.82,2.82,0,0,0,.69-.79l.22.14a3.68,3.68,0,0,1-1.1,1.44,2.36,2.36,0,0,1-1.39.42,2.31,2.31,0,0,1-2.06-1,3.65,3.65,0,0,1-.57-2.09,3.5,3.5,0,0,1,.83-2.44,2.57,2.57,0,0,1,1.94-.91,2.09,2.09,0,0,1,1.61.77A3.43,3.43,0,0,1,242.19,77.35Zm-1.61-.44a6.58,6.58,0,0,0-.11-1.45,1.19,1.19,0,0,0-.36-.59.53.53,0,0,0-.37-.12.64.64,0,0,0-.55.33,2.87,2.87,0,0,0-.39,1.6v.23Z"/><path class="cls-2" d="M245.5,74.51V75.9a4.27,4.27,0,0,1,1.06-1.26,1.59,1.59,0,0,1,.89-.32.77.77,0,0,1,.58.23.86.86,0,0,1,.22.64,1,1,0,0,1-.21.68.65.65,0,0,1-.51.24.9.9,0,0,1-.61-.22l-.3-.25a.24.24,0,0,0-.15,0,.56.56,0,0,0-.36.15,1.3,1.3,0,0,0-.4.63,4.42,4.42,0,0,0-.21,1.4v1.78a1.46,1.46,0,0,0,.05.47.49.49,0,0,0,.23.26,1.25,1.25,0,0,0,.52.1v.24H243v-.24a.72.72,0,0,0,.54-.22,2.06,2.06,0,0,0,.14-1V75.8a2.77,2.77,0,0,0-.05-.66.62.62,0,0,0-.19-.27,1,1,0,0,0-.44-.12v-.24Z"/><path class="cls-2" d="M254.39,71.75v3.37a2.32,2.32,0,0,1,1.69-.8,2.13,2.13,0,0,1,1.18.37,2.49,2.49,0,0,1,.87,1.06,3.67,3.67,0,0,1,.32,1.57,4.22,4.22,0,0,1-.4,1.82A3,3,0,0,1,257,80.38a2.7,2.7,0,0,1-1.52.43,2.44,2.44,0,0,1-.89-.15,2.67,2.67,0,0,1-.76-.51l-1,.66h-.23V73a2.76,2.76,0,0,0,0-.65.49.49,0,0,0-.21-.27,1,1,0,0,0-.47-.11v-.24Zm0,4v2.72a7.67,7.67,0,0,0,0,1.06,1.11,1.11,0,0,0,.31.63.88.88,0,0,0,.64.23.87.87,0,0,0,.57-.19,1.43,1.43,0,0,0,.4-.75,8.38,8.38,0,0,0,.16-2,3.77,3.77,0,0,0-.35-1.93.8.8,0,0,0-.69-.38A1.4,1.4,0,0,0,254.39,75.71Z"/><path class="cls-2" d="M264.66,77.35H261.3a3.17,3.17,0,0,0,.65,1.92,1.35,1.35,0,0,0,1.09.55,1.19,1.19,0,0,0,.71-.22,3,3,0,0,0,.69-.79l.22.14a3.68,3.68,0,0,1-1.1,1.44,2.38,2.38,0,0,1-1.39.42,2.33,2.33,0,0,1-2.07-1,3.72,3.72,0,0,1-.56-2.09,3.5,3.5,0,0,1,.83-2.44,2.57,2.57,0,0,1,1.94-.91,2.09,2.09,0,0,1,1.61.77A3.48,3.48,0,0,1,264.66,77.35Zm-1.61-.44a5.86,5.86,0,0,0-.12-1.45,1.11,1.11,0,0,0-.35-.59.55.55,0,0,0-.37-.12.65.65,0,0,0-.56.33,3,3,0,0,0-.38,1.6v.23Z"/><path class="cls-2" d="M269.35,74.58h2.07v.72h-1.18a2.07,2.07,0,0,1,.45.58,1.93,1.93,0,0,1,.16.74,1.79,1.79,0,0,1-.37,1.14,2.37,2.37,0,0,1-1,.75,2.8,2.8,0,0,1-1.11.27l-.78,0a.69.69,0,0,0-.5.19.64.64,0,0,0-.19.47.47.47,0,0,0,.17.38.93.93,0,0,0,.59.15h1.13a4.18,4.18,0,0,1,1.9.3,1.38,1.38,0,0,1,.73,1.29,1.62,1.62,0,0,1-.34,1,1.94,1.94,0,0,1-.89.67,5.35,5.35,0,0,1-1.95.32,6.33,6.33,0,0,1-1.5-.16,2,2,0,0,1-1-.44.85.85,0,0,1-.29-.6.76.76,0,0,1,.22-.54,1.72,1.72,0,0,1,.84-.4,1.3,1.3,0,0,1-.85-1.17,1.41,1.41,0,0,1,.35-.88,2.82,2.82,0,0,1,1.1-.74,2.67,2.67,0,0,1-1.27-.84,2,2,0,0,1-.39-1.21,2,2,0,0,1,.73-1.56,2.72,2.72,0,0,1,1.89-.66A3.41,3.41,0,0,1,269.35,74.58Zm-1.52,7a2.33,2.33,0,0,0-.88.11.61.61,0,0,0-.37.55.76.76,0,0,0,.38.61,2.77,2.77,0,0,0,1.46.27,3.51,3.51,0,0,0,1.43-.24.76.76,0,0,0,.52-.68.4.4,0,0,0-.1-.28,1,1,0,0,0-.53-.27A16,16,0,0,0,267.83,81.53Zm.39-6.8a.77.77,0,0,0-.64.38,3.14,3.14,0,0,0-.26,1.59,2.39,2.39,0,0,0,.26,1.34.73.73,0,0,0,.61.36.77.77,0,0,0,.65-.36,2.52,2.52,0,0,0,.26-1.4,3,3,0,0,0-.29-1.59A.68.68,0,0,0,268.22,74.73Z"/><path class="cls-2" d="M274.52,74.51v4.85a1.48,1.48,0,0,0,.15.83.79.79,0,0,0,.59.2v.24H272v-.24a.75.75,0,0,0,.6-.23,1.42,1.42,0,0,0,.14-.8V75.79a1.43,1.43,0,0,0-.16-.83.81.81,0,0,0-.58-.21v-.24Zm-.92-3a1,1,0,0,1,.72.3,1,1,0,0,1,.3.72,1,1,0,0,1-.3.71,1,1,0,0,1-.72.3.94.94,0,0,1-.71-.3,1,1,0,0,1-.3-.71,1,1,0,0,1,.3-.72A.94.94,0,0,1,273.6,71.54Z"/><path class="cls-2" d="M278.35,74.51v.79a3.56,3.56,0,0,1,.91-.74,1.9,1.9,0,0,1,.93-.24,1.52,1.52,0,0,1,1,.34,1.59,1.59,0,0,1,.52.82,6.36,6.36,0,0,1,.1,1.43v2.38a1.86,1.86,0,0,0,.13.88.76.76,0,0,0,.54.22v.24h-3.1v-.24a.65.65,0,0,0,.5-.28,1.93,1.93,0,0,0,.1-.82V76.57a4.39,4.39,0,0,0-.06-.95.54.54,0,0,0-.2-.3.44.44,0,0,0-.31-.11c-.37,0-.72.27-1,.8v3.28a1.87,1.87,0,0,0,.13.87.65.65,0,0,0,.48.23v.24h-3.1v-.24a.77.77,0,0,0,.55-.24,2,2,0,0,0,.11-.86V75.84a1.72,1.72,0,0,0-.13-.87.8.8,0,0,0-.53-.22v-.24Z"/><path class="cls-2" d="M287.18,74.34l.1,2.09h-.22a3.33,3.33,0,0,0-.83-1.27,1.37,1.37,0,0,0-.86-.34.65.65,0,0,0-.46.18.58.58,0,0,0-.19.41.53.53,0,0,0,.14.34,5.76,5.76,0,0,0,1.17.92,4.92,4.92,0,0,1,1.26,1.11,1.73,1.73,0,0,1,.31,1,2.16,2.16,0,0,1-.26,1,1.74,1.74,0,0,1-.72.75,2,2,0,0,1-1,.26,3.63,3.63,0,0,1-1.17-.27.87.87,0,0,0-.27-.07c-.14,0-.26.1-.36.32h-.21l-.11-2.2h.23a2.74,2.74,0,0,0,.81,1.3,1.52,1.52,0,0,0,1,.43.69.69,0,0,0,.51-.19.65.65,0,0,0,.2-.47.76.76,0,0,0-.2-.54,4.72,4.72,0,0,0-.87-.7,6.67,6.67,0,0,1-1.3-1.06,1.81,1.81,0,0,1-.43-1.18,1.9,1.9,0,0,1,.49-1.28,1.75,1.75,0,0,1,1.41-.58,2.08,2.08,0,0,1,1,.25.71.71,0,0,0,.29.1.36.36,0,0,0,.19,0,1.75,1.75,0,0,0,.23-.28Z"/></g></g></svg>