<svg width="20" height="22" viewBox="0 0 20 22" fill="none" xmlns="http://www.w3.org/2000/svg">
<path d="M0.106877 21.0804C0.016145 21.1661 -0.0203175 21.2941 0.0110567 21.4145C0.0432797 21.5349 0.138251 21.6274 0.259502 21.657C0.466403 21.6943 0.676703 21.7113 0.886986 21.7079C1.84942 21.6859 2.80083 21.5019 3.70226 21.1652C4.6401 20.8294 5.5169 20.3427 6.29699 19.7237C7.49684 20.2401 8.7899 20.5055 10.0958 20.5038C15.5566 20.5038 20 15.9079 20 10.2604C20 4.61289 15.5736 0 10.1128 0C4.65198 0 0.208619 4.59596 0.208619 10.2434C0.207771 12.0895 0.69281 13.9023 1.61624 15.5008H1.63319C1.63319 15.5178 2.39635 16.6201 1.98933 18.4179C1.76887 19.3676 0.56478 20.6562 0.106877 21.0804ZM2.17588 15.1616C1.3186 13.67 0.868341 11.9801 0.870034 10.2604C0.886993 4.96914 5.02511 0.678393 10.1128 0.678393C15.2004 0.678393 19.3385 4.96914 19.3385 10.2433C19.3385 15.5174 15.2006 19.8081 10.1128 19.8081C8.83065 19.8073 7.56383 19.53 6.39878 18.9941C6.27582 18.9339 6.12828 18.9542 6.02567 19.045C5.26928 19.6758 4.40861 20.1694 3.48174 20.5035C2.71858 20.7816 1.91895 20.9478 1.10734 20.9953C1.65004 20.4017 2.44712 19.4181 2.63366 18.5701C3.09156 16.6028 2.29447 15.3139 2.17575 15.1613L2.17588 15.1616Z" fill="#25566B"/>
<path d="M3.77009 13.4321L5.31338 12.3467L8.07764 16.5864L6.5174 17.6888C6.36307 17.7965 6.32491 18.0093 6.4326 18.1636C6.5403 18.3179 6.75314 18.3561 6.90746 18.2484L8.73905 16.9595C8.80774 16.9112 8.85607 16.8383 8.87472 16.756C10.1297 16.4338 14.166 15.2297 14.8274 13.3811C15.0224 12.8393 14.9198 12.2338 14.5561 11.7869L14.4713 11.7021L14.5052 11.5665C14.607 11.1255 14.4713 10.7016 14.1321 10.2776L14.2169 10.0741C14.3347 9.64414 14.2533 9.1837 13.9964 8.8191L15.6754 7.68283C16.1189 7.35806 16.2494 6.75432 15.9806 6.27521V6.24129C15.8339 5.99962 15.5957 5.8275 15.3192 5.76644C15.0182 5.7198 14.7095 5.78679 14.4543 5.95299L10.7232 8.39511C10.8419 7.86937 10.808 7.4454 10.6214 7.10621C10.4544 6.8213 10.1678 6.62797 9.84128 6.58047H9.80736C8.90853 6.52959 8.45063 7.36061 8.33191 7.81849C7.87401 9.20913 6.11034 10.9728 5.51663 11.5496H5.4488C5.36061 11.5318 5.26903 11.5505 5.1944 11.6005L3.36281 12.8894C3.20849 12.9971 3.17033 13.2099 3.27802 13.3642C3.38571 13.5186 3.59856 13.5567 3.75288 13.449L3.77009 13.4321ZM8.9934 8.02208V7.98816C8.9934 7.95424 9.17996 7.24195 9.73961 7.24195H9.75657C9.8685 7.27757 9.96008 7.35728 10.011 7.46242C10.1127 7.63201 10.2145 8.0899 9.75657 9.0905C9.69551 9.22702 9.73198 9.38729 9.84475 9.4848C9.95838 9.58231 10.122 9.59503 10.2484 9.51448L14.8105 6.5466C14.8885 6.50081 14.975 6.47198 15.0649 6.4618C15.1972 6.44654 15.3252 6.51353 15.3871 6.63139C15.4761 6.80777 15.4261 7.02146 15.2684 7.14018L11.3339 9.78592C11.1795 9.89361 11.1414 10.1065 11.2491 10.2608C11.3568 10.4151 11.5696 10.4533 11.7239 10.3456L13.4368 9.19235C13.5835 9.39247 13.6335 9.64686 13.5725 9.88767C13.4029 10.4812 12.504 10.9391 12.1649 11.0748C12.0037 11.1274 11.9062 11.2902 11.9359 11.4572C11.9656 11.6243 12.114 11.743 12.2836 11.7362H12.4023C12.8924 11.5378 13.341 11.2503 13.7251 10.8883C13.8404 11.057 13.8828 11.2648 13.8438 11.4649C13.7421 11.9058 13.1824 12.2789 12.9789 12.3637C12.8356 12.4332 12.7601 12.5927 12.7966 12.747C12.8331 12.9022 12.9721 13.0107 13.1315 13.0082L13.2842 12.9742C13.5852 12.8072 13.8549 12.5893 14.0813 12.3298C14.2415 12.5698 14.2797 12.8716 14.183 13.1438C13.6742 14.5345 10.1977 15.7047 8.62041 16.1117L5.99182 12.0415C6.61931 11.4479 8.48457 9.58243 8.9934 8.02208Z" fill="#25566B"/>
<path d="M11.5374 4.74932C11.6273 4.74932 11.7138 4.7137 11.7774 4.65011C11.841 4.58651 11.8766 4.50002 11.8766 4.41013V3.73176C11.8766 3.54436 11.7248 3.39258 11.5374 3.39258C11.35 3.39258 11.1982 3.54436 11.1982 3.73176V4.41013C11.1982 4.50001 11.2339 4.5865 11.2975 4.65011C11.3611 4.71371 11.4475 4.74932 11.5374 4.74932Z" fill="#25566B"/>
<path d="M12.8265 5.49527C12.9164 5.49357 13.0011 5.45711 13.0639 5.39351L13.5388 4.91866C13.6397 4.78383 13.627 4.59473 13.5074 4.47517C13.3878 4.3556 13.1987 4.34288 13.0639 4.44379L12.589 4.91865C12.4941 5.01532 12.4661 5.15948 12.5178 5.28497C12.5695 5.41046 12.6908 5.49357 12.8265 5.49527Z" fill="#25566B"/>
<path d="M10.3493 5.56246C10.4841 5.66336 10.6732 5.65064 10.7928 5.53108C10.9124 5.41152 10.9251 5.22242 10.8242 5.08759L10.3493 4.61274C10.2145 4.51183 10.0254 4.52455 9.90583 4.64411C9.78627 4.76367 9.77355 4.95277 9.87446 5.0876L10.3493 5.56246Z" fill="#25566B"/>
</svg>
