<svg width="20" height="20" viewBox="0 0 20 20" fill="none" xmlns="http://www.w3.org/2000/svg">
<path d="M19.3434 1.33493H17.5582V0.889077C17.5582 0.397904 17.1603 0 16.6691 0C16.1779 0 15.78 0.397904 15.78 0.889077V1.33493H13.1129V0.889077C13.1129 0.397904 12.715 0 12.2238 0C11.7327 0 11.3348 0.397904 11.3348 0.889077V1.33493H8.66767V0.889077C8.66767 0.397904 8.26976 0 7.77859 0C7.28742 0 6.88951 0.397904 6.88951 0.889077V1.33493H4.22242V0.889077C4.22242 0.397904 3.82452 0 3.33334 0C2.84217 0 2.44427 0.397904 2.44427 0.889077V1.33493H0.65902C0.294858 1.33493 0 1.63691 0 2.00816L0.00088807 17.1126C0.00088807 17.483 0.296656 17.7858 0.659908 17.7858L5.30947 17.7849C6.3664 18.8987 7.81513 19.6377 9.43585 19.7789C9.58151 19.9219 9.78135 20.0089 9.99985 20.0089C10.2183 20.0089 10.4155 19.9228 10.5612 19.7789C12.1803 19.6377 13.6262 18.8987 14.686 17.7849H19.3401C19.7043 17.7849 19.9991 17.483 19.9991 17.1117L20 2.00728C20 1.63691 19.7042 1.33405 19.341 1.33405L19.3434 1.33493ZM16.2241 0.889077C16.2241 0.643945 16.4239 0.44322 16.6699 0.44322C16.9151 0.44322 17.1158 0.643061 17.1158 0.889077V2.89015C17.1158 3.13528 16.9159 3.336 16.6699 3.336C16.4248 3.336 16.2241 3.13616 16.2241 2.89015L16.2232 0.889077H16.2241ZM15.8466 3.2242C15.978 3.54928 16.2969 3.77932 16.6699 3.77932C17.043 3.77932 17.3609 3.54751 17.4933 3.2242C17.5368 3.32635 17.559 3.44003 17.559 3.55817C17.559 4.04934 17.1611 4.44725 16.6699 4.44725C16.1787 4.44725 15.7808 4.04934 15.7808 3.55817C15.7808 3.44004 15.8057 3.32636 15.8466 3.2242ZM11.7786 0.889077C11.7786 0.643945 11.9785 0.44322 12.2245 0.44322C12.4696 0.44322 12.6704 0.643061 12.6704 0.889077V2.89015C12.6704 3.13528 12.4705 3.336 12.2245 3.336C11.9794 3.336 11.7786 3.13616 11.7786 2.89015L11.7778 0.889077H11.7786ZM11.4012 3.2242C11.5326 3.54928 11.8515 3.77932 12.2245 3.77932C12.5975 3.77932 12.9155 3.54751 13.0478 3.2242C13.0914 3.32635 13.1136 3.44003 13.1136 3.55817C13.1136 4.04934 12.7157 4.44725 12.2245 4.44725C11.7333 4.44725 11.3354 4.04934 11.3354 3.55817C11.3354 3.44004 11.3603 3.32636 11.4012 3.2242ZM7.33321 0.889077C7.33321 0.643945 7.53305 0.44322 7.77907 0.44322C8.0242 0.44322 8.22493 0.643061 8.22493 0.889077V2.89015C8.22493 3.13528 8.02508 3.336 7.77907 3.336C7.53394 3.336 7.33321 3.13616 7.33321 2.89015V0.889077ZM6.95573 3.2242C7.08717 3.54928 7.40604 3.77932 7.77907 3.77932C8.1521 3.77932 8.47008 3.54751 8.60241 3.2242C8.64593 3.32635 8.66814 3.44003 8.66814 3.55817C8.66814 4.04934 8.27023 4.44725 7.77906 4.44725C7.28789 4.44725 6.88998 4.04934 6.88998 3.55817C6.88998 3.44004 6.91487 3.32636 6.95573 3.2242ZM2.88346 0.889077C2.88346 0.643945 3.0833 0.44322 3.32932 0.44322C3.57445 0.44322 3.77518 0.643061 3.77518 0.889077V2.89015C3.77518 3.13528 3.57534 3.336 3.32932 3.336C3.08419 3.336 2.88346 3.13616 2.88346 2.89015V0.889077ZM2.50598 3.2242C2.63743 3.54928 2.95629 3.77932 3.32932 3.77932C3.70235 3.77932 4.02033 3.54751 4.15266 3.2242C4.19618 3.32635 4.21839 3.44003 4.21839 3.55817C4.21839 4.04934 3.82048 4.44725 3.32931 4.44725C2.83814 4.44725 2.44023 4.04934 2.44023 3.55817C2.44023 3.44004 2.46512 3.32636 2.50598 3.2242ZM4.03186 14.1409C4.06827 14.148 4.10202 14.1524 4.1411 14.1524H4.87564C5.22559 16.3649 6.97618 18.1155 9.18869 18.4655V19.2C9.18869 19.2391 9.19313 19.2728 9.20023 19.3092C6.51973 18.9522 4.39174 16.8241 4.03453 14.1435L4.03186 14.1409ZM4.1411 12.9747H4.92982C5.13232 12.9747 5.29575 13.1363 5.29575 13.3433C5.29575 13.5502 5.13233 13.7075 4.92982 13.7075H4.1411C3.9386 13.7075 3.77517 13.5458 3.77517 13.3389C3.77517 13.1319 3.93859 12.9747 4.1411 12.9747ZM4.03186 12.5404C4.3889 9.85986 6.51705 7.73187 9.19756 7.37466C9.19046 7.41108 9.18602 7.44483 9.18602 7.48391V8.21844C6.97356 8.56839 5.22289 10.319 4.87296 12.5315H4.13843C4.09935 12.5315 4.0656 12.5359 4.02919 12.543L4.03186 12.5404ZM10.3663 19.1981C10.3663 19.4006 10.2046 19.564 9.99767 19.564C9.79072 19.564 9.63351 19.4006 9.63351 19.1981V18.4094C9.63351 18.2069 9.79516 18.0434 10.0021 18.0434C10.209 18.0434 10.3663 18.2069 10.3663 18.4094V19.1981ZM9.99767 17.5976C9.69035 17.5976 9.42657 17.7726 9.28801 18.0275C7.23899 17.7157 5.62525 16.0992 5.31352 14.053C5.56577 13.9144 5.74339 13.6506 5.74339 13.3389C5.74339 13.0271 5.56842 12.7678 5.31352 12.6292C5.62527 10.5802 7.24354 8.96646 9.28801 8.65473C9.42657 8.90698 9.69035 9.0846 10.0021 9.0846C10.3139 9.0846 10.5732 8.90963 10.7118 8.65473C12.7608 8.96648 14.3745 10.583 14.6862 12.6292C14.434 12.7678 14.2564 13.0316 14.2564 13.3433C14.2564 13.6551 14.4313 13.9144 14.6862 14.053C14.3745 16.102 12.7562 17.7157 10.7118 18.0275C10.5732 17.7752 10.3094 17.5976 9.99767 17.5976ZM9.63351 8.27072V7.48201C9.63351 7.2795 9.79516 7.11607 10.0021 7.11607C10.209 7.11607 10.3663 7.27949 10.3663 7.48201V8.27072C10.3663 8.47322 10.2046 8.63665 9.99767 8.63665C9.79072 8.63665 9.63351 8.47323 9.63351 8.27072ZM15.8588 12.5269H15.1242C14.7743 10.3145 13.0237 8.5638 10.8112 8.21388V7.47934C10.8112 7.44026 10.8067 7.40651 10.7996 7.3701C13.4802 7.72714 15.6081 9.85529 15.9653 12.5358C15.9289 12.5287 15.8952 12.5243 15.8561 12.5243L15.8588 12.5269ZM16.2247 13.3405C16.2247 13.543 16.0613 13.7047 15.8588 13.7047H15.0701C14.8676 13.7047 14.7041 13.543 14.7041 13.3361C14.7041 13.1291 14.8675 12.9719 15.0701 12.9719H15.8588C16.0613 12.9719 16.2247 13.1335 16.2247 13.3405ZM10.7998 19.3045C10.8069 19.2681 10.8113 19.2343 10.8113 19.1953V18.4607C13.0238 18.1108 14.7745 16.3602 15.1244 14.1477H15.8589C15.898 14.1477 15.9318 14.1432 15.9682 14.1361C15.6111 16.8166 13.483 18.9446 10.8025 19.3018L10.7998 19.3045ZM19.5582 17.1107C19.5582 17.2377 19.4623 17.3407 19.3424 17.3407H15.0721C15.8342 16.3788 16.3271 15.1922 16.439 13.9008C16.582 13.7551 16.669 13.5553 16.669 13.3368C16.669 13.1183 16.5802 12.9211 16.439 12.7755C16.1681 9.65795 13.6785 7.17116 10.5609 6.90013C10.4153 6.75714 10.2154 6.6701 9.99694 6.6701C9.77844 6.6701 9.58127 6.75625 9.4356 6.90013C6.31807 7.17103 3.83129 9.66068 3.56026 12.7782C3.41726 12.9239 3.33022 13.1237 3.33022 13.3422C3.33022 13.5607 3.41904 13.7579 3.56026 13.9035C3.67128 15.195 4.16512 16.3771 4.92716 17.3417L0.652308 17.3399C0.531516 17.3399 0.43648 17.2377 0.43648 17.1098V6.04584H19.5563V17.1126L19.5582 17.1107ZM19.5582 5.59901L0.439286 5.59812V2.00721C0.439286 1.8802 0.535208 1.77717 0.655114 1.77717H2.44036V2.56409C2.16947 2.80922 1.9945 3.16183 1.9945 3.55531C1.9945 4.29161 2.59225 4.89024 3.32944 4.89024C4.06574 4.89024 4.66437 4.2925 4.66437 3.55531C4.66437 3.16183 4.49118 2.80745 4.21851 2.56409V1.77717H6.88561V2.56409C6.61472 2.80922 6.43975 3.16183 6.43975 3.55531C6.43975 4.29161 7.03749 4.89024 7.77469 4.89024C8.51099 4.89024 9.10962 4.2925 9.10962 3.55531C9.10962 3.16183 8.93642 2.80745 8.66376 2.56409V1.77717H11.3309V2.56409C11.06 2.80922 10.885 3.16183 10.885 3.55531C10.885 4.29161 11.4827 4.89024 12.2199 4.89024C12.9562 4.89024 13.5549 4.2925 13.5549 3.55531C13.5549 3.16183 13.3817 2.80745 13.109 2.56409V1.77717H15.7761V2.56409C15.5052 2.80922 15.3302 3.16183 15.3302 3.55531C15.3302 4.29161 15.928 4.89024 16.6652 4.89024C17.4015 4.89024 18.0001 4.2925 18.0001 3.55531C18.0001 3.16183 17.8269 2.80745 17.5543 2.56409V1.77717H19.3395C19.4603 1.77717 19.5553 1.87932 19.5553 2.00721V5.59994L19.5582 5.59901Z" fill="#25566B"/>
<path d="M11.1007 13.4513C11.1052 13.4149 11.1123 13.3785 11.1123 13.3403C11.1123 13.0285 10.9826 12.7487 10.7783 12.5471V10.7761C10.7783 10.3462 10.4283 9.99805 10.0002 9.99805H9.99581C9.56593 9.99805 9.21776 10.348 9.21776 10.7761V12.5471C9.01347 12.7496 8.88379 13.0294 8.88379 13.3403C8.88379 13.9176 9.32965 14.391 9.89365 14.4452C9.90253 14.4541 9.90963 14.4683 9.92118 14.4772L11.3396 15.8956C11.4897 16.0483 11.6896 16.1256 11.8903 16.1256C12.0901 16.1256 12.2908 16.051 12.441 15.8956C12.5911 15.7481 12.671 15.5519 12.671 15.3449C12.671 15.138 12.5911 14.9426 12.441 14.7942L11.0998 13.4531L11.1007 13.4513ZM9.66187 10.7751C9.66187 10.5913 9.81198 10.4411 9.99584 10.4411H10.0003C10.1824 10.4411 10.3342 10.5913 10.3342 10.7751V12.2824C10.2277 12.2486 10.1158 12.2282 9.99762 12.2282C9.87949 12.2282 9.76759 12.2513 9.66099 12.2824V10.7751H9.66187ZM9.32791 13.3401C9.32791 12.9715 9.62811 12.6713 9.9967 12.6713C10.3653 12.6713 10.6655 12.9715 10.6655 13.3401C10.6655 13.7087 10.3653 14.0089 9.9967 14.0089C9.62811 14.0089 9.32791 13.7087 9.32791 13.3401ZM12.1266 15.5819C11.9952 15.7133 11.7812 15.7133 11.6541 15.5819L10.4356 14.3651C10.6469 14.2745 10.8219 14.1146 10.9427 13.9219L12.1275 15.1067C12.1888 15.168 12.2252 15.2541 12.2252 15.343C12.2252 15.4318 12.1888 15.5162 12.1275 15.5819H12.1266Z" fill="#25566B"/>
</svg>
