<svg width="30" height="23" viewBox="0 0 30 23" fill="none" xmlns="http://www.w3.org/2000/svg">
<path d="M7.20426 13.0664C7.01981 13.0664 6.87012 13.2158 6.87012 13.4005V14.7147C6.87012 14.8995 7.01981 15.0489 7.20426 15.0489C7.3887 15.0489 7.5384 14.8995 7.5384 14.7147V13.4005C7.5384 13.2158 7.3887 13.0664 7.20426 13.0664Z" fill="#25566B"/>
<path d="M7.20426 18.3232C7.01981 18.3232 6.87012 18.4726 6.87012 18.6574V19.9716C6.87012 20.1563 7.01981 20.3057 7.20426 20.3057C7.3887 20.3057 7.5384 20.1563 7.5384 19.9716V18.6574C7.5384 18.4726 7.3887 18.3232 7.20426 18.3232Z" fill="#25566B"/>
<path d="M7.20426 10.4385C7.01981 10.4385 6.87012 10.5878 6.87012 10.7726V12.0868C6.87012 12.2716 7.01981 12.4209 7.20426 12.4209C7.3887 12.4209 7.5384 12.2716 7.5384 12.0868V10.7726C7.5384 10.5878 7.3887 10.4385 7.20426 10.4385Z" fill="#25566B"/>
<path d="M7.20426 15.6953C7.01981 15.6953 6.87012 15.8447 6.87012 16.0295V17.344C6.87012 17.5287 7.01981 17.6781 7.20426 17.6781C7.3887 17.6781 7.5384 17.5287 7.5384 17.344V16.0295C7.5384 15.8447 7.3887 15.6953 7.20426 15.6953Z" fill="#25566B"/>
<path d="M4.47695 11.918H2.90348C2.71903 11.918 2.56934 12.0673 2.56934 12.2521V18.4932C2.56934 18.678 2.71903 18.8273 2.90348 18.8273H4.47695C4.66139 18.8273 4.81109 18.678 4.81109 18.4932V12.2521C4.81109 12.0673 4.66139 11.918 4.47695 11.918ZM4.1428 18.1591H3.23762V12.5863H4.1428V18.1591Z" fill="#25566B"/>
<path d="M20.5255 11.918H10.1935C10.0091 11.918 9.85938 12.0673 9.85938 12.2521C9.85938 12.4369 10.0091 12.5863 10.1935 12.5863H20.5255C20.7099 12.5863 20.8596 12.4369 20.8596 12.2521C20.8596 12.0673 20.7099 11.918 20.5255 11.918Z" fill="#25566B"/>
<path d="M10.1935 14.1068H17.2212C17.4056 14.1068 17.5553 13.9574 17.5553 13.7726C17.5553 13.5878 17.4056 13.4385 17.2212 13.4385H10.1935C10.0091 13.4385 9.85938 13.5878 9.85938 13.7726C9.85938 13.9574 10.0091 14.1068 10.1935 14.1068Z" fill="#25566B"/>
<path d="M20.5255 14.96H10.1935C10.0091 14.96 9.85938 15.1093 9.85938 15.2941C9.85938 15.4789 10.0091 15.6282 10.1935 15.6282H20.5255C20.7099 15.6282 20.8596 15.4789 20.8596 15.2941C20.8596 15.1093 20.7099 14.96 20.5255 14.96Z" fill="#25566B"/>
<path d="M17.2212 16.4805H10.1935C10.0091 16.4805 9.85938 16.6298 9.85938 16.8146C9.85938 16.9994 10.0091 17.1488 10.1935 17.1488H17.2212C17.4056 17.1488 17.5553 16.9994 17.5553 16.8146C17.5553 16.6298 17.4056 16.4805 17.2212 16.4805Z" fill="#25566B"/>
<path d="M29.9748 9.15751L26.8369 1.54477C26.8031 1.46258 26.7383 1.39742 26.6564 1.36334C26.5749 1.32892 26.4827 1.32925 26.4005 1.36267C25.8732 1.57953 25.2938 1.57953 24.7682 1.36133C24.2426 1.14347 23.8339 0.733147 23.6171 0.206875C23.5833 0.12501 23.5185 0.0598529 23.4363 0.0257706C23.3548 -0.00864592 23.2626 -0.00831142 23.1804 0.0251027L2.67079 8.47953L2.67012 8.4802C2.54916 8.53032 2.46395 8.64928 2.46395 8.78862C2.46395 9.96513 1.50865 10.9221 0.334141 10.9221C0.149695 10.9221 0 11.0715 0 11.2562V19.4885C0 19.6733 0.149695 19.8226 0.334141 19.8226C1.50831 19.8226 2.46395 20.7796 2.46395 21.9561C2.46395 22.1409 2.61365 22.2902 2.7981 22.2902H24.983C25.1675 22.2902 25.3172 22.1409 25.3172 21.9561C25.3172 20.7796 26.2725 19.8226 27.447 19.8226C27.6314 19.8226 27.7811 19.6733 27.7811 19.4885V17.7118C27.7811 17.7098 27.7821 17.7082 27.7821 17.7062V13.0907L28.4528 12.8133C28.6232 12.7428 28.704 12.5477 28.6339 12.3773C28.1861 11.29 28.7064 10.0416 29.7933 9.59389C29.8755 9.55981 29.9404 9.49499 29.9744 9.41312C30.0085 9.33126 30.0085 9.23904 29.9744 9.15717L29.9748 9.15751ZM28.549 7.45506L28.276 7.56766C27.9121 7.71736 27.4931 7.54361 27.3427 7.17939L26.3032 4.6583C26.1529 4.29375 26.3273 3.87474 26.6915 3.72471L26.9642 3.6121L28.549 7.45506ZM24.6683 21.6216H7.53788V21.2858C7.53788 21.101 7.38819 20.9517 7.20374 20.9517C7.0193 20.9517 6.8696 21.101 6.8696 21.2858V21.6216H3.11252C2.96015 20.3435 1.9447 19.3267 0.668616 19.174V11.5703C1.94503 11.4176 2.96015 10.4008 3.11252 9.12276H6.8696V9.45857C6.8696 9.64335 7.0193 9.79271 7.20374 9.79271C7.38819 9.79271 7.53788 9.64335 7.53788 9.45857V9.12276H24.6686C24.821 10.4008 25.8364 11.4176 27.1125 11.5703V12.5467H26.8185C26.056 12.5467 25.4355 13.1672 25.4355 13.93V16.6573C25.4355 17.4198 26.056 18.0403 26.8185 18.0403H27.1125V19.1744C25.8361 19.3271 24.821 20.3439 24.6686 21.622L24.6683 21.6216ZM27.1122 17.3717H26.8181C26.4239 17.3717 26.1034 17.0513 26.1034 16.657V13.9297C26.1034 13.5354 26.4239 13.2146 26.8181 13.2146H27.1122V17.3717ZM27.9068 12.3155L27.7805 12.3676V11.2559C27.7805 11.0711 27.6308 10.9218 27.4463 10.9218C26.2722 10.9218 25.3165 9.96479 25.3165 8.78828C25.3165 8.6035 25.1668 8.45414 24.9824 8.45414H4.48584L23.1449 0.762217C23.4497 1.30887 23.9255 1.73423 24.5122 1.97782C25.098 2.22108 25.7355 2.25817 26.3386 2.08942L26.7112 2.99294L26.4369 3.10621C25.7322 3.39692 25.395 4.20721 25.6854 4.91225L26.7249 7.43334C26.9448 7.96663 27.4617 8.28941 28.0057 8.28941C28.1808 8.28941 28.3589 8.25599 28.5306 8.18516L28.8043 8.07222L29.2367 9.12109C28.1136 9.74894 27.5613 11.0758 27.9071 12.3151L27.9068 12.3155Z" fill="#25566B"/>
</svg>
