<svg width="20" height="22" viewBox="0 0 20 22" fill="none" xmlns="http://www.w3.org/2000/svg">
<path d="M3.84479 5.06008C3.40099 5.06008 2.9977 5.24192 2.70514 5.53359C2.41348 5.82615 2.23163 6.22944 2.23163 6.67324V8.23239C2.65112 7.93893 3.16245 7.76699 3.71336 7.76699C4.42813 7.76699 5.07538 8.05685 5.54437 8.52497C6.01247 8.99306 6.30235 9.64031 6.30235 10.356C6.30235 11.0707 6.01249 11.718 5.54437 12.187C5.25271 12.4786 4.89083 12.7019 4.48664 12.8279C5.20231 12.9792 5.84145 13.3365 6.33927 13.8352C7.01173 14.5077 7.42673 15.4358 7.42673 16.4612C7.42673 16.5882 7.3232 16.6917 7.19628 16.6917H6.08183V18.5776H19.5391V2.71424H6.08183V4.59927H16.3243C16.8941 4.59927 17.4126 4.83242 17.788 5.2078C18.1643 5.58408 18.3983 6.1026 18.3983 6.67333V14.6177C18.3983 15.1875 18.1652 15.7061 17.7898 16.0814C17.4135 16.4577 16.895 16.6918 16.3243 16.6918H9.53953C9.41261 16.6918 9.30908 16.5882 9.30908 16.4613C9.30908 16.3344 9.41261 16.2309 9.53953 16.2309H16.3243C16.7681 16.2309 17.1714 16.049 17.4639 15.7574C17.7556 15.4648 17.9374 15.0615 17.9374 14.6177V8.22727L6.27795 8.22637C6.15102 8.22637 6.0484 8.12375 6.0484 7.99682C6.0484 7.86989 6.15102 7.76727 6.27795 7.76727L17.9374 7.76817V6.67352C17.9374 6.22972 17.7556 5.82643 17.4639 5.53387C17.1714 5.24221 16.7681 5.06036 16.3243 5.06036H3.84484L3.84479 5.06008ZM8.34575 14.4464C8.21882 14.4464 8.1153 14.3429 8.1153 14.2159C8.1153 14.089 8.21882 13.9855 8.34575 13.9855H16.1009C16.2278 13.9855 16.3314 14.089 16.3314 14.2159C16.3314 14.3429 16.2278 14.4464 16.1009 14.4464H8.34575ZM8.34575 12.8917C8.21882 12.8917 8.1153 12.7882 8.1153 12.6613C8.1153 12.5344 8.21882 12.4308 8.34575 12.4308H16.1009C16.2278 12.4308 16.3314 12.5344 16.3314 12.6613C16.3314 12.7882 16.2278 12.8917 16.1009 12.8917H8.34575ZM8.34575 11.3371C8.21882 11.3371 8.1153 11.2336 8.1153 11.1066C8.1153 10.9797 8.21882 10.8762 8.34575 10.8762H16.1009C16.2278 10.8762 16.3314 10.9797 16.3314 11.1066C16.3314 11.2336 16.2278 11.3371 16.1009 11.3371H8.34575ZM8.34575 9.78243C8.21882 9.78243 8.1153 9.67891 8.1153 9.55198C8.1153 9.42505 8.21882 9.32153 8.34575 9.32153H16.1009C16.2278 9.32153 16.3314 9.42505 16.3314 9.55198C16.3314 9.67891 16.2278 9.78243 16.1009 9.78243H8.34575ZM11.9952 6.26182C12.1221 6.26182 12.2256 6.36534 12.2256 6.49227C12.2256 6.6192 12.1221 6.72272 11.9952 6.72272H11.257C11.1301 6.72272 11.0266 6.6192 11.0266 6.49227C11.0266 6.36534 11.1301 6.26182 11.257 6.26182H11.9952ZM14.1287 6.26182C14.2556 6.26182 14.3591 6.36534 14.3591 6.49227C14.3591 6.6192 14.2556 6.72272 14.1287 6.72272H13.3905C13.2636 6.72272 13.16 6.6192 13.16 6.49227C13.16 6.36534 13.2636 6.26182 13.3905 6.26182H14.1287ZM16.2621 6.26182C16.3891 6.26182 16.4926 6.36534 16.4926 6.49227C16.4926 6.6192 16.3891 6.72272 16.2621 6.72272H15.524C15.3971 6.72272 15.2935 6.6192 15.2935 6.49227C15.2935 6.36534 15.3971 6.26182 15.524 6.26182H16.2621ZM8.41871 16.6925C8.29178 16.6925 8.18826 16.589 8.18826 16.4621C8.18826 16.3351 8.29178 16.2316 8.41871 16.2316H8.76978C8.89671 16.2316 9.00023 16.3351 9.00023 16.4621C9.00023 16.589 8.89671 16.6925 8.76978 16.6925H8.41871ZM1.12444 16.2316V15.3458C1.12444 15.2189 1.22797 15.1154 1.3549 15.1154C1.48182 15.1154 1.58535 15.2189 1.58535 15.3458V16.2316H5.84156V15.3458C5.84156 15.2189 5.94509 15.1154 6.07202 15.1154C6.19894 15.1154 6.30247 15.2189 6.30247 15.3458V16.2316H6.95783C6.90111 15.425 6.55094 14.6995 6.0135 14.1621C5.42477 13.5733 4.6119 13.2096 3.71348 13.2096C2.81509 13.2096 2.00219 13.5742 1.41345 14.1621C0.87604 14.6995 0.524947 15.425 0.469131 16.2316H1.12444ZM2.94015 12.8288C2.53596 12.7027 2.17498 12.4804 1.88242 12.1878C1.41433 11.7197 1.12444 11.0725 1.12444 10.3568C1.12444 9.70057 1.3684 9.10105 1.77079 8.64554V6.67409C1.77079 6.10426 2.00394 5.58574 2.37932 5.21036C2.75561 4.83407 3.27412 4.60003 3.84486 4.60003H5.62095V2.53497C5.62095 1.83912 5.90632 1.20538 6.36543 0.745374C6.82723 0.28447 7.46007 0 8.15592 0H17.465C18.1609 0 18.7946 0.285369 19.2546 0.744475C19.7155 1.20628 20 1.83912 20 2.53497V18.7583C20 19.4542 19.7146 20.0879 19.2555 20.5479C18.7937 21.0088 18.1609 21.2933 17.465 21.2933H8.15592C7.46007 21.2933 6.82633 21.0079 6.36633 20.5488C5.90542 20.087 5.62095 19.4542 5.62095 18.7583V16.6924H0.230452C0.103524 16.6924 0 16.5888 0 16.4619C0 15.4366 0.415897 14.5076 1.08746 13.8359C1.58618 13.3372 2.22538 12.9809 2.94015 12.8288ZM5.21766 8.85256C4.83237 8.46726 4.30035 8.22962 3.71343 8.22962C3.1256 8.22962 2.59357 8.46819 2.2092 8.85256C1.82391 9.23785 1.58627 9.76987 1.58627 10.3568C1.58627 10.9446 1.82483 11.4766 2.2092 11.861C2.5945 12.2463 3.12652 12.4839 3.71343 12.4839C4.30127 12.4839 4.83329 12.2454 5.21766 11.861C5.60295 11.4757 5.8406 10.9437 5.8406 10.3568C5.8406 9.76895 5.60203 9.23693 5.21766 8.85256ZM10.9195 20.1977C10.7926 20.1977 10.6891 20.0942 10.6891 19.9673C10.6891 19.8403 10.7926 19.7368 10.9195 19.7368H14.7003C14.8272 19.7368 14.9307 19.8403 14.9307 19.9673C14.9307 20.0942 14.8272 20.1977 14.7003 20.1977H10.9195ZM9.80144 0.461572L10.0724 0.900859H15.5493L15.8203 0.461572H9.80144ZM16.3594 0.461572L15.8832 1.23485C15.8454 1.31047 15.7671 1.36178 15.6771 1.36178H9.94549C9.86807 1.36088 9.79336 1.32217 9.75015 1.25196L9.26313 0.461577H8.15678C7.58604 0.461577 7.06752 0.694725 6.69214 1.07011C6.37886 1.38338 6.16461 1.79566 6.10161 2.25477H19.5201C19.4571 1.79566 19.2438 1.38338 18.9305 1.07101C18.5542 0.694725 18.0357 0.461577 17.465 0.461577H16.3586L16.3594 0.461572ZM6.10154 19.0399C6.16455 19.4981 6.37789 19.9104 6.69117 20.2228C7.06745 20.5991 7.58597 20.8322 8.15671 20.8322H17.4658C18.0365 20.8322 18.5551 20.5991 18.9305 20.2237C19.2437 19.9104 19.458 19.4981 19.521 19.039H6.10246L6.10154 19.0399Z" fill="#25566B"/>
</svg>
