<svg width="28" height="24" viewBox="0 0 28 24" fill="none" xmlns="http://www.w3.org/2000/svg">
<path d="M11.2996 16.0813C11.6296 16.0813 11.9461 15.9502 12.1795 15.7168C12.4129 15.4835 12.544 15.1669 12.544 14.8369C12.5432 14.7458 12.5328 14.6551 12.5129 14.5662L15.4716 13.0262C15.545 12.9883 15.6003 12.9227 15.6254 12.8439C15.6505 12.7652 15.6433 12.6797 15.6053 12.6062C15.5674 12.5328 15.5018 12.4774 15.423 12.4523C15.3443 12.4273 15.2588 12.4345 15.1853 12.4724L12.2236 14.028C12.0862 13.8761 11.913 13.761 11.7197 13.6931C11.5265 13.6252 11.3194 13.6066 11.1172 13.6391C10.915 13.6717 10.7241 13.7542 10.5619 13.8793C10.3997 14.0043 10.2713 14.1679 10.1884 14.3552C10.1056 14.5425 10.0708 14.7476 10.0874 14.9517C10.1039 15.1559 10.1712 15.3526 10.2832 15.5241C10.3951 15.6957 10.5482 15.8365 10.7284 15.9338C10.9086 16.0311 11.1103 16.0818 11.3151 16.0813H11.2996ZM11.2996 14.2427C11.4226 14.2427 11.5429 14.2792 11.6452 14.3475C11.7476 14.4159 11.8273 14.5131 11.8744 14.6268C11.9215 14.7405 11.9338 14.8656 11.9098 14.9863C11.8858 15.107 11.8266 15.2178 11.7395 15.3049C11.6525 15.3919 11.5416 15.4511 11.4209 15.4752C11.3002 15.4992 11.1751 15.4868 11.0614 15.4397C10.9477 15.3927 10.8506 15.3129 10.7822 15.2106C10.7138 15.1083 10.6773 14.988 10.6773 14.8649C10.6752 14.7826 10.6898 14.7007 10.7203 14.6243C10.7509 14.5478 10.7966 14.4784 10.8548 14.4201C10.913 14.3619 10.9825 14.3162 11.0589 14.2857C11.1354 14.2552 11.2173 14.2405 11.2996 14.2427ZM18.6947 19.4009C18.7247 19.4285 18.7481 19.4625 18.7631 19.5004C18.7788 19.539 18.7872 19.5801 18.788 19.6218C18.788 19.7043 18.7552 19.7834 18.6969 19.8418C18.6385 19.9001 18.5594 19.9329 18.4769 19.9329C18.4353 19.9321 18.3941 19.9237 18.3556 19.908C18.3176 19.893 18.2836 19.8696 18.256 19.8396C18.1985 19.7816 18.1661 19.7034 18.1658 19.6218C18.1654 19.5803 18.1728 19.5392 18.1876 19.5004C18.2073 19.4533 18.2383 19.4118 18.2779 19.3795C18.3175 19.3473 18.3644 19.3252 18.4146 19.3154C18.4647 19.3056 18.5164 19.3082 18.5653 19.3231C18.6142 19.338 18.6586 19.3647 18.6947 19.4009ZM6.17419e-08 16.4516C0.00349035 16.8075 0.12894 17.1514 0.355415 17.426C0.58189 17.7006 0.895689 17.8893 1.24444 17.9604C1.03062 18.2251 0.911271 18.5536 0.905333 18.8938C0.905333 19.3063 1.06922 19.702 1.36094 19.9937C1.65267 20.2854 2.04833 20.4493 2.46089 20.4493H4.35556C5.16113 21.4488 6.17296 22.2627 7.32193 22.8353C8.47089 23.4079 9.72992 23.7257 11.013 23.767C12.2961 23.8084 13.5729 23.5723 14.7564 23.0749C15.9398 22.5775 17.002 21.8305 17.8702 20.8849H18.0911C18.5609 20.8917 19.0273 20.8044 19.4627 20.628C19.8982 20.4517 20.294 20.19 20.6267 19.8582C20.7861 19.7039 20.9308 19.5352 21.0591 19.3542V21.6876C21.0591 21.7701 21.0919 21.8492 21.1502 21.9075C21.2086 21.9659 21.2877 21.9987 21.3702 21.9987H27.6889C27.7714 21.9987 27.8505 21.9659 27.9089 21.9075C27.9672 21.8492 28 21.7701 28 21.6876V7.99867C28 7.91615 27.9672 7.83702 27.9089 7.77868C27.8505 7.72033 27.7714 7.68755 27.6889 7.68755H21.3702C21.2877 7.68755 21.2086 7.72033 21.1502 7.77868C21.0919 7.83702 21.0591 7.91615 21.0591 7.99867V9.62578C20.8386 9.30156 20.5664 9.01569 20.2533 8.77955L16.5978 6.06667C16.1967 5.76673 15.8709 5.37753 15.6462 4.92987C15.4216 4.48222 15.3043 3.98841 15.3036 3.48756V1.67378C15.3036 1.22986 15.1272 0.804132 14.8133 0.490238C14.4994 0.176344 14.0737 0 13.6298 0C13.1859 0 12.7601 0.176344 12.4462 0.490238C12.1323 0.804132 11.956 1.22986 11.956 1.67378V2.51689H9.156C9.07349 2.51689 8.99436 2.54967 8.93601 2.60801C8.87767 2.66636 8.84489 2.74549 8.84489 2.828V4.28089C8.84489 4.3634 8.87767 4.44253 8.93601 4.50088C8.99436 4.55922 9.07349 4.592 9.156 4.592H11.004V5.936C9.52126 5.98322 8.07403 6.40145 6.79467 7.15244L6.01378 6.21911C5.95759 6.15264 5.8888 6.09794 5.81138 6.05818C5.73395 6.01842 5.64942 5.99437 5.56266 5.98743C5.4759 5.98049 5.38862 5.99079 5.30586 6.01774C5.2231 6.04469 5.14649 6.08775 5.08044 6.14444L4.06622 7.00933C3.99981 7.06411 3.94517 7.13177 3.90561 7.20823C3.86604 7.28469 3.84236 7.36837 3.836 7.45422C3.82858 7.53971 3.83824 7.62581 3.86441 7.70753C3.89058 7.78925 3.93274 7.86495 3.98844 7.93022L4.72889 8.80133C4.39547 9.16871 4.0917 9.56194 3.82044 9.97733H2.44222C2.14715 9.97588 1.85791 10.0596 1.60922 10.2184C1.36052 10.3772 1.16291 10.6044 1.04008 10.8727C0.917261 11.141 0.874442 11.439 0.91676 11.7311C0.959078 12.0231 1.08474 12.2967 1.27867 12.5191C1.02059 12.6016 0.789087 12.7512 0.607895 12.9526C0.426703 13.154 0.302343 13.4 0.247567 13.6654C0.19279 13.9307 0.209568 14.2058 0.29618 14.4625C0.382791 14.7192 0.53612 14.9483 0.740445 15.1262C0.514088 15.2655 0.327185 15.4604 0.197564 15.6924C0.0679423 15.9244 -7.48075e-05 16.1858 6.17419e-08 16.4516ZM1.51822 18.9093C1.5223 18.6645 1.62243 18.4311 1.79703 18.2594C1.97162 18.0877 2.20669 17.9915 2.45156 17.9916H5.44133C5.65765 18.0294 5.85367 18.1424 5.99492 18.3106C6.13618 18.4787 6.21362 18.6913 6.21362 18.9109C6.21362 19.1305 6.13618 19.3431 5.99492 19.5112C5.85367 19.6794 5.65765 19.7923 5.44133 19.8302H2.44222C2.19899 19.827 1.96663 19.7289 1.79462 19.5569C1.62261 19.3849 1.52456 19.1526 1.52133 18.9093H1.51822ZM21.6782 8.33155H27.3778V21.3982H21.6813V8.33155H21.6782ZM9.45156 3.13911H13.1476V3.96978H9.45156V3.13911ZM4.47378 7.49467L5.49111 6.62978C5.49724 6.62472 5.50494 6.62195 5.51289 6.62195C5.52084 6.62195 5.52854 6.62472 5.53467 6.62978L6.26267 7.48222C5.87662 7.74594 5.51247 8.04038 5.17378 8.36267L4.45822 7.532C4.45596 7.52646 4.45507 7.52046 4.45561 7.51451C4.45615 7.50855 4.45811 7.50281 4.46133 7.49778L4.47378 7.49467ZM11.3182 6.56133C13.5132 6.56954 15.6159 7.44557 17.1675 8.99827C18.719 10.551 19.5934 12.6543 19.6 14.8493C19.6032 16.103 19.319 17.3408 18.7693 18.4676C18.7514 18.5045 18.7409 18.5446 18.7386 18.5856C18.7362 18.6266 18.742 18.6677 18.7556 18.7065C18.7692 18.7452 18.7903 18.7809 18.8178 18.8114C18.8452 18.842 18.8785 18.8668 18.9156 18.8844C18.9573 18.9046 19.003 18.9153 19.0493 18.9156C19.1076 18.9157 19.1648 18.8994 19.2143 18.8686C19.2638 18.8378 19.3037 18.7937 19.3293 18.7413C19.9771 17.4048 20.2809 15.9276 20.2133 14.4439C20.1456 12.9602 19.7087 11.5169 18.9421 10.2447C18.1755 8.97262 17.1035 7.91199 15.8232 7.15903C14.543 6.40608 13.095 5.98463 11.6107 5.93289V4.592H13.4587C13.5412 4.592 13.6203 4.55922 13.6787 4.50088C13.737 4.44253 13.7698 4.3634 13.7698 4.28089V2.828C13.7698 2.74549 13.737 2.66636 13.6787 2.60801C13.6203 2.54967 13.5412 2.51689 13.4587 2.51689H12.5782V1.67378C12.5782 1.53569 12.6054 1.39895 12.6583 1.27136C12.7111 1.14378 12.7886 1.02786 12.8862 0.930216C12.9839 0.83257 13.0998 0.755113 13.2274 0.702267C13.3549 0.649421 13.4917 0.622222 13.6298 0.622222C13.7679 0.622222 13.9046 0.649421 14.0322 0.702267C14.1598 0.755113 14.2757 0.83257 14.3733 0.930216C14.471 1.02786 14.5484 1.14378 14.6013 1.27136C14.6541 1.39895 14.6813 1.53569 14.6813 1.67378V3.48756C14.6837 4.08646 14.8256 4.67657 15.0956 5.21117C15.3656 5.74576 15.7563 6.21015 16.2369 6.56756L19.88 9.29289C20.2452 9.56545 20.5419 9.91934 20.7466 10.3265C20.9513 10.7337 21.0583 11.1829 21.0591 11.6387V17.3413C21.0587 17.7286 20.9816 18.1119 20.8322 18.4691C20.6828 18.8264 20.4641 19.1505 20.1887 19.4227C19.9133 19.6949 19.5866 19.9098 19.2277 20.0551C18.8687 20.2003 18.4845 20.273 18.0973 20.2689H17.7333C17.6441 20.271 17.5593 20.3078 17.4969 20.3716C16.7251 21.2399 15.7794 21.9365 14.7212 22.4161C13.663 22.8956 12.5158 23.1475 11.354 23.1555C10.1922 23.1634 9.04175 22.9271 7.97709 22.462C6.91244 21.9969 5.95738 21.3133 5.17378 20.4556H5.42889C5.79357 20.4531 6.14542 20.3207 6.42133 20.0822C6.76672 20.4032 7.14173 20.6907 7.54133 20.9409C7.59084 20.9716 7.64797 20.9877 7.70622 20.9876C7.77396 20.9878 7.83992 20.9659 7.89409 20.9252C7.94825 20.8845 7.98765 20.8272 8.00631 20.7621C8.02496 20.697 8.02185 20.6276 7.99745 20.5644C7.97305 20.5012 7.92869 20.4477 7.87111 20.412C7.48883 20.1748 7.13224 19.8985 6.80711 19.5876C6.91235 19.378 6.96772 19.1469 6.96889 18.9124C6.9654 18.5565 6.83995 18.2126 6.61347 17.938C6.387 17.6634 6.0732 17.4747 5.72444 17.4036C5.93822 17.1391 6.05659 16.8103 6.06044 16.4702C6.06322 16.2516 6.01912 16.0349 5.93111 15.8347C5.8431 15.6345 5.71322 15.4555 5.55022 15.3098C5.74298 15.195 5.90802 15.0391 6.03358 14.8532C6.15913 14.6672 6.2421 14.4559 6.27657 14.2342C6.31104 14.0125 6.29616 13.786 6.23299 13.5707C6.16982 13.3555 6.05991 13.1568 5.91111 12.9889C6.16373 12.9079 6.39097 12.7627 6.57055 12.5675C6.75014 12.3722 6.8759 12.1337 6.9355 11.8752C6.9951 11.6167 6.98651 11.3471 6.91055 11.093C6.83459 10.8388 6.69388 10.6087 6.50222 10.4253C7.6646 9.16351 9.27779 8.41113 10.9916 8.33155V8.82933C10.9916 8.91184 11.0243 8.99098 11.0827 9.04932C11.141 9.10767 11.2202 9.14044 11.3027 9.14044C11.3852 9.14044 11.4643 9.10767 11.5227 9.04932C11.581 8.99098 11.6138 8.91184 11.6138 8.82933V8.33778C13.1248 8.40817 14.5639 9.00339 15.6831 10.0209L15.3378 10.3724C15.2798 10.4307 15.2473 10.5096 15.2473 10.5918C15.2473 10.674 15.2798 10.7528 15.3378 10.8111C15.3961 10.8691 15.4749 10.9016 15.5571 10.9016C15.6393 10.9016 15.7182 10.8691 15.7764 10.8111L16.1218 10.4658C17.1436 11.5841 17.7413 13.025 17.8111 14.5382H17.3196C17.237 14.5382 17.1579 14.571 17.0996 14.6293C17.0412 14.6877 17.0084 14.7668 17.0084 14.8493C17.0084 14.9318 17.0412 15.011 17.0996 15.0693C17.1579 15.1277 17.237 15.1604 17.3196 15.1604H17.8111C17.7413 16.6736 17.1436 18.1146 16.1218 19.2329L15.7764 18.8876C15.7486 18.855 15.7142 18.8285 15.6756 18.8099C15.637 18.7912 15.595 18.7807 15.5521 18.779C15.5093 18.7774 15.4666 18.7846 15.4267 18.8002C15.3867 18.8159 15.3505 18.8396 15.3202 18.8699C15.2898 18.9002 15.2661 18.9365 15.2505 18.9764C15.2348 19.0164 15.2276 19.0591 15.2293 19.1019C15.2309 19.1448 15.2414 19.1868 15.2601 19.2254C15.2788 19.264 15.3052 19.2983 15.3378 19.3262L15.6831 19.6653C14.5645 20.6862 13.1235 21.2828 11.6107 21.3516V20.8724C11.6107 20.7899 11.5779 20.7108 11.5195 20.6525C11.4612 20.5941 11.3821 20.5613 11.2996 20.5613C11.217 20.5613 11.1379 20.5941 11.0796 20.6525C11.0212 20.7108 10.9884 20.7899 10.9884 20.8724V21.3671C10.3933 21.3418 9.80429 21.2372 9.23689 21.056C9.16123 21.038 9.08157 21.049 9.01361 21.0868C8.94565 21.1246 8.89432 21.1865 8.86973 21.2603C8.84513 21.3341 8.84906 21.4144 8.88075 21.4854C8.91243 21.5564 8.96956 21.613 9.04089 21.644C10.2973 22.0609 11.6446 22.121 12.9332 21.8179C14.2217 21.5147 15.4009 20.86 16.3396 19.9267C17.6694 18.5864 18.4157 16.7748 18.4157 14.8867C18.4157 12.9985 17.6694 11.187 16.3396 9.84667C15.6502 9.16263 14.8288 8.62608 13.9255 8.26968C13.0221 7.91327 12.0556 7.74449 11.085 7.77359C10.1143 7.8027 9.15965 8.02909 8.27925 8.43898C7.39886 8.84886 6.61112 9.43367 5.964 10.1578C5.79412 10.0928 5.61388 10.0591 5.432 10.0582H4.56711C5.32708 8.97772 6.33502 8.09516 7.50643 7.48456C8.67784 6.87395 9.97857 6.5531 11.2996 6.54889L11.3182 6.56133ZM2.44222 10.6151H5.432C5.64646 10.6548 5.84027 10.7683 5.97977 10.9359C6.11926 11.1036 6.19564 11.3148 6.19564 11.5329C6.19564 11.751 6.11926 11.9622 5.97977 12.1299C5.84027 12.2975 5.64646 12.411 5.432 12.4507H2.44222C2.30756 12.4756 2.16907 12.4705 2.03658 12.4359C1.90409 12.4013 1.78083 12.3379 1.67557 12.2503C1.5703 12.1628 1.4856 12.0531 1.42746 11.9291C1.36933 11.8051 1.3392 11.6698 1.3392 11.5329C1.3392 11.3959 1.36933 11.2607 1.42746 11.1367C1.4856 11.0127 1.5703 10.903 1.67557 10.8154C1.78083 10.7278 1.90409 10.6645 2.03658 10.6299C2.16907 10.5953 2.30756 10.5902 2.44222 10.6151ZM1.75467 13.0729H4.74756C4.96387 13.1108 5.15989 13.2237 5.30115 13.3919C5.4424 13.56 5.51984 13.7726 5.51984 13.9922C5.51984 14.2118 5.4424 14.4244 5.30115 14.5926C5.15989 14.7607 4.96387 14.8737 4.74756 14.9116H1.75467C1.53835 14.8737 1.34233 14.7607 1.20108 14.5926C1.05982 14.4244 0.982384 14.2118 0.982384 13.9922C0.982384 13.7726 1.05982 13.56 1.20108 13.3919C1.34233 13.2237 1.53835 13.1108 1.75467 13.0729ZM1.55556 15.5338H4.54533C4.7598 15.5734 4.9536 15.6869 5.0931 15.8546C5.2326 16.0222 5.30898 16.2335 5.30898 16.4516C5.30898 16.6697 5.2326 16.8809 5.0931 17.0485C4.9536 17.2162 4.7598 17.3297 4.54533 17.3693H1.55556C1.4209 17.3942 1.28241 17.3892 1.14991 17.3546C1.01742 17.32 0.894168 17.2566 0.7889 17.169C0.683632 17.0814 0.598929 16.9717 0.540797 16.8478C0.482666 16.7238 0.452531 16.5885 0.452531 16.4516C0.452531 16.3146 0.482666 16.1793 0.540797 16.0554C0.598929 15.9314 0.683632 15.8217 0.7889 15.7341C0.894168 15.6465 1.01742 15.5832 1.14991 15.5485C1.28241 15.5139 1.4209 15.5089 1.55556 15.5338Z" fill="#25566B"/>
</svg>
