<svg width="40" height="40" viewBox="0 0 40 40" fill="none" xmlns="http://www.w3.org/2000/svg">
<rect width="40" height="40" rx="10" fill="url(#paint0_linear_16509_7156)"/>
<path fill-rule="evenodd" clip-rule="evenodd" d="M12.1553 12.1553C11.2398 13.0709 10.75 14.574 10.75 17V23C10.75 25.426 11.2398 26.9291 12.1553 27.8447C13.0709 28.7602 14.574 29.25 17 29.25H23C25.426 29.25 26.9291 28.7602 27.8447 27.8447C28.7602 26.9291 29.25 25.426 29.25 23V18C29.25 17.5858 29.5858 17.25 30 17.25C30.4142 17.25 30.75 17.5858 30.75 18V23C30.75 25.574 30.2398 27.5709 28.9053 28.9053C27.5709 30.2398 25.574 30.75 23 30.75H17C14.426 30.75 12.4291 30.2398 11.0947 28.9053C9.7602 27.5709 9.25 25.574 9.25 23V17C9.25 14.426 9.7602 12.4291 11.0947 11.0947C12.4291 9.7602 14.426 9.25 17 9.25H22C22.4142 9.25 22.75 9.58579 22.75 10C22.75 10.4142 22.4142 10.75 22 10.75H17C14.574 10.75 13.0709 11.2398 12.1553 12.1553Z" fill="white"/>
<path fill-rule="evenodd" clip-rule="evenodd" d="M21.713 9.30711C21.9932 9.19103 22.3158 9.25519 22.5303 9.46969L30.5303 17.4697C30.7448 17.6842 30.809 18.0068 30.6929 18.287C30.5768 18.5673 30.3033 18.75 30 18.75H26C24.4585 18.75 23.1921 18.5028 22.3447 17.6554C21.4972 16.8079 21.25 15.5416 21.25 14V10C21.25 9.69668 21.4327 9.4232 21.713 9.30711ZM22.75 11.8107V14C22.75 15.4585 23.0028 16.1921 23.4053 16.5947C23.8079 16.9973 24.5415 17.25 26 17.25H28.1893L22.75 11.8107Z" fill="white"/>
<path fill-rule="evenodd" clip-rule="evenodd" d="M14.25 21C14.25 20.5858 14.5858 20.25 15 20.25H21C21.4142 20.25 21.75 20.5858 21.75 21C21.75 21.4142 21.4142 21.75 21 21.75H15C14.5858 21.75 14.25 21.4142 14.25 21Z" fill="white"/>
<path fill-rule="evenodd" clip-rule="evenodd" d="M14.25 25C14.25 24.5858 14.5858 24.25 15 24.25H19C19.4142 24.25 19.75 24.5858 19.75 25C19.75 25.4142 19.4142 25.75 19 25.75H15C14.5858 25.75 14.25 25.4142 14.25 25Z" fill="white"/>
<defs>
<linearGradient id="paint0_linear_16509_7156" x1="20" y1="0" x2="20" y2="40" gradientUnits="userSpaceOnUse">
<stop stop-color="#EECF7B"/>
<stop offset="1" stop-color="#C89E2D"/>
</linearGradient>
</defs>
</svg>
