<?xml version="1.0" encoding="UTF-8"?><svg id="Layer_1" xmlns="http://www.w3.org/2000/svg" viewBox="0 0 512 512"><defs><style>.cls-1{fill:#00b67a;}.cls-2{fill:#191919;}.cls-3{fill:#005128;}</style></defs><path class="cls-2" d="M148.05,239.74h46.06v8.59h-18.11v48.31h-9.96v-48.31h-18.03v-8.59h.04Zm44.09,15.7h8.51v7.95h.16c.28-1.12,.8-2.21,1.57-3.25s1.69-2.05,2.77-2.89c1.08-.88,2.29-1.57,3.61-2.13,1.33-.52,2.69-.8,4.06-.8,1.04,0,1.81,.04,2.21,.08s.8,.12,1.24,.16v8.75c-.64-.12-1.29-.2-1.97-.28-.68-.08-1.33-.12-1.97-.12-1.53,0-2.97,.32-4.34,.92s-2.53,1.53-3.53,2.69c-1,1.2-1.81,2.65-2.41,4.42s-.88,3.77-.88,6.06v19.6h-9.08v-41.16h.04Zm65.86,41.2h-8.92v-5.74h-.16c-1.12,2.09-2.77,3.73-4.98,4.98-2.21,1.24-4.46,1.89-6.75,1.89-5.42,0-9.36-1.33-11.77-4.02s-3.61-6.75-3.61-12.17v-26.14h9.08v25.26c0,3.61,.68,6.18,2.09,7.67,1.37,1.49,3.33,2.25,5.82,2.25,1.93,0,3.49-.28,4.78-.88s2.33-1.37,3.09-2.37c.8-.96,1.37-2.17,1.73-3.53,.36-1.37,.52-2.85,.52-4.46v-23.89h9.08v41.16Zm15.46-13.21c.28,2.65,1.29,4.5,3.01,5.58,1.77,1.04,3.86,1.61,6.3,1.61,.84,0,1.81-.08,2.89-.2s2.13-.4,3.05-.76c.96-.36,1.73-.92,2.37-1.65,.6-.72,.88-1.65,.84-2.81-.04-1.16-.48-2.13-1.29-2.85-.8-.76-1.81-1.33-3.05-1.81-1.24-.44-2.65-.84-4.26-1.16-1.61-.32-3.21-.68-4.86-1.04-1.69-.36-3.33-.84-4.9-1.37-1.57-.52-2.97-1.24-4.22-2.17-1.24-.88-2.25-2.05-2.97-3.45-.76-1.41-1.12-3.13-1.12-5.22,0-2.25,.56-4.1,1.65-5.62,1.08-1.53,2.49-2.73,4.14-3.65,1.69-.92,3.53-1.57,5.58-1.97,2.05-.36,4.02-.56,5.86-.56,2.13,0,4.18,.24,6.1,.68,1.93,.44,3.69,1.16,5.26,2.21,1.57,1,2.85,2.33,3.9,3.94,1.04,1.61,1.69,3.57,1.97,5.86h-9.48c-.44-2.17-1.41-3.65-2.97-4.38-1.57-.76-3.37-1.12-5.38-1.12-.64,0-1.41,.04-2.29,.16-.88,.12-1.69,.32-2.49,.6-.76,.28-1.41,.72-1.97,1.29-.52,.56-.8,1.29-.8,2.21,0,1.12,.4,2.01,1.16,2.69s1.77,1.24,3.01,1.73c1.24,.44,2.65,.84,4.26,1.16,1.61,.32,3.25,.68,4.94,1.04,1.65,.36,3.25,.84,4.86,1.37,1.61,.52,3.01,1.24,4.26,2.17,1.24,.92,2.25,2.05,3.01,3.41s1.16,3.09,1.16,5.1c0,2.45-.56,4.5-1.69,6.22-1.12,1.69-2.57,3.09-4.34,4.14-1.77,1.04-3.77,1.85-5.94,2.33-2.17,.48-4.34,.72-6.47,.72-2.61,0-5.02-.28-7.23-.88s-4.14-1.49-5.74-2.65c-1.61-1.2-2.89-2.69-3.82-4.46-.92-1.77-1.41-3.9-1.49-6.35h9.16v-.08Zm29.96-27.99h6.87v-12.37h9.08v12.37h8.19v6.79h-8.19v22.01c0,.96,.04,1.77,.12,2.49,.08,.68,.28,1.29,.56,1.77s.72,.84,1.33,1.08c.6,.24,1.37,.36,2.41,.36,.64,0,1.29,0,1.93-.04s1.29-.12,1.93-.28v7.03c-1,.12-2.01,.2-2.93,.32-.96,.12-1.93,.16-2.93,.16-2.41,0-4.34-.24-5.78-.68-1.45-.44-2.61-1.12-3.41-2.01-.84-.88-1.37-1.97-1.69-3.29-.28-1.33-.48-2.85-.52-4.54v-24.3h-6.87v-6.87h-.08Zm30.56,0h8.59v5.58h.16c1.29-2.41,3.05-4.1,5.34-5.14s4.74-1.57,7.43-1.57c3.25,0,6.06,.56,8.47,1.73,2.41,1.12,4.42,2.69,6.02,4.7s2.77,4.34,3.57,6.99c.8,2.65,1.2,5.5,1.2,8.51,0,2.77-.36,5.46-1.08,8.03-.72,2.61-1.81,4.9-3.25,6.91s-3.29,3.57-5.54,4.78-4.86,1.81-7.91,1.81c-1.33,0-2.65-.12-3.98-.36-1.33-.24-2.61-.64-3.82-1.16-1.2-.52-2.37-1.2-3.37-2.05-1.04-.84-1.89-1.81-2.61-2.89h-.16v20.56h-9.08v-56.42Zm31.73,20.64c0-1.85-.24-3.65-.72-5.42s-1.2-3.29-2.17-4.66c-.96-1.37-2.17-2.45-3.57-3.25-1.45-.8-3.09-1.24-4.94-1.24-3.82,0-6.71,1.33-8.63,3.98-1.93,2.65-2.89,6.18-2.89,10.6,0,2.09,.24,4.02,.76,5.78,.52,1.77,1.24,3.29,2.29,4.58,1,1.29,2.21,2.29,3.61,3.01,1.41,.76,3.05,1.12,4.9,1.12,2.09,0,3.82-.44,5.26-1.29,1.45-.84,2.61-1.97,3.53-3.29,.92-1.37,1.61-2.89,2.01-4.62,.36-1.73,.56-3.49,.56-5.3h0Zm16.02-36.34h9.08v8.59h-9.08s0-8.59,0-8.59Zm0,15.7h9.08v41.2h-9.08v-41.2h0Zm17.19-15.7h9.08v56.91h-9.08v-56.91h0Zm36.91,58.03c-3.29,0-6.22-.56-8.79-1.65-2.57-1.08-4.74-2.61-6.55-4.5-1.77-1.93-3.13-4.22-4.06-6.87s-1.41-5.58-1.41-8.75,.48-6.02,1.41-8.67,2.29-4.94,4.06-6.87c1.77-1.93,3.98-3.41,6.55-4.5,2.57-1.08,5.5-1.65,8.79-1.65s6.22,.56,8.79,1.65c2.57,1.08,4.74,2.61,6.55,4.5,1.77,1.93,3.13,4.22,4.06,6.87,.92,2.65,1.41,5.54,1.41,8.67s-.48,6.1-1.41,8.75-2.29,4.94-4.06,6.87-3.98,3.41-6.55,4.5-5.5,1.65-8.79,1.65h0Zm0-7.19c2.01,0,3.77-.44,5.26-1.29,1.49-.84,2.69-1.97,3.65-3.33,.96-1.37,1.65-2.93,2.13-4.66,.44-1.73,.68-3.49,.68-5.3s-.24-3.49-.68-5.26-1.16-3.29-2.13-4.66c-.96-1.37-2.17-2.45-3.65-3.29-1.49-.84-3.25-1.29-5.26-1.29s-3.77,.44-5.26,1.29c-1.49,.84-2.69,1.97-3.65,3.29-.96,1.37-1.65,2.89-2.13,4.66-.44,1.77-.68,3.49-.68,5.26s.24,3.57,.68,5.3c.44,1.73,1.16,3.29,2.13,4.66,.96,1.37,2.17,2.49,3.65,3.33,1.49,.88,3.25,1.29,5.26,1.29h0Zm23.45-35.14h6.87v-12.37h9.08v12.37h8.19v6.79h-8.19v22.01c0,.96,.04,1.77,.12,2.49,.08,.68,.28,1.29,.56,1.77,.28,.48,.72,.84,1.33,1.08,.6,.24,1.37,.36,2.41,.36,.64,0,1.29,0,1.93-.04,.64-.04,1.29-.12,1.93-.28v7.03c-1,.12-2.01,.2-2.93,.32-.96,.12-1.93,.16-2.93,.16-2.41,0-4.34-.24-5.78-.68-1.45-.44-2.61-1.12-3.41-2.01-.84-.88-1.37-1.97-1.69-3.29-.28-1.33-.48-2.85-.52-4.54v-24.3h-6.87v-6.87h-.08Z"/><path class="cls-1" d="M137.45,239.74h-41.6l-12.85-39.6-12.89,39.6-41.6-.04,33.69,24.5-12.89,39.56,33.69-24.46,33.65,24.46-12.85-39.56,33.65-24.46Z"/><path class="cls-3" d="M106.69,273.15l-2.89-8.96-20.8,15.1,23.69-6.14Z"/></svg>