<svg width="119" height="122" viewBox="0 0 119 122" fill="none" xmlns="http://www.w3.org/2000/svg">
<mask id="path-1-inside-1_1_2026" fill="white">
<path fill-rule="evenodd" clip-rule="evenodd" d="M87.2199 94.5188L87.182 94.5568L87.0167 94.865L86.9551 94.9307L86.8945 94.9523L86.547 95.0051C86.5018 95.023 86.4782 95.0507 86.4762 95.0883L86.4875 95.1346L87.5248 96.717L87.5941 96.776L87.6634 96.7971L88.2269 96.7961L88.2911 96.772L88.324 96.7268L88.5077 96.1937L88.5098 96.1053L88.4805 96.0339L87.3236 94.5424C87.2867 94.5109 87.2521 94.503 87.2199 94.5188ZM87.8785 93.4346L87.8334 93.4778L87.4109 94.2846L87.4006 94.3462L87.4181 94.3935L88.5863 95.8932L88.635 95.9235L88.6843 95.9317L89.6426 95.7464C89.6967 95.7258 89.7246 95.6914 89.7263 95.6431L89.7048 95.5825L88.0069 93.4624C87.9624 93.4254 87.9196 93.4162 87.8785 93.4346ZM85.3146 95.2778C85.2919 95.2795 85.2707 95.2899 85.2555 95.3069C85.2403 95.3238 85.2322 95.346 85.233 95.3687L85.2473 95.4345L86.7009 97.7292C86.7341 97.7707 86.775 97.7849 86.8236 97.7719L86.8723 97.7262L87.3559 96.8757L87.3713 96.8212L87.3538 96.774L86.315 95.1818L86.2734 95.1464L86.2118 95.1361L85.3146 95.2778Z"/>
</mask>
<path d="M87.2199 94.5188L85.0234 90.0266L84.2748 90.3932L83.6854 90.9829L87.2199 94.5188ZM87.182 94.5568L83.6474 91.0209L83.1262 91.5425L82.7776 92.1924L87.182 94.5568ZM87.0167 94.865L90.6631 98.2852L91.1112 97.807L91.4211 97.2294L87.0167 94.865ZM86.9551 94.9307L88.6305 99.6424L89.7724 99.2357L90.6015 98.351L86.9551 94.9307ZM86.8945 94.9523L87.6454 99.8967L88.1188 99.8246L88.57 99.664L86.8945 94.9523ZM86.547 95.0051L85.7961 90.0607L85.2395 90.1455L84.7156 90.3519L86.547 95.0051ZM86.4762 95.0883L81.4849 94.8167L81.4445 95.5567L81.6204 96.2767L86.4762 95.0883ZM86.4875 95.1346L81.6317 96.3229L81.8359 97.1586L82.3074 97.878L86.4875 95.1346ZM87.5248 96.717L83.3447 99.4604L83.7375 100.06L84.2826 100.524L87.5248 96.717ZM87.5941 96.776L84.3519 100.583L85.1443 101.259L86.1404 101.561L87.5941 96.776ZM87.6634 96.7971L86.2097 101.582L86.9244 101.8L87.6714 101.798L87.6634 96.7971ZM88.2269 96.7961L88.235 101.797L89.1392 101.796L89.9855 101.477L88.2269 96.7961ZM88.2911 96.772L90.0497 101.453L91.4522 100.926L92.3335 99.7132L88.2911 96.772ZM88.324 96.7268L92.3663 99.668L92.8058 99.0634L93.0494 98.3567L88.324 96.7268ZM88.5077 96.1937L93.2332 97.8236L93.487 97.0875L93.5051 96.3091L88.5077 96.1937ZM88.5098 96.1053L93.5071 96.2208L93.5315 95.175L93.1349 94.2072L88.5098 96.1053ZM88.4805 96.0339L93.1056 94.1358L92.8472 93.5054L92.4297 92.9672L88.4805 96.0339ZM87.3236 94.5424L91.2728 91.4757L90.9574 91.069L90.5657 90.7352L87.3236 94.5424ZM87.8785 93.4346L85.828 88.8739L85.0471 89.2254L84.4277 89.8169L87.8785 93.4346ZM87.8334 93.4778L84.3825 89.8601L83.7873 90.4284L83.4056 91.1575L87.8334 93.4778ZM87.4109 94.2846L82.9831 91.9644L82.6118 92.6735L82.4802 93.4631L87.4109 94.2846ZM87.4006 94.3462L82.47 93.5248L82.2517 94.8349L82.7118 96.0807L87.4006 94.3462ZM87.4181 94.3935L82.7293 96.1279L82.9982 96.856L83.4751 97.4683L87.4181 94.3935ZM88.5863 95.8932L84.6433 98.968L85.1912 99.6714L85.9484 100.142L88.5863 95.8932ZM88.635 95.9235L85.9971 100.172L86.8368 100.694L87.8119 100.857L88.635 95.9235ZM88.6843 95.9317L87.8612 100.865L88.7488 101.013L89.6323 100.842L88.6843 95.9317ZM89.6426 95.7464L90.5907 100.657L91.0137 100.575L91.4164 100.422L89.6426 95.7464ZM89.7263 95.6431L94.7219 95.8196L94.7557 94.8652L94.4357 93.9655L89.7263 95.6431ZM89.7048 95.5825L94.4141 93.9049L94.132 93.1118L93.6059 92.4548L89.7048 95.5825ZM88.0069 93.4624L91.908 90.3347L91.5913 89.9392L91.2018 89.6154L88.0069 93.4624ZM85.3146 95.2778L85.6901 100.265L85.8926 100.25L86.0932 100.218L85.3146 95.2778ZM85.233 95.3687L80.2368 95.5276L80.2513 95.988L80.3496 96.4379L85.233 95.3687ZM85.2473 95.4345L80.364 96.5037L80.5525 97.3664L81.025 98.1122L85.2473 95.4345ZM86.7009 97.7292L82.4786 100.407L82.6269 100.641L82.8003 100.858L86.7009 97.7292ZM86.8236 97.7719L88.1149 102.603L89.326 102.279L90.241 101.421L86.8236 97.7719ZM86.8723 97.7262L90.2897 101.376L90.8426 100.857L91.2171 100.198L86.8723 97.7262ZM87.3559 96.8757L91.7007 99.348L92.0004 98.8207L92.1656 98.2371L87.3559 96.8757ZM87.3713 96.8212L92.181 98.1827L92.6245 96.615L92.0601 95.0868L87.3713 96.8212ZM87.3538 96.774L92.0426 95.0395L91.8475 94.5112L91.5397 94.0395L87.3538 96.774ZM86.315 95.1818L90.5009 92.4474L90.1064 91.8427L89.557 91.3745L86.315 95.1818ZM86.2734 95.1464L89.5154 91.339L88.4617 90.4409L87.0963 90.2132L86.2734 95.1464ZM86.2118 95.1361L87.0347 90.2029L86.2345 90.0694L85.4332 90.196L86.2118 95.1361ZM87.2199 94.5188L83.6854 90.9829L83.6474 91.0209L87.182 94.5568L90.7165 98.0927L90.7545 98.0547L87.2199 94.5188ZM87.182 94.5568L82.7776 92.1924L82.6123 92.5005L87.0167 94.865L91.4211 97.2294L91.5864 96.9212L87.182 94.5568ZM87.0167 94.865L83.3702 91.4447L83.3086 91.5104L86.9551 94.9307L90.6015 98.351L90.6631 98.2852L87.0167 94.865ZM86.9551 94.9307L85.2796 90.219L85.219 90.2406L86.8945 94.9523L88.57 99.664L88.6305 99.6424L86.9551 94.9307ZM86.8945 94.9523L86.1436 90.0079L85.7961 90.0607L86.547 95.0051L87.2979 99.9496L87.6454 99.8967L86.8945 94.9523ZM86.547 95.0051L84.7156 90.3519C84.1742 90.5653 83.3824 90.9839 82.6907 91.7962C81.9423 92.675 81.5433 93.7457 81.4849 94.8167L86.4762 95.0883L91.4674 95.36C91.4111 96.3933 91.0249 97.4313 90.3001 98.2824C89.632 99.067 88.8746 99.4628 88.3784 99.6584L86.547 95.0051ZM86.4762 95.0883L81.6204 96.2767L81.6317 96.3229L86.4875 95.1346L91.3432 93.9462L91.3319 93.9L86.4762 95.0883ZM86.4875 95.1346L82.3074 97.878L83.3447 99.4604L87.5248 96.717L91.7048 93.9736L90.6675 92.3912L86.4875 95.1346ZM87.5248 96.717L84.2826 100.524L84.3519 100.583L87.5941 96.776L90.8362 92.9688L90.7669 92.9097L87.5248 96.717ZM87.5941 96.776L86.1404 101.561L86.2097 101.582L87.6634 96.7971L89.117 92.0117L89.0477 91.9906L87.5941 96.776ZM87.6634 96.7971L87.6714 101.798L88.235 101.797L88.2269 96.7961L88.2189 91.7948L87.6553 91.7958L87.6634 96.7971ZM88.2269 96.7961L89.9855 101.477L90.0497 101.453L88.2911 96.772L86.5325 92.0907L86.4684 92.1148L88.2269 96.7961ZM88.2911 96.772L92.3335 99.7132L92.3663 99.668L88.324 96.7268L84.2816 93.7855L84.2487 93.8307L88.2911 96.772ZM88.324 96.7268L93.0494 98.3567L93.2332 97.8236L88.5077 96.1937L83.7823 94.5637L83.5985 95.0968L88.324 96.7268ZM88.5077 96.1937L93.5051 96.3091L93.5071 96.2208L88.5098 96.1053L83.5124 95.9899L83.5104 96.0782L88.5077 96.1937ZM88.5098 96.1053L93.1349 94.2072L93.1056 94.1358L88.4805 96.0339L83.8555 97.932L83.8847 98.0034L88.5098 96.1053ZM88.4805 96.0339L92.4297 92.9672L91.2728 91.4757L87.3236 94.5424L83.3744 97.6092L84.5313 99.1007L88.4805 96.0339ZM87.3236 94.5424L90.5657 90.7352C89.657 89.9605 87.4958 88.8161 85.0234 90.0266L87.2199 94.5188L89.4164 99.011C88.4177 99.5 87.268 99.642 86.159 99.3893C85.1539 99.1602 84.4612 98.6733 84.0815 98.3497L87.3236 94.5424ZM87.8785 93.4346L84.4277 89.8169L84.3825 89.8601L87.8334 93.4778L91.2842 97.0955L91.3294 97.0523L87.8785 93.4346ZM87.8334 93.4778L83.4056 91.1575L82.9831 91.9644L87.4109 94.2846L91.8387 96.6049L92.2612 95.798L87.8334 93.4778ZM87.4109 94.2846L82.4802 93.4631L82.47 93.5248L87.4006 94.3462L92.3313 95.1677L92.3416 95.1061L87.4109 94.2846ZM87.4006 94.3462L82.7118 96.0807L82.7293 96.1279L87.4181 94.3935L92.1069 92.6591L92.0894 92.6118L87.4006 94.3462ZM87.4181 94.3935L83.4751 97.4683L84.6433 98.968L88.5863 95.8932L92.5292 92.8184L91.361 91.3187L87.4181 94.3935ZM88.5863 95.8932L85.9484 100.142L85.9971 100.172L88.635 95.9235L91.2729 91.6748L91.2242 91.6445L88.5863 95.8932ZM88.635 95.9235L87.8119 100.857L87.8612 100.865L88.6843 95.9317L89.5075 90.9986L89.4582 90.9903L88.635 95.9235ZM88.6843 95.9317L89.6323 100.842L90.5907 100.657L89.6426 95.7464L88.6946 90.836L87.7363 91.0214L88.6843 95.9317ZM89.6426 95.7464L91.4164 100.422C92.0224 100.192 92.8712 99.7372 93.5863 98.855C94.347 97.9165 94.6862 96.8255 94.7219 95.8196L89.7263 95.6431L84.7307 95.4666C84.7647 94.509 85.0891 93.4594 85.8219 92.5553C86.5091 91.7075 87.317 91.2805 87.8688 91.0709L89.6426 95.7464ZM89.7263 95.6431L94.4357 93.9655L94.4141 93.9049L89.7048 95.5825L84.9954 97.2602L85.0169 97.3208L89.7263 95.6431ZM89.7048 95.5825L93.6059 92.4548L91.908 90.3347L88.0069 93.4624L84.1057 96.5901L85.8036 98.7102L89.7048 95.5825ZM88.0069 93.4624L91.2018 89.6154C90.186 88.771 88.1311 87.837 85.828 88.8739L87.8785 93.4346L89.9291 97.9954C89.0058 98.4111 87.9397 98.5442 86.8852 98.3163C85.9085 98.1052 85.217 97.6461 84.8119 97.3093L88.0069 93.4624ZM85.3146 95.2778L84.939 90.2907C83.6313 90.3895 82.4128 90.9898 81.5372 91.965L85.2555 95.3069L88.9739 98.6487C88.1287 99.5901 86.9525 100.17 85.6901 100.265L85.3146 95.2778ZM85.2555 95.3069L81.5372 91.965C80.6613 92.9405 80.1953 94.2167 80.2368 95.5276L85.233 95.3687L90.2292 95.2098C90.2692 96.4752 89.8193 97.7071 88.9739 98.6487L85.2555 95.3069ZM85.233 95.3687L80.3496 96.4379L80.364 96.5037L85.2473 95.4345L90.1307 94.3653L90.1163 94.2995L85.233 95.3687ZM85.2473 95.4345L81.025 98.1122L82.4786 100.407L86.7009 97.7292L90.9232 95.0515L89.4697 92.7567L85.2473 95.4345ZM86.7009 97.7292L82.8003 100.858C83.2719 101.446 84.0251 102.116 85.1156 102.495C86.2264 102.881 87.2851 102.825 88.1149 102.603L86.8236 97.7719L85.5323 92.9406C86.3135 92.7314 87.3274 92.6747 88.3973 93.0465C89.4469 93.4113 90.1631 94.0536 90.6015 94.6008L86.7009 97.7292ZM86.8236 97.7719L90.241 101.421L90.2897 101.376L86.8723 97.7262L83.4549 94.0768L83.4062 94.1225L86.8236 97.7719ZM86.8723 97.7262L91.2171 100.198L91.7007 99.348L87.3559 96.8757L83.0111 94.4034L82.5275 95.2539L86.8723 97.7262ZM87.3559 96.8757L92.1656 98.2371L92.181 98.1827L87.3713 96.8212L82.5616 95.4598L82.5462 95.5142L87.3559 96.8757ZM87.3713 96.8212L92.0601 95.0868L92.0426 95.0395L87.3538 96.774L82.665 98.5084L82.6825 98.5557L87.3713 96.8212ZM87.3538 96.774L91.5397 94.0395L90.5009 92.4474L86.315 95.1818L82.1291 97.9163L83.1679 99.5084L87.3538 96.774ZM86.315 95.1818L89.557 91.3745L89.5154 91.339L86.2734 95.1464L83.0314 98.9537L83.073 98.9892L86.315 95.1818ZM86.2734 95.1464L87.0963 90.2132L87.0347 90.2029L86.2118 95.1361L85.389 100.069L85.4506 100.08L86.2734 95.1464ZM86.2118 95.1361L85.4332 90.196L84.536 90.3377L85.3146 95.2778L86.0932 100.218L86.9904 100.076L86.2118 95.1361Z" fill="#FF7300" mask="url(#path-1-inside-1_1_2026)"/>
<path d="M30.9515 27.8144L38.138 22.6786C39.5043 21.7023 41.2026 21.3091 42.8589 21.5854C44.5151 21.8617 45.9936 22.785 46.9697 24.1522L58.6876 40.5679L75.0945 28.8427C76.4608 27.8664 78.1591 27.4733 79.8154 27.7495C81.4719 28.0258 82.9514 28.9491 83.9276 30.3166L89.06 37.5067C90.0362 38.8742 90.4291 40.574 90.1529 42.2314C89.8768 43.8887 88.9543 45.3686 87.5881 46.345L71.1811 58.0702L82.8985 74.4852C83.8746 75.8526 84.2683 77.552 83.9922 79.2093C83.7161 80.8666 82.7935 82.3465 81.4273 83.3229L74.2408 88.4587C72.8745 89.4352 71.1763 89.8282 69.5199 89.5519C67.8635 89.2756 66.3839 88.3523 65.4078 86.9849L53.6904 70.5699L37.2843 82.2946C35.9181 83.2709 34.2197 83.6639 32.5634 83.3878C30.9069 83.1115 29.4274 82.1882 28.4513 80.8207L23.3188 73.6306L23.1425 73.3701C22.296 72.0506 21.967 70.4597 22.2259 68.9059C22.5021 67.2486 23.4245 65.7687 24.7908 64.7923L41.1969 53.0676L29.479 36.6519C28.503 35.2845 28.1105 33.5852 28.3866 31.928C28.6627 30.2706 29.5852 28.7908 30.9515 27.8144Z" stroke="#FF7300" stroke-width="5"/>
</svg>
