<svg width="1725" height="228" viewBox="0 0 1725 228" fill="none" xmlns="http://www.w3.org/2000/svg">
<path d="M-17 114.671H222.758C270.225 112.608 387.541 117.146 477.075 151.8C588.992 195.118 614.014 79.9372 665.424 33.319C715.544 -12.1308 757.323 -41.6855 927.929 193.468C964.174 233.21 1006.79 259.608 1150.55 129.699C1177.99 104.907 1348.3 114.671 1414.27 114.671H1725" stroke="#043873" stroke-width="3"/>
<path d="M-18 115.221H308.653H362.337C441.954 115.221 510.196 106.04 565.7 115.221C636.206 126.883 772.883 190.597 868.241 90.8658C917.015 39.8542 981.523 20.6612 1034.75 30.4781C1140.3 49.9439 1109.82 127.577 1249.49 115.221H1724" stroke="#D1D7D8" stroke-width="3"/>
<path d="M-17 115.035H344.656C384.692 118.03 438.518 130.15 467.433 130.15C479.443 130.15 562.629 130.15 624.017 87.778C697.538 37.0318 769.925 20.9129 882.025 115.035C916.426 147.988 972.773 192.989 1079.53 156.294C1155.6 130.15 1134.73 134.721 1179.66 122.508C1224.59 110.294 1299.73 115.035 1339.77 115.035H1502.13H1725" stroke="#F7A619" stroke-width="3"/>
</svg>
