<svg xmlns="http://www.w3.org/2000/svg" xmlns:xlink="http://www.w3.org/1999/xlink" width="112.974" height="109.838" viewBox="0 0 112.974 109.838"><defs><clipPath id="a"><path d="M0,109.838H112.974V0H0Z" transform="translate(0 0)" fill="none"/></clipPath></defs><path d="M8.359,30.964H0V0H8.231c5.048,0,7.852.451,10.136,3.012a7.19,7.19,0,0,1,1.82,5.1,7.586,7.586,0,0,1-3.883,6.4,7.2,7.2,0,0,1,4.372,3.771,8.1,8.1,0,0,1,.679,3.426,8.871,8.871,0,0,1-2.814,6.737C15.682,30.867,13.487,30.964,8.359,30.964ZM7.11,18.369V24.4H10.2c.986,0,3.986,0,3.986-3.174,0-2.861-2.692-2.861-3.986-2.861Zm0-11.856v5.243H9.539c1.161,0,3.578,0,3.578-2.689a2.2,2.2,0,0,0-1.3-2.235,5.816,5.816,0,0,0-2.275-.319Z" transform="translate(33.652 0)" fill="#02519e"/><path d="M0,109.838H112.974V0H0Z" transform="translate(0 0)" fill="none"/><g clip-path="url(#a)"><path d="M0,30.963H6.72V0H0Z" transform="translate(56.667 0)" fill="#02519e"/><path d="M21.359,23.223h-6.5V20.755h-.084c-1.407,2.971-4.222,3.222-5.96,3.222-1.408,0-4.72-.335-6.748-2.929C.248,18.746,0,17.072,0,13.892V0H6.871V12.846c0,1.59,0,4.644,3.684,4.644,1.987,0,3.933-1.046,3.933-4.728V0h6.872Z" transform="translate(65.711 7.741)" fill="#02519e"/><path d="M12.17,24.77A12.25,12.25,0,0,1,0,12.469,12.89,12.89,0,0,1,3.4,3.8,11.677,11.677,0,0,1,12.045,0a11.809,11.809,0,0,1,8.688,3.687,12.993,12.993,0,0,1,3.441,8.991,8.722,8.722,0,0,1-.133,1.63c-.011.068-.022.138-.033.211H6.788c.386,2.57,2.5,4.231,5.382,4.231a4.765,4.765,0,0,0,4.181-2.013h7.036a13.684,13.684,0,0,1-4.677,5.941A11.06,11.06,0,0,1,12.17,24.77ZM12.086,6.02A4.967,4.967,0,0,0,6.871,9.833H17.3A4.96,4.96,0,0,0,12.086,6.02Z" transform="translate(88.8 6.946)" fill="#02519e"/><path d="M0,.633H6.62V3.265H6.7C7.281,2.135,9.131,0,13.746,0V6.826C9.55,6.4,6.872,8.339,6.872,12.244V24.018H0Z" transform="translate(33.652 32.521)" fill="#02519e"/><path d="M11.259,7.323c-.04-.5-.124-1.758-2.153-1.758-1.449,0-1.945.921-1.945,1.548,0,1.256,1.7,1.967,3.519,2.511,3.889,1.087,8.029,2.259,8.029,7.28,0,4.9-4.263,7.908-9.354,7.908-3.477,0-8.735-1.59-9.355-7.7H6.829a2.447,2.447,0,0,0,2.607,2.134c1.161,0,2.4-.669,2.4-1.8,0-1.8-1.7-2.008-6.084-3.723C2.773,12.762.291,10.8.291,7.657.291,3.055,4.428,0,9.189,0c3.023,0,8.237,1.214,8.816,7.323Z" transform="translate(73.301 32.521)" fill="#02519e"/><path d="M11.259,7.323c-.041-.5-.124-1.758-2.153-1.758-1.449,0-1.945.921-1.945,1.548,0,1.256,1.7,1.967,3.518,2.511,3.89,1.087,8.03,2.259,8.03,7.28,0,4.9-4.263,7.908-9.355,7.908-3.477,0-8.734-1.59-9.354-7.7H6.829a2.447,2.447,0,0,0,2.608,2.134c1.159,0,2.4-.669,2.4-1.8,0-1.8-1.7-2.008-6.084-3.723C2.773,12.762.291,10.8.291,7.657.291,3.055,4.428,0,9.189,0c3.023,0,8.237,1.214,8.816,7.323Z" transform="translate(93.478 32.521)" fill="#02519e"/><path d="M12.353,24.826a12.243,12.243,0,0,1-8.735-3.635,12.455,12.455,0,0,1,0-17.555,12.31,12.31,0,0,1,17.47,0,12.456,12.456,0,0,1,0,17.555A12.243,12.243,0,0,1,12.353,24.826Zm0-18.2a5.788,5.788,0,1,0,5.762,5.789A5.781,5.781,0,0,0,12.353,6.625Z" transform="translate(47.673 32.522)" fill="#ed3e94"/><path d="M12.353,24.826a12.243,12.243,0,0,1-8.735-3.636,12.455,12.455,0,0,1,0-17.555,12.31,12.31,0,0,1,17.47,0,12.456,12.456,0,0,1,0,17.555A12.243,12.243,0,0,1,12.353,24.826Zm0-18.2a5.788,5.788,0,1,0,5.762,5.789A5.781,5.781,0,0,0,12.353,6.625Z" transform="translate(47.673 58.767)" fill="#02519e"/><path d="M12.353,24.826a12.243,12.243,0,0,1-8.735-3.635,12.455,12.455,0,0,1,0-17.555,12.31,12.31,0,0,1,17.47,0,12.456,12.456,0,0,1,0,17.555A12.243,12.243,0,0,1,12.353,24.826Zm0-18.2a5.789,5.789,0,1,0,5.762,5.789A5.781,5.781,0,0,0,12.353,6.625Z" transform="translate(47.673 85.011)" fill="#1fb7eb"/><path d="M12.353,24.826a12.243,12.243,0,0,1-8.736-3.636,12.457,12.457,0,0,1,0-17.555,12.311,12.311,0,0,1,17.47,0,12.457,12.457,0,0,1,0,17.555A12.242,12.242,0,0,1,12.353,24.826Zm0-18.2a5.788,5.788,0,1,0,5.761,5.789A5.782,5.782,0,0,0,12.353,6.625Z" transform="translate(21.575 58.767)" fill="#8cc642"/><path d="M12.353,24.826a12.243,12.243,0,0,1-8.736-3.636,12.457,12.457,0,0,1,0-17.555,12.311,12.311,0,0,1,17.47,0,12.457,12.457,0,0,1,0,17.555A12.242,12.242,0,0,1,12.353,24.826Zm0-18.2a5.788,5.788,0,1,0,5.761,5.789A5.782,5.782,0,0,0,12.353,6.625Z" transform="translate(73.811 58.767)" fill="#fbb216"/><path d="M16.1,25.066a8.886,8.886,0,1,1,7.964-12.722h7.678a16.182,16.182,0,1,0,.016,7.6H24.1a8.846,8.846,0,0,1-8,5.12" transform="translate(0 24.99)" fill="#02519e"/></g></svg>