<svg width="180" height="43" viewBox="0 0 180 43" fill="none" xmlns="http://www.w3.org/2000/svg">
<g id="logos:zoom" clip-path="url(#clip0_5884_8289)">
<path id="Vector" d="M37.7831 41.2653H5.74731C3.64919 41.2653 1.60204 40.1392 0.629615 38.2457C-0.495736 36.0453 -0.086869 33.4353 1.65301 31.7464L23.966 9.43412H7.94774C3.54653 9.43412 0.0154356 5.8517 0.0154356 1.50146H29.5439C31.642 1.50146 33.6888 2.62752 34.6612 4.52103C35.7873 6.72146 35.3777 9.33146 33.6378 11.02L11.3252 33.333H29.7998C34.2007 33.333 37.7831 36.9154 37.7831 41.2653ZM164.596 0.938965C159.99 0.938965 155.896 2.93479 153.03 6.10764C150.164 2.93479 146.07 0.938965 141.464 0.938965C132.969 0.938965 126.009 8.20576 126.009 16.7009V41.2653C130.41 41.2653 133.941 37.6829 133.941 33.333V16.6499C133.941 12.5556 137.114 9.07588 141.208 8.9226C145.507 8.76896 149.038 12.1974 149.038 16.445V33.333C149.038 37.7342 152.621 41.2653 156.971 41.2653V16.5986C156.971 12.5047 160.143 9.02455 164.237 8.87127C168.536 8.71764 172.067 12.1464 172.067 16.394V33.2817C172.067 37.6832 175.65 41.214 180 41.214V16.6503C180.051 8.20576 173.091 0.938965 164.596 0.938965ZM77.9044 21.409C77.9044 32.7188 68.7441 41.8791 57.4344 41.8791C46.1246 41.8791 36.9643 32.7188 36.9643 21.409C36.9643 10.0993 46.1246 0.938965 57.4344 0.938965C68.7441 0.938965 77.9044 10.0993 77.9044 21.409ZM69.9721 21.409C69.9721 14.5005 64.3429 8.87127 57.4344 8.87127C50.5258 8.87127 44.8963 14.5005 44.8963 21.409C44.8963 28.3179 50.5258 33.9472 57.4344 33.9472C64.3429 33.9472 69.9721 28.3179 69.9721 21.409ZM122.017 21.409C122.017 32.7188 112.857 41.8791 101.547 41.8791C90.2376 41.8791 81.0773 32.7188 81.0773 21.409C81.0773 10.0993 90.2376 0.938965 101.547 0.938965C112.857 0.938965 122.018 10.0993 122.018 21.409H122.017ZM114.086 21.409C114.086 14.5005 108.456 8.87127 101.547 8.87127C94.6392 8.87127 89.0096 14.5005 89.0096 21.409C89.0096 28.3179 94.6388 33.9472 101.547 33.9472C108.456 33.9472 114.086 28.3179 114.086 21.409Z" fill="#0B5CFF"/>
</g>
<defs>
<clipPath id="clip0_5884_8289">
<rect width="180" height="41.1328" fill="white" transform="translate(0 0.938965)"/>
</clipPath>
</defs>
</svg>
