<svg width="180" height="77" viewBox="0 0 180 77" fill="none" xmlns="http://www.w3.org/2000/svg">
<g id="logos:stripe" clip-path="url(#clip0_5884_8280)">
<path id="Vector" d="M180 39.5882C180 26.7881 173.8 16.6881 161.95 16.6881C150.05 16.6881 142.85 26.7885 142.85 39.4883C142.85 54.538 151.35 62.1381 163.55 62.1381C169.5 62.1381 174 60.7881 177.4 58.8883V48.8881C174 50.5882 170.1 51.6383 165.15 51.6383C160.3 51.6383 156 49.9382 155.45 44.0383H179.9C179.9 43.3879 180 40.7881 180 39.5882ZM155.3 34.8382C155.3 29.1883 158.75 26.8381 161.9 26.8381C164.95 26.8381 168.2 29.1883 168.2 34.8382H155.3ZM123.55 16.6881C118.65 16.6881 115.5 18.988 113.75 20.5883L113.1 17.4883H102.1V75.7879L114.6 73.1381L114.65 58.9881C116.45 60.2882 119.1 62.1381 123.5 62.1381C132.45 62.1381 140.6 54.9381 140.6 39.0883C140.55 24.5881 132.3 16.6881 123.55 16.6881H123.55ZM120.55 51.1381C117.6 51.1381 115.85 50.0883 114.65 48.7882L114.6 30.238C115.9 28.7882 117.7 27.7883 120.55 27.7883C125.1 27.7883 128.25 32.8881 128.25 39.4381C128.25 46.1381 125.15 51.1381 120.55 51.1381ZM84.8999 13.7381L97.45 11.0381V0.888184L84.8999 3.53826V13.7381ZM84.8999 17.5382H97.45V61.288H84.8999V17.5382ZM71.4502 21.238L70.65 17.5382H59.85V61.288H72.3502V31.6383C75.2998 27.7883 80.3 28.4883 81.8501 29.0381V17.5382C80.2501 16.9381 74.4001 15.838 71.4502 21.238ZM46.4498 6.68826L34.2499 9.28807L34.2 49.3381C34.2 56.7385 39.7501 62.188 47.1502 62.188C51.2501 62.188 54.25 61.4381 55.8998 60.5381V50.3882C54.3002 51.0382 46.3999 53.3381 46.3999 45.9381V28.1881H55.8998V17.5382H46.3999L46.4498 6.68826ZM12.6499 30.238C12.6499 28.2883 14.2499 27.538 16.9003 27.538C20.7 27.538 25.4999 28.6883 29.2999 30.7383V18.988C25.1501 17.3381 21.0502 16.6881 16.9003 16.6881C6.75 16.6881 0 21.9883 0 30.8385C0 44.638 18.9998 42.4383 18.9998 48.3885C18.9998 50.6881 17.0002 51.4383 14.2 51.4383C10.0501 51.4383 4.74996 49.7381 0.549844 47.4382V59.3383C5.19996 61.3383 9.9 62.188 14.2 62.188C24.5999 62.188 31.75 57.0383 31.75 48.0883C31.7 33.1883 12.6499 35.8381 12.6499 30.238Z" fill="#635BFF"/>
</g>
<defs>
<clipPath id="clip0_5884_8280">
<rect width="180" height="75.2344" fill="white" transform="translate(0 0.888184)"/>
</clipPath>
</defs>
</svg>
