<svg width="180" height="61" viewBox="0 0 180 61" fill="none" xmlns="http://www.w3.org/2000/svg">
<g clip-path="url(#clip0_5884_8282)">
<path d="M174.393 37.0698L179.387 40.3987C177.766 42.7859 173.89 46.8816 167.188 46.8816C158.866 46.8816 152.668 40.4427 152.668 32.2516C152.668 23.5354 158.932 17.6221 166.487 17.6221C174.087 17.6221 177.81 23.6665 179.015 26.9297L179.672 28.5943L160.093 36.6975C161.582 39.6323 163.903 41.1216 167.188 41.1216C170.473 41.1216 172.751 39.5009 174.393 37.0698ZM159.041 31.7921L172.116 26.3605C171.393 24.5429 169.247 23.2509 166.684 23.2509C163.421 23.2509 158.888 26.1418 159.041 31.7921Z" fill="#FF302F"/>
<path d="M143.229 2.70787H149.536V45.5458H143.229V2.70752V2.70787Z" fill="#20B15A"/>
<path d="M133.286 18.7606H139.375V44.7787C139.375 55.5755 133.001 60.0214 125.467 60.0214C118.372 60.0214 114.101 55.2472 112.503 51.3708L118.087 49.0491C119.094 51.4362 121.525 54.2617 125.467 54.2617C130.307 54.2617 133.286 51.2612 133.286 45.6548V43.5524H133.067C131.622 45.3043 128.862 46.881 125.358 46.881C118.043 46.881 111.341 40.5079 111.341 32.2954C111.341 24.0386 118.043 17.6001 125.358 17.6001C128.84 17.6001 131.622 19.1551 133.067 20.8633H133.286V18.761V18.7606ZM133.724 32.2954C133.724 27.1267 130.286 23.3597 125.905 23.3597C121.481 23.3597 117.758 27.1267 117.758 32.2954C117.758 37.398 121.481 41.0992 125.905 41.0992C130.286 41.1214 133.724 37.398 133.724 32.2954H133.724Z" fill="#3686F7"/>
<path d="M76.7167 32.186C76.7167 40.6179 70.1467 46.8156 62.0871 46.8156C54.0279 46.8156 47.4575 40.5961 47.4575 32.186C47.4575 23.7106 54.0279 17.5347 62.0871 17.5347C70.1467 17.5347 76.7167 23.7106 76.7167 32.186ZM70.3217 32.186C70.3217 26.9302 66.5108 23.3161 62.0871 23.3161C57.6634 23.3161 53.8524 26.9302 53.8524 32.186C53.8524 37.3983 57.6634 41.056 62.0871 41.056C66.5111 41.056 70.3217 37.3983 70.3217 32.186Z" fill="#FF302F"/>
<path d="M108.67 32.2516C108.67 40.6835 102.099 46.8812 94.0402 46.8812C85.9806 46.8812 79.4106 40.6832 79.4106 32.2516C79.4106 23.7762 85.9806 17.6221 94.0402 17.6221C102.099 17.6221 108.67 23.7544 108.67 32.2516ZM102.253 32.2516C102.253 26.9958 98.4421 23.3817 94.0181 23.3817C89.5943 23.3817 85.7834 26.9958 85.7834 32.2516C85.7834 37.4639 89.5943 41.1216 94.0181 41.1216C98.4639 41.1216 102.253 37.4421 102.253 32.2516Z" fill="#FFBA40"/>
<path d="M23.4105 40.4646C14.234 40.4646 7.05085 33.062 7.05085 23.8856C7.05085 14.7094 14.234 7.30693 23.4105 7.30693C28.3601 7.30693 31.9735 9.256 34.6453 11.7528L39.0476 7.35088C35.3246 3.78111 30.3531 1.06494 23.4105 1.06494C10.8396 1.06529 0.261475 11.3151 0.261475 23.8856C0.261475 36.4567 10.8396 46.7062 23.4105 46.7062C30.1998 46.7062 35.3246 44.4724 39.3324 40.3113C43.4495 36.1938 44.7197 30.412 44.7197 25.7253C44.7197 24.2579 44.5446 22.7469 44.3474 21.6299H23.4105V27.7183H38.3248C37.8867 31.5292 36.6823 34.1354 34.9083 35.909C32.762 38.0774 29.3677 40.4646 23.4105 40.4646Z" fill="#3686F7"/>
</g>
<defs>
<clipPath id="clip0_5884_8282">
<rect width="180" height="59.0625" fill="white" transform="translate(0 0.974121)"/>
</clipPath>
</defs>
</svg>
