<?xml version="1.0" encoding="UTF-8"?>
<svg width="57px" height="64px" viewBox="0 0 57 64" version="1.1" xmlns="http://www.w3.org/2000/svg" xmlns:xlink="http://www.w3.org/1999/xlink">
    <title>Opal Logo Copy</title>
    <g id="Symbols" stroke="none" stroke-width="1" fill="none" fill-rule="evenodd">
        <g id="Opal-Logo-Copy" fill-rule="nonzero">
            <path d="M35.9058854,50.4 C50.6061135,50.4 56.16,40.5948512 56.16,24.9689333 C56.16,9.34301544 49.1232274,0 33.1235639,0 C17.1239003,0 0,10.2084364 0,24.9689333 C0,39.7294303 21.2056573,50.4 35.9058854,50.4 Z" id="Oval" fill="#4900D5"></path>
            <path d="M14.7407889,31.1808307 C15.8005754,31.1808307 16.7924269,30.9876038 17.7163434,30.6011502 C18.6402599,30.2146965 19.4384965,29.6867732 20.1110534,29.0173802 C20.7836102,28.3479872 21.3169002,27.554377 21.7109234,26.6365495 C22.1049466,25.718722 22.3019582,24.7422364 22.3019582,23.7070927 C22.3019582,22.6719489 22.1049466,21.6954633 21.7109234,20.7776358 C21.3169002,19.8598083 20.7836102,19.0661981 20.1110534,18.3968051 C19.4384965,17.7274121 18.6402599,17.1994888 17.7163434,16.8130351 C16.7924269,16.4265815 15.8005754,16.2333546 14.7407889,16.2333546 C13.6945893,16.2333546 12.7095313,16.4265815 11.7856148,16.8130351 C10.8616984,17.1994888 10.0634617,17.7274121 9.39090487,18.3968051 C8.71834803,19.0661981 8.185058,19.8598083 7.7910348,20.7776358 C7.3970116,21.6954633 7.2,22.6719489 7.2,23.7070927 C7.2,24.7422364 7.3970116,25.718722 7.7910348,26.6365495 C8.185058,27.554377 8.71834803,28.3479872 9.39090487,29.0173802 C10.0634617,29.6867732 10.8616984,30.2146965 11.7856148,30.6011502 C12.7095313,30.9876038 13.6945893,31.1808307 14.7407889,31.1808307 Z M14.7407889,28.4273482 C14.1021995,28.4273482 13.507768,28.3065815 12.9574942,28.0650479 C12.4072204,27.8235144 11.9316752,27.4922684 11.5308585,27.0713099 C11.1300418,26.6503514 10.8141439,26.1500319 10.5831647,25.5703514 C10.3521856,24.9906709 10.2366961,24.3695847 10.2366961,23.7070927 C10.2366961,23.0307987 10.3521856,22.406262 10.5831647,21.8334824 C10.8141439,21.2607029 11.1300418,20.7638339 11.5308585,20.3428754 C11.9316752,19.9219169 12.4072204,19.5906709 12.9574942,19.3491374 C13.507768,19.1076038 14.1021995,18.9868371 14.7407889,18.9868371 C15.3793782,18.9868371 15.9772065,19.1076038 16.5342738,19.3491374 C17.0913411,19.5906709 17.5702831,19.9219169 17.9710998,20.3428754 C18.3719165,20.7638339 18.6878144,21.2607029 18.9187935,21.8334824 C19.1497726,22.406262 19.2652622,23.0307987 19.2652622,23.7070927 C19.2652622,24.3695847 19.1497726,24.9906709 18.9187935,25.5703514 C18.6878144,26.1500319 18.3719165,26.6503514 17.9710998,27.0713099 C17.5702831,27.4922684 17.0913411,27.8235144 16.5342738,28.0650479 C15.9772065,28.3065815 15.3793782,28.4273482 14.7407889,28.4273482 Z M26.9283341,35.28 L26.9283341,30.2492013 C27.3495313,30.5252396 27.8080928,30.7357188 28.3040186,30.880639 C28.7999443,31.0255591 29.3060603,31.0980192 29.8223666,31.0980192 C30.583239,31.0980192 31.2999536,30.9565495 31.9725104,30.6736102 C32.6450673,30.3906709 33.2259118,30.0007668 33.7150441,29.5038978 C34.2041763,29.0070288 34.591406,28.4204473 34.8767332,27.7441534 C35.1620603,27.0678594 35.3047239,26.3432588 35.3047239,25.5703514 C35.3047239,24.7974441 35.1654571,24.0728435 34.8869234,23.3965495 C34.6083898,22.7202556 34.2245568,22.1336741 33.7354246,21.6368051 C33.2462923,21.1399361 32.6722413,20.7465815 32.0132715,20.4567412 C31.3543016,20.166901 30.651174,20.0219808 29.9038886,20.0219808 C29.3468213,20.0219808 28.8101346,20.1082428 28.2938283,20.2807668 C27.777522,20.4532907 27.3087703,20.7120767 26.8875731,21.0571246 L26.8875731,21.0571246 L26.8875731,20.166901 L24.1362042,20.166901 L24.1362042,35.28 L26.9283341,35.28 Z M29.4555174,28.6964856 C28.9527981,28.6964856 28.4806497,28.6067732 28.0390719,28.4273482 C27.5974942,28.2479233 27.2272483,28.0063898 26.9283341,27.7027476 L26.9283341,27.7027476 L26.9283341,23.4586581 C27.2408353,23.1274121 27.614478,22.8755272 28.0492622,22.7030032 C28.4840464,22.5304792 28.9527981,22.4442173 29.4555174,22.4442173 C30.3114988,22.4442173 31.0418005,22.7444089 31.6464223,23.3447923 C32.2510441,23.9451757 32.553355,24.6870288 32.553355,25.5703514 C32.553355,26.4536741 32.2544408,27.1955272 31.6566125,27.7959105 C31.0587842,28.3962939 30.3250858,28.6964856 29.4555174,28.6964856 Z M40.379471,31.1394249 C40.9908863,31.1394249 41.5445568,31.0635144 42.0404826,30.9116933 C42.5364084,30.7598722 43.0085568,30.5252396 43.4569281,30.2077955 L43.4569281,30.2077955 L43.4569281,30.953099 L46.208297,30.953099 L46.208297,23.9555272 C46.208297,22.6857508 45.810877,21.7023642 45.0160371,21.0053674 C44.2211972,20.3083706 43.1104594,19.9598722 41.6838237,19.9598722 C40.9229513,19.9598722 40.1518886,20.0564856 39.3706357,20.2497125 C38.5893828,20.4429393 37.7843527,20.7327796 36.9555452,21.1192332 L36.9555452,21.1192332 L37.9745708,23.2102236 C38.6403341,22.9065815 39.2347657,22.6823003 39.7578654,22.5373802 C40.2809652,22.3924601 40.7667007,22.32 41.2150719,22.32 C41.9487703,22.32 42.5058376,22.478722 42.8862738,22.7961661 C43.26671,23.1136102 43.4569281,23.5828754 43.4569281,24.2039617 L43.4569281,24.2039617 L43.4569281,24.9699681 C43.0357309,24.8319489 42.6077401,24.7284345 42.1729559,24.6594249 C41.7381717,24.5904153 41.3033875,24.5559105 40.8686032,24.5559105 C39.5099026,24.5559105 38.4433225,24.8457508 37.6688631,25.4254313 C36.8944037,26.0051118 36.507174,26.805623 36.507174,27.8269649 C36.507174,28.806901 36.8672297,29.6039617 37.5873411,30.218147 C38.3074524,30.8323323 39.2381624,31.1394249 40.379471,31.1394249 Z M41.1131694,29.1105431 C40.5289281,29.1105431 40.0601763,28.9897764 39.7069142,28.7482428 C39.353652,28.5067093 39.1770209,28.1789137 39.1770209,27.7648562 C39.1770209,27.3507987 39.3570487,27.0230032 39.7171044,26.7814696 C40.0771601,26.5399361 40.5764826,26.4191693 41.2150719,26.4191693 C41.6226821,26.4191693 42.0133086,26.4502236 42.3869513,26.5123323 C42.760594,26.5744409 43.1172529,26.6745048 43.4569281,26.812524 L43.4569281,26.812524 L43.4569281,28.4273482 C43.1308399,28.6481789 42.774181,28.8172524 42.3869513,28.9345687 C41.9997216,29.051885 41.5751276,29.1105431 41.1131694,29.1105431 Z M51.12,30.953099 L51.12,15.84 L48.3278701,16.4610863 L48.3278701,30.953099 L51.12,30.953099 Z" id="Opal" fill="#FFFFFF"></path>
            <path d="M2.8938201,63.2627027 L2.8938201,60.48 L6.12230335,60.48 L6.12230335,63.2627027 L7.57612345,63.2627027 L7.57612345,56.4518919 L6.12230335,56.4518919 L6.12230335,59.1859459 L2.8938201,59.1859459 L2.8938201,56.4518919 L1.44,56.4518919 L1.44,63.2627027 L2.8938201,63.2627027 Z M11.3259767,63.36 C11.7403989,63.36 12.1163869,63.3016216 12.4539405,63.1848649 C12.7914942,63.0681081 13.1206925,62.8832432 13.4415356,62.6302703 L13.4415356,62.6302703 L12.5391645,61.8324324 C12.3987956,61.9621622 12.2283478,62.0627027 12.0278209,62.1340541 C11.8272939,62.2054054 11.6133986,62.2410811 11.3861347,62.2410811 C11.0251863,62.2410811 10.7110275,62.1437838 10.4436583,61.9491892 C10.176289,61.7545946 9.99581483,61.4983784 9.9022356,61.1805405 L9.9022356,61.1805405 L13.7924577,61.1805405 L13.7924577,60.8302703 C13.7924577,60.4410811 13.7272864,60.0794595 13.5969439,59.7454054 C13.4666014,59.4113514 13.2861272,59.1243243 13.0555213,58.8843243 C12.8249153,58.6443243 12.5508619,58.4545946 12.2333609,58.3151351 C11.91586,58.1756757 11.5732932,58.1059459 11.2056605,58.1059459 C10.8313436,58.1059459 10.4787505,58.1740541 10.1478811,58.3102703 C9.81701167,58.4464865 9.53126082,58.632973 9.29062853,58.8697297 C9.04999624,59.1064865 8.86116673,59.3854054 8.72414001,59.7064865 C8.58711329,60.0275676 8.51859992,60.3697297 8.51859992,60.732973 C8.51859992,61.1027027 8.5904554,61.4481081 8.73416635,61.7691892 C8.87787731,62.0902703 9.0750621,62.3675676 9.32572074,62.6010811 C9.57637938,62.8345946 9.87382763,63.0194595 10.2180655,63.1556757 C10.5623033,63.2918919 10.9316071,63.36 11.3259767,63.36 Z M12.4489274,60.227027 L9.89220926,60.227027 C9.97910425,59.9156757 10.1361837,59.6675676 10.3634475,59.4827027 C10.5907113,59.2978378 10.8614227,59.2054054 11.1755815,59.2054054 C11.4763718,59.2054054 11.74207,59.3010811 11.972676,59.4924324 C12.2032819,59.6837838 12.3620324,59.9286486 12.4489274,60.227027 L12.4489274,60.227027 Z M16.2890177,63.3502703 C16.5898081,63.3502703 16.8621904,63.3145946 17.1061648,63.2432432 C17.3501393,63.1718919 17.5824163,63.0616216 17.8029959,62.9124324 L17.8029959,62.9124324 L17.8029959,63.2627027 L19.1565525,63.2627027 L19.1565525,59.9740541 C19.1565525,59.3772973 18.9610388,58.9151351 18.5700113,58.5875676 C18.1789838,58.26 17.632548,58.0962162 16.9307038,58.0962162 C16.5563869,58.0962162 16.1770568,58.1416216 15.7927136,58.2324324 C15.4083703,58.3232432 15.0123297,58.4594595 14.6045916,58.6410811 L14.6045916,58.6410811 L15.1059089,59.6237838 C15.4334362,59.4810811 15.7258713,59.3756757 15.9832142,59.3075676 C16.240557,59.2394595 16.4795183,59.2054054 16.7000979,59.2054054 C17.0610463,59.2054054 17.3350997,59.28 17.5222582,59.4291892 C17.7094166,59.5783784 17.8029959,59.7989189 17.8029959,60.0908108 L17.8029959,60.0908108 L17.8029959,60.4508108 C17.5957847,60.3859459 17.3852315,60.3372973 17.1713361,60.3048649 C16.9574407,60.2724324 16.7435454,60.2562162 16.52965,60.2562162 C15.8612269,60.2562162 15.3365149,60.3924324 14.9555137,60.6648649 C14.5745126,60.9372973 14.384012,61.3135135 14.384012,61.7935135 C14.384012,62.2540541 14.5611441,62.6286486 14.9154084,62.9172973 C15.2696726,63.2059459 15.7275423,63.3502703 16.2890177,63.3502703 Z M16.6499661,62.3967568 C16.3625442,62.3967568 16.1319383,62.34 15.9581483,62.2264865 C15.7843583,62.112973 15.6974633,61.9589189 15.6974633,61.7643243 C15.6974633,61.5697297 15.7860294,61.4156757 15.9631615,61.3021622 C16.1402936,61.1886486 16.385939,61.1318919 16.7000979,61.1318919 C16.9006248,61.1318919 17.0927964,61.1464865 17.2766127,61.1756757 C17.4604291,61.2048649 17.6358901,61.2518919 17.8029959,61.3167568 L17.8029959,61.3167568 L17.8029959,62.0756757 C17.6425743,62.1794595 17.4671133,62.2589189 17.2766127,62.3140541 C17.0861122,62.3691892 16.87723,62.3967568 16.6499661,62.3967568 Z M21.5729018,63.2627027 L21.5729018,56.16 L20.1992924,56.4518919 L20.1992924,63.2627027 L21.5729018,63.2627027 Z M25.1222281,63.3405405 C25.2692811,63.3405405 25.4464132,63.3259459 25.6536244,63.2967568 C25.8608355,63.2675676 26.0379676,63.2302703 26.1850207,63.1848649 L26.1850207,63.1848649 L26.1850207,62.0951351 C26.0513361,62.1405405 25.9276778,62.1713514 25.8140459,62.1875676 C25.700414,62.2037838 25.5800979,62.2118919 25.4530975,62.2118919 C25.1857283,62.2118919 24.9985698,62.1632432 24.8916221,62.0659459 C24.7846744,61.9686486 24.7312006,61.8 24.7312006,61.56 L24.7312006,61.56 L24.7312006,59.3124324 L26.2150997,59.3124324 L26.2150997,58.1935135 L24.7312006,58.1935135 L24.7312006,56.5978378 L23.3575913,56.8994595 L23.3575913,58.1935135 L22.2847723,58.1935135 L22.2847723,59.3124324 L23.3575913,59.3124324 L23.3575913,61.8324324 C23.3575913,62.3254054 23.5063154,62.7 23.8037636,62.9562162 C24.1012119,63.2124324 24.5407,63.3405405 25.1222281,63.3405405 Z M28.2705006,63.2627027 L28.2705006,59.7502703 C28.3908167,59.5881081 28.542883,59.4632432 28.7266993,59.3756757 C28.9105156,59.2881081 29.1160557,59.2443243 29.3433195,59.2443243 C29.6708468,59.2443243 29.9332029,59.3416216 30.1303877,59.5362162 C30.3275725,59.7308108 30.4261648,59.987027 30.4261648,60.3048649 L30.4261648,60.3048649 L30.4261648,63.2627027 L31.7997742,63.2627027 L31.7997742,60.1102703 C31.7997742,59.52 31.6059315,59.0367568 31.2182461,58.6605405 C30.8305608,58.2843243 30.3359277,58.0962162 29.734347,58.0962162 C29.4469251,58.0962162 29.1812269,58.1383784 28.9372525,58.2227027 C28.6932781,58.307027 28.4710275,58.4302703 28.2705006,58.5924324 L28.2705006,58.5924324 L28.2705006,56.16 L26.8968912,56.4518919 L26.8968912,63.2627027 L28.2705006,63.2627027 Z M36.4018668,63.36 C36.9499737,63.36 37.483041,63.2464865 38.0010689,63.0194595 C38.5190967,62.7924324 38.9452164,62.4875676 39.2794279,62.1048649 L39.2794279,62.1048649 L38.3269251,61.1902703 C38.0796086,61.4691892 37.7955288,61.6832432 37.4746857,61.8324324 C37.1538427,61.9816216 36.8096048,62.0562162 36.4419721,62.0562162 C36.1144449,62.0562162 35.8119834,61.9994595 35.5345879,61.8859459 C35.2571923,61.7724324 35.01656,61.6183784 34.812691,61.4237838 C34.608822,61.2291892 34.4484005,60.9972973 34.3314264,60.7281081 C34.2144524,60.4589189 34.1559654,60.1686486 34.1559654,59.8572973 C34.1559654,59.5394595 34.2127813,59.2459459 34.3264132,58.9767568 C34.4400452,58.7075676 34.5971246,58.4740541 34.7976515,58.2762162 C34.9981784,58.0783784 35.2371396,57.9227027 35.5145352,57.8091892 C35.7919307,57.6956757 36.0877079,57.6389189 36.4018668,57.6389189 C36.7761837,57.6389189 37.1304479,57.7183784 37.4646594,57.8772973 C37.7988709,58.0362162 38.0896349,58.2648649 38.3369514,58.5632432 L38.3369514,58.5632432 L39.3195333,57.6194595 C38.992006,57.2302703 38.5642153,56.9205405 38.0361611,56.6902703 C37.5081069,56.46 36.9633421,56.3448649 36.4018668,56.3448649 C35.8804968,56.3448649 35.3908769,56.4356757 34.9330072,56.6172973 C34.4751374,56.7989189 34.0790967,57.0454054 33.7448852,57.3567568 C33.4106737,57.6681081 33.1466466,58.0394595 32.9528039,58.4708108 C32.7589612,58.9021622 32.6620399,59.3643243 32.6620399,59.8572973 C32.6620399,60.3502703 32.7572902,60.8108108 32.9477907,61.2389189 C33.1382913,61.667027 33.4006473,62.0367568 33.7348589,62.3481081 C34.0690704,62.6594595 34.465111,62.9059459 34.9229808,63.0875676 C35.3808506,63.2691892 35.8738126,63.36 36.4018668,63.36 Z M41.6957772,63.3502703 C41.9965676,63.3502703 42.2689499,63.3145946 42.5129244,63.2432432 C42.7568988,63.1718919 42.9891758,63.0616216 43.2097554,62.9124324 L43.2097554,62.9124324 L43.2097554,63.2627027 L44.563312,63.2627027 L44.563312,59.9740541 C44.563312,59.3772973 44.3677983,58.9151351 43.9767708,58.5875676 C43.5857433,58.26 43.0393075,58.0962162 42.3374633,58.0962162 C41.9631464,58.0962162 41.5838163,58.1416216 41.1994731,58.2324324 C40.8151298,58.3232432 40.4190892,58.4594595 40.0113511,58.6410811 L40.0113511,58.6410811 L40.5126684,59.6237838 C40.8401957,59.4810811 41.1326308,59.3756757 41.3899737,59.3075676 C41.6473165,59.2394595 41.8862778,59.2054054 42.1068574,59.2054054 C42.4678058,59.2054054 42.7418592,59.28 42.9290177,59.4291892 C43.1161761,59.5783784 43.2097554,59.7989189 43.2097554,60.0908108 L43.2097554,60.0908108 L43.2097554,60.4508108 C43.0025442,60.3859459 42.791991,60.3372973 42.5780956,60.3048649 C42.3642002,60.2724324 42.1503049,60.2562162 41.9364095,60.2562162 C41.2679865,60.2562162 40.7432744,60.3924324 40.3622732,60.6648649 C39.9812721,60.9372973 39.7907715,61.3135135 39.7907715,61.7935135 C39.7907715,62.2540541 39.9679037,62.6286486 40.3221679,62.9172973 C40.6764321,63.2059459 41.1343018,63.3502703 41.6957772,63.3502703 Z M42.0567256,62.3967568 C41.7693037,62.3967568 41.5386978,62.34 41.3649078,62.2264865 C41.1911178,62.112973 41.1042228,61.9589189 41.1042228,61.7643243 C41.1042228,61.5697297 41.1927889,61.4156757 41.369921,61.3021622 C41.5470531,61.1886486 41.7926985,61.1318919 42.1068574,61.1318919 C42.3073843,61.1318919 42.4995559,61.1464865 42.6833722,61.1756757 C42.8671886,61.2048649 43.0426496,61.2518919 43.2097554,61.3167568 L43.2097554,61.3167568 L43.2097554,62.0756757 C43.0493338,62.1794595 42.8738728,62.2589189 42.6833722,62.3140541 C42.4928717,62.3691892 42.2839895,62.3967568 42.0567256,62.3967568 Z M46.9796613,63.2627027 L46.9796613,59.9837838 C47.1066616,59.7372973 47.2821227,59.5491892 47.5060444,59.4194595 C47.7299661,59.2897297 47.9756116,59.2248649 48.2429808,59.2248649 C48.3699812,59.2248649 48.4936394,59.2362162 48.6139556,59.2589189 C48.7342717,59.2816216 48.8445615,59.3156757 48.944825,59.3610811 L48.944825,59.3610811 L48.944825,58.1935135 C48.8779827,58.1545946 48.799443,58.127027 48.7092059,58.1108108 C48.6189688,58.0945946 48.5070079,58.0832432 48.3733233,58.0767568 C48.0859014,58.0767568 47.8235454,58.1335135 47.5862552,58.247027 C47.348965,58.3605405 47.146767,58.5275676 46.9796613,58.7481081 L46.9796613,58.7481081 L46.9796613,58.1935135 L45.6060519,58.1935135 L45.6060519,63.2627027 L46.9796613,63.2627027 Z M52.253519,63.36 C52.6679413,63.36 53.0439292,63.3016216 53.3814829,63.1848649 C53.7190365,63.0681081 54.0482349,62.8832432 54.3690779,62.6302703 L54.3690779,62.6302703 L53.4667068,61.8324324 C53.326338,61.9621622 53.1558901,62.0627027 52.9553632,62.1340541 C52.7548363,62.2054054 52.5409409,62.2410811 52.3136771,62.2410811 C51.9527286,62.2410811 51.6385698,62.1437838 51.3712006,61.9491892 C51.1038314,61.7545946 50.9233572,61.4983784 50.8297779,61.1805405 L50.8297779,61.1805405 L54.72,61.1805405 L54.72,60.8302703 C54.72,60.4410811 54.6548288,60.0794595 54.5244863,59.7454054 C54.3941438,59.4113514 54.2136696,59.1243243 53.9830636,58.8843243 C53.7524577,58.6443243 53.4784042,58.4545946 53.1609033,58.3151351 C52.8434023,58.1756757 52.5008355,58.1059459 52.1332029,58.1059459 C51.758886,58.1059459 51.4062928,58.1740541 51.0754234,58.3102703 C50.744554,58.4464865 50.4588032,58.632973 50.2181709,58.8697297 C49.9775386,59.1064865 49.7887091,59.3854054 49.6516823,59.7064865 C49.5146556,60.0275676 49.4461423,60.3697297 49.4461423,60.732973 C49.4461423,61.1027027 49.5179977,61.4481081 49.6617087,61.7691892 C49.8054196,62.0902703 50.0026044,62.3675676 50.2532631,62.6010811 C50.5039217,62.8345946 50.80137,63.0194595 51.1456078,63.1556757 C51.4898457,63.2918919 51.8591494,63.36 52.253519,63.36 Z M53.3764697,60.227027 L50.8197516,60.227027 C50.9066466,59.9156757 51.063726,59.6675676 51.2909898,59.4827027 C51.5182537,59.2978378 51.788965,59.2054054 52.1031238,59.2054054 C52.4039142,59.2054054 52.6696123,59.3010811 52.9002183,59.4924324 C53.1308242,59.6837838 53.2895747,59.9286486 53.3764697,60.227027 L53.3764697,60.227027 Z" id="HealthCare" fill="#4900D5"></path>
        </g>
    </g>
</svg>