<svg width="40" height="40" viewBox="0 0 40 40" fill="none" xmlns="http://www.w3.org/2000/svg">
<g clip-path="url(#clip0_1_464)">
<path d="M39.2566 21.641L33.6777 11.9801C33.5607 11.7778 33.3682 11.6302 33.1425 11.5697C32.9167 11.5092 32.6762 11.5408 32.4738 11.6574L30.5206 12.7863V5.29023C30.5206 5.28164 30.5206 5.27227 30.5167 5.26289L30.512 5.23164C30.512 5.2207 30.5066 5.20977 30.5042 5.19883L30.498 5.17383L30.4863 5.14102C30.4863 5.1332 30.4808 5.12539 30.4785 5.11836L30.4644 5.08633C30.4605 5.0793 30.4574 5.07148 30.4535 5.06445L30.437 5.03555C30.4324 5.02773 30.4285 5.01992 30.423 5.01211L30.4058 4.98711L30.3886 4.96367L30.3691 4.94102L30.3581 4.92773L26.5753 0.826953L26.5667 0.818359L26.5417 0.793359L26.5214 0.775391C26.512 0.767578 26.5027 0.759766 26.4925 0.752734C26.4861 0.747352 26.4793 0.742393 26.4722 0.737891L26.4378 0.715234L26.4206 0.703516L26.3785 0.682422L26.3644 0.675391C26.348 0.668359 26.3308 0.662109 26.3128 0.655859H26.3058C26.287 0.649609 26.2675 0.644922 26.2472 0.640234C26.2269 0.636068 26.2066 0.632943 26.1863 0.630859H10.6347C10.3288 0.631273 10.0355 0.752977 9.81922 0.969287C9.60291 1.1856 9.48121 1.47886 9.4808 1.78477V14.0699L7.52767 12.941C7.32507 12.8243 7.08445 12.7927 6.8586 12.8532C6.63276 12.9137 6.44013 13.0613 6.32298 13.2637L0.742515 22.9262C0.626053 23.1287 0.594617 23.3691 0.655096 23.5948C0.715575 23.8205 0.863036 24.0129 1.06517 24.1301L5.62455 26.7645C6.34124 27.3948 6.96234 28.1262 7.4683 28.9355L5.93705 31.5949C5.6839 32.033 5.5772 32.5404 5.63248 33.0433C5.68776 33.5462 5.90213 34.0183 6.24438 34.3909C6.58664 34.7635 7.03889 35.0171 7.5353 35.1147C8.0317 35.2124 8.54632 35.1491 9.00423 34.934C9.11392 35.248 9.28821 35.5355 9.51586 35.778C9.74351 36.0204 10.0195 36.2125 10.3259 36.3418C10.6324 36.471 10.9625 36.5346 11.2951 36.5285C11.6276 36.5223 11.9551 36.4464 12.2566 36.3059C12.453 36.8733 12.8573 37.3452 13.388 37.6263C13.9186 37.9075 14.5361 37.9769 15.116 37.8207C15.3637 37.7544 15.5992 37.6489 15.8136 37.5082C16.0022 37.9215 16.3055 38.2718 16.6875 38.5177C17.0695 38.7635 17.514 38.8945 17.9683 38.8949C18.3703 38.8952 18.7658 38.7936 19.1179 38.5996C19.47 38.4056 19.7671 38.1255 19.9816 37.7855L22.1175 39.0184C22.5756 39.2834 23.1021 39.4065 23.6303 39.3721C24.1584 39.3377 24.6645 39.1473 25.0843 38.825C25.5041 38.5027 25.8189 38.0631 25.9886 37.5618C26.1584 37.0605 26.1755 36.52 26.0378 36.009C26.0175 35.9309 25.9933 35.8527 25.9667 35.7824C26.0443 35.7684 26.1225 35.7512 26.2011 35.7309C26.5406 35.6406 26.8588 35.4842 27.1377 35.2706C27.4165 35.057 27.6504 34.7904 27.826 34.4862C28.0016 34.182 28.1154 33.8461 28.1609 33.4979C28.2063 33.1496 28.1826 32.7957 28.091 32.4566C28.0706 32.3785 28.0472 32.3043 28.0206 32.2309C28.4062 32.1639 28.7723 32.0131 29.0931 31.7892C29.414 31.5652 29.6817 31.2734 29.8774 30.9346C30.0731 30.5957 30.192 30.2181 30.2256 29.8282C30.2593 29.4384 30.2069 29.0459 30.0722 28.6785C30.4577 28.6115 30.8238 28.4605 31.1445 28.2364C31.4653 28.0124 31.7329 27.7205 31.9285 27.3816C31.9968 27.2631 32.0561 27.1396 32.1058 27.0121C32.4917 26.8246 32.848 26.5074 33.1956 26.1973C33.4378 25.9801 33.8441 25.6176 34.0019 25.5918C34.1161 25.5949 34.2289 25.5663 34.3277 25.509L38.937 22.8465C39.1389 22.7287 39.2859 22.5357 39.3458 22.3097C39.4057 22.0838 39.3736 21.8434 39.2566 21.641ZM26.741 2.85117L28.4675 4.72617H26.741V2.85117ZM10.7308 1.87539H25.491V5.35117C25.491 5.51693 25.5568 5.6759 25.674 5.79311C25.7912 5.91032 25.9502 5.97617 26.116 5.97617H29.2683V13.5082L28.0183 14.2285C25.5863 14.1285 21.9706 14.5176 19.5628 15.6262C19.4225 15.6919 19.2763 15.7442 19.1261 15.7824C19.0542 15.8027 18.9745 15.8262 18.8745 15.8605C18.5782 15.9544 18.3 16.0981 18.0519 16.2855C18.0266 16.2734 18.0005 16.263 17.9738 16.2543C16.4386 15.7277 14.1667 15.1793 11.941 15.4934L10.7253 14.7902L10.7308 1.87539ZM5.76048 25.398L2.01048 23.2316L7.21908 14.2074L10.9691 16.3738L5.76048 25.398ZM9.1847 32.9691L8.96673 33.3457C8.89276 33.4739 8.79426 33.5864 8.67684 33.6765C8.55942 33.7667 8.42539 33.8329 8.2824 33.8713C8.13942 33.9096 7.99027 33.9195 7.84348 33.9002C7.69669 33.8809 7.55513 33.833 7.42689 33.759C7.29865 33.685 7.18623 33.5865 7.09605 33.4691C7.00588 33.3517 6.93971 33.2176 6.90134 33.0747C6.86296 32.9317 6.85312 32.7825 6.87239 32.6357C6.89165 32.4889 6.93964 32.3474 7.01361 32.2191L9.27064 28.3129C9.34461 28.1846 9.44312 28.0722 9.56053 27.9821C9.67795 27.8919 9.81198 27.8257 9.95497 27.7873C10.098 27.749 10.2471 27.7391 10.3939 27.7584C10.5407 27.7777 10.6822 27.8256 10.8105 27.8996C10.9387 27.9736 11.0511 28.0721 11.1413 28.1895C11.2315 28.3069 11.2977 28.441 11.336 28.5839C11.3744 28.7269 11.3843 28.8761 11.365 29.0229C11.3457 29.1697 11.2977 29.3112 11.2238 29.4395L9.18626 32.9691H9.1847ZM12.4378 34.3395L12.2199 34.7176C12.0695 34.9753 11.8234 35.1632 11.5352 35.2405C11.247 35.3177 10.9399 35.278 10.6808 35.1301C10.4225 34.9803 10.234 34.7342 10.1567 34.4457C10.0794 34.1573 10.1195 33.8499 10.2683 33.591L12.3066 30.0621C12.456 29.8031 12.7021 29.6141 12.9909 29.5366C13.2797 29.4591 13.5874 29.4994 13.8464 29.6488C14.1054 29.7982 14.2945 30.0444 14.372 30.3332C14.4495 30.6219 14.4091 30.9297 14.2597 31.1887L12.4417 34.3379L12.4378 34.3395ZM15.473 36.0941C15.3236 36.3531 15.0774 36.5422 14.7887 36.6197C14.4999 36.6972 14.1921 36.6568 13.9331 36.5074C13.6741 36.358 13.4851 36.1119 13.4076 35.8231C13.3301 35.5343 13.3705 35.2266 13.5199 34.9676L15.3386 31.8184C15.4876 31.5594 15.7333 31.3701 16.0218 31.2923C16.3103 31.2146 16.6179 31.2545 16.8769 31.4035C17.1359 31.5525 17.3251 31.7983 17.4029 32.0867C17.4807 32.3752 17.4407 32.6828 17.2917 32.9418L15.912 35.3316L15.473 36.0941ZM17.4058 37.5004C17.1483 37.3502 16.9606 37.1044 16.8834 36.8165C16.8061 36.5286 16.8456 36.2218 16.9933 35.9629L18.373 33.573C18.447 33.4448 18.5455 33.3324 18.6629 33.2422C18.7803 33.152 18.9143 33.0859 19.0573 33.0475C19.2003 33.0091 19.3494 32.9993 19.4962 33.0185C19.643 33.0378 19.7846 33.0858 19.9128 33.1598C20.0411 33.2337 20.1535 33.3322 20.2437 33.4497C20.3338 33.5671 20.4 33.7011 20.4384 33.8441C20.4768 33.9871 20.4866 34.1362 20.4673 34.283C20.4481 34.4298 20.4001 34.5714 20.3261 34.6996L19.2136 36.627L18.948 37.0879C18.7973 37.3462 18.5502 37.5341 18.261 37.6102C17.9718 37.6864 17.6642 37.6447 17.4058 37.4941V37.5004ZM24.687 37.4223C24.4978 37.7496 24.1865 37.9884 23.8213 38.0864C23.4562 38.1844 23.0671 38.1335 22.7394 37.9449L20.6066 36.7129L21.4058 35.3176C21.6267 34.9347 21.7363 34.4977 21.7222 34.0559L24.1636 35.4621C24.4915 35.6518 24.7307 35.9638 24.8288 36.3297C24.9269 36.6955 24.876 37.0854 24.687 37.4137V37.4223ZM30.8402 26.7652C30.6508 27.0924 30.3394 27.3311 29.9743 27.4289C29.6091 27.5268 29.2201 27.4758 28.8925 27.2871L23.7105 24.2957C23.6393 24.2521 23.5602 24.2231 23.4777 24.2106C23.3951 24.198 23.311 24.2022 23.2301 24.2227C23.1492 24.2432 23.0732 24.2797 23.0066 24.3301C22.9401 24.3804 22.8843 24.4436 22.8425 24.5159C22.8008 24.5882 22.7739 24.6681 22.7636 24.7509C22.7532 24.8337 22.7595 24.9177 22.7822 24.9981C22.8048 25.0784 22.8433 25.1534 22.8954 25.2186C22.9475 25.2838 23.0121 25.3379 23.0855 25.3777L28.2675 28.3598C28.587 28.5528 28.8181 28.8634 28.9113 29.2249C29.0044 29.5864 28.9521 29.97 28.7656 30.2934C28.5791 30.6168 28.2733 30.8542 27.9138 30.9547C27.5542 31.0552 27.1696 31.0107 26.8425 30.8309L22.8628 28.5332C22.7917 28.4922 22.7132 28.4655 22.6319 28.4548C22.5505 28.4441 22.4678 28.4496 22.3885 28.4708C22.3092 28.4921 22.2348 28.5287 22.1697 28.5787C22.1046 28.6287 22.05 28.691 22.0089 28.7621C21.9679 28.8332 21.9412 28.9117 21.9305 28.9931C21.9198 29.0745 21.9253 29.1572 21.9465 29.2365C21.9678 29.3158 22.0044 29.3901 22.0544 29.4552C22.1044 29.5203 22.1667 29.575 22.2378 29.616L26.212 31.9105C26.5395 32.0997 26.7784 32.4112 26.8762 32.7766C26.974 33.1419 26.9227 33.5311 26.7335 33.8586C26.5444 34.1861 26.2328 34.425 25.8675 34.5228C25.5022 34.6206 25.113 34.5693 24.7855 34.3801L22.1144 32.8379C22.0003 32.7729 21.8687 32.7454 21.7381 32.7594C21.6075 32.7734 21.4847 32.8282 21.387 32.916C21.1234 32.4702 20.7208 32.1231 20.2411 31.928C19.7613 31.7328 19.2308 31.7004 18.7308 31.8355L18.63 31.8645C18.6222 31.8309 18.6144 31.7965 18.605 31.7629C18.5249 31.4619 18.3863 31.1797 18.197 30.9324C18.0078 30.6851 17.7716 30.4775 17.502 30.3216C17.2324 30.1656 16.9347 30.0644 16.626 30.0236C16.3172 29.9828 16.0035 30.0034 15.7027 30.084C15.6683 30.0934 15.6355 30.1027 15.6019 30.1137C15.5941 30.0793 15.5863 30.0457 15.5769 30.0113C15.4967 29.7099 15.3577 29.4272 15.168 29.1796C14.9784 28.932 14.7417 28.7242 14.4715 28.5682C14.2014 28.4123 13.9031 28.3111 13.5938 28.2707C13.2845 28.2302 12.9703 28.2512 12.6691 28.3324L12.5691 28.3613C12.4653 27.8944 12.2229 27.4697 11.8738 27.1428C11.5246 26.8159 11.0849 26.602 10.6122 26.529C10.1395 26.4561 9.65576 26.5275 9.22432 26.734C8.79287 26.9405 8.4338 27.2724 8.19408 27.6863L8.16751 27.7316C7.75953 27.154 7.29755 26.6164 6.78783 26.1262L12.2152 16.7191C14.012 16.4848 15.8706 16.8895 17.2331 17.3246C17.1763 17.4525 17.1296 17.5847 17.0933 17.7199L16.2339 20.9402C16.2128 21.0184 16.1925 21.0895 16.1738 21.159C16.0441 21.6207 15.9316 22.0184 16.0339 22.6746C16.1261 23.2789 16.3444 23.8571 16.6745 24.3715C16.8792 24.6738 17.2097 25.0746 17.7136 25.0801H17.723C18.2558 25.0801 18.5605 24.6496 18.805 24.3027C18.8324 24.2637 18.8605 24.2246 18.8894 24.1848C19.4079 23.4527 19.8892 22.6949 20.3316 21.9145C20.773 21.159 21.23 20.377 21.5191 20.3074L22.2308 20.1379L30.3214 24.809C30.6481 24.9989 30.8861 25.3105 30.9833 25.6756C31.0806 26.0407 31.0291 26.4294 30.8402 26.7566V26.7652ZM32.2019 25.4113C32.1161 25.0614 31.9604 24.7324 31.7441 24.4443C31.5278 24.1561 31.2554 23.9148 30.9433 23.7348L22.637 18.9301C22.4986 18.8502 22.3347 18.8264 22.1792 18.8637L21.2253 19.091C20.4167 19.284 19.9269 20.123 19.2488 21.2832C18.8272 22.029 18.368 22.7528 17.873 23.452C17.8417 23.4949 17.8113 23.5379 17.7816 23.5801L17.712 23.6785L17.7058 23.6691C17.4798 23.3074 17.3301 22.9033 17.266 22.4816C17.2058 22.0949 17.266 21.8949 17.3738 21.4957C17.3941 21.4223 17.416 21.3457 17.4378 21.2613L18.2972 18.0418C18.3514 17.8381 18.4504 17.6491 18.587 17.4887C18.5995 17.4762 18.6105 17.4629 18.6222 17.4496C18.7919 17.2642 19.0075 17.1268 19.2472 17.0512C19.3339 17.0238 19.4035 17.0035 19.4667 16.9855C19.6777 16.929 19.8832 16.8537 20.0808 16.7605C22.3839 15.7035 25.8245 15.416 27.805 15.4691L33.1074 24.6527C32.8434 24.838 32.5928 25.0417 32.3574 25.2621C32.3074 25.3129 32.255 25.3559 32.2019 25.4027V25.4113ZM34.2402 24.1145L29.0285 15.0902L32.7785 12.9238L37.9886 21.948L34.2402 24.1145ZM16.3613 12.2395C16.527 12.2395 16.686 12.1736 16.8032 12.0564C16.9204 11.9392 16.9863 11.7802 16.9863 11.6145V7.42695C16.9863 7.26119 16.9204 7.10222 16.8032 6.98501C16.686 6.8678 16.527 6.80195 16.3613 6.80195H12.1706C12.0049 6.80195 11.8459 6.8678 11.7287 6.98501C11.6115 7.10222 11.5456 7.26119 11.5456 7.42695V11.616C11.5456 11.7818 11.6115 11.9407 11.7287 12.058C11.8459 12.1752 12.0049 12.241 12.1706 12.241L16.3613 12.2395ZM12.7972 8.05039H15.7363V10.9895H12.7956L12.7972 8.05039ZM15.4605 9.38555L14.5089 10.477C14.4525 10.5414 14.3835 10.5937 14.3061 10.6303C14.2287 10.667 14.1445 10.6874 14.0589 10.6902H14.0378C13.9554 10.6907 13.8737 10.6749 13.7974 10.6436C13.7211 10.6124 13.6517 10.5664 13.5933 10.5082L13.0988 10.0137C13.0407 9.95555 12.9946 9.88656 12.9632 9.81065C12.9318 9.73473 12.9157 9.65337 12.9157 9.57121C12.9158 9.48905 12.932 9.4077 12.9634 9.33181C12.9949 9.25592 13.041 9.18698 13.0992 9.12891C13.1573 9.07084 13.2263 9.02479 13.3022 8.99338C13.3781 8.96197 13.4595 8.94582 13.5416 8.94586C13.6238 8.9459 13.7051 8.96212 13.781 8.99359C13.8569 9.02506 13.9259 9.07118 13.9839 9.1293L14.0058 9.15117L14.516 8.56602C14.5693 8.50232 14.6349 8.44991 14.7087 8.41185C14.7826 8.37379 14.8633 8.35083 14.9461 8.34434C15.029 8.33784 15.1123 8.34793 15.1912 8.37401C15.2701 8.40009 15.343 8.44165 15.4056 8.49624C15.4683 8.55084 15.5194 8.61737 15.556 8.69196C15.5927 8.76655 15.614 8.8477 15.6189 8.93065C15.6238 9.0136 15.6121 9.0967 15.5845 9.17507C15.5569 9.25345 15.5139 9.32553 15.4581 9.38711L15.4605 9.38555ZM18.8066 11.8605C18.8066 11.6948 18.8724 11.5358 18.9896 11.4186C19.1068 11.3014 19.2658 11.2355 19.4316 11.2355H27.83C27.9958 11.2355 28.1547 11.3014 28.272 11.4186C28.3892 11.5358 28.455 11.6948 28.455 11.8605C28.455 12.0263 28.3892 12.1853 28.272 12.3025C28.1547 12.4197 27.9958 12.4855 27.83 12.4855H19.43C19.2645 12.4855 19.1058 12.4199 18.9886 12.303C18.8715 12.1862 18.8054 12.0276 18.805 11.8621L18.8066 11.8605ZM18.8066 7.42539C18.8066 7.25963 18.8724 7.10066 18.9896 6.98345C19.1068 6.86624 19.2658 6.80039 19.4316 6.80039H23.3316C23.4973 6.80039 23.6563 6.86624 23.7735 6.98345C23.8907 7.10066 23.9566 7.25963 23.9566 7.42539C23.9566 7.59115 23.8907 7.75012 23.7735 7.86733C23.6563 7.98454 23.4973 8.05039 23.3316 8.05039H19.43C19.2645 8.05039 19.1058 7.98476 18.9886 7.86788C18.8715 7.75101 18.8054 7.59244 18.805 7.42695L18.8066 7.42539ZM18.8066 9.64258C18.8066 9.47682 18.8724 9.31785 18.9896 9.20064C19.1068 9.08343 19.2658 9.01758 19.4316 9.01758H24.9785C25.1442 9.01758 25.3032 9.08343 25.4204 9.20064C25.5376 9.31785 25.6035 9.47682 25.6035 9.64258C25.6035 9.80834 25.5376 9.96731 25.4204 10.0845C25.3032 10.2017 25.1442 10.2676 24.9785 10.2676H19.4316C19.3495 10.2678 19.2682 10.2518 19.1923 10.2206C19.1164 10.1894 19.0474 10.1435 18.9892 10.0856C18.931 10.0277 18.8848 9.95895 18.8532 9.8832C18.8216 9.80745 18.8052 9.72622 18.805 9.64414L18.8066 9.64258Z" fill="#F9A307"/>
</g>
<defs>
<clipPath id="clip0_1_464">
<rect width="40" height="40" fill="white"/>
</clipPath>
</defs>
</svg>
