<svg width="52" height="59" viewBox="0 0 52 59" fill="none" xmlns="http://www.w3.org/2000/svg">
<path d="M17.3759 39.6462C17.3759 39.441 17.4574 39.2443 17.6024 39.0992C17.7475 38.9541 17.9443 38.8726 18.1494 38.8726H28.3131C28.5182 38.8726 28.715 38.9541 28.86 39.0992C29.0051 39.2443 29.0866 39.441 29.0866 39.6462C29.0866 39.8513 29.0051 40.0481 28.86 40.1932C28.715 40.3382 28.5182 40.4197 28.3131 40.4197H18.1494C17.9443 40.4197 17.7475 40.3382 17.6024 40.1932C17.4574 40.0481 17.3759 39.8513 17.3759 39.6462ZM18.1494 44.1552H26.6871C26.7895 44.1565 26.8911 44.1375 26.9861 44.0992C27.0811 44.0609 27.1675 44.0041 27.2404 43.9321C27.3132 43.8602 27.3711 43.7745 27.4105 43.68C27.45 43.5855 27.4704 43.4841 27.4704 43.3817C27.4704 43.2793 27.45 43.178 27.4105 43.0835C27.3711 42.989 27.3132 42.9033 27.2404 42.8314C27.1675 42.7594 27.0811 42.7026 26.9861 42.6643C26.8911 42.626 26.7895 42.607 26.6871 42.6083H18.1494C18.047 42.607 17.9454 42.626 17.8504 42.6643C17.7555 42.7026 17.669 42.7594 17.5962 42.8314C17.5233 42.9033 17.4655 42.989 17.426 43.0835C17.3865 43.178 17.3662 43.2793 17.3662 43.3817C17.3662 43.4841 17.3865 43.5855 17.426 43.68C17.4655 43.7745 17.5233 43.8602 17.5962 43.9321C17.669 44.0041 17.7555 44.0609 17.8504 44.0992C17.9454 44.1375 18.047 44.1565 18.1494 44.1552ZM15.5309 37.8874C15.6058 37.9561 15.6664 38.0388 15.7093 38.1308C15.7522 38.2229 15.7766 38.3225 15.781 38.424C15.7854 38.5255 15.7698 38.6269 15.735 38.7223C15.7002 38.8178 15.647 38.9054 15.5784 38.9803L14.8874 39.7342C15.4186 40.6807 15.5766 41.7916 15.3304 42.8486C15.0842 43.9056 14.4516 44.8324 13.5569 45.4467C12.6622 46.0611 11.5701 46.3186 10.4952 46.1688C9.42025 46.0189 8.44024 45.4724 7.74772 44.6367C7.0552 43.8011 6.70024 42.7366 6.7526 41.6526C6.80495 40.5685 7.26084 39.5432 8.03067 38.7782C8.8005 38.0131 9.82862 37.5636 10.913 37.518C11.9974 37.4724 13.0596 37.834 13.8909 38.5318L14.438 37.9349C14.5766 37.7836 14.7696 37.6937 14.9746 37.6847C15.1795 37.6758 15.3796 37.7486 15.5309 37.8872V37.8874ZM13.752 40.9728L11.8428 43.0556C11.7204 43.1893 11.5548 43.2757 11.375 43.2997C11.1953 43.3237 11.0129 43.2838 10.8596 43.187L9.24648 42.1681C9.0762 42.0571 8.95644 41.8835 8.91311 41.685C8.86977 41.4864 8.90633 41.2787 9.01489 41.1069C9.12345 40.935 9.29528 40.8128 9.49323 40.7667C9.69118 40.7205 9.89934 40.7542 10.0727 40.8603L11.1392 41.5339L12.8444 39.6736C12.3199 39.2557 11.6624 39.0407 10.9924 39.0679C10.3223 39.0952 9.68443 39.3628 9.19559 39.8219C8.70674 40.281 8.39959 40.9008 8.33038 41.5679C8.26117 42.2349 8.43452 42.9046 8.8187 43.4543C9.20288 44.004 9.77218 44.3969 10.4224 44.5611C11.0726 44.7254 11.7602 44.6499 12.3593 44.3486C12.9585 44.0473 13.429 43.5403 13.6849 42.9204C13.9408 42.3005 13.9648 41.6092 13.7526 40.973L13.752 40.9728ZM18.1494 28.7282H29.8955C30.1007 28.7282 30.2974 28.6467 30.4425 28.5017C30.5876 28.3566 30.6691 28.1599 30.6691 27.9547C30.6691 27.7495 30.5876 27.5528 30.4425 27.4077C30.2974 27.2627 30.1007 27.1812 29.8955 27.1812H18.1494C17.9443 27.1812 17.7475 27.2627 17.6024 27.4077C17.4574 27.5528 17.3759 27.7495 17.3759 27.9547C17.3759 28.1599 17.4574 28.3566 17.6024 28.5017C17.7475 28.6467 17.9443 28.7282 18.1494 28.7282ZM18.1494 32.4638H33.856C33.9584 32.465 34.06 32.446 34.155 32.4077C34.25 32.3694 34.3364 32.3126 34.4092 32.2407C34.4821 32.1687 34.5399 32.083 34.5794 31.9885C34.6189 31.894 34.6392 31.7927 34.6392 31.6903C34.6392 31.5879 34.6189 31.4865 34.5794 31.392C34.5399 31.2975 34.4821 31.2118 34.4092 31.1399C34.3364 31.0679 34.25 31.0112 34.155 30.9729C34.06 30.9346 33.9584 30.9155 33.856 30.9168H18.1494C18.047 30.9155 17.9454 30.9346 17.8504 30.9729C17.7555 31.0112 17.669 31.0679 17.5962 31.1399C17.5233 31.2118 17.4655 31.2975 17.426 31.392C17.3865 31.4865 17.3662 31.5879 17.3662 31.6903C17.3662 31.7927 17.3865 31.894 17.426 31.9885C17.4655 32.083 17.5233 32.1687 17.5962 32.2407C17.669 32.3126 17.7555 32.3694 17.8504 32.4077C17.9454 32.446 18.047 32.465 18.1494 32.4638ZM15.5309 26.1959C15.6058 26.2646 15.6664 26.3473 15.7093 26.4394C15.7522 26.5314 15.7766 26.6311 15.781 26.7325C15.7854 26.834 15.7698 26.9354 15.735 27.0308C15.7002 27.1263 15.647 27.2139 15.5784 27.2888L14.8874 28.0427C15.4186 28.9892 15.5766 30.1001 15.3304 31.1571C15.0842 32.2142 14.4516 33.1409 13.5569 33.7553C12.6622 34.3696 11.5701 34.6272 10.4952 34.4773C9.42025 34.3274 8.44024 33.7809 7.74772 32.9453C7.0552 32.1096 6.70024 31.0451 6.7526 29.9611C6.80495 28.877 7.26084 27.8517 8.03067 27.0867C8.8005 26.3216 9.82862 25.8722 10.913 25.8266C11.9974 25.781 13.0596 26.1426 13.8909 26.8403L14.438 26.2434C14.5066 26.1685 14.5893 26.1079 14.6814 26.0649C14.7735 26.022 14.8731 25.9976 14.9746 25.9932C15.076 25.9887 15.1774 26.0043 15.2729 26.0391C15.3683 26.0738 15.456 26.1271 15.5309 26.1957V26.1959ZM13.752 29.2806L11.8428 31.3634C11.7204 31.4971 11.5548 31.5835 11.375 31.6075C11.1953 31.6315 11.0129 31.5916 10.8596 31.4948L9.24648 30.476C9.0762 30.365 8.95644 30.1915 8.91311 29.9929C8.86977 29.7943 8.90633 29.5866 9.01489 29.4148C9.12345 29.243 9.29528 29.1208 9.49323 29.0746C9.69118 29.0285 9.89934 29.0621 10.0727 29.1682L11.1392 29.8418L12.8444 27.9815C12.3199 27.5636 11.6624 27.3486 10.9924 27.3758C10.3223 27.4031 9.68443 27.6707 9.19559 28.1298C8.70674 28.5889 8.39959 29.2087 8.33038 29.8758C8.26117 30.5428 8.43452 31.2125 8.8187 31.7622C9.20288 32.3119 9.77218 32.7048 10.4224 32.869C11.0726 33.0333 11.7602 32.9578 12.3593 32.6565C12.9585 32.3552 13.429 31.8482 13.6849 31.2283C13.9408 30.6084 13.9648 29.9171 13.7526 29.2809L13.752 29.2806ZM18.1494 17.036H33.856C34.0612 17.036 34.2579 16.9545 34.403 16.8095C34.548 16.6644 34.6295 16.4677 34.6295 16.2625C34.6295 16.0573 34.548 15.8606 34.403 15.7155C34.2579 15.5704 34.0612 15.4889 33.856 15.4889H18.1494C17.9443 15.4889 17.7475 15.5704 17.6024 15.7155C17.4574 15.8606 17.3759 16.0573 17.3759 16.2625C17.3759 16.4677 17.4574 16.6644 17.6024 16.8095C17.7475 16.9545 17.9443 17.036 18.1494 17.036ZM18.1494 20.7715H33.856C33.9584 20.7728 34.06 20.7538 34.155 20.7155C34.25 20.6772 34.3364 20.6204 34.4092 20.5484C34.4821 20.4765 34.5399 20.3908 34.5794 20.2963C34.6189 20.2018 34.6392 20.1005 34.6392 19.9981C34.6392 19.8957 34.6189 19.7943 34.5794 19.6998C34.5399 19.6053 34.4821 19.5196 34.4092 19.4477C34.3364 19.3757 34.25 19.3189 34.155 19.2806C34.06 19.2423 33.9584 19.2233 33.856 19.2246H18.1494C18.047 19.2233 17.9454 19.2423 17.8504 19.2806C17.7555 19.3189 17.669 19.3757 17.5962 19.4477C17.5233 19.5196 17.4655 19.6053 17.426 19.6998C17.3865 19.7943 17.3662 19.8957 17.3662 19.9981C17.3662 20.1005 17.3865 20.2018 17.426 20.2963C17.4655 20.3908 17.5233 20.4765 17.5962 20.5484C17.669 20.6204 17.7555 20.6772 17.8504 20.7155C17.9454 20.7538 18.047 20.7728 18.1494 20.7715ZM11.1028 14.1305C12.1231 14.1297 13.1108 14.49 13.8908 15.1477L14.438 14.5508C14.5773 14.4021 14.7696 14.3143 14.9732 14.3065C15.1768 14.2987 15.3753 14.3716 15.5255 14.5093C15.6757 14.647 15.7655 14.8384 15.7754 15.0419C15.7853 15.2454 15.7145 15.4446 15.5784 15.5962L14.8874 16.3502C15.3525 17.1814 15.531 18.1427 15.3955 19.0855C15.26 20.0284 14.8179 20.9004 14.1376 21.567C13.4572 22.2337 12.5763 22.6579 11.6309 22.7741C10.6855 22.8903 9.72808 22.6922 8.90647 22.2102C8.08486 21.7283 7.44471 20.9893 7.08483 20.1074C6.72495 19.2254 6.66533 18.2496 6.91519 17.3304C7.16505 16.4112 7.71048 15.5998 8.46732 15.0214C9.22415 14.4431 10.1503 14.1299 11.1028 14.1302V14.1305ZM9.00562 17.7173C9.05984 17.6314 9.13046 17.557 9.21344 17.4984C9.29642 17.4398 9.39014 17.3981 9.48923 17.3757C9.58833 17.3534 9.69086 17.3507 9.79098 17.368C9.89109 17.3852 9.98682 17.4221 10.0727 17.4763L11.1392 18.15L12.8444 16.2896C12.3199 15.8717 11.6624 15.6567 10.9924 15.684C10.3223 15.7112 9.68443 15.9789 9.19559 16.438C8.70674 16.8971 8.39959 17.5169 8.33038 18.1839C8.26117 18.851 8.43452 19.5207 8.8187 20.0703C9.20288 20.62 9.77218 21.0129 10.4224 21.1772C11.0726 21.3414 11.7602 21.266 12.3593 20.9647C12.9585 20.6634 13.429 20.1564 13.6849 19.5365C13.9408 18.9166 13.9648 18.2253 13.7526 17.5891L11.8435 19.6719C11.721 19.8056 11.5554 19.892 11.3757 19.916C11.1959 19.94 11.0135 19.9001 10.8602 19.8033L9.24708 18.7844C9.07363 18.675 8.95075 18.5011 8.90546 18.3011C8.86018 18.1011 8.89621 17.8913 9.00562 17.7178V17.7173ZM51.6639 46.7348C51.6649 48.8478 51.0779 50.9194 49.9685 52.7178C48.859 54.5162 47.271 55.9703 45.3822 56.9174C43.4933 57.8646 41.3781 58.2674 39.2733 58.0807C37.1685 57.8941 35.1572 57.1254 33.4645 55.8606H5.0972C3.74582 55.8591 2.45022 55.3216 1.49464 54.3661C0.539061 53.4105 0.00153846 52.1149 0 50.7636V9.89236C0.00160249 8.54101 0.53915 7.24547 1.49472 6.28995C2.45029 5.33442 3.74585 4.79694 5.0972 4.7954H12.3791V4.00502C12.3791 3.90344 12.3991 3.80286 12.4379 3.70902C12.4768 3.61517 12.5338 3.5299 12.6056 3.45808C12.6775 3.38626 12.7627 3.3293 12.8566 3.29043C12.9504 3.25157 13.051 3.23158 13.1526 3.2316H17.0123C17.2008 2.31877 17.6982 1.49886 18.4208 0.910161C19.1435 0.321461 20.047 0 20.9791 0C21.9111 0 22.8147 0.321461 23.5373 0.910161C24.2599 1.49886 24.7574 2.31877 24.9458 3.2316H28.8055C28.9071 3.23158 29.0077 3.25157 29.1016 3.29043C29.1954 3.3293 29.2807 3.38626 29.3525 3.45808C29.4243 3.5299 29.4813 3.61517 29.5202 3.70902C29.5591 3.80286 29.5791 3.90344 29.5791 4.00502V4.7954H36.8611C38.2124 4.79694 39.508 5.33444 40.4635 6.29C41.4191 7.24555 41.9566 8.54112 41.9581 9.89248V15.0008L45.1827 11.9572C45.5247 11.6353 45.9804 11.4622 46.4499 11.4758C46.9193 11.4894 47.3642 11.6887 47.687 12.0299L49.2636 13.6998C49.5854 14.0418 49.7584 14.4975 49.7448 14.9669C49.7311 15.4362 49.532 15.8811 49.1909 16.2039L41.9583 23.0312V35.4692C44.6558 35.8763 47.1181 37.2366 48.8988 39.3034C50.6794 41.3702 51.6604 44.0067 51.6639 46.7348ZM40.4117 24.4914L38.9321 25.8875V35.4238C39.3773 35.3711 39.8252 35.3446 40.2735 35.3445C40.3195 35.3445 40.3653 35.3455 40.4112 35.3461L40.4117 24.4914ZM12.3791 10.152V9.36838H5.09732C4.95888 9.37014 4.8266 9.4259 4.72867 9.52378C4.63075 9.62166 4.57493 9.75392 4.57311 9.89236V50.7633C4.57489 50.9018 4.6307 51.0341 4.72862 51.132C4.82655 51.2299 4.95885 51.2857 5.09732 51.2875H29.8337C29.176 49.7803 28.8525 48.1486 28.8855 46.5045C28.9184 44.8603 29.307 43.2429 30.0245 41.7632C30.7421 40.2836 31.7716 38.9769 33.0422 37.9329C34.3128 36.889 35.7944 36.1327 37.3852 35.7158V27.055L33.3164 28.0202C33.1843 28.0516 33.0463 28.0476 32.9162 28.0087C32.7861 27.9698 32.6686 27.8973 32.5754 27.7986C32.4822 27.6999 32.4166 27.5783 32.3853 27.4462C32.3539 27.3141 32.3579 27.1761 32.3968 27.046L33.0272 24.9383C33.0304 24.9276 33.0338 24.9169 33.0375 24.9064L33.7406 22.8788L33.7465 22.8621C33.7895 22.7454 33.8602 22.6409 33.9524 22.5574L37.3852 19.3172V9.89236C37.3833 9.75392 37.3275 9.62166 37.2296 9.52378C37.1317 9.4259 36.9994 9.37014 36.8609 9.36838H29.5791V10.152C29.5791 10.3571 29.4976 10.5539 29.3525 10.699C29.2075 10.844 29.0107 10.9255 28.8055 10.9255H13.1526C12.9474 10.9255 12.7507 10.844 12.6056 10.699C12.4606 10.5539 12.3791 10.3571 12.3791 10.152ZM34.5049 25.3977L34.2628 26.2057L35.9365 25.8086L34.785 24.5885L34.5049 25.3977ZM35.5661 23.1617L37.4508 25.1584L48.129 15.0789C48.1716 15.0377 48.1964 14.9814 48.1981 14.9222C48.1998 14.8629 48.1783 14.8053 48.1382 14.7617L46.5615 13.0913C46.5202 13.0487 46.464 13.024 46.4047 13.0223C46.3455 13.0206 46.2879 13.0421 46.2443 13.0822L35.5661 23.1617ZM29.5791 6.34177V7.82129H36.8609C37.4099 7.822 37.9362 8.04038 38.3244 8.42856C38.7125 8.81674 38.9309 9.34303 38.9316 9.89199V17.8566L40.4117 16.461V9.89236C40.4106 8.95115 40.0362 8.04879 39.3707 7.38326C38.7051 6.71774 37.8028 6.3434 36.8615 6.34237L29.5791 6.34177ZM13.9261 9.37844H28.032V4.77857H24.256C24.0527 4.77859 23.8576 4.69855 23.7128 4.55577C23.5681 4.413 23.4854 4.21897 23.4826 4.01568C23.4735 3.35774 23.2057 2.72985 22.7372 2.26782C22.2687 1.80579 21.6371 1.54677 20.9791 1.54677C20.3211 1.54677 19.6896 1.80579 19.2211 2.26782C18.7526 2.72985 18.4848 3.35774 18.4756 4.01568C18.4729 4.21897 18.3902 4.413 18.2454 4.55577C18.1007 4.69855 17.9055 4.77859 17.7022 4.77857H13.9261V9.37844ZM5.0972 54.3134H31.7784C31.3657 53.8516 30.9911 53.357 30.6583 52.8346H5.09732C4.54827 52.834 4.02187 52.6157 3.63357 52.2275C3.24527 51.8393 3.02678 51.313 3.02601 50.7639V9.89236C3.02675 9.3433 3.24523 8.81694 3.63354 8.42875C4.02184 8.04056 4.54826 7.82223 5.09732 7.82165H12.3791V6.34237H5.0972C4.15599 6.3434 3.25362 6.71774 2.58807 7.38326C1.92252 8.04879 1.54815 8.95115 1.54709 9.89236V50.7634C1.54815 51.7047 1.92252 52.607 2.58807 53.2725C3.25362 53.9381 4.15599 54.3124 5.0972 54.3134ZM50.1168 46.7348C50.1169 44.7879 49.5396 42.8848 48.458 41.2661C47.3764 39.6473 45.8391 38.3857 44.0405 37.6406C42.2418 36.8956 40.2626 36.7006 38.3532 37.0804C36.4438 37.4602 34.6899 38.3977 33.3132 39.7743C31.9366 41.1509 30.9991 42.9048 30.6193 44.8143C30.2395 46.7237 30.4344 48.7029 31.1794 50.5015C31.9244 52.3002 33.1861 53.8375 34.8048 54.9191C36.4235 56.0007 38.3266 56.578 40.2735 56.578C42.8832 56.5751 45.3851 55.5371 47.2305 53.6917C49.0758 51.8464 50.1138 49.3445 50.1168 46.7348ZM44.4642 42.9845L38.9838 48.963L35.9257 47.0313C35.7524 46.9252 35.5442 46.8916 35.3463 46.9378C35.1483 46.9839 34.9765 47.1061 34.8679 47.2779C34.7594 47.4498 34.7228 47.6574 34.7661 47.856C34.8095 48.0546 34.9292 48.2282 35.0995 48.3391L38.7042 50.6157C38.8575 50.7125 39.04 50.7524 39.2197 50.7284C39.3994 50.7044 39.565 50.618 39.6875 50.4843L45.6045 44.0298C45.6731 43.9549 45.7264 43.8672 45.7611 43.7718C45.7959 43.6764 45.8115 43.575 45.8071 43.4735C45.8027 43.3721 45.7783 43.2724 45.7354 43.1804C45.6925 43.0883 45.6319 43.0056 45.557 42.937C45.4821 42.8683 45.3945 42.8151 45.299 42.7804C45.2036 42.7456 45.1022 42.73 45.0007 42.7344C44.8993 42.7388 44.7996 42.7632 44.7076 42.8061C44.6155 42.849 44.5328 42.9096 44.4642 42.9845Z" fill="#F9A307"/>
</svg>
