<svg width="40" height="40" viewBox="0 0 40 40" fill="none" xmlns="http://www.w3.org/2000/svg">
<g clip-path="url(#clip0_1_440)">
<path d="M37.1381 27.5263C37.7724 26.8379 38.1247 25.9361 38.125 25C38.125 22.9319 36.4431 21.25 34.375 21.25C32.3069 21.25 30.625 22.9319 30.625 25C30.625 25.9738 31.0012 26.8594 31.6119 27.5263C30.0138 27.6625 28.75 28.9919 28.75 30.625V34.375C28.75 34.5408 28.8158 34.6998 28.9331 34.817C29.0503 34.9342 29.2092 35 29.375 35H39.375C39.5408 35 39.6997 34.9342 39.8169 34.817C39.9342 34.6998 40 34.5408 40 34.375V30.625C40 28.9919 38.7363 27.6625 37.1381 27.5263ZM34.375 22.5C35.7537 22.5 36.875 23.6213 36.875 25C36.875 26.3788 35.7537 27.5 34.375 27.5C32.9963 27.5 31.875 26.3788 31.875 25C31.875 23.6213 32.9963 22.5 34.375 22.5ZM38.75 33.75H37.5V32.1875C37.5 32.0218 37.4342 31.8628 37.3169 31.7456C37.1997 31.6284 37.0408 31.5625 36.875 31.5625C36.7092 31.5625 36.5503 31.6284 36.4331 31.7456C36.3158 31.8628 36.25 32.0218 36.25 32.1875V33.75H32.5V32.1875C32.5 32.0218 32.4342 31.8628 32.3169 31.7456C32.1997 31.6284 32.0408 31.5625 31.875 31.5625C31.7092 31.5625 31.5503 31.6284 31.4331 31.7456C31.3158 31.8628 31.25 32.0218 31.25 32.1875V33.75H30V30.625C30 29.5913 30.8412 28.75 31.875 28.75H36.875C37.9087 28.75 38.75 29.5913 38.75 30.625V33.75ZM8.38812 27.5263C9.02242 26.8379 9.37469 25.9361 9.375 25C9.375 22.9319 7.69312 21.25 5.625 21.25C3.55687 21.25 1.875 22.9319 1.875 25C1.875 25.9738 2.25125 26.8594 2.86188 27.5263C1.26375 27.6625 0 28.9919 0 30.625V34.375C0 34.5408 0.065848 34.6998 0.183058 34.817C0.300269 34.9342 0.45924 35 0.625 35H10.625C10.7908 35 10.9497 34.9342 11.0669 34.817C11.1842 34.6998 11.25 34.5408 11.25 34.375V30.625C11.25 28.9919 9.98625 27.6625 8.38812 27.5263ZM5.625 22.5C7.00375 22.5 8.125 23.6213 8.125 25C8.125 26.3788 7.00375 27.5 5.625 27.5C4.24625 27.5 3.125 26.3788 3.125 25C3.125 23.6213 4.24625 22.5 5.625 22.5ZM10 33.75H8.75V32.1875C8.75 32.0218 8.68415 31.8628 8.56694 31.7456C8.44973 31.6284 8.29076 31.5625 8.125 31.5625C7.95924 31.5625 7.80027 31.6284 7.68306 31.7456C7.56585 31.8628 7.5 32.0218 7.5 32.1875V33.75H3.75V32.1875C3.75 32.0218 3.68415 31.8628 3.56694 31.7456C3.44973 31.6284 3.29076 31.5625 3.125 31.5625C2.95924 31.5625 2.80027 31.6284 2.68306 31.7456C2.56585 31.8628 2.5 32.0218 2.5 32.1875V33.75H1.25V30.625C1.25 29.5913 2.09125 28.75 3.125 28.75H8.125C9.15875 28.75 10 29.5913 10 30.625V33.75ZM23.125 31.25H23.0556C23.4733 30.8438 23.8052 30.3579 24.0318 29.8212C24.2584 29.2844 24.3751 28.7077 24.375 28.125C24.375 25.7125 22.4119 23.75 20 23.75C17.5881 23.75 15.625 25.7125 15.625 28.125C15.625 29.3488 16.1313 30.455 16.9438 31.25H16.875C15.1519 31.25 13.75 32.6519 13.75 34.375V39.375C13.75 39.5408 13.8158 39.6998 13.9331 39.817C14.0503 39.9342 14.2092 40 14.375 40H25.625C25.7908 40 25.9497 39.9342 26.0669 39.817C26.1842 39.6998 26.25 39.5408 26.25 39.375V34.375C26.25 32.6519 24.8481 31.25 23.125 31.25ZM16.875 28.125C16.875 26.4019 18.2769 25 20 25C21.7231 25 23.125 26.4019 23.125 28.125C23.125 29.8482 21.7231 31.25 20 31.25C18.2769 31.25 16.875 29.8482 16.875 28.125ZM25 38.75H23.125V36.875C23.125 36.7093 23.0592 36.5503 22.9419 36.4331C22.8247 36.3159 22.6658 36.25 22.5 36.25C22.3342 36.25 22.1753 36.3159 22.0581 36.4331C21.9408 36.5503 21.875 36.7093 21.875 36.875V38.75H18.125V36.875C18.125 36.7093 18.0592 36.5503 17.9419 36.4331C17.8247 36.3159 17.6658 36.25 17.5 36.25C17.3342 36.25 17.1753 36.3159 17.0581 36.4331C16.9408 36.5503 16.875 36.7093 16.875 36.875V38.75H15V34.375C15 33.3413 15.8413 32.5 16.875 32.5H23.125C24.1588 32.5 25 33.3413 25 34.375V38.75ZM20 6.36255C17.9944 6.36255 16.3631 7.99442 16.3631 10C16.3631 12.0057 17.9944 13.6375 20 13.6375C22.0056 13.6375 23.6369 12.0057 23.6369 10C23.6369 7.99442 22.0056 6.36255 20 6.36255ZM20 12.3875C18.6838 12.3875 17.6131 11.3169 17.6131 10C17.6131 8.68317 18.6838 7.61255 20 7.61255C21.3162 7.61255 22.3869 8.68317 22.3869 10C22.3869 11.3169 21.3162 12.3875 20 12.3875Z" fill="#F9A307"/>
<path d="M26.858 8.04484L25.7148 7.83359C25.6715 7.71852 25.6244 7.60492 25.5736 7.49296L26.233 6.53546C26.3773 6.32484 26.3792 6.04671 26.2373 5.83359C25.6909 5.01416 24.9878 4.31088 24.1686 3.76421C24.0647 3.69458 23.9423 3.65781 23.8172 3.6587C23.6921 3.6596 23.5702 3.6981 23.4673 3.76921L22.5098 4.42796C22.3977 4.37752 22.2841 4.33041 22.1692 4.28671L21.9573 3.14421C21.9346 3.02126 21.8755 2.90795 21.7877 2.81893C21.6999 2.72991 21.5875 2.66926 21.4648 2.64484C20.4986 2.45172 19.5036 2.45172 18.5373 2.64484C18.4147 2.66926 18.3022 2.72991 18.2144 2.81893C18.1266 2.90795 18.0676 3.02126 18.0448 3.14421L17.8336 4.28671C17.7186 4.33046 17.6055 4.37796 17.493 4.42796L16.5355 3.76921C16.4325 3.69835 16.3106 3.65999 16.1856 3.6591C16.0606 3.6582 15.9382 3.69482 15.8342 3.76421C15.0145 4.31051 14.3111 5.01385 13.7648 5.83359C13.6952 5.93757 13.6584 6.06006 13.6592 6.1852C13.66 6.31034 13.6983 6.43236 13.7692 6.53546L14.4286 7.49296C14.378 7.60546 14.3311 7.71859 14.2873 7.83359L13.1442 8.04484C13.0212 8.06761 12.9078 8.12678 12.8188 8.21469C12.7297 8.30261 12.6692 8.41523 12.6448 8.53796C12.4517 9.50382 12.4517 10.4984 12.6448 11.4642C12.6942 11.7148 12.893 11.9105 13.1442 11.9573L14.2873 12.1686C14.3305 12.2836 14.3773 12.3973 14.4286 12.5092L13.7692 13.4667C13.6986 13.57 13.6605 13.6919 13.6597 13.817C13.6589 13.942 13.6955 14.0645 13.7648 14.1686C14.3113 14.9882 15.0146 15.6915 15.8342 16.238C15.9381 16.3075 16.0606 16.3442 16.1856 16.3433C16.3107 16.3425 16.4325 16.304 16.5355 16.233L17.493 15.5742C17.6055 15.6248 17.7186 15.6717 17.8336 15.7155L18.0448 16.858C18.0676 16.9809 18.1266 17.0942 18.2144 17.1832C18.3022 17.2723 18.4147 17.3329 18.5373 17.3573C19.5038 17.5491 20.4984 17.5491 21.4648 17.3573C21.5875 17.3329 21.6999 17.2723 21.7877 17.1832C21.8755 17.0942 21.9346 16.9809 21.9573 16.858L22.1686 15.7155C22.2836 15.6717 22.3967 15.6242 22.5092 15.5742L23.4667 16.233C23.5697 16.3038 23.6916 16.3422 23.8166 16.3431C23.9416 16.344 24.064 16.3074 24.168 16.238C24.9877 15.6918 25.6908 14.9884 26.2367 14.1686C26.3063 14.0646 26.3431 13.9421 26.3424 13.817C26.3416 13.6918 26.3033 13.5698 26.2323 13.4667L25.573 12.5092C25.6236 12.3967 25.6705 12.2836 25.7142 12.1686L26.8573 11.9573C26.9804 11.9346 27.0937 11.8754 27.1828 11.7875C27.2718 11.6996 27.3324 11.587 27.3567 11.4642C27.5498 10.4984 27.5498 9.50382 27.3567 8.53796C27.3326 8.41524 27.2722 8.3026 27.1832 8.21466C27.0943 8.12673 26.981 8.06756 26.858 8.04484ZM26.1992 10.8067L25.1292 11.0042C25.0171 11.0249 24.9128 11.076 24.8276 11.1518C24.7425 11.2276 24.6797 11.3253 24.6461 11.4342C24.5568 11.7232 24.4407 12.0032 24.2992 12.2705C24.1911 12.4761 24.2055 12.7248 24.3367 12.9167L24.9536 13.813C24.6248 14.2412 24.2414 14.6245 23.813 14.953L22.9161 14.3367C22.8222 14.272 22.7124 14.2342 22.5986 14.2274C22.4848 14.2207 22.3713 14.2453 22.2705 14.2986C22.0032 14.4395 21.7234 14.5554 21.4348 14.6448C21.3258 14.6785 21.2281 14.7414 21.1523 14.8267C21.0765 14.912 21.0255 15.0164 21.0048 15.1286L20.808 16.198C20.2723 16.268 19.7299 16.268 19.1942 16.198L18.9973 15.1286C18.9766 15.0163 18.9255 14.9119 18.8496 14.8266C18.7737 14.7413 18.6758 14.6784 18.5667 14.6448C18.2781 14.5554 17.9984 14.4395 17.7311 14.2986C17.6303 14.2453 17.5168 14.2207 17.4029 14.2274C17.2891 14.2342 17.1793 14.272 17.0855 14.3367L16.1886 14.953C15.7602 14.6245 15.3767 14.2412 15.048 13.813L15.6648 12.9167C15.7967 12.7248 15.8105 12.4761 15.703 12.2705C15.5615 12.0032 15.4453 11.7232 15.3561 11.4342C15.3225 11.3253 15.2597 11.2276 15.1745 11.1518C15.0894 11.076 14.9851 11.0249 14.873 11.0042L13.803 10.8067C13.733 10.2715 13.733 9.72944 13.803 9.19421L14.873 8.99672C14.9851 8.97598 15.0894 8.92495 15.1745 8.84915C15.2597 8.77334 15.3225 8.67567 15.3561 8.56672C15.4451 8.27765 15.5612 7.99765 15.703 7.73046C15.8111 7.52484 15.7967 7.27609 15.6648 7.08421L15.048 6.18796C15.3767 5.75974 15.7602 5.37647 16.1886 5.04796L17.0855 5.66421C17.2773 5.79609 17.5255 5.80984 17.7311 5.70234C17.9984 5.56143 18.2781 5.44552 18.5667 5.35609C18.7886 5.28734 18.9548 5.10109 18.9973 4.87234L19.1942 3.80296C19.7299 3.73297 20.2723 3.73297 20.808 3.80296L21.0048 4.87234C21.0255 4.98454 21.0765 5.08894 21.1523 5.17421C21.2281 5.25949 21.3258 5.32238 21.4348 5.35609C21.723 5.44546 22.0042 5.56171 22.2705 5.70234C22.3712 5.75595 22.4847 5.78075 22.5986 5.77402C22.7125 5.7673 22.8224 5.7293 22.9161 5.66421L23.8136 5.04796C24.242 5.37647 24.6255 5.75974 24.9542 6.18796L24.3373 7.08421C24.2728 7.1783 24.2352 7.28823 24.2286 7.40212C24.222 7.51601 24.2466 7.62955 24.2998 7.73046C24.4405 7.99672 24.5573 8.27797 24.6467 8.56672C24.7148 8.78859 24.9011 8.95422 25.1298 8.99672L26.1998 9.19421C26.2693 9.72948 26.2691 10.2715 26.1992 10.8067Z" fill="#F9A307"/>
<path d="M29.0212 22.4381C29.2369 22.3344 29.375 22.115 29.375 21.875V20H30.625C31.3137 20 31.875 19.4394 31.875 18.75V1.25C31.875 0.560625 31.3137 0 30.625 0H9.375C8.68562 0 8.125 0.560625 8.125 1.25V18.75C8.125 19.4394 8.68562 20 9.375 20H10.625V21.875C10.6253 21.9926 10.6588 22.1078 10.7216 22.2072C10.7843 22.3067 10.8739 22.3864 10.9799 22.4373C11.0859 22.4882 11.2042 22.5082 11.321 22.495C11.4379 22.4817 11.5487 22.4358 11.6406 22.3625L14.5944 20H17.8125L19.5 22.25C19.7356 22.565 20.2644 22.565 20.5 22.25L22.1875 20H25.4056L28.3594 22.3631C28.4515 22.4365 28.5625 22.4824 28.6795 22.4957C28.7966 22.509 28.915 22.489 29.0212 22.4381ZM28.125 19.375V20.5744L26.0156 18.8869C25.9047 18.7983 25.767 18.75 25.625 18.75H21.875C21.778 18.75 21.6823 18.7726 21.5955 18.816C21.5087 18.8594 21.4332 18.9224 21.375 19L20 20.8331L18.625 19C18.5668 18.9224 18.4913 18.8594 18.4045 18.816C18.3177 18.7726 18.222 18.75 18.125 18.75H14.375C14.233 18.7499 14.0953 18.7982 13.9844 18.8869L11.875 20.5744V19.375C11.875 19.2092 11.8092 19.0503 11.6919 18.9331C11.5747 18.8158 11.4158 18.75 11.25 18.75H9.375V1.25H30.625V18.75H28.75C28.5842 18.75 28.4253 18.8158 28.3081 18.9331C28.1908 19.0503 28.125 19.2092 28.125 19.375Z" fill="#F9A307"/>
</g>
<defs>
<clipPath id="clip0_1_440">
<rect width="40" height="40" fill="white"/>
</clipPath>
</defs>
</svg>
