<svg width="27" height="25" viewBox="0 0 27 25" fill="none" xmlns="http://www.w3.org/2000/svg">
<path fill-rule="evenodd" clip-rule="evenodd" d="M26.2812 22.4214H0.719185V24.2873H26.2812V22.4214ZM22.7247 21.711H25.0579V9.23642H22.7247V21.711ZM17.5287 21.711H19.8619V11.5057H17.5299V21.711H17.5287ZM12.3327 21.711H14.6659V15.5967H12.3339V21.711H12.3327ZM7.13676 21.711H9.46877L9.46994 13.7748H7.13793V21.711H7.13676ZM1.94078 21.711H4.27396L4.27513 17.6444H1.94195V21.711H1.94078ZM0.358767 21.711H1.22243V17.291H1.2236C1.2236 17.094 1.38532 16.9341 1.58336 16.9341H4.63375C4.83297 16.9341 4.99351 17.094 4.99351 17.291V21.711H6.41967V13.419C6.41967 13.222 6.58139 13.0621 6.7806 13.0621H9.82979C10.029 13.0621 10.1895 13.222 10.1895 13.419V21.711H11.6157V15.2407C11.6157 15.0448 11.7774 14.8849 11.9755 14.8849H15.0259C15.2251 14.8849 15.3856 15.0448 15.3856 15.2407V21.711H16.8118V11.1485C16.8118 10.9527 16.9735 10.7928 17.1715 10.7928H20.2219C20.42 10.7928 20.5817 10.9527 20.5817 11.1485V21.711H22.0078V8.88189C22.0078 8.68487 22.1684 8.52611 22.3676 8.52611H25.418C25.616 8.52611 25.7777 8.68488 25.7777 8.88189V21.711H26.6402C26.8383 21.711 27 21.8709 27 22.0668V24.6431C27 24.8401 26.8383 25 26.6402 25H0.359758C0.161711 25 0 24.8401 0 24.6431V22.0668C0 21.8698 0.161717 21.711 0.359758 21.711H0.358767ZM24.4244 2.3178C24.4525 2.49975 24.3353 2.67358 24.1548 2.71764C23.9744 2.76169 23.7892 2.66201 23.7283 2.48701C23.7001 2.36765 23.5853 2.28884 23.4622 2.30391C23.338 2.31897 23.2466 2.42443 23.249 2.54612C23.249 2.7188 23.4119 2.7582 23.5747 2.79644C24.0142 2.89959 24.4536 3.00389 24.4536 3.73749H24.4525C24.4525 4.12573 24.2146 4.47457 23.8513 4.61944C23.8513 4.81645 23.6896 4.97522 23.4904 4.97522C23.2923 4.97522 23.1306 4.81645 23.1306 4.61944C22.8458 4.5047 22.6326 4.2625 22.5576 3.96697C22.5318 3.87426 22.5447 3.77575 22.5939 3.69347C22.6431 3.61119 22.724 3.55208 22.8177 3.5289C22.9115 3.50688 23.0111 3.52195 23.0931 3.57294C23.1751 3.62278 23.2325 3.7039 23.2536 3.79777C23.2794 3.90555 23.3779 3.98088 23.4904 3.97856C23.624 3.97856 23.7329 3.87194 23.7329 3.73867C23.7329 3.56483 23.57 3.52659 23.4072 3.48834C22.9677 3.3852 22.5283 3.2809 22.5283 2.5473V2.54846C22.5294 2.16022 22.7673 1.81138 23.1306 1.66535C23.1306 1.46949 23.2923 1.30957 23.4904 1.30957C23.6896 1.30957 23.8513 1.4695 23.8513 1.66535C24.1361 1.78124 24.3481 2.02345 24.4243 2.31897L24.4244 2.3178ZM25.1427 1.50887C24.3552 0.730075 23.1212 0.609563 22.1943 1.22145C21.2685 1.83336 20.9076 3.00733 21.3341 4.02486C21.7607 5.04239 22.854 5.62069 23.9474 5.40627C25.0396 5.19072 25.8259 4.24272 25.8259 3.1406C25.8271 2.5287 25.581 1.94113 25.1427 1.50887ZM8.55728 9.60858C8.43658 9.48921 8.24792 9.47067 8.10611 9.56454C7.96431 9.65841 7.90924 9.83805 7.97486 9.99334C8.04049 10.1486 8.20689 10.2367 8.37446 10.2043C8.54087 10.1718 8.66157 10.0269 8.66157 9.85773C8.66157 9.76386 8.62408 9.67464 8.55728 9.60858ZM13.7533 12.1721C13.6326 12.0539 13.4439 12.0353 13.3021 12.1292C13.1615 12.2231 13.1064 12.4016 13.1708 12.5568C13.2365 12.7121 13.4029 12.8014 13.5704 12.7678C13.7368 12.7353 13.8575 12.5905 13.8575 12.4224C13.8575 12.3285 13.8201 12.2382 13.7533 12.1721ZM18.9481 7.0659C18.8285 6.94653 18.6387 6.92799 18.4969 7.02186C18.3539 7.11457 18.2988 7.29536 18.3645 7.45065C18.4301 7.60711 18.5977 7.69634 18.7652 7.66273C18.9328 7.63028 19.0535 7.48426 19.0535 7.31621C19.0535 7.22234 19.016 7.13196 18.9481 7.0659ZM18.6961 6.25234C18.9235 6.25118 19.1449 6.32303 19.3278 6.45515L21.2004 5.1363H21.2016C20.1352 3.93913 20.1961 2.12765 21.3399 1.00234C22.4836 -0.121821 24.3164 -0.171634 25.52 0.889921C26.7247 1.95148 26.8853 3.75709 25.8869 5.00995C24.8873 6.26274 23.0755 6.53044 21.7502 5.61954L19.7345 7.04038C19.8517 7.46686 19.6888 7.92117 19.3256 8.17958C18.9623 8.43917 18.476 8.44845 18.1021 8.20391L14.4694 11.9599C14.6171 12.2624 14.6124 12.6147 14.4554 12.9125C14.2995 13.2104 14.0101 13.4178 13.6761 13.4723C13.3409 13.5267 12.9999 13.4224 12.755 13.1895C12.5101 12.9577 12.3905 12.6251 12.4327 12.2914L9.05174 10.6225C8.6709 10.9841 8.08143 11.0212 7.65957 10.7083L3.34589 13.5511C3.18066 13.6577 2.96033 13.6113 2.85137 13.4491C2.74239 13.2869 2.78692 13.0678 2.95098 12.9601L7.25986 10.1184C7.18369 9.82172 7.23994 9.50881 7.41455 9.25618C7.58798 9.0047 7.86337 8.83899 8.16922 8.80072C8.47624 8.76247 8.78329 8.8575 9.01531 9.05915C9.24617 9.26081 9.37858 9.5517 9.37858 9.85649C9.37858 9.90053 9.37623 9.94341 9.37037 9.98744L12.7514 11.6574L12.7525 11.6563C13.0736 11.3492 13.5541 11.2715 13.9595 11.4604L17.6672 7.62788C17.5676 7.30456 17.6286 6.95456 17.8313 6.68337C18.034 6.41218 18.3551 6.25234 18.6961 6.25234ZM6.30947 3.71084H9.32475C9.15483 2.13819 7.89976 0.896988 6.30947 0.728888V3.71084ZM9.70215 4.4224H9.70332C9.90137 4.4224 10.0631 4.26247 10.0631 4.06662C10.0631 2.98768 9.62949 1.95276 8.85841 1.1902C8.08732 0.427637 7.04083 0 5.951 0C5.75178 0 5.59124 0.158772 5.59124 0.355781V4.06549C5.59124 4.26251 5.75179 4.42127 5.951 4.42127L9.70215 4.4224ZM7.0666 7.83781C7.62442 7.28731 7.97245 6.56531 8.0545 5.79117H4.63601C4.43797 5.79117 4.27625 5.63124 4.27625 5.43424V2.05592C3.1665 2.17181 2.18328 2.81269 1.63837 3.77575C1.09345 4.73881 1.05478 5.90353 1.53524 6.89893C2.01572 7.89444 2.95555 8.59791 4.05475 8.78449C5.15398 8.97108 6.2778 8.61876 7.06644 7.83881L7.0666 7.83781ZM8.79159 5.43421C8.79159 5.23835 8.63105 5.07843 8.43184 5.07843H4.99595V1.68053C4.99595 1.48467 4.83423 1.32474 4.63619 1.32474C2.95572 1.32474 1.44061 2.32605 0.79711 3.86161C0.153613 5.39718 0.510002 7.16457 1.69828 8.33973C2.88537 9.51486 4.67249 9.86601 6.22526 9.22978C7.77799 8.5947 8.79048 7.09622 8.79048 5.43433L8.79159 5.43421Z" fill="#25566B"/>
</svg>
