<svg width="19" height="27" viewBox="0 0 19 27" fill="none" xmlns="http://www.w3.org/2000/svg">
<path d="M13.2993 6.75018H12.3493V5.30372C12.3493 5.17595 12.2994 5.053 12.2103 4.96259C12.1213 4.87218 12.0002 4.82156 11.8743 4.82156H7.12434C6.86191 4.82156 6.64935 5.03732 6.64935 5.30371V6.75017H5.69936C5.43693 6.75017 5.22437 6.96593 5.22437 7.23232V13.0181C5.22437 13.1459 5.27424 13.2689 5.3633 13.3593C5.45237 13.4497 5.57349 13.5003 5.69937 13.5003H13.2993C13.4251 13.5003 13.5463 13.4497 13.6353 13.3593C13.7244 13.2689 13.7743 13.1459 13.7743 13.0181V7.23232C13.7743 7.10455 13.7244 6.9816 13.6353 6.89119C13.5463 6.80077 13.4251 6.75018 13.2993 6.75018ZM7.59935 5.78587H11.3993V6.75018H7.59935V5.78587ZM12.8244 7.71448V8.83427L11.3994 9.41286V9.16093C11.3994 9.03316 11.3496 8.91021 11.2605 8.8198C11.1714 8.72939 11.0503 8.67877 10.9244 8.67877H8.07448C7.81205 8.67877 7.59949 8.89453 7.59949 9.16092V9.41285L6.17451 8.83426V7.71447L12.8244 7.71448ZM10.4495 9.64309V10.6074H8.54949V9.64309H10.4495ZM6.17467 12.536V9.87332L7.59965 10.4519V11.0895C7.59965 11.2173 7.64952 11.3403 7.73859 11.4307C7.82765 11.5211 7.94877 11.5717 8.07465 11.5717H10.9246C11.0505 11.5717 11.1716 11.5211 11.2607 11.4307C11.3498 11.3403 11.3996 11.2173 11.3996 11.0895V10.4519L12.8246 9.87332V12.536H6.17467ZM9.49978 1.92866C7.48462 1.92866 5.55148 2.74108 4.12635 4.18874C2.70018 5.63519 1.89982 7.59759 1.89982 9.64315C1.89982 11.6887 2.70018 13.6509 4.12635 15.0976C5.55133 16.5452 7.48459 17.3576 9.49978 17.3576C11.515 17.3576 13.4481 16.5452 14.8732 15.0976C16.2994 13.6511 17.0997 11.6887 17.0997 9.64315C17.0974 7.59762 16.2958 5.63658 14.8708 4.19121C13.447 2.74475 11.515 1.93107 9.49978 1.92866ZM9.49978 16.3932C7.73636 16.3932 6.04426 15.682 4.79726 14.4164C3.55027 13.1508 2.84981 11.4331 2.84981 9.64303C2.84981 7.85297 3.55043 6.13543 4.79726 4.86965C6.0441 3.60386 7.7363 2.89284 9.49978 2.89284C11.2633 2.89284 12.9553 3.60402 14.2023 4.86965C15.4493 6.13527 16.1497 7.85297 16.1497 9.64303C16.1474 11.433 15.4468 13.1482 14.1999 14.4139C12.953 15.6796 11.2632 16.3908 9.49978 16.3932ZM18.9996 9.64309C18.9996 7.19737 18.0841 4.84317 16.4382 3.05682C14.7936 1.27043 12.541 0.1856 10.1364 0.0216837C7.73295 -0.142248 5.35789 0.627976 3.49136 2.1745C1.62583 3.721 0.407321 5.92927 0.0856937 8.35314C-0.237302 10.776 0.360001 13.2336 1.7553 15.2273C3.15058 17.221 5.2394 18.6025 7.60023 19.0916V26.5178C7.60023 26.6456 7.6501 26.7686 7.73916 26.859C7.82822 26.9494 7.94935 27 8.07523 27H10.9252C11.0511 27 11.1722 26.9494 11.2613 26.859C11.3503 26.7686 11.4002 26.6456 11.4002 26.5178V19.0916C13.5448 18.6444 15.471 17.4595 16.8554 15.7383C18.24 14.0182 18.9976 11.8641 19 9.64268L18.9996 9.64309ZM10.4498 26.0362H8.54979V19.2367C8.86208 19.2693 9.17915 19.2862 9.49978 19.2862C9.8204 19.2862 10.1375 19.2693 10.4498 19.2367V26.0362ZM9.49978 18.3218C7.23169 18.3218 5.05748 17.4069 3.45421 15.7797C1.85112 14.1524 0.949802 11.9453 0.949802 9.64299C0.949802 7.3407 1.85109 5.13376 3.45421 3.50632C5.0573 1.87907 7.23166 0.964171 9.49978 0.964171C11.7679 0.964171 13.9421 1.87904 15.5453 3.50632C17.1484 5.13357 18.0498 7.3407 18.0498 9.64299C18.0474 11.9441 17.1461 14.1498 15.543 15.7772C13.9399 17.4044 11.7667 18.3194 9.49978 18.3218Z" fill="#25566B"/>
</svg>
