<svg width="27" height="27" viewBox="0 0 27 27" fill="none" xmlns="http://www.w3.org/2000/svg">
<path d="M24.8468 11.3451C23.7841 11.3451 22.902 12.1177 22.7266 13.1343H17.8149C17.7411 12.2364 17.393 11.3925 16.8089 10.7043L20.4547 7.05841C20.9347 7.42627 21.5148 7.62933 22.1293 7.62933C22.865 7.62933 23.5599 7.34189 24.0807 6.82239C25.158 5.74514 25.158 3.99674 24.0807 2.92067C23.5612 2.40115 22.865 2.11373 22.1293 2.11373C21.3935 2.11373 20.6986 2.40117 20.1778 2.92067C19.1889 3.90959 19.1111 5.46281 19.9379 6.54526L16.292 10.1911C15.6037 9.607 14.7625 9.25892 13.8619 9.18506V4.2734C14.8746 4.09803 15.6512 3.21724 15.6512 2.15319C15.6512 0.965186 14.686 0 13.498 0C12.31 0 11.3448 0.965186 11.3448 2.15319C11.3448 3.21592 12.1175 4.09804 13.1341 4.2734V9.18506C12.2362 9.2589 11.3923 9.607 10.704 10.1911L7.05817 6.54526C7.42603 6.0653 7.6291 5.48516 7.6291 4.87072C7.6291 4.13497 7.34166 3.44272 6.82215 2.91929C6.30263 2.39977 5.60644 2.11234 4.87072 2.11234C4.13497 2.11234 3.44272 2.39979 2.91929 2.91929C2.39977 3.43881 2.11234 4.13102 2.11234 4.87072C2.11234 5.61042 2.39979 6.29872 2.91929 6.82216C3.43881 7.34168 4.13102 7.6291 4.87072 7.6291C5.48516 7.6291 6.06534 7.42604 6.54526 7.05817L10.1911 10.704C9.607 11.3923 9.25892 12.2335 9.18506 13.1341H4.2734C4.09803 12.1215 3.21724 11.3448 2.15319 11.3448C0.965186 11.3448 0 12.31 0 13.498C0 14.686 0.965186 15.6512 2.15319 15.6512C3.21592 15.6512 4.09804 14.8785 4.2734 13.8619H9.18506C9.2589 14.7599 9.607 15.6037 10.1911 16.292L6.54526 19.9379C6.0653 19.57 5.48516 19.3669 4.87072 19.3669C4.13497 19.3669 3.44272 19.6544 2.91929 20.1739C2.39977 20.6934 2.11234 21.3896 2.11234 22.1253C2.11234 22.8611 2.39979 23.5533 2.91929 24.0767C3.43881 24.5963 4.13102 24.8837 4.87072 24.8837C5.61042 24.8837 6.29872 24.5963 6.82215 24.0767C7.34168 23.5572 7.6291 22.865 7.6291 22.1253C7.6291 21.5109 7.42604 20.9307 7.05817 20.4508L10.704 16.8049C11.3923 17.389 12.2335 17.7371 13.1341 17.811V22.7226C12.1215 22.898 11.3448 23.7788 11.3448 24.8428C11.3448 26.0309 12.31 26.996 13.498 26.996C14.686 26.996 15.6512 26.0309 15.6512 24.8428C15.6512 23.7801 14.8785 22.898 13.8619 22.7226V17.811C14.7599 17.7371 15.6037 17.389 16.292 16.8049L19.9379 20.4508C19.1111 21.5307 19.1889 23.0865 20.1778 24.0754C20.6974 24.5949 21.3936 24.8823 22.1293 24.8823C22.865 24.8823 23.5599 24.5949 24.0807 24.0754C25.158 22.9981 25.158 21.2497 24.0807 20.1736C23.5612 19.6541 22.865 19.3667 22.1293 19.3667C21.5148 19.3667 20.9347 19.5698 20.4547 19.9376L16.8089 16.2918C17.393 15.6035 17.7411 14.7623 17.8149 13.8617H22.7266C22.902 14.8743 23.7828 15.651 24.8468 15.651C26.0348 15.651 27 14.6858 27 13.4978C27 12.3098 26.0348 11.3446 24.8468 11.3446V11.3451ZM20.6946 3.4326C21.0796 3.04759 21.586 2.83794 22.1292 2.83794C22.6725 2.83794 23.1788 3.04759 23.5638 3.4326C24.3536 4.22239 24.3536 5.51196 23.5638 6.30176C23.1788 6.68677 22.6725 6.89642 22.1292 6.89642C21.586 6.89642 21.0796 6.68413 20.6946 6.30176C19.9048 5.51196 19.9048 4.22239 20.6946 3.4326ZM6.30123 6.30176C5.91622 6.68677 5.4099 6.89642 4.86665 6.89642C4.3234 6.89642 3.81708 6.68413 3.43207 6.30176C3.04706 5.91675 2.83741 5.41043 2.83741 4.86718C2.83741 4.32393 3.0497 3.8176 3.43207 3.4326C3.81313 3.04759 4.3234 2.83794 4.86665 2.83794C5.4099 2.83794 5.91622 3.04759 6.30123 3.4326C6.68624 3.8176 6.89589 4.32393 6.89589 4.86718C6.89589 5.41043 6.6836 5.91675 6.30123 6.30176ZM2.14905 14.9197C1.36584 14.9197 0.727666 14.2815 0.727666 13.4983C0.727666 12.7151 1.36584 12.0769 2.14905 12.0769C2.93226 12.0769 3.57043 12.7151 3.57043 13.4983C3.57043 14.2815 2.93226 14.9197 2.14905 14.9197ZM6.30123 23.564C5.91622 23.949 5.4099 24.1586 4.86665 24.1586C4.3234 24.1586 3.81708 23.949 3.43207 23.564C3.04706 23.179 2.83741 22.6726 2.83741 22.1294C2.83741 21.5861 3.0497 21.0798 3.43207 20.6948C3.81708 20.3098 4.3234 20.1002 4.86665 20.1002C5.4099 20.1002 5.91622 20.3124 6.30123 20.6948C6.68624 21.0798 6.89589 21.5861 6.89589 22.1294C6.89589 22.6726 6.6836 23.179 6.30123 23.564ZM20.6946 20.6948C21.0796 20.3098 21.586 20.1002 22.1292 20.1002C22.6725 20.1002 23.1788 20.3124 23.5638 20.6948C24.3536 21.4846 24.3536 22.7742 23.5638 23.564C23.1788 23.949 22.6725 24.1586 22.1292 24.1586C21.586 24.1586 21.0796 23.949 20.6946 23.564C19.9048 22.7742 19.9048 21.4846 20.6946 20.6948ZM12.0767 2.14958C12.0767 1.36636 12.7149 0.728193 13.4981 0.728193C14.2813 0.728193 14.9194 1.36636 14.9194 2.14958C14.9194 2.93279 14.2813 3.57096 13.4981 3.57096C12.7149 3.57096 12.0767 2.93279 12.0767 2.14958ZM14.9195 24.847C14.9195 25.6302 14.2813 26.2684 13.4981 26.2684C12.7149 26.2684 12.0767 25.6302 12.0767 24.847C12.0767 24.0638 12.7149 23.4256 13.4981 23.4256C14.2813 23.4256 14.9195 24.0638 14.9195 24.847ZM16.0468 16.0471C15.3651 16.7288 14.4606 17.1033 13.4981 17.1033C12.5355 17.1033 11.631 16.7288 10.9493 16.0471C10.2676 15.3654 9.89315 14.4609 9.89315 13.4984C9.89315 12.5358 10.2676 11.6313 10.9493 10.9496C11.631 10.2679 12.5355 9.89344 13.4981 9.89344C14.4606 9.89344 15.3651 10.2679 16.0468 10.9496C16.7285 11.6313 17.103 12.5358 17.103 13.4984C17.103 14.4609 16.7285 15.3654 16.0468 16.0471ZM24.8467 14.9198C24.0635 14.9198 23.4227 14.2816 23.4227 13.4984C23.4227 12.7152 24.0608 12.077 24.8467 12.077C25.6326 12.077 26.2681 12.7152 26.2681 13.4984C26.2681 14.2816 25.6299 14.9198 24.8467 14.9198Z" fill="#25566B"/>
<path d="M13.4973 13.3431C14.1789 13.3431 14.7367 12.7867 14.7367 12.1037C14.7367 11.422 14.1803 10.8643 13.4973 10.8643C12.8156 10.8643 12.2578 11.4207 12.2578 12.1037C12.2578 12.7854 12.8142 13.3431 13.4973 13.3431Z" fill="#25566B"/>
<path d="M14.5845 13.1973C14.305 13.4742 13.92 13.6456 13.498 13.6456C13.0761 13.6456 12.6885 13.4728 12.4115 13.1973C11.7536 13.5757 11.3105 14.2838 11.3105 15.0947C11.3105 15.4362 11.3844 15.6748 11.5439 15.8344C11.8551 16.1416 12.4893 16.1376 13.2251 16.131H13.7749C14.5107 16.135 15.1449 16.1416 15.4561 15.8344C15.6143 15.6761 15.6895 15.4362 15.6895 15.0947C15.6895 14.2851 15.2438 13.5757 14.5885 13.1973H14.5845Z" fill="#25566B"/>
</svg>
