<svg width="24" height="26" viewBox="0 0 24 26" fill="none" xmlns="http://www.w3.org/2000/svg">
<path fill-rule="evenodd" clip-rule="evenodd" d="M7.13667 2.25966H5.85278C5.76026 2.26011 5.67165 2.29704 5.6062 2.36244C5.54075 2.42783 5.50374 2.51641 5.50322 2.60894V4.22229C5.50374 4.31481 5.54075 4.40339 5.6062 4.46879C5.67165 4.53418 5.76026 4.57112 5.85278 4.57156H11.7729C11.8654 4.57111 11.954 4.53417 12.0194 4.46877C12.0848 4.40336 12.1218 4.31478 12.1222 4.22229V2.60894C12.1218 2.51644 12.0848 2.42786 12.0194 2.36245C11.954 2.29705 11.8654 2.26011 11.7729 2.25966H10.489C10.4117 2.25966 10.3375 2.22895 10.2828 2.17429C10.2281 2.11962 10.1973 2.04547 10.1972 1.96812C10.192 1.60436 10.0439 1.25725 9.78478 1.00185C9.5257 0.74645 9.17651 0.603271 8.81271 0.603271C8.44891 0.603271 8.09972 0.74645 7.84064 1.00185C7.58156 1.25725 7.4334 1.60436 7.4282 1.96812C7.4282 2.04544 7.39749 2.1196 7.34281 2.17427C7.28814 2.22894 7.21399 2.25966 7.13667 2.25966ZM2.35974 20.7498L4.60597 23.1299V20.7498H2.35974ZM16.2328 14.8432L17.0409 14.0351V3.43344C17.038 3.34507 17.0001 3.26148 16.9357 3.20095C16.8712 3.14042 16.7854 3.10789 16.697 3.11049H12.7061V3.8464H15.9413C16.0187 3.84648 16.0928 3.87726 16.1475 3.93198C16.2021 3.98669 16.2328 4.06088 16.2328 4.13822V14.8432ZM17.0409 18.8242V24.5683C17.038 24.6567 17.0001 24.7403 16.9357 24.8008C16.8712 24.8613 16.7854 24.8939 16.697 24.8913H0.928667C0.840259 24.8939 0.75442 24.8614 0.689922 24.8008C0.625424 24.7403 0.587515 24.6567 0.584485 24.5683V3.43344C0.587515 3.34505 0.625424 3.26145 0.689922 3.20093C0.75442 3.14041 0.840259 3.10789 0.928667 3.11049H4.91958V3.8464H1.68439C1.60702 3.84648 1.53284 3.87725 1.47813 3.93196C1.42342 3.98667 1.39265 4.06085 1.39258 4.13822V20.4582C1.39258 20.4985 1.40093 20.5383 1.4171 20.5752C1.43327 20.6121 1.45692 20.6452 1.48655 20.6725L4.6722 24.0481C4.69964 24.0816 4.7342 24.1085 4.77337 24.127C4.81254 24.1455 4.85534 24.155 4.89864 24.1548H15.9413C16.0187 24.1547 16.0928 24.1239 16.1475 24.0692C16.2021 24.0145 16.2328 23.9403 16.2328 23.863V19.6323L17.0409 18.8242ZM23.1097 9.88373L23.5869 10.3609C23.8396 10.5997 23.9878 10.9286 23.9993 11.2761C24.0108 11.6236 23.8846 11.9616 23.6483 12.2166L17.6243 18.2409V24.5683C17.6203 24.811 17.5207 25.0424 17.347 25.212C17.1734 25.3816 16.9398 25.4758 16.697 25.4741H0.928667C0.685679 25.4762 0.451703 25.3822 0.277745 25.2125C0.103786 25.0428 0.00394979 24.8113 0 24.5683V3.43344C0.003949 3.19067 0.103629 2.95929 0.277343 2.78966C0.451057 2.62003 0.684742 2.52588 0.927534 2.5277H4.92496C4.94573 2.2955 5.05258 2.07946 5.22452 1.92202C5.39647 1.76459 5.62107 1.67715 5.85419 1.67687H6.86777C6.93752 1.21056 7.17237 0.784787 7.52958 0.477033C7.88679 0.169279 8.34262 0 8.81413 0C9.28562 0 9.74146 0.169279 10.0987 0.477033C10.4559 0.784787 10.6907 1.21056 10.7605 1.67687H11.7743C12.0075 1.67715 12.2321 1.76459 12.404 1.92202C12.5759 2.07946 12.6828 2.2955 12.7036 2.5277H16.697C16.9398 2.52595 17.1734 2.62014 17.347 2.78976C17.5207 2.95939 17.6203 3.19072 17.6243 3.43344V13.4518L21.254 9.82174C21.509 9.5854 21.847 9.45927 22.1945 9.47077C22.542 9.48227 22.8709 9.63048 23.1097 9.88316V9.88373ZM13.4446 18.7634L13.0056 20.4642L14.7072 20.0243L13.4446 18.7634ZM15.3231 20.4664C15.4508 20.4441 15.5414 20.3229 15.6486 20.2157V23.5712H5.18932V20.4577C5.18936 20.4194 5.18185 20.3814 5.16721 20.346C5.15258 20.3106 5.13111 20.2784 5.10404 20.2513C5.07696 20.2242 5.04481 20.2027 5.00942 20.1881C4.97403 20.1734 4.9361 20.1659 4.89779 20.1659H1.97593V4.42976H4.94308C4.99055 4.63561 5.1063 4.81934 5.27147 4.95106C5.43664 5.08277 5.64152 5.15472 5.85278 5.1552H11.7729C11.9841 5.15471 12.189 5.08275 12.3541 4.95103C12.5192 4.81931 12.6349 4.63559 12.6823 4.42976H15.6495V15.426L13.0854 17.9901C13.043 18.0325 13.0146 18.087 13.0042 18.1461L12.3744 20.5831C11.5377 20.5706 11.5086 20.1868 11.4941 19.9926C11.4746 19.7297 11.4616 19.5559 11.1403 19.5681C10.9951 19.5729 10.7916 19.7481 10.6224 19.9592C10.5942 19.9142 10.5553 19.8769 10.5091 19.8505C10.472 19.8246 10.4294 19.8077 10.3846 19.801C10.3398 19.7944 10.294 19.7983 10.251 19.8125C10.208 19.8266 10.1688 19.8505 10.1366 19.8824C10.1045 19.9142 10.0801 19.9531 10.0656 19.996C10.0537 20.0173 10.0387 20.0422 10.0212 20.0699C10.0023 19.8952 9.94954 19.7259 9.86577 19.5715C9.83956 19.5297 9.80318 19.4953 9.76004 19.4714C9.71689 19.4476 9.6684 19.4351 9.6191 19.4351C9.5698 19.4351 9.52131 19.4476 9.47817 19.4714C9.43502 19.4953 9.39864 19.5297 9.37243 19.5715C9.27402 19.9256 9.10313 20.2554 8.87059 20.54C8.72539 20.1599 8.62632 19.6954 8.32715 19.4158C7.63794 18.7716 6.62238 19.4911 6.55246 20.1132C6.50887 20.5015 6.78541 20.7642 7.06704 21.024C7.09384 21.0514 7.12576 21.0732 7.16099 21.0882C7.19622 21.1033 7.23406 21.1112 7.27235 21.1116C7.31065 21.112 7.34865 21.1048 7.38418 21.0905C7.41971 21.0762 7.45208 21.0551 7.47943 21.0283C7.50679 21.0015 7.5286 20.9696 7.54362 20.9343C7.55864 20.8991 7.56657 20.8613 7.56696 20.823C7.56736 20.7847 7.56021 20.7467 7.54592 20.7112C7.53163 20.6756 7.51048 20.6433 7.48368 20.6159C7.33112 20.4633 7.11798 20.2963 7.13129 20.1772C7.15025 20.0074 7.61727 19.5491 7.9306 19.8421C8.13581 20.0337 8.26205 20.6762 8.43442 20.9864C8.60679 21.2966 8.8955 21.3278 9.16864 21.0662C9.28812 20.9514 9.39575 20.8248 9.48989 20.6884C9.49725 20.9278 9.47234 21.1155 9.68095 21.2026C9.71563 21.223 9.75457 21.235 9.79468 21.2377C9.83479 21.2404 9.87499 21.2337 9.91209 21.2183C9.94919 21.2028 9.9822 21.1789 10.0085 21.1485C10.0348 21.1181 10.0537 21.082 10.0636 21.043C10.0747 21.017 10.1562 20.9015 10.249 20.7682C10.2656 20.8069 10.2905 20.8416 10.3218 20.8698C10.3531 20.898 10.3902 20.919 10.4304 20.9315C10.6144 20.9906 10.7472 20.9315 10.8165 20.7155C10.8603 20.62 10.9155 20.5301 10.9807 20.4478C11.1035 20.8228 11.4641 21.2202 12.6144 21.1613C12.69 21.1574 15.0378 20.5409 15.3229 20.4673L15.3231 20.4664ZM22.8731 12.167L22.6537 11.9477C22.6266 11.9206 22.6051 11.8885 22.5905 11.8531C22.5758 11.8177 22.5683 11.7798 22.5683 11.7415C22.5683 11.7032 22.5758 11.6653 22.5905 11.6299C22.6051 11.5945 22.6266 11.5624 22.6537 11.5353C22.6808 11.5082 22.7129 11.4867 22.7483 11.4721C22.7837 11.4574 22.8216 11.4499 22.8599 11.4499C22.8982 11.4499 22.9361 11.4574 22.9715 11.4721C23.0069 11.4867 23.039 11.5082 23.0661 11.5353L23.2826 11.7518C23.3861 11.6033 23.4323 11.4222 23.4124 11.2423C23.3925 11.0623 23.308 10.8957 23.1745 10.7733L22.6973 10.2961C22.5749 10.1627 22.4083 10.0781 22.2284 10.0582C22.0484 10.0384 21.8673 10.0845 21.7188 10.188L22.4227 10.8919C22.4498 10.919 22.4713 10.9512 22.4859 10.9865C22.5006 11.0219 22.5081 11.0598 22.5081 11.0981C22.5081 11.1364 22.5006 11.1743 22.4859 11.2097C22.4713 11.2451 22.4498 11.2772 22.4227 11.3043C22.3956 11.3314 22.3635 11.3529 22.3281 11.3675C22.2927 11.3822 22.2548 11.3897 22.2165 11.3897C22.1782 11.3897 22.1403 11.3822 22.1049 11.3675C22.0696 11.3529 22.0374 11.3314 22.0103 11.3043L21.3027 10.5967L20.9792 10.9216L22.549 12.4914L22.8731 12.167ZM14.2685 18.762L13.7024 18.1959L20.5668 11.3343L21.1329 11.9004L14.2699 18.7631L14.2685 18.762ZM21.5453 12.3125L22.1363 12.9038L15.2736 19.7665L14.6823 19.1755L21.5453 12.3125ZM11.9303 15.6465H13.142C13.2178 15.6441 13.2897 15.6124 13.3425 15.5579C13.3952 15.5035 13.4247 15.4306 13.4247 15.3548C13.4247 15.279 13.3952 15.2062 13.3425 15.1517C13.2897 15.0973 13.2178 15.0655 13.142 15.0631H11.9303C11.8545 15.0655 11.7826 15.0973 11.7298 15.1517C11.6771 15.2062 11.6476 15.279 11.6476 15.3548C11.6476 15.4306 11.6771 15.5035 11.7298 15.5579C11.7826 15.6124 11.8545 15.6441 11.9303 15.6465ZM4.28981 15.6465H10.8745C10.9136 15.6477 10.9525 15.6411 10.989 15.627C11.0254 15.6129 11.0587 15.5916 11.0867 15.5644C11.1148 15.5372 11.1371 15.5046 11.1524 15.4686C11.1676 15.4326 11.1754 15.3939 11.1754 15.3548C11.1754 15.3157 11.1676 15.277 11.1524 15.2411C11.1371 15.2051 11.1148 15.1725 11.0867 15.1453C11.0587 15.1181 11.0254 15.0968 10.989 15.0827C10.9525 15.0686 10.9136 15.0619 10.8745 15.0631H4.28981C4.21403 15.0655 4.14214 15.0973 4.08936 15.1517C4.03659 15.2062 4.00708 15.279 4.00708 15.3548C4.00708 15.4306 4.03659 15.5035 4.08936 15.5579C4.14214 15.6124 4.21403 15.6441 4.28981 15.6465ZM6.1579 13.5259C6.11883 13.5272 6.07992 13.5205 6.04347 13.5064C6.00702 13.4923 5.97377 13.471 5.9457 13.4438C5.91764 13.4166 5.89532 13.384 5.88009 13.348C5.86485 13.312 5.85699 13.2733 5.85699 13.2343C5.85699 13.1952 5.86485 13.1565 5.88009 13.1205C5.89532 13.0845 5.91764 13.0519 5.9457 13.0247C5.97377 12.9975 6.00702 12.9762 6.04347 12.9621C6.07992 12.948 6.11883 12.9414 6.1579 12.9426H13.142C13.2178 12.9449 13.2897 12.9767 13.3425 13.0311C13.3952 13.0856 13.4247 13.1584 13.4247 13.2343C13.4247 13.3101 13.3952 13.3829 13.3425 13.4374C13.2897 13.4918 13.2178 13.5236 13.142 13.5259H6.1579ZM4.28981 13.5259H5.10243C5.17822 13.5236 5.2501 13.4918 5.30288 13.4374C5.35565 13.3829 5.38516 13.3101 5.38516 13.2343C5.38516 13.1584 5.35565 13.0856 5.30288 13.0311C5.2501 12.9767 5.17822 12.9449 5.10243 12.9426H4.28981C4.21403 12.9449 4.14214 12.9767 4.08936 13.0311C4.03659 13.0856 4.00708 13.1584 4.00708 13.2343C4.00708 13.3101 4.03659 13.3829 4.08936 13.4374C4.14214 13.4918 4.21403 13.5236 4.28981 13.5259ZM4.28981 11.4054C4.21242 11.4054 4.13819 11.3746 4.08347 11.3199C4.02874 11.2652 3.99799 11.1909 3.99799 11.1136C3.99799 11.0362 4.02874 10.9619 4.08347 10.9072C4.13819 10.8525 4.21242 10.8217 4.28981 10.8217H13.142C13.2194 10.8217 13.2936 10.8525 13.3484 10.9072C13.4031 10.9619 13.4338 11.0362 13.4338 11.1136C13.4338 11.1909 13.4031 11.2652 13.3484 11.3199C13.2936 11.3746 13.2194 11.4054 13.142 11.4054H4.28981Z" fill="#25566B"/>
</svg>
