<svg width="21" height="27" viewBox="0 0 21 27" fill="none" xmlns="http://www.w3.org/2000/svg">
<path fill-rule="evenodd" clip-rule="evenodd" d="M0.776962 20.9742L5.11721 26.2395L7.71068 24.1961L3.37043 18.9296L0.776962 20.973V20.9742ZM13.2524 0.195938L13.9337 1.82623L15.7314 1.95613C15.7966 1.9606 15.8588 1.98427 15.91 2.02404C15.9611 2.06381 15.9987 2.11779 16.0178 2.17888C16.0369 2.23997 16.0367 2.30529 16.017 2.36621C15.9974 2.42714 15.9593 2.48082 15.9078 2.52017L14.5407 3.65093L14.9703 5.36312C14.9856 5.42465 14.9815 5.48925 14.9587 5.5485C14.9359 5.60776 14.8954 5.65892 14.8424 5.69534C14.7894 5.73176 14.7264 5.75174 14.6617 5.75268C14.5969 5.75363 14.5334 5.73549 14.4793 5.70064L12.9547 4.77719L11.4203 5.70544C11.3659 5.73829 11.3028 5.7546 11.2389 5.75229C11.175 5.74999 11.1132 5.72917 11.0615 5.69248C11.0097 5.6558 10.9703 5.60491 10.9481 5.54626C10.926 5.48762 10.9222 5.42387 10.9373 5.36312L11.3669 3.65093L9.99021 2.51236C9.94114 2.47183 9.90556 2.41789 9.88801 2.35747C9.87047 2.29705 9.87177 2.23288 9.89174 2.17319C9.91171 2.11349 9.94944 2.06097 10.0001 2.02236C10.0508 1.98375 10.1121 1.96079 10.1762 1.95643L11.9739 1.82653L12.6552 0.196238C12.6793 0.13823 12.7206 0.0885777 12.7738 0.0536235C12.827 0.0186694 12.8896 0 12.9536 0C13.0177 0 13.0803 0.0186694 13.1335 0.0536235C13.1866 0.0885777 13.2279 0.13823 13.2521 0.196238L13.2524 0.195938ZM13.4132 2.24565L12.9547 1.14699L12.5048 2.22135C12.4855 2.28199 12.4478 2.33551 12.3969 2.3749C12.3459 2.4143 12.2839 2.43774 12.2191 2.44216L11.0115 2.52947L11.9368 3.29481C11.9825 3.3325 12.0166 3.38193 12.0352 3.43752C12.0538 3.49312 12.0562 3.55269 12.042 3.60952L11.753 4.76279L12.7792 4.14145C12.8304 4.10925 12.89 4.0919 12.9509 4.09142C13.0119 4.09095 13.0717 4.10736 13.1235 4.13875L14.1552 4.76369L13.8701 3.62693C13.8522 3.56805 13.8522 3.50535 13.8701 3.44647C13.8881 3.3876 13.9232 3.33511 13.9711 3.29541L14.8967 2.53007L13.6888 2.44276C13.6286 2.43868 13.5709 2.41819 13.522 2.38361C13.4732 2.34903 13.4353 2.30175 13.4126 2.24715L13.4132 2.24565ZM12.9547 11.5813C13.2559 11.5813 13.5477 11.4792 13.7805 11.2924C14.0134 11.1056 14.1727 10.8457 14.2315 10.557C14.2903 10.2682 14.2448 9.96843 14.1029 9.70875C13.9609 9.44907 13.7313 9.24555 13.453 9.13285C13.1748 9.02015 12.8652 9.00524 12.577 9.09068C12.2888 9.17611 12.0398 9.3566 11.8724 9.60138C11.7051 9.84617 11.6297 10.1401 11.6592 10.4331C11.6887 10.7261 11.8211 11.0001 12.0341 11.2083C12.1548 11.3267 12.2983 11.4207 12.4563 11.4847C12.6143 11.5487 12.7837 11.5815 12.9547 11.5813ZM14.3329 11.656C14.6114 11.3835 14.7989 11.0348 14.8706 10.6561C14.9423 10.2773 14.8949 9.88615 14.7346 9.53426C14.5743 9.18237 14.3086 8.88626 13.9726 8.68498C13.6367 8.48371 13.2462 8.38674 12.8527 8.40685C12.4592 8.42697 12.0812 8.56323 11.7685 8.79766C11.4559 9.03209 11.2232 9.35367 11.1013 9.71999C10.9794 10.0863 10.974 10.4801 11.0857 10.8495C11.1975 11.219 11.4211 11.5466 11.7272 11.7892C11.1428 11.9953 10.6222 12.3443 10.215 12.8029C9.80772 13.2615 9.52739 13.8144 9.40069 14.4089C8.79284 13.7395 8.39581 12.9125 8.25738 12.0277C8.11895 11.1428 8.24502 10.2377 8.62041 9.42119C8.9958 8.60471 9.60452 7.91167 10.3733 7.42546C11.1421 6.93926 12.0383 6.68059 12.9539 6.68059C13.8696 6.68059 14.7657 6.93926 15.5345 7.42546C16.3034 7.91167 16.9121 8.60471 17.2875 9.42119C17.6629 10.2377 17.7889 11.1428 17.6505 12.0277C17.5121 12.9125 17.115 13.7395 16.5072 14.4089C16.3806 13.8145 16.1005 13.2617 15.6936 12.8032C15.2866 12.3446 14.7663 11.9955 14.1822 11.7892C14.235 11.7474 14.2855 11.7029 14.3335 11.656H14.3329ZM15.9315 14.9453C15.8806 14.2074 15.5449 13.5159 14.9922 13.0108C14.4396 12.5057 13.7113 12.2247 12.9547 12.2247C12.1982 12.2247 11.4699 12.5057 10.9172 13.0108C10.3645 13.5159 10.0288 14.2074 9.97794 14.9453C10.822 15.6086 11.8725 15.9702 12.9555 15.9702C14.0384 15.9702 15.0889 15.6086 15.933 14.9453H15.9315ZM12.9547 6.04776C14.2038 6.0476 15.4143 6.47088 16.38 7.24547C17.3457 8.02006 18.0067 9.09803 18.2506 10.2957C18.4944 11.4934 18.3058 12.7367 17.7171 13.8137C17.1284 14.8907 16.1759 15.7348 15.0219 16.2022C13.8679 16.6696 12.5838 16.7314 11.3884 16.3769C10.1931 16.0225 9.16043 15.2739 8.46642 14.2585C7.7724 13.2432 7.45998 12.024 7.58239 10.8087C7.70479 9.59344 8.25445 8.45724 9.13769 7.59374C9.63835 7.10289 10.2333 6.71362 10.8884 6.4483C11.5434 6.18299 12.2457 6.04686 12.9547 6.04776ZM12.1568 20.1296H14.4311C14.6496 20.1298 14.8654 20.0824 15.0628 19.9909C15.2602 19.8994 15.4344 19.7662 15.5726 19.6008C15.7109 19.4354 15.8097 19.242 15.8621 19.0346C15.9145 18.8273 15.919 18.6111 15.8753 18.4018L18.9251 15.3594C19.0808 15.2027 19.2923 15.1109 19.5156 15.1032C19.6221 15.0991 19.7284 15.1158 19.8283 15.1522C19.9282 15.1885 20.0197 15.2438 20.0977 15.315C20.1756 15.3861 20.2383 15.4716 20.2823 15.5666C20.3262 15.6615 20.3505 15.764 20.3537 15.8682C20.3597 16.0887 20.2798 16.3031 20.1303 16.4682L15.4779 21.6597C15.2995 21.8659 15.0764 22.0307 14.8247 22.1422C14.5731 22.2536 14.2992 22.3088 14.023 22.3038H8.79061C8.65345 22.3032 8.51733 22.327 8.3889 22.3741C8.26015 22.4218 8.14131 22.4919 8.03813 22.5811L7.55172 22.9966L4.4031 19.1774L5.58368 18.1573L5.59196 18.1495C6.15978 17.6465 6.87878 17.3364 7.64164 17.2657C8.44764 17.2334 9.24607 17.4291 9.94111 17.8294C9.99388 17.8633 10.0557 17.8814 10.1188 17.8813H14.432C14.6512 17.8813 14.8614 17.9664 15.0164 18.1179C15.1714 18.2695 15.2585 18.475 15.2585 18.6893C15.2585 18.9035 15.1714 19.109 15.0164 19.2606C14.8614 19.4121 14.6512 19.4972 14.432 19.4972H12.1568C12.0709 19.4972 11.9886 19.5305 11.9279 19.5899C11.8672 19.6493 11.833 19.7298 11.833 19.8137C11.833 19.8977 11.8672 19.9782 11.9279 20.0375C11.9886 20.0969 12.0709 20.1302 12.1568 20.1302V20.1296ZM3.99801 18.6862L5.15619 17.6848C5.16202 17.6791 5.16846 17.6734 5.17491 17.668C5.84653 17.0771 6.69599 16.715 7.59591 16.6359C8.50512 16.5941 9.40764 16.807 10.1974 17.2495H14.4324C14.6259 17.2495 14.8174 17.2869 14.9961 17.3595C15.1748 17.4321 15.3371 17.5384 15.4736 17.6725C15.5126 17.7105 15.5495 17.7506 15.5841 17.7925L18.4651 14.9147C18.7372 14.6423 19.1064 14.4833 19.4956 14.4707C19.6869 14.4639 19.8777 14.4941 20.057 14.5596C20.2363 14.6252 20.4005 14.7247 20.5403 14.8526C20.6801 14.9804 20.7926 15.1341 20.8714 15.3046C20.9502 15.4751 20.9936 15.6592 20.9993 15.8463C21.0107 16.2265 20.8739 16.5966 20.6167 16.882L15.9622 22.0755C15.7232 22.3496 15.4255 22.5688 15.0902 22.7177C14.7548 22.8665 14.39 22.9414 14.0217 22.9369H8.79061C8.73044 22.936 8.67059 22.9455 8.61384 22.9651C8.55841 22.986 8.50727 23.0165 8.46286 23.0551L7.95681 23.4898L8.41713 24.0472C8.44374 24.0795 8.46359 24.1166 8.47552 24.1564C8.48746 24.1962 8.49126 24.2378 8.4867 24.2791C8.48214 24.3203 8.46931 24.3602 8.44895 24.3966C8.42858 24.4329 8.40109 24.465 8.36803 24.491L5.27158 26.9304C5.20484 26.9828 5.11952 27.0072 5.0344 26.9981C4.94928 26.9891 4.87133 26.9473 4.8177 26.8821L0.0714376 21.1242C0.0448242 21.0919 0.0249811 21.0548 0.0130441 21.015C0.00110709 20.9753 -0.00268962 20.9336 0.00187098 20.8924C0.00643157 20.8512 0.01926 20.8112 0.0396224 20.7749C0.0599848 20.7385 0.0874814 20.7064 0.120539 20.6805L3.21699 18.241C3.28373 18.1886 3.36905 18.1642 3.45416 18.1733C3.53928 18.1823 3.61724 18.2241 3.67087 18.2893L3.99801 18.6862Z" fill="#25566B"/>
</svg>
