<svg width="40" height="40" viewBox="0 0 40 40" fill="none" xmlns="http://www.w3.org/2000/svg">
<rect width="40" height="40" rx="8" fill="url(#paint0_linear_14347_4399)"/>
<path d="M19.9999 24.7997C18.3333 24.7997 16.8599 23.9463 15.9999 22.6663C16.0199 21.333 18.6666 20.5997 19.9999 20.5997C21.3333 20.5997 23.9799 21.333 23.9999 22.6663C23.1399 23.9463 21.6666 24.7997 19.9999 24.7997ZM19.9999 15.333C20.5304 15.333 21.0391 15.5437 21.4141 15.9188C21.7892 16.2939 21.9999 16.8026 21.9999 17.333C21.9999 17.8634 21.7892 18.3721 21.4141 18.7472C21.0391 19.1223 20.5304 19.333 19.9999 19.333C19.4695 19.333 18.9608 19.1223 18.5857 18.7472C18.2106 18.3721 17.9999 17.8634 17.9999 17.333C17.9999 16.8026 18.2106 16.2939 18.5857 15.9188C18.9608 15.5437 19.4695 15.333 19.9999 15.333V15.333ZM19.9999 13.333C19.1244 13.333 18.2575 13.5054 17.4487 13.8405C16.6399 14.1755 15.9049 14.6666 15.2859 15.2856C14.0356 16.5359 13.3333 18.2316 13.3333 19.9997C13.3333 21.7678 14.0356 23.4635 15.2859 24.7137C15.9049 25.3328 16.6399 25.8238 17.4487 26.1589C18.2575 26.4939 19.1244 26.6663 19.9999 26.6663C21.768 26.6663 23.4637 25.964 24.714 24.7137C25.9642 23.4635 26.6666 21.7678 26.6666 19.9997C26.6666 16.313 23.6666 13.333 19.9999 13.333Z" fill="white"/>
<defs>
<linearGradient id="paint0_linear_14347_4399" x1="20" y1="0" x2="20" y2="40" gradientUnits="userSpaceOnUse">
<stop stop-color="#3E3D45"/>
<stop offset="1" stop-color="#202020"/>
</linearGradient>
</defs>
</svg>
