<svg width="40" height="40" viewBox="0 0 40 40" fill="none" xmlns="http://www.w3.org/2000/svg">
<rect width="40" height="40" rx="10" fill="url(#paint0_linear_14347_4400)"/>
<path d="M20.0002 24.7997C18.3335 24.7997 16.8602 23.9463 16.0002 22.6663C16.0202 21.333 18.6668 20.5997 20.0002 20.5997C21.3335 20.5997 23.9802 21.333 24.0002 22.6663C23.1402 23.9463 21.6668 24.7997 20.0002 24.7997ZM20.0002 15.333C20.5306 15.333 21.0393 15.5437 21.4144 15.9188C21.7894 16.2939 22.0002 16.8026 22.0002 17.333C22.0002 17.8634 21.7894 18.3721 21.4144 18.7472C21.0393 19.1223 20.5306 19.333 20.0002 19.333C19.4697 19.333 18.961 19.1223 18.5859 18.7472C18.2109 18.3721 18.0002 17.8634 18.0002 17.333C18.0002 16.8026 18.2109 16.2939 18.5859 15.9188C18.961 15.5437 19.4697 15.333 20.0002 15.333V15.333ZM20.0002 13.333C19.1247 13.333 18.2578 13.5054 17.4489 13.8405C16.6401 14.1755 15.9052 14.6666 15.2861 15.2856C14.0359 16.5359 13.3335 18.2316 13.3335 19.9997C13.3335 21.7678 14.0359 23.4635 15.2861 24.7137C15.9052 25.3328 16.6401 25.8238 17.4489 26.1589C18.2578 26.4939 19.1247 26.6663 20.0002 26.6663C21.7683 26.6663 23.464 25.964 24.7142 24.7137C25.9645 23.4635 26.6668 21.7678 26.6668 19.9997C26.6668 16.313 23.6668 13.333 20.0002 13.333Z" fill="white"/>
<defs>
<linearGradient id="paint0_linear_14347_4400" x1="20" y1="0" x2="20" y2="40" gradientUnits="userSpaceOnUse">
<stop stop-color="#E93B77"/>
<stop offset="1" stop-color="#DA1F63"/>
</linearGradient>
</defs>
</svg>
