<svg width="79" height="30" viewBox="0 0 79 30" fill="none" xmlns="http://www.w3.org/2000/svg">
<g id="Group 10300">
<path id="Vector" d="M48.27 16.94L39.36 8.03L29.86 16.92L20.98 8.03L11.53 16.87L0 5.94L4.32999 2.10001L11.56 8.96L21.13 0L30.01 8.9L39.51 0L48.38 8.88L55.51 2.10001L59.84 5.93L48.27 16.94Z" fill="#F7910F"/>
<path id="Vector_2" d="M66.52 29.83L57.61 20.91L48.11 29.81L39.22 20.91L29.78 29.75L18.25 18.82L22.57 14.98L29.81 21.84L39.37 12.89L48.26 21.78L57.76 12.89L66.63 21.77L73.76 14.98L78.09 18.82L66.52 29.83Z" fill="#6971DD"/>
</g>
</svg>
