<svg width="52" height="30" viewBox="0 0 52 30" fill="none" xmlns="http://www.w3.org/2000/svg">
<g id="Group 10299">
<g id="Group 10277">
<path id="Vector" d="M10.081 0.00259099L0 10.0801L2.79986 12.8809L12.8809 2.80343L10.081 0.00259099Z" fill="#F7910F"/>
<path id="Vector_2" d="M2.81781 0.060122L0.0179443 2.86096L10.099 12.9384L12.8988 10.1376L2.81781 0.060122Z" fill="#F7910F"/>
<path id="Vector_3" d="M29.3764 0.00132476L19.2954 10.0788L22.0953 12.8796L32.1763 2.80216L29.3764 0.00132476Z" fill="#F7910F"/>
<path id="Vector_4" d="M22.1106 0.0663778L19.3107 2.86725L29.3917 12.9447L32.1916 10.1439L22.1106 0.0663778Z" fill="#F7910F"/>
<path id="Vector_5" d="M48.6718 -1.83079e-06L38.5908 10.0775L41.3907 12.8783L51.4717 2.80084L48.6718 -1.83079e-06Z" fill="#F7910F"/>
<path id="Vector_6" d="M41.4084 0.0603353L38.6085 2.86121L48.6895 12.9387L51.4894 10.1378L41.4084 0.0603353Z" fill="#F7910F"/>
</g>
<path id="Vector_7" d="M21.59 29.44C23.7991 29.44 25.59 27.6491 25.59 25.44C25.59 23.2309 23.7991 21.44 21.59 21.44C19.3808 21.44 17.59 23.2309 17.59 25.44C17.59 27.6491 19.3808 29.44 21.59 29.44Z" fill="#F7910F"/>
</g>
</svg>
