<svg width="18" height="72" viewBox="0 0 18 72" fill="none" xmlns="http://www.w3.org/2000/svg">
<g id="Group 10275">
<path id="Vector" d="M3.9237 0.0376137L0.0410156 3.91895L14.011 17.8938L17.8937 14.0125L3.9237 0.0376137Z" fill="#6971DD"/>
<path id="Vector_2" d="M13.9805 2.08194e-05L0.010498 13.9749L3.89319 17.8562L17.8631 3.88136L13.9805 2.08194e-05Z" fill="#6971DD"/>
<path id="Vector_3" d="M3.88201 26.7363L0 30.6183L13.9724 44.5907L17.8544 40.7087L3.88201 26.7363Z" fill="#6971DD"/>
<path id="Vector_4" d="M14.0153 26.7962L0.0429077 40.7686L3.92492 44.6506L17.8973 30.6782L14.0153 26.7962Z" fill="#6971DD"/>
<path id="Vector_5" d="M3.88708 53.4813L0.00506592 57.3633L13.9775 71.3358L17.8595 67.4538L3.88708 53.4813Z" fill="#6971DD"/>
<path id="Vector_6" d="M14.0204 53.5413L0.0480347 67.5137L3.93005 71.3957L17.9024 57.4234L14.0204 53.5413Z" fill="#6971DD"/>
</g>
</svg>
