<svg width="41" height="18" viewBox="0 0 41 18" fill="none" xmlns="http://www.w3.org/2000/svg">
<g id="Group 10276">
<path id="Vector" d="M3.20003 11.45C3.83575 11.4481 4.45779 11.6349 4.9872 11.9868C5.51661 12.3388 5.92959 12.84 6.17378 13.427C6.41798 14.0139 6.48238 14.6602 6.35884 15.2838C6.2353 15.9074 5.92934 16.4803 5.47981 16.9298C5.03029 17.3794 4.45743 17.6853 3.83382 17.8088C3.21021 17.9324 2.56396 17.8679 1.97701 17.6237C1.39005 17.3795 0.888839 16.9666 0.536881 16.4371C0.184923 15.9077 -0.00196186 15.2857 1.55308e-05 14.65C1.55308e-05 13.8013 0.337155 12.9874 0.937271 12.3873C1.53739 11.7872 2.35134 11.45 3.20003 11.45Z" fill="#6971DD"/>
<path id="Vector_2" d="M3.20001 1.55819e-05C3.83531 -0.00196356 4.45695 0.184634 4.98615 0.536148C5.51534 0.887662 5.9283 1.38828 6.17279 1.97466C6.41728 2.56103 6.48229 3.20676 6.35956 3.83009C6.23683 4.45343 5.93192 5.02635 5.4834 5.47627C5.03487 5.9262 4.46292 6.23292 3.83997 6.35759C3.21702 6.48226 2.57108 6.41928 1.98395 6.17662C1.39681 5.93396 0.89485 5.52253 0.541687 4.99443C0.188524 4.46633 3.08281e-06 3.84531 0 3.21001C-4.12268e-06 2.36039 0.336815 1.54545 0.936646 0.943741C1.53648 0.342036 2.3504 0.00266236 3.20001 1.55819e-05Z" fill="#6971DD"/>
<path id="Vector_3" d="M20.27 17.8501C22.0373 17.8501 23.47 16.4174 23.47 14.6501C23.47 12.8827 22.0373 11.4501 20.27 11.4501C18.5027 11.4501 17.07 12.8827 17.07 14.6501C17.07 16.4174 18.5027 17.8501 20.27 17.8501Z" fill="#6971DD"/>
<path id="Vector_4" d="M20.27 1.55819e-05C20.9053 -0.00196356 21.527 0.184634 22.0562 0.536148C22.5853 0.887662 22.9983 1.38828 23.2428 1.97466C23.4873 2.56103 23.5523 3.20676 23.4296 3.83009C23.3068 4.45343 23.0019 5.02635 22.5534 5.47627C22.1049 5.9262 21.5329 6.23292 20.91 6.35759C20.287 6.48226 19.6411 6.41928 19.054 6.17662C18.4668 5.93396 17.9649 5.52253 17.6117 4.99443C17.2585 4.46633 17.07 3.84531 17.07 3.21001C17.07 2.36039 17.4068 1.54545 18.0067 0.943741C18.6065 0.342036 19.4204 0.00266236 20.27 1.55819e-05Z" fill="#6971DD"/>
<path id="Vector_5" d="M37.3501 11.45C37.9858 11.4481 38.6078 11.6349 39.1372 11.9868C39.6666 12.3388 40.0796 12.84 40.3237 13.427C40.5679 14.0139 40.6323 14.6602 40.5088 15.2838C40.3853 15.9074 40.0794 16.4803 39.6298 16.9298C39.1803 17.3794 38.6075 17.6853 37.9838 17.8088C37.3602 17.9324 36.714 17.8679 36.127 17.6237C35.5401 17.3795 35.0388 16.9666 34.6868 16.4371C34.3349 15.9077 34.1481 15.2857 34.15 14.65C34.15 13.8013 34.4872 12.9874 35.0873 12.3873C35.6874 11.7872 36.5014 11.45 37.3501 11.45Z" fill="#6971DD"/>
<path id="Vector_6" d="M37.35 1.55819e-05C37.9853 -0.00196356 38.6069 0.184634 39.1361 0.536148C39.6653 0.887662 40.0783 1.38828 40.3228 1.97466C40.5673 2.56103 40.6323 3.20676 40.5096 3.83009C40.3869 4.45343 40.0819 5.02635 39.6334 5.47627C39.1848 5.9262 38.6129 6.23292 37.9899 6.35759C37.367 6.48226 36.721 6.41928 36.1339 6.17662C35.5468 5.93396 35.0449 5.52253 34.6917 4.99443C34.3385 4.46633 34.15 3.84531 34.15 3.21001C34.15 2.36039 34.4868 1.54545 35.0867 0.943741C35.6865 0.342036 36.5004 0.00266236 37.35 1.55819e-05Z" fill="#6971DD"/>
</g>
</svg>
