<svg width="1569" height="763" viewBox="0 0 1569 763" fill="none" xmlns="http://www.w3.org/2000/svg">
<path d="M610.162 463.969L610.185 464.969L610.2 464.969L610.215 464.968L610.162 463.969ZM426.85 718.968C427.385 718.831 427.708 718.287 427.571 717.752C427.435 717.217 426.89 716.893 426.355 717.03L426.603 717.999L426.85 718.968ZM1498.02 216.692L1498.79 217.333L1498.02 216.692ZM1554 28.3395L1554.86 27.8293L1554.83 27.784L1554.8 27.7418L1554 28.3395ZM1444.11 52.7257C1443.92 53.2448 1444.19 53.8184 1444.71 54.007C1445.23 54.1955 1445.8 53.9275 1445.99 53.4084L1445.05 53.0671L1444.11 52.7257ZM422.754 717.929C422.218 718.061 421.89 718.603 422.023 719.14C422.155 719.676 422.697 720.003 423.233 719.871L422.993 718.9L422.754 717.929ZM415.448 721.76C415.985 721.631 416.317 721.092 416.188 720.555C416.06 720.018 415.52 719.686 414.983 719.815L415.216 720.787L415.448 721.76ZM407.278 721.635C406.74 721.76 406.406 722.298 406.531 722.836C406.657 723.374 407.194 723.708 407.732 723.582L407.505 722.609L407.278 721.635ZM400.046 725.357C400.584 725.234 400.921 724.698 400.798 724.159C400.675 723.621 400.139 723.284 399.6 723.407L399.823 724.382L400.046 725.357ZM392.02 725.121C391.481 725.241 391.142 725.776 391.263 726.315C391.383 726.854 391.918 727.193 392.457 727.073L392.239 726.097L392.02 725.121ZM384.687 728.794C385.226 728.675 385.568 728.142 385.449 727.603C385.331 727.063 384.798 726.722 384.258 726.84L384.473 727.817L384.687 728.794ZM376.519 728.52C375.979 728.636 375.635 729.168 375.751 729.708C375.867 730.248 376.399 730.592 376.939 730.476L376.729 729.498L376.519 728.52ZM369.273 732.106C369.813 731.993 370.159 731.462 370.045 730.922C369.931 730.381 369.401 730.036 368.861 730.149L369.067 731.128L369.273 732.106ZM361.026 731.782C360.485 731.894 360.137 732.423 360.249 732.964C360.36 733.505 360.889 733.853 361.43 733.741L361.228 732.762L361.026 731.782ZM353.795 735.3C354.336 735.191 354.686 734.663 354.577 734.122C354.467 733.58 353.94 733.23 353.399 733.34L353.597 734.32L353.795 735.3ZM345.56 734.906C345.019 735.013 344.666 735.54 344.773 736.081C344.88 736.623 345.407 736.976 345.948 736.868L345.754 735.887L345.56 734.906ZM338.284 738.367C338.826 738.262 339.181 737.738 339.076 737.196C338.971 736.653 338.446 736.299 337.904 736.404L338.094 737.385L338.284 738.367ZM330.095 737.897C329.552 737.999 329.195 738.522 329.298 739.065C329.4 739.608 329.923 739.965 330.466 739.862L330.28 738.879L330.095 737.897ZM322.741 741.305C323.284 741.205 323.643 740.683 323.543 740.14C323.442 739.597 322.921 739.238 322.378 739.338L322.559 740.322L322.741 741.305ZM314.604 740.755C314.06 740.853 313.699 741.373 313.797 741.916C313.894 742.46 314.414 742.821 314.958 742.723L314.781 741.739L314.604 740.755ZM307.164 744.108C307.708 744.013 308.071 743.494 307.976 742.951C307.881 742.406 307.362 742.043 306.818 742.138L306.991 743.123L307.164 744.108ZM299.073 743.478C298.528 743.571 298.162 744.087 298.255 744.632C298.348 745.176 298.865 745.542 299.409 745.449L299.241 744.464L299.073 743.478ZM291.555 746.769C292.1 746.679 292.469 746.164 292.379 745.62C292.288 745.075 291.773 744.706 291.229 744.796L291.392 745.783L291.555 746.769ZM283.499 746.057C282.954 746.145 282.583 746.658 282.67 747.203C282.758 747.748 283.271 748.12 283.816 748.032L283.658 747.045L283.499 746.057ZM275.984 749.27C276.529 749.185 276.903 748.674 276.818 748.128C276.733 747.582 276.222 747.209 275.677 747.293L275.83 748.281L275.984 749.27ZM267.888 748.483C267.342 748.565 266.966 749.074 267.047 749.62C267.129 750.166 267.639 750.543 268.185 750.461L268.036 749.472L267.888 748.483ZM260.376 751.611C260.922 751.532 261.301 751.025 261.222 750.478C261.144 749.931 260.636 749.552 260.09 749.631L260.233 750.621L260.376 751.611ZM252.252 750.741C251.705 750.817 251.323 751.322 251.399 751.869C251.475 752.416 251.98 752.798 252.527 752.722L252.389 751.731L252.252 750.741ZM244.72 753.781C245.267 753.709 245.652 753.206 245.579 752.658C245.507 752.111 245.004 751.726 244.457 751.799L244.588 752.79L244.72 753.781ZM236.624 752.814C236.076 752.883 235.688 753.383 235.757 753.931C235.827 754.479 236.327 754.867 236.875 754.798L236.749 753.806L236.624 752.814ZM229.032 755.764C229.58 755.698 229.971 755.2 229.905 754.652C229.84 754.103 229.342 753.712 228.794 753.778L228.913 754.771L229.032 755.764ZM220.962 754.69C220.413 754.752 220.018 755.247 220.08 755.796C220.142 756.345 220.637 756.74 221.186 756.677L221.074 755.684L220.962 754.69ZM213.33 757.537C213.879 757.479 214.278 756.987 214.219 756.438C214.161 755.889 213.669 755.49 213.12 755.549L213.225 756.543L213.33 757.537ZM205.266 756.35C204.716 756.405 204.314 756.894 204.368 757.444C204.422 757.993 204.912 758.395 205.461 758.341L205.364 757.346L205.266 756.35ZM197.603 759.082C198.153 759.033 198.558 758.547 198.509 757.996C198.459 757.446 197.973 757.041 197.423 757.09L197.513 758.086L197.603 759.082ZM189.557 757.768C189.006 757.813 188.596 758.296 188.642 758.847C188.687 759.397 189.169 759.807 189.72 759.762L189.638 758.765L189.557 757.768ZM181.835 760.373C182.386 760.333 182.8 759.853 182.759 759.303C182.719 758.752 182.24 758.338 181.689 758.378L181.762 759.375L181.835 760.373ZM173.853 758.913C173.302 758.948 172.884 759.424 172.919 759.975C172.954 760.526 173.429 760.944 173.98 760.909L173.917 759.911L173.853 758.913ZM166.048 761.373C166.599 761.344 167.022 760.873 166.993 760.322C166.964 759.77 166.493 759.347 165.941 759.376L165.994 760.375L166.048 761.373ZM158.092 759.753C157.54 759.777 157.112 760.243 157.135 760.795C157.159 761.347 157.625 761.775 158.177 761.752L158.135 760.752L158.092 759.753ZM150.258 762.043C150.81 762.026 151.244 761.565 151.227 761.013C151.21 760.461 150.748 760.027 150.196 760.044L150.227 761.044L150.258 762.043ZM142.309 760.239C141.757 760.249 141.318 760.705 141.328 761.257C141.338 761.809 141.794 762.249 142.346 762.238L142.328 761.239L142.309 760.239ZM134.479 762.33C135.031 762.327 135.477 761.878 135.474 761.325C135.471 760.773 135.022 760.327 134.469 760.33L134.474 761.33L134.479 762.33ZM126.533 760.31C125.981 760.304 125.529 760.747 125.523 761.299C125.518 761.852 125.961 762.304 126.513 762.31L126.523 761.31L126.533 760.31ZM118.676 762.168C119.228 762.182 119.688 761.746 119.702 761.194C119.717 760.642 119.281 760.183 118.729 760.168L118.703 761.168L118.676 762.168ZM110.782 759.889C110.23 759.864 109.763 760.292 109.739 760.844C109.714 761.395 110.142 761.862 110.693 761.887L110.738 760.888L110.782 759.889ZM102.836 761.462C103.387 761.497 103.863 761.079 103.898 760.528C103.933 759.977 103.515 759.501 102.964 759.466L102.9 760.464L102.836 761.462ZM95.0753 758.873C94.525 758.825 94.0404 759.233 93.9927 759.783C93.9451 760.333 94.3525 760.818 94.9028 760.866L94.989 759.869L95.0753 758.873ZM87.0421 760.089C87.591 760.15 88.0856 759.755 88.1469 759.206C88.2082 758.657 87.813 758.162 87.2641 758.101L87.1531 759.095L87.0421 760.089ZM79.445 757.118C78.898 757.041 78.3924 757.422 78.3156 757.969C78.2387 758.516 78.6198 759.021 79.1667 759.098L79.3058 758.108L79.445 757.118ZM71.3458 757.873C71.8899 757.968 72.4076 757.603 72.5021 757.059C72.5966 756.515 72.2321 755.997 71.688 755.903L71.5169 756.888L71.3458 757.873ZM63.9569 754.414C63.4167 754.299 62.8857 754.644 62.7708 755.184C62.6559 755.724 63.0007 756.255 63.5409 756.37L63.7489 755.392L63.9569 754.414ZM55.848 754.562C56.3827 754.7 56.9283 754.379 57.0667 753.844C57.2052 753.31 56.884 752.764 56.3493 752.626L56.0987 753.594L55.848 754.562ZM48.7609 750.453C48.2342 750.287 47.6725 750.579 47.5061 751.106C47.3398 751.632 47.6319 752.194 48.1585 752.36L48.4597 751.407L48.7609 750.453ZM40.7608 749.778C41.2761 749.976 41.8549 749.719 42.0534 749.204C42.252 748.689 41.9952 748.11 41.4798 747.911L41.1203 748.845L40.7608 749.778ZM34.1939 744.786C33.6955 744.548 33.0986 744.759 32.8606 745.257C32.6227 745.756 32.8338 746.353 33.3322 746.591L33.763 745.688L34.1939 744.786ZM26.3202 742.843C26.794 743.127 27.4081 742.973 27.6918 742.499C27.9755 742.025 27.8214 741.411 27.3475 741.127L26.8338 741.985L26.3202 742.843ZM20.9603 736.801C20.5223 736.465 19.8945 736.547 19.558 736.985C19.2215 737.423 19.3038 738.051 19.7417 738.387L20.351 737.594L20.9603 736.801ZM13.6908 733.031C14.0762 733.427 14.7093 733.435 15.1049 733.049C15.5005 732.664 15.5087 732.031 15.1233 731.635L14.407 732.333L13.6908 733.031ZM10.2248 725.712C9.91031 725.258 9.28734 725.144 8.83331 725.459C8.37929 725.773 8.26614 726.396 8.58059 726.85L9.40267 726.281L10.2248 725.712ZM4.62361 719.861C4.85044 720.365 5.44253 720.589 5.94609 720.362C6.44964 720.136 6.67398 719.543 6.44715 719.04L5.53538 719.451L4.62361 719.861ZM3.93727 711.729C3.80606 711.193 3.2648 710.864 2.72832 710.995C2.19185 711.127 1.86332 711.668 1.99453 712.204L2.9659 711.967L3.93727 711.729ZM0.758068 704.35C0.80003 704.901 1.28047 705.313 1.83116 705.271C2.38184 705.229 2.79425 704.749 2.75229 704.198L1.75518 704.274L0.758068 704.35ZM2.67513 696.256C2.69549 695.704 2.26458 695.24 1.71267 695.22C1.16077 695.199 0.69685 695.63 0.67649 696.182L1.67581 696.219L2.67513 696.256ZM1.26703 688.202C1.20589 688.751 1.60129 689.245 2.15018 689.306C2.69907 689.368 3.1936 688.972 3.25473 688.423L2.26088 688.313L1.26703 688.202ZM4.41341 680.65C4.51496 680.107 4.1572 679.585 3.61433 679.484C3.07146 679.382 2.54906 679.74 2.44751 680.283L3.43046 680.466L4.41341 680.65ZM4.2042 672.48C4.06345 673.014 4.38227 673.561 4.91632 673.702C5.45037 673.842 5.9974 673.524 6.13816 672.99L5.17118 672.735L4.2042 672.48ZM8.41787 665.444C8.59613 664.921 8.31688 664.353 7.79416 664.174C7.27143 663.996 6.70317 664.275 6.52491 664.798L7.47139 665.121L8.41787 665.444ZM9.35573 657.34C9.14251 657.849 9.38267 658.435 9.89214 658.648C10.4016 658.862 10.9875 658.621 11.2007 658.112L10.2782 657.726L9.35573 657.34ZM14.4705 650.961C14.7161 650.467 14.5142 649.866 14.0195 649.621C13.5248 649.375 12.9247 649.577 12.6791 650.072L13.5748 650.517L14.4705 650.961ZM16.4723 642.989C16.197 643.467 16.362 644.079 16.8408 644.354C17.3195 644.629 17.9308 644.464 18.2061 643.986L17.3392 643.487L16.4723 642.989ZM22.3008 637.313C22.6027 636.851 22.4725 636.231 22.0101 635.929C21.5476 635.627 20.9279 635.758 20.6261 636.22L21.4634 636.767L22.3008 637.313ZM25.1813 629.635C24.8553 630.081 24.9525 630.707 25.3983 631.033C25.8441 631.359 26.4698 631.261 26.7958 630.816L25.9885 630.225L25.1813 629.635ZM31.6057 624.57C31.9531 624.141 31.8869 623.511 31.4576 623.164C31.0283 622.816 30.3986 622.882 30.0511 623.312L30.8284 623.941L31.6057 624.57ZM35.1995 617.242C34.8329 617.656 34.8705 618.288 35.2836 618.654C35.6966 619.021 36.3287 618.983 36.6953 618.57L35.9474 617.906L35.1995 617.242ZM42.0963 612.742C42.4801 612.345 42.4693 611.712 42.0722 611.328C41.675 610.944 41.042 610.955 40.6582 611.352L41.3772 612.047L42.0963 612.742ZM46.2666 605.772C45.8677 606.154 45.854 606.787 46.236 607.186C46.618 607.585 47.251 607.599 47.6499 607.217L46.9582 606.494L46.2666 605.772ZM53.5183 601.802C53.9309 601.434 53.9677 600.802 53.6005 600.39C53.2334 599.977 52.6013 599.94 52.1887 600.307L52.8535 601.054L53.5183 601.802ZM58.162 595.169C57.7375 595.522 57.6798 596.153 58.033 596.577C58.3863 597.002 59.0168 597.059 59.4413 596.706L58.8017 595.937L58.162 595.169ZM65.6605 591.696C66.0959 591.357 66.1735 590.728 65.8338 590.293C65.4941 589.857 64.8657 589.78 64.4302 590.119L65.0454 590.908L65.6605 591.696ZM70.7129 585.363C70.2679 585.69 70.1723 586.316 70.4994 586.761C70.8265 587.206 71.4524 587.301 71.8974 586.974L71.3052 586.168L70.7129 585.363ZM78.4105 582.324C78.8643 582.009 78.9769 581.386 78.6621 580.933C78.3473 580.479 77.7243 580.366 77.2705 580.681L77.8405 581.503L78.4105 582.324ZM83.7885 576.28C83.327 576.583 83.1988 577.204 83.5022 577.665C83.8056 578.127 84.4256 578.255 84.8871 577.951L84.3378 577.116L83.7885 576.28ZM91.6215 573.64C92.0901 573.348 92.2331 572.731 91.9408 572.263C91.6486 571.794 91.0318 571.651 90.5631 571.943L91.0923 572.792L91.6215 573.64ZM97.2927 567.85C96.8177 568.131 96.6612 568.745 96.9431 569.22C97.225 569.695 97.8385 569.851 98.3134 569.57L97.8031 568.71L97.2927 567.85ZM105.202 565.58C105.683 565.308 105.852 564.698 105.58 564.217C105.308 563.736 104.698 563.567 104.217 563.839L104.71 564.709L105.202 565.58ZM111.156 560.005C110.67 560.268 110.489 560.874 110.751 561.36C111.014 561.846 111.62 562.028 112.106 561.765L111.631 560.885L111.156 560.005ZM119.103 558.072C119.594 557.819 119.786 557.216 119.533 556.725C119.28 556.234 118.677 556.042 118.186 556.295L118.644 557.184L119.103 558.072ZM125.329 552.688C124.834 552.933 124.631 553.533 124.876 554.028C125.12 554.523 125.72 554.726 126.215 554.481L125.772 553.585L125.329 552.688ZM133.285 551.062C133.784 550.826 133.997 550.23 133.761 549.731C133.524 549.232 132.928 549.018 132.429 549.255L132.857 550.159L133.285 551.062ZM139.717 545.875C139.214 546.104 138.991 546.696 139.22 547.199C139.448 547.702 140.041 547.925 140.544 547.696L140.13 546.786L139.717 545.875ZM147.72 544.502C148.226 544.281 148.457 543.692 148.236 543.185C148.016 542.679 147.426 542.448 146.92 542.669L147.32 543.585L147.72 544.502ZM154.232 539.541C153.723 539.754 153.483 540.34 153.697 540.85C153.911 541.359 154.497 541.599 155.006 541.385L154.619 540.463L154.232 539.541ZM162.389 538.349C162.902 538.142 163.149 537.559 162.943 537.047C162.736 536.535 162.154 536.287 161.641 536.494L162.015 537.421L162.389 538.349ZM168.959 533.598C168.444 533.797 168.189 534.377 168.389 534.892C168.589 535.407 169.168 535.662 169.683 535.462L169.321 534.53L168.959 533.598ZM177.132 532.623C177.649 532.429 177.912 531.853 177.718 531.336C177.525 530.819 176.949 530.556 176.431 530.75L176.782 531.686L177.132 532.623ZM183.889 528.011C183.37 528.198 183.1 528.771 183.288 529.291C183.475 529.81 184.048 530.08 184.568 529.893L184.229 528.952L183.889 528.011ZM191.995 527.263C192.517 527.082 192.793 526.512 192.612 525.99C192.43 525.469 191.86 525.193 191.339 525.374L191.667 526.319L191.995 527.263ZM198.929 522.783C198.405 522.958 198.123 523.525 198.298 524.049C198.474 524.573 199.041 524.855 199.564 524.679L199.247 523.731L198.929 522.783ZM207.053 522.213C207.578 522.043 207.866 521.479 207.696 520.954C207.526 520.428 206.962 520.14 206.437 520.31L206.745 521.261L207.053 522.213ZM213.982 517.911C213.455 518.076 213.161 518.637 213.326 519.164C213.49 519.691 214.051 519.985 214.578 519.82L214.28 518.866L213.982 517.911ZM222.233 517.471C222.762 517.311 223.061 516.753 222.902 516.224C222.742 515.696 222.185 515.396 221.656 515.556L221.945 516.513L222.233 517.471ZM229.222 513.313C228.691 513.468 228.387 514.023 228.541 514.553C228.696 515.083 229.251 515.388 229.781 515.233L229.501 514.273L229.222 513.313ZM237.376 513.059C237.908 512.909 238.217 512.357 238.068 511.825C237.918 511.293 237.366 510.984 236.834 511.133L237.105 512.096L237.376 513.059ZM244.564 508.995C244.031 509.14 243.717 509.689 243.862 510.222C244.007 510.755 244.556 511.07 245.089 510.925L244.827 509.96L244.564 508.995ZM252.708 508.889C253.242 508.748 253.561 508.202 253.421 507.667C253.281 507.133 252.734 506.814 252.2 506.954L252.454 507.922L252.708 508.889ZM259.857 504.977C259.321 505.112 258.998 505.657 259.134 506.192C259.27 506.727 259.814 507.051 260.349 506.915L260.103 505.946L259.857 504.977ZM268.098 504.981C268.635 504.849 268.963 504.308 268.831 503.771C268.7 503.235 268.158 502.907 267.622 503.038L267.86 504.009L268.098 504.981ZM275.34 501.177C274.803 501.304 274.471 501.843 274.598 502.38C274.725 502.918 275.264 503.25 275.802 503.123L275.571 502.15L275.34 501.177ZM283.47 501.335C284.008 501.212 284.345 500.675 284.221 500.137C284.098 499.598 283.562 499.262 283.023 499.385L283.247 500.36L283.47 501.335ZM290.805 497.632C290.266 497.752 289.926 498.285 290.045 498.825C290.165 499.364 290.699 499.704 291.238 499.585L291.022 498.608L290.805 497.632ZM299.041 497.886C299.581 497.771 299.925 497.239 299.809 496.699C299.694 496.159 299.162 495.815 298.622 495.931L298.831 496.909L299.041 497.886ZM306.316 494.313C305.775 494.424 305.427 494.954 305.539 495.494C305.651 496.035 306.18 496.383 306.721 496.271L306.518 495.292L306.316 494.313ZM314.493 494.692C315.035 494.584 315.386 494.057 315.278 493.516C315.17 492.974 314.643 492.623 314.101 492.731L314.297 493.711L314.493 494.692ZM321.978 491.185C321.436 491.29 321.081 491.814 321.186 492.356C321.29 492.899 321.815 493.253 322.357 493.149L322.168 492.167L321.978 491.185ZM330.09 491.684C330.633 491.583 330.991 491.061 330.89 490.518C330.789 489.975 330.267 489.616 329.724 489.717L329.907 490.701L330.09 491.684ZM337.501 488.295C336.958 488.392 336.596 488.912 336.694 489.456C336.792 489.999 337.312 490.361 337.855 490.263L337.678 489.279L337.501 488.295ZM345.705 488.877C346.249 488.783 346.614 488.265 346.52 487.721C346.425 487.177 345.908 486.812 345.364 486.907L345.534 487.892L345.705 488.877ZM353.24 485.565C352.696 485.656 352.328 486.172 352.419 486.716C352.51 487.261 353.026 487.629 353.57 487.538L353.405 486.551L353.24 485.565ZM361.32 486.265C361.865 486.177 362.236 485.664 362.148 485.118C362.06 484.573 361.546 484.202 361.001 484.29L361.16 485.278L361.32 486.265ZM368.84 483.049C368.294 483.134 367.921 483.645 368.006 484.19C368.091 484.736 368.602 485.11 369.147 485.025L368.994 484.037L368.84 483.049ZM377.054 483.819C377.6 483.737 377.976 483.228 377.895 482.682C377.813 482.135 377.304 481.759 376.758 481.841L376.906 482.83L377.054 483.819ZM384.599 480.689C384.052 480.767 383.673 481.274 383.752 481.821C383.83 482.368 384.337 482.747 384.884 482.668L384.741 481.678L384.599 480.689ZM392.683 481.565C393.23 481.489 393.612 480.984 393.536 480.437C393.46 479.89 392.955 479.508 392.408 479.584L392.546 480.574L392.683 481.565ZM400.291 478.511C399.743 478.584 399.359 479.087 399.432 479.635C399.505 480.182 400.008 480.567 400.555 480.494L400.423 479.502L400.291 478.511ZM408.5 479.454C409.048 479.384 409.435 478.883 409.365 478.335C409.295 477.788 408.794 477.4 408.246 477.471L408.373 478.463L408.5 479.454ZM416.07 476.488C415.522 476.555 415.132 477.054 415.199 477.602C415.267 478.151 415.766 478.54 416.314 478.473L416.192 477.48L416.07 476.488ZM424.147 477.528C424.696 477.463 425.088 476.966 425.023 476.417C424.958 475.869 424.461 475.477 423.913 475.542L424.03 476.535L424.147 477.528ZM431.823 474.626C431.275 474.689 430.88 475.184 430.942 475.733C431.004 476.281 431.5 476.676 432.048 476.614L431.936 475.62L431.823 474.626ZM440.017 475.731C440.566 475.671 440.963 475.178 440.903 474.629C440.844 474.08 440.351 473.683 439.801 473.742L439.909 474.736L440.017 475.731ZM447.627 472.912C447.078 472.969 446.679 473.461 446.736 474.01C446.793 474.559 447.285 474.958 447.834 474.902L447.731 473.907L447.627 472.912ZM455.688 474.105C456.238 474.05 456.639 473.561 456.585 473.011C456.53 472.461 456.04 472.06 455.491 472.114L455.589 473.11L455.688 474.105ZM463.417 471.347C462.867 471.399 462.464 471.886 462.516 472.436C462.568 472.986 463.056 473.39 463.605 473.338L463.511 472.342L463.417 471.347ZM471.586 472.6C472.136 472.551 472.541 472.065 472.492 471.515C472.442 470.965 471.956 470.559 471.406 470.609L471.496 471.605L471.586 472.6ZM479.253 469.918C478.703 469.966 478.295 470.45 478.342 471C478.389 471.55 478.874 471.958 479.424 471.911L479.338 470.915L479.253 469.918ZM487.288 471.253C487.839 471.208 488.248 470.725 488.203 470.175C488.159 469.625 487.676 469.215 487.126 469.26L487.207 470.256L487.288 471.253ZM495.057 468.63C494.506 468.672 494.094 469.153 494.137 469.704C494.18 470.254 494.66 470.666 495.211 470.624L495.134 469.627L495.057 468.63ZM503.193 470.023C503.744 469.983 504.157 469.504 504.117 468.953C504.077 468.402 503.598 467.988 503.047 468.029L503.12 469.026L503.193 470.023ZM510.933 467.468C510.382 467.506 509.966 467.983 510.004 468.534C510.042 469.085 510.52 469.501 511.071 469.463L511.002 468.465L510.933 467.468ZM518.936 468.935C519.487 468.9 519.904 468.424 519.869 467.873C519.833 467.322 519.357 466.904 518.806 466.94L518.871 467.938L518.936 468.935ZM526.734 466.439C526.182 466.473 525.763 466.947 525.797 467.498C525.83 468.05 526.304 468.469 526.856 468.436L526.795 467.437L526.734 466.439ZM534.831 467.964C535.382 467.932 535.803 467.459 535.772 466.908C535.74 466.357 535.268 465.935 534.716 465.967L534.773 466.965L534.831 467.964ZM542.658 465.527C542.107 465.557 541.684 466.028 541.713 466.579C541.743 467.131 542.214 467.554 542.765 467.525L542.712 466.526L542.658 465.527ZM550.623 467.12C551.175 467.092 551.6 466.623 551.573 466.071C551.545 465.52 551.076 465.095 550.524 465.122L550.574 466.121L550.623 467.12ZM558.441 464.743C557.89 464.769 557.463 465.237 557.488 465.788C557.514 466.34 557.981 466.767 558.533 466.741L558.487 465.742L558.441 464.743ZM566.494 466.39C567.046 466.367 567.474 465.901 567.451 465.349C567.428 464.797 566.962 464.369 566.41 464.392L566.452 465.391L566.494 466.39ZM574.424 464.068C573.872 464.089 573.442 464.554 573.464 465.105C573.485 465.657 573.95 466.087 574.502 466.066L574.463 465.067L574.424 464.068ZM582.347 465.777C582.899 465.757 583.33 465.294 583.311 464.742C583.292 464.19 582.828 463.759 582.276 463.778L582.312 464.777L582.347 465.777ZM590.177 463.514C589.625 463.532 589.192 463.993 589.209 464.546C589.227 465.098 589.688 465.531 590.24 465.513L590.209 464.514L590.177 463.514ZM598.182 465.276C598.734 465.26 599.169 464.8 599.153 464.248C599.138 463.696 598.678 463.261 598.126 463.277L598.154 464.276L598.182 465.276ZM606.122 463.065C605.57 463.079 605.134 463.538 605.147 464.09C605.161 464.642 605.62 465.078 606.172 465.065L606.147 464.065L606.122 463.065ZM614.2 464.755C614.751 464.725 615.174 464.254 615.145 463.703C615.115 463.151 614.644 462.728 614.092 462.758L614.146 463.757L614.2 464.755ZM622.049 462.32C621.497 462.351 621.076 462.823 621.107 463.374C621.138 463.926 621.61 464.348 622.161 464.317L622.105 463.318L622.049 462.32ZM630.11 463.86C630.661 463.828 631.082 463.355 631.05 462.804C631.018 462.252 630.545 461.832 629.993 461.864L630.052 462.862L630.11 463.86ZM637.925 461.39C637.374 461.424 636.954 461.898 636.988 462.449C637.021 463 637.495 463.42 638.047 463.387L637.986 462.388L637.925 461.39ZM645.97 462.895C646.521 462.86 646.94 462.385 646.905 461.834C646.87 461.283 646.395 460.864 645.844 460.899L645.907 461.897L645.97 462.895ZM653.788 460.388C653.237 460.424 652.82 460.9 652.856 461.451C652.892 462.002 653.368 462.42 653.919 462.384L653.853 461.386L653.788 460.388ZM661.875 461.853C662.426 461.816 662.842 461.339 662.805 460.788C662.767 460.237 662.29 459.82 661.739 459.858L661.807 460.855L661.875 461.853ZM669.676 459.31C669.125 459.348 668.71 459.826 668.749 460.377C668.787 460.928 669.265 461.343 669.816 461.305L669.746 460.307L669.676 459.31ZM677.743 460.739C678.294 460.699 678.708 460.22 678.668 459.669C678.628 459.118 678.15 458.704 677.599 458.744L677.671 459.741L677.743 460.739ZM685.506 458.161C684.956 458.202 684.543 458.682 684.584 459.233C684.625 459.784 685.105 460.197 685.656 460.155L685.581 459.158L685.506 458.161ZM693.609 459.55C694.16 459.507 694.572 459.027 694.529 458.476C694.486 457.925 694.006 457.513 693.455 457.556L693.532 458.553L693.609 459.55ZM701.398 456.932C700.848 456.976 700.437 457.458 700.481 458.009C700.525 458.559 701.007 458.97 701.557 458.926L701.478 457.929L701.398 456.932ZM709.489 458.284C710.04 458.239 710.449 457.756 710.404 457.206C710.359 456.656 709.876 456.246 709.326 456.291L709.407 457.288L709.489 458.284ZM717.236 455.632C716.686 455.679 716.278 456.163 716.324 456.713C716.371 457.263 716.854 457.672 717.405 457.625L717.321 456.629L717.236 455.632ZM725.309 456.948C725.859 456.9 726.266 456.415 726.218 455.865C726.171 455.315 725.686 454.907 725.135 454.955L725.222 455.951L725.309 456.948ZM733.086 454.255C732.536 454.304 732.13 454.789 732.179 455.34C732.229 455.89 732.714 456.296 733.264 456.247L733.175 455.251L733.086 454.255ZM741.202 455.528C741.752 455.477 742.157 454.99 742.107 454.44C742.056 453.89 741.569 453.485 741.019 453.536L741.111 454.532L741.202 455.528ZM748.934 452.8C748.384 452.851 747.981 453.339 748.033 453.889C748.084 454.439 748.572 454.843 749.122 454.791L749.028 453.795L748.934 452.8ZM757.023 454.036C757.573 453.983 757.975 453.494 757.922 452.945C757.869 452.395 757.38 451.992 756.831 452.046L756.927 453.041L757.023 454.036ZM764.736 451.271C764.186 451.326 763.785 451.815 763.84 452.365C763.894 452.915 764.384 453.316 764.933 453.261L764.835 452.266L764.736 451.271ZM772.878 452.463C773.428 452.407 773.828 451.917 773.772 451.367C773.716 450.818 773.225 450.418 772.676 450.473L772.777 451.468L772.878 452.463ZM780.595 449.658C780.046 449.715 779.647 450.207 779.704 450.756C779.762 451.305 780.253 451.704 780.803 451.647L780.699 450.652L780.595 449.658ZM788.707 450.813C789.256 450.754 789.654 450.262 789.595 449.712C789.536 449.163 789.044 448.766 788.495 448.824L788.601 449.819L788.707 450.813ZM796.373 447.973C795.824 448.033 795.427 448.527 795.487 449.076C795.547 449.625 796.041 450.021 796.59 449.961L796.482 448.967L796.373 447.973ZM804.512 449.085C805.061 449.023 805.456 448.529 805.395 447.98C805.333 447.431 804.839 447.036 804.29 447.097L804.401 448.091L804.512 449.085ZM812.215 446.2C811.666 446.263 811.272 446.759 811.335 447.307C811.398 447.856 811.893 448.25 812.442 448.187L812.328 447.194L812.215 446.2ZM820.35 447.271C820.898 447.207 821.291 446.71 821.227 446.162C821.162 445.613 820.666 445.221 820.117 445.285L820.234 446.278L820.35 447.271ZM827.997 444.352C827.448 444.418 827.057 444.915 827.123 445.464C827.188 446.012 827.686 446.403 828.235 446.338L828.116 445.345L827.997 444.352ZM836.1 445.386C836.648 445.318 837.038 444.82 836.971 444.271C836.904 443.723 836.406 443.333 835.857 443.4L835.979 444.393L836.1 445.386ZM843.788 442.419C843.24 442.488 842.851 442.988 842.92 443.536C842.988 444.084 843.488 444.472 844.036 444.404L843.912 443.411L843.788 442.419ZM851.947 443.404C852.495 443.334 852.883 442.833 852.812 442.285C852.742 441.737 852.242 441.35 851.694 441.42L851.821 442.412L851.947 443.404ZM859.575 440.402C859.027 440.474 858.641 440.975 858.713 441.523C858.784 442.071 859.286 442.457 859.834 442.385L859.704 441.394L859.575 440.402ZM867.695 441.349C868.242 441.276 868.627 440.773 868.554 440.226C868.481 439.678 867.978 439.293 867.43 439.366L867.562 440.358L867.695 441.349ZM875.31 438.306C874.763 438.38 874.38 438.884 874.454 439.431C874.529 439.979 875.033 440.362 875.58 440.287L875.445 439.297L875.31 438.306ZM883.495 439.2C884.042 439.124 884.424 438.619 884.348 438.072C884.272 437.525 883.767 437.143 883.22 437.219L883.357 438.21L883.495 439.2ZM891.102 436.114C890.555 436.191 890.174 436.697 890.252 437.244C890.329 437.791 890.835 438.172 891.382 438.094L891.242 437.104L891.102 436.114ZM899.242 436.97C899.789 436.891 900.168 436.384 900.089 435.837C900.01 435.291 899.503 434.911 898.956 434.99L899.099 435.98L899.242 436.97ZM906.782 433.849C906.236 433.929 905.858 434.437 905.939 434.984C906.019 435.53 906.527 435.908 907.074 435.827L906.928 434.838L906.782 433.849ZM914.987 434.65C915.534 434.568 915.91 434.059 915.828 433.512C915.746 432.966 915.236 432.59 914.69 432.672L914.839 433.661L914.987 434.65ZM922.572 431.476C922.026 431.56 921.652 432.07 921.735 432.616C921.819 433.162 922.329 433.537 922.875 433.453L922.724 432.465L922.572 431.476ZM930.733 432.238C931.279 432.152 931.652 431.641 931.567 431.095C931.481 430.55 930.97 430.176 930.424 430.261L930.579 431.25L930.733 432.238ZM938.246 429.028C937.7 429.115 937.328 429.628 937.415 430.173C937.502 430.718 938.015 431.09 938.56 431.003L938.403 430.016L938.246 429.028ZM946.421 429.74C946.966 429.652 947.336 429.138 947.248 428.593C947.159 428.048 946.646 427.678 946.1 427.766L946.261 428.753L946.421 429.74ZM953.982 426.475C953.437 426.565 953.068 427.08 953.158 427.625C953.248 428.17 953.763 428.539 954.308 428.449L954.145 427.462L953.982 426.475ZM962.162 427.138C962.707 427.046 963.074 426.53 962.982 425.986C962.89 425.441 962.374 425.074 961.83 425.166L961.996 426.152L962.162 427.138ZM969.644 423.837C969.1 423.931 968.734 424.448 968.828 424.992C968.921 425.536 969.438 425.902 969.983 425.808L969.813 424.823L969.644 423.837ZM977.79 424.456C978.334 424.361 978.698 423.843 978.603 423.299C978.507 422.755 977.989 422.391 977.445 422.486L977.617 423.471L977.79 424.456ZM985.324 421.096C984.78 421.193 984.418 421.713 984.514 422.256C984.611 422.8 985.13 423.162 985.674 423.065L985.499 422.081L985.324 421.096ZM993.523 421.655C994.066 421.557 994.427 421.036 994.328 420.493C994.23 419.949 993.709 419.589 993.166 419.687L993.344 420.671L993.523 421.655ZM1000.97 418.259C1000.43 418.359 1000.07 418.881 1000.17 419.424C1000.27 419.967 1000.79 420.326 1001.33 420.226L1001.15 419.242L1000.97 418.259ZM1009.11 418.777C1009.65 418.675 1010.01 418.152 1009.91 417.609C1009.81 417.067 1009.28 416.709 1008.74 416.811L1008.92 417.794L1009.11 418.777ZM1016.59 415.322C1016.05 415.425 1015.69 415.949 1015.8 416.492C1015.9 417.034 1016.43 417.39 1016.97 417.286L1016.78 416.304L1016.59 415.322ZM1024.81 415.771C1025.35 415.665 1025.7 415.14 1025.6 414.598C1025.49 414.056 1024.97 413.702 1024.43 413.808L1024.62 414.79L1024.81 415.771ZM1032.22 412.275C1031.68 412.382 1031.33 412.909 1031.43 413.451C1031.54 413.992 1032.07 414.344 1032.61 414.237L1032.41 413.256L1032.22 412.275ZM1040.37 412.683C1040.91 412.573 1041.26 412.046 1041.15 411.504C1041.04 410.963 1040.51 410.613 1039.97 410.722L1040.17 411.702L1040.37 412.683ZM1047.78 409.13C1047.24 409.241 1046.89 409.77 1047 410.311C1047.11 410.852 1047.64 411.2 1048.18 411.089L1047.98 410.11L1047.78 409.13ZM1056.01 409.464C1056.55 409.351 1056.9 408.821 1056.78 408.28C1056.67 407.74 1056.14 407.393 1055.6 407.507L1055.81 408.485L1056.01 409.464ZM1063.38 405.863C1062.84 405.978 1062.49 406.509 1062.61 407.05C1062.72 407.59 1063.25 407.934 1063.79 407.819L1063.59 406.841L1063.38 405.863ZM1071.54 406.154C1072.07 406.037 1072.42 405.504 1072.3 404.964C1072.18 404.425 1071.65 404.082 1071.11 404.199L1071.32 405.177L1071.54 406.154ZM1078.88 402.498C1078.34 402.617 1078 403.151 1078.12 403.69C1078.24 404.23 1078.77 404.57 1079.31 404.451L1079.09 403.474L1078.88 402.498ZM1087.12 402.709C1087.66 402.588 1088 402.053 1087.88 401.514C1087.76 400.976 1087.22 400.637 1086.68 400.758L1086.9 401.734L1087.12 402.709ZM1094.44 398.998C1093.9 399.121 1093.56 399.657 1093.69 400.196C1093.81 400.734 1094.34 401.071 1094.88 400.947L1094.66 399.973L1094.44 398.998ZM1102.6 399.164C1103.14 399.039 1103.47 398.501 1103.34 397.964C1103.22 397.426 1102.68 397.091 1102.14 397.217L1102.37 398.191L1102.6 399.164ZM1109.88 395.397C1109.34 395.525 1109.01 396.064 1109.13 396.601C1109.26 397.139 1109.8 397.471 1110.34 397.343L1110.11 396.37L1109.88 395.397ZM1118.13 395.478C1118.66 395.348 1118.99 394.808 1118.86 394.271C1118.73 393.734 1118.19 393.404 1117.66 393.534L1117.89 394.506L1118.13 395.478ZM1125.38 391.65C1124.85 391.782 1124.52 392.323 1124.65 392.86C1124.78 393.396 1125.32 393.724 1125.86 393.592L1125.62 392.621L1125.38 391.65ZM1133.54 391.684C1134.08 391.55 1134.4 391.007 1134.27 390.471C1134.13 389.935 1133.59 389.61 1133.06 389.744L1133.3 390.714L1133.54 391.684ZM1140.76 387.795C1140.23 387.932 1139.9 388.476 1140.04 389.011C1140.18 389.547 1140.72 389.87 1141.26 389.733L1141.01 388.764L1140.76 387.795ZM1149.01 387.736C1149.54 387.597 1149.87 387.051 1149.73 386.517C1149.59 385.982 1149.04 385.662 1148.51 385.8L1148.76 386.768L1149.01 387.736ZM1156.2 383.784C1155.66 383.925 1155.34 384.473 1155.49 385.006C1155.63 385.54 1156.17 385.859 1156.71 385.717L1156.45 384.751L1156.2 383.784ZM1164.35 383.676C1164.88 383.533 1165.2 382.984 1165.05 382.451C1164.91 381.917 1164.36 381.602 1163.83 381.745L1164.09 382.711L1164.35 383.676ZM1171.51 379.654C1170.98 379.8 1170.67 380.35 1170.81 380.883C1170.96 381.415 1171.51 381.728 1172.04 381.582L1171.78 380.618L1171.51 379.654ZM1179.76 379.444C1180.29 379.295 1180.6 378.744 1180.45 378.212C1180.3 377.68 1179.75 377.369 1179.22 377.518L1179.49 378.481L1179.76 379.444ZM1186.86 375.36C1186.32 375.512 1186.02 376.065 1186.17 376.596C1186.32 377.127 1186.87 377.435 1187.4 377.284L1187.13 376.322L1186.86 375.36ZM1194.99 375.101C1195.52 374.946 1195.83 374.392 1195.67 373.861C1195.52 373.331 1194.96 373.026 1194.43 373.18L1194.71 374.14L1194.99 375.101ZM1202.11 370.928C1201.58 371.084 1201.28 371.641 1201.44 372.17C1201.59 372.7 1202.15 373.002 1202.68 372.845L1202.39 371.886L1202.11 370.928ZM1210.33 370.556C1210.86 370.396 1211.16 369.838 1211 369.31C1210.84 368.781 1210.29 368.482 1209.76 368.641L1210.05 369.599L1210.33 370.556ZM1217.33 366.332C1216.8 366.494 1216.51 367.054 1216.67 367.582C1216.83 368.11 1217.39 368.406 1217.92 368.243L1217.63 367.288L1217.33 366.332ZM1225.47 365.897C1226 365.732 1226.29 365.171 1226.12 364.644C1225.96 364.117 1225.4 363.824 1224.87 363.989L1225.17 364.943L1225.47 365.897ZM1232.52 361.565C1231.99 361.733 1231.7 362.296 1231.87 362.822C1232.04 363.348 1232.6 363.638 1233.13 363.469L1232.82 362.517L1232.52 361.565ZM1240.71 361.017C1241.24 360.845 1241.52 360.281 1241.35 359.756C1241.18 359.231 1240.62 358.944 1240.09 359.116L1240.4 360.066L1240.71 361.017ZM1247.59 356.643C1247.06 356.818 1246.78 357.384 1246.95 357.908C1247.13 358.432 1247.69 358.715 1248.22 358.54L1247.9 357.592L1247.59 356.643ZM1255.78 355.995C1256.3 355.817 1256.58 355.249 1256.4 354.726C1256.22 354.203 1255.66 353.924 1255.13 354.102L1255.46 355.048L1255.78 355.995ZM1262.69 351.502C1262.17 351.684 1261.9 352.253 1262.08 352.775C1262.26 353.297 1262.83 353.573 1263.35 353.392L1263.02 352.447L1262.69 351.502ZM1270.84 350.763C1271.36 350.578 1271.63 350.007 1271.45 349.486C1271.26 348.966 1270.69 348.693 1270.17 348.878L1270.51 349.82L1270.84 350.763ZM1277.59 346.219C1277.07 346.407 1276.8 346.981 1276.99 347.5C1277.18 348.019 1277.75 348.288 1278.27 348.099L1277.93 347.159L1277.59 346.219ZM1285.82 345.332C1286.34 345.141 1286.61 344.565 1286.42 344.047C1286.22 343.529 1285.65 343.265 1285.13 343.457L1285.48 344.395L1285.82 345.332ZM1292.58 340.668C1292.06 340.864 1291.8 341.441 1292 341.957C1292.19 342.474 1292.77 342.734 1293.29 342.539L1292.93 341.603L1292.58 340.668ZM1300.65 339.718C1301.17 339.519 1301.43 338.94 1301.23 338.425C1301.03 337.91 1300.45 337.654 1299.93 337.853L1300.29 338.786L1300.65 339.718ZM1307.38 334.938C1306.87 335.141 1306.61 335.722 1306.82 336.236C1307.02 336.749 1307.6 337 1308.12 336.797L1307.75 335.867L1307.38 334.938ZM1315.54 333.824C1316.05 333.616 1316.3 333.033 1316.09 332.521C1315.88 332.009 1315.3 331.763 1314.79 331.97L1315.16 332.897L1315.54 333.824ZM1322.09 328.975C1321.58 329.187 1321.34 329.772 1321.55 330.282C1321.76 330.792 1322.34 331.034 1322.85 330.822L1322.47 329.899L1322.09 328.975ZM1330.2 327.737C1330.71 327.521 1330.95 326.933 1330.73 326.425C1330.51 325.917 1329.93 325.68 1329.42 325.896L1329.81 326.816L1330.2 327.737ZM1336.76 322.733C1336.26 322.954 1336.03 323.543 1336.25 324.05C1336.47 324.556 1337.06 324.788 1337.56 324.567L1337.16 323.65L1336.76 322.733ZM1344.81 321.368C1345.32 321.142 1345.54 320.551 1345.32 320.047C1345.09 319.542 1344.5 319.316 1344 319.542L1344.4 320.455L1344.81 321.368ZM1351.21 316.274C1350.71 316.504 1350.49 317.098 1350.72 317.6C1350.95 318.102 1351.54 318.322 1352.05 318.092L1351.63 317.183L1351.21 316.274ZM1359.33 314.707C1359.83 314.472 1360.04 313.876 1359.81 313.376C1359.57 312.877 1358.98 312.662 1358.48 312.898L1358.9 313.802L1359.33 314.707ZM1365.61 309.491C1365.11 309.731 1364.91 310.33 1365.15 310.827C1365.39 311.324 1365.98 311.532 1366.48 311.291L1366.05 310.391L1365.61 309.491ZM1373.61 307.793C1374.1 307.546 1374.31 306.946 1374.06 306.452C1373.81 305.957 1373.21 305.756 1372.72 306.002L1373.16 306.897L1373.61 307.793ZM1379.87 302.392C1379.38 302.643 1379.18 303.246 1379.43 303.738C1379.69 304.229 1380.29 304.423 1380.78 304.171L1380.32 303.282L1379.87 302.392ZM1387.81 300.517C1388.29 300.259 1388.48 299.654 1388.22 299.166C1387.97 298.678 1387.36 298.491 1386.87 298.748L1387.34 299.633L1387.81 300.517ZM1393.87 294.999C1393.38 295.263 1393.2 295.87 1393.47 296.355C1393.73 296.84 1394.34 297.019 1394.83 296.755L1394.35 295.877L1393.87 294.999ZM1401.84 292.874C1402.33 292.603 1402.5 291.994 1402.23 291.512C1401.96 291.031 1401.35 290.86 1400.86 291.13L1401.35 292.002L1401.84 292.874ZM1407.7 287.227C1407.22 287.505 1407.06 288.117 1407.33 288.594C1407.61 289.072 1408.22 289.234 1408.7 288.957L1408.2 288.092L1407.7 287.227ZM1415.6 284.881C1416.08 284.596 1416.23 283.982 1415.94 283.509C1415.66 283.035 1415.05 282.882 1414.57 283.167L1415.09 284.024L1415.6 284.881ZM1421.36 279.014C1420.89 279.306 1420.75 279.923 1421.04 280.392C1421.33 280.861 1421.95 281.004 1422.42 280.712L1421.89 279.863L1421.36 279.014ZM1429.06 276.498C1429.53 276.199 1429.66 275.58 1429.36 275.116C1429.06 274.652 1428.44 274.519 1427.98 274.818L1428.52 275.658L1429.06 276.498ZM1434.7 270.393C1434.24 270.701 1434.12 271.322 1434.42 271.781C1434.73 272.239 1435.35 272.361 1435.81 272.053L1435.25 271.223L1434.7 270.393ZM1442.36 267.567C1442.81 267.25 1442.92 266.627 1442.6 266.174C1442.29 265.722 1441.66 265.612 1441.21 265.928L1441.78 266.748L1442.36 267.567ZM1447.67 261.314C1447.22 261.64 1447.12 262.265 1447.45 262.711C1447.77 263.157 1448.4 263.255 1448.85 262.929L1448.26 262.122L1447.67 261.314ZM1455.26 258.137C1455.7 257.802 1455.79 257.174 1455.45 256.735C1455.12 256.296 1454.49 256.212 1454.05 256.548L1454.66 257.342L1455.26 258.137ZM1460.23 251.72C1459.79 252.065 1459.72 252.694 1460.07 253.125C1460.42 253.556 1461.04 253.626 1461.48 253.281L1460.85 252.5L1460.23 251.72ZM1467.72 248.154C1468.14 247.799 1468.19 247.168 1467.84 246.745C1467.48 246.323 1466.85 246.269 1466.43 246.625L1467.07 247.39L1467.72 248.154ZM1472.37 241.485C1471.96 241.852 1471.92 242.484 1472.29 242.897C1472.65 243.31 1473.29 243.347 1473.7 242.98L1473.04 242.233L1472.37 241.485ZM1479.64 237.551C1480.04 237.172 1480.06 236.539 1479.68 236.137C1479.3 235.735 1478.67 235.716 1478.26 236.095L1478.95 236.823L1479.64 237.551ZM1483.93 230.597C1483.54 230.988 1483.54 231.621 1483.93 232.011C1484.32 232.402 1484.95 232.401 1485.34 232.01L1484.63 231.304L1483.93 230.597ZM1490.9 226.251C1491.28 225.848 1491.26 225.215 1490.85 224.838C1490.45 224.461 1489.82 224.483 1489.44 224.887L1490.17 225.569L1490.9 226.251ZM1494.73 219.008C1494.37 219.425 1494.42 220.057 1494.83 220.419C1495.25 220.781 1495.88 220.736 1496.24 220.319L1495.49 219.664L1494.73 219.008ZM1501.37 214.217C1501.73 213.791 1501.67 213.161 1501.24 212.81C1500.81 212.458 1500.18 212.518 1499.83 212.944L1500.6 213.581L1501.37 214.217ZM1504.92 206.698C1504.58 207.128 1504.64 207.757 1505.07 208.104C1505.51 208.45 1506.13 208.381 1506.48 207.951L1505.7 207.324L1504.92 206.698ZM1511.5 201.616C1511.84 201.181 1511.77 200.552 1511.33 200.212C1510.9 199.872 1510.27 199.949 1509.93 200.385L1510.72 201L1511.5 201.616ZM1514.84 194.001C1514.51 194.441 1514.59 195.068 1515.03 195.401C1515.47 195.735 1516.1 195.648 1516.43 195.208L1515.64 194.604L1514.84 194.001ZM1521.26 188.721C1521.59 188.275 1521.49 187.65 1521.05 187.324C1520.6 186.998 1519.97 187.095 1519.65 187.541L1520.46 188.131L1521.26 188.721ZM1524.34 181C1524.02 181.451 1524.13 182.075 1524.58 182.393C1525.04 182.711 1525.66 182.602 1525.98 182.151L1525.16 181.575L1524.34 181ZM1530.57 175.491C1530.87 175.033 1530.75 174.411 1530.3 174.103C1529.84 173.794 1529.22 173.915 1528.91 174.373L1529.74 174.932L1530.57 175.491ZM1533.33 167.655C1533.03 168.119 1533.17 168.738 1533.63 169.036C1534.1 169.335 1534.72 169.2 1535.01 168.736L1534.17 168.195L1533.33 167.655ZM1539.31 161.873C1539.6 161.402 1539.45 160.786 1538.97 160.499C1538.5 160.212 1537.89 160.362 1537.6 160.833L1538.45 161.353L1539.31 161.873ZM1541.69 153.904C1541.42 154.383 1541.59 154.994 1542.06 155.268C1542.54 155.543 1543.15 155.377 1543.43 154.897L1542.56 154.4L1541.69 153.904ZM1547.35 147.807C1547.61 147.319 1547.43 146.714 1546.94 146.453C1546.45 146.193 1545.85 146.378 1545.59 146.865L1546.47 147.336L1547.35 147.807ZM1549.26 139.714C1549.01 140.209 1549.22 140.808 1549.71 141.052C1550.21 141.296 1550.81 141.092 1551.05 140.597L1550.15 140.155L1549.26 139.714ZM1554.5 133.263C1554.72 132.759 1554.5 132.168 1553.99 131.942C1553.49 131.717 1552.9 131.943 1552.67 132.447L1553.58 132.855L1554.5 133.263ZM1555.8 125.062C1555.59 125.575 1555.84 126.157 1556.36 126.362C1556.87 126.566 1557.45 126.317 1557.66 125.804L1556.73 125.433L1555.8 125.062ZM1560.5 118.192C1560.68 117.67 1560.4 117.1 1559.88 116.919C1559.36 116.738 1558.79 117.014 1558.61 117.536L1559.55 117.864L1560.5 118.192ZM1561.05 109.896C1560.9 110.426 1561.2 110.981 1561.73 111.135C1562.26 111.29 1562.82 110.985 1562.97 110.455L1562.01 110.175L1561.05 109.896ZM1565.02 102.601C1565.15 102.063 1564.81 101.526 1564.28 101.402C1563.74 101.277 1563.2 101.613 1563.08 102.151L1564.05 102.376L1565.02 102.601ZM1564.64 94.2959C1564.55 94.8407 1564.92 95.3557 1565.46 95.4461C1566.01 95.5365 1566.52 95.1681 1566.61 94.6233L1565.62 94.4596L1564.64 94.2959ZM1567.67 86.5534C1567.72 86.0036 1567.32 85.5153 1566.77 85.4626C1566.22 85.41 1565.73 85.813 1565.68 86.3627L1566.67 86.4581L1567.67 86.5534ZM1566.15 78.3902C1566.13 78.9423 1566.57 79.3991 1567.12 79.4103C1567.68 79.4216 1568.13 78.9831 1568.15 78.4309L1567.15 78.4105L1566.15 78.3902ZM1567.99 70.2807C1567.95 69.7294 1567.48 69.3096 1566.93 69.343C1566.38 69.3764 1565.96 69.8503 1565.99 70.4016L1566.99 70.3411L1567.99 70.2807ZM1565.17 62.463C1565.25 63.0094 1565.76 63.3873 1566.3 63.307C1566.85 63.2268 1567.23 62.7188 1567.15 62.1724L1566.16 62.3177L1565.17 62.463ZM1565.61 54.1654C1565.48 53.6282 1564.94 53.2965 1564.41 53.4246C1563.87 53.5526 1563.54 54.0919 1563.67 54.6292L1564.64 54.3973L1565.61 54.1654ZM1561.47 46.9613C1561.65 47.485 1562.21 47.7675 1562.74 47.5922C1563.26 47.4169 1563.54 46.8503 1563.37 46.3265L1562.42 46.6439L1561.47 46.9613ZM1560.44 38.7058C1560.22 38.1995 1559.63 37.9677 1559.12 38.1882C1558.62 38.4087 1558.39 38.998 1558.61 39.5043L1559.52 39.1051L1560.44 38.7058ZM1555.12 32.3398C1555.38 32.8258 1555.99 33.0072 1556.47 32.745C1556.96 32.4827 1557.14 31.8761 1556.88 31.39L1556 31.8649L1555.12 32.3398ZM1552.32 24.5915C1551.97 24.167 1551.34 24.1093 1550.91 24.4626C1550.49 24.8159 1550.43 25.4465 1550.78 25.871L1551.55 25.2312L1552.32 24.5915ZM1545.47 20.1559C1545.87 20.5392 1546.51 20.5277 1546.89 20.1301C1547.27 19.7325 1547.26 19.0995 1546.86 18.7161L1546.17 19.436L1545.47 20.1559ZM1540.78 13.4829C1540.34 13.1472 1539.72 13.2305 1539.38 13.669C1539.05 14.1075 1539.13 14.7352 1539.57 15.0709L1540.18 14.2769L1540.78 13.4829ZM1533.11 10.7098C1533.59 10.991 1534.2 10.8337 1534.48 10.3583C1534.77 9.88301 1534.61 9.26971 1534.13 8.98849L1533.62 9.84913L1533.11 10.7098ZM1526.98 5.33744C1526.47 5.11815 1525.88 5.35129 1525.66 5.85818C1525.45 6.36506 1525.68 6.95374 1526.19 7.17303L1526.58 6.25523L1526.98 5.33744ZM1518.86 4.56606C1519.4 4.71576 1519.95 4.40616 1520.1 3.87455C1520.25 3.34294 1519.94 2.79063 1519.41 2.64093L1519.14 3.6035L1518.86 4.56606ZM1511.53 1.01026C1510.98 0.937379 1510.48 1.3221 1510.4 1.86956C1510.33 2.41701 1510.72 2.91989 1511.26 2.99277L1511.4 2.00151L1511.53 1.01026ZM1503.52 2.54279C1504.08 2.53322 1504.52 2.07782 1504.51 1.52561C1504.5 0.973413 1504.04 0.533521 1503.49 0.543088L1503.51 1.54294L1503.52 2.54279ZM1495.47 1.30237C1494.92 1.39687 1494.56 1.91458 1494.65 2.45872C1494.75 3.00286 1495.27 3.36737 1495.81 3.27287L1495.64 2.28762L1495.47 1.30237ZM1488.3 5.1873C1488.83 5.0098 1489.11 4.44195 1488.93 3.91896C1488.75 3.39598 1488.18 3.1159 1487.66 3.2934L1487.98 4.24035L1488.3 5.1873ZM1480.26 6.45118C1479.77 6.7051 1479.57 7.30854 1479.83 7.79899C1480.08 8.28944 1480.69 8.48119 1481.18 8.22726L1480.72 7.33922L1480.26 6.45118ZM1474.56 12.2786C1475.01 11.9583 1475.11 11.3339 1474.79 10.884C1474.47 10.4341 1473.85 10.3291 1473.4 10.6494L1473.98 11.464L1474.56 12.2786ZM1467.16 15.7306C1466.76 16.1059 1466.74 16.7386 1467.11 17.1438C1467.49 17.549 1468.12 17.5732 1468.52 17.198L1467.84 16.4643L1467.16 15.7306ZM1463.13 22.8134C1463.49 22.3944 1463.44 21.7631 1463.02 21.4032C1462.6 21.0434 1461.97 21.0913 1461.61 21.5103L1462.37 22.1618L1463.13 22.8134ZM1456.72 27.8375C1456.4 28.2904 1456.51 28.9138 1456.96 29.2299C1457.42 29.5461 1458.04 29.4353 1458.36 28.9825L1457.54 28.41L1456.72 27.8375ZM1454.17 35.5919C1454.44 35.1132 1454.28 34.5018 1453.8 34.2265C1453.32 33.9511 1452.71 34.116 1452.43 34.5948L1453.3 35.0933L1454.17 35.5919ZM1448.72 41.6746C1448.48 42.173 1448.7 42.7699 1449.19 43.0079C1449.69 43.2459 1450.29 43.0348 1450.53 42.5364L1449.62 42.1055L1448.72 41.6746ZM1447.4 49.7052C1447.6 49.1921 1447.35 48.6105 1446.84 48.4062C1446.33 48.2019 1445.74 48.4522 1445.54 48.9653L1446.47 49.3353L1447.4 49.7052ZM426.603 717.999C426.355 717.03 426.355 717.03 426.355 717.03C426.355 717.03 426.355 717.03 426.355 717.03C426.355 717.03 426.355 717.03 426.355 717.03C426.355 717.03 426.355 717.03 426.354 717.03C426.354 717.03 426.353 717.031 426.352 717.031C426.349 717.032 426.346 717.032 426.341 717.034C426.332 717.036 426.317 717.04 426.298 717.045C426.259 717.054 426.202 717.069 426.125 717.089C425.972 717.127 425.743 717.185 425.44 717.261C424.834 717.413 423.933 717.638 422.754 717.929L422.993 718.9L423.233 719.871C424.415 719.579 425.318 719.354 425.927 719.201C426.231 719.125 426.462 719.066 426.616 719.027C426.693 719.008 426.752 718.993 426.791 718.983C426.81 718.978 426.825 718.974 426.835 718.972C426.84 718.971 426.843 718.97 426.846 718.969C426.847 718.969 426.848 718.968 426.849 718.968C426.849 718.968 426.849 718.968 426.85 718.968C426.85 718.968 426.85 718.968 426.85 718.968H426.85C426.85 718.968 426.85 718.968 426.603 717.999ZM415.216 720.787L414.983 719.815C412.719 720.356 410.143 720.966 407.278 721.635L407.505 722.609L407.732 723.582C410.601 722.913 413.181 722.302 415.448 721.76L415.216 720.787ZM399.823 724.382L399.6 723.407C397.21 723.953 394.68 724.526 392.02 725.121L392.239 726.097L392.457 727.073C395.12 726.477 397.652 725.904 400.046 725.357L399.823 724.382ZM384.473 727.817L384.258 726.84C381.767 727.386 379.185 727.947 376.519 728.52L376.729 729.498L376.939 730.476C379.608 729.902 382.193 729.341 384.687 728.794L384.473 727.817ZM369.067 731.128L368.861 730.149C366.313 730.686 363.7 731.231 361.026 731.782L361.228 732.762L361.43 733.741C364.107 733.189 366.722 732.644 369.273 732.106L369.067 731.128ZM353.597 734.32L353.399 733.34C350.833 733.858 348.22 734.381 345.56 734.906L345.754 735.887L345.948 736.868C348.61 736.342 351.227 735.819 353.795 735.3L353.597 734.32ZM338.094 737.385L337.904 736.404C335.337 736.9 332.733 737.398 330.095 737.897L330.28 738.879L330.466 739.862C333.107 739.363 335.714 738.864 338.284 738.367L338.094 737.385ZM322.559 740.322L322.378 739.338C319.814 739.811 317.222 740.284 314.604 740.755L314.781 741.739L314.958 742.723C317.58 742.252 320.175 741.779 322.741 741.305L322.559 740.322ZM306.991 743.123L306.818 742.138C304.258 742.587 301.676 743.034 299.073 743.478L299.241 744.464L299.409 745.449C302.015 745.005 304.601 744.557 307.164 744.108L306.991 743.123ZM291.392 745.783L291.229 744.796C288.669 745.22 286.092 745.641 283.499 746.057L283.658 747.045L283.816 748.032C286.412 747.615 288.992 747.194 291.555 746.769L291.392 745.783ZM275.83 748.281L275.677 747.293C273.093 747.695 270.496 748.091 267.888 748.483L268.036 749.472L268.185 750.461C270.797 750.069 273.397 749.672 275.984 749.27L275.83 748.281ZM260.233 750.621L260.09 749.631C257.486 750.007 254.873 750.377 252.252 750.741L252.389 751.731L252.527 752.722C255.152 752.358 257.769 751.987 260.376 751.611L260.233 750.621ZM244.588 752.79L244.457 751.799C241.851 752.144 239.24 752.483 236.624 752.814L236.749 753.806L236.875 754.798C239.495 754.466 242.11 754.128 244.72 753.781L244.588 752.79ZM228.913 754.771L228.794 753.778C226.185 754.091 223.574 754.395 220.962 754.69L221.074 755.684L221.186 756.677C223.803 756.382 226.419 756.077 229.032 755.764L228.913 754.771ZM213.225 756.543L213.12 755.549C210.501 755.826 207.882 756.093 205.266 756.35L205.364 757.346L205.461 758.341C208.083 758.083 210.707 757.815 213.33 757.537L213.225 756.543ZM197.513 758.086L197.423 757.09C194.797 757.328 192.174 757.554 189.557 757.768L189.638 758.765L189.72 759.762C192.343 759.547 194.971 759.32 197.603 759.082L197.513 758.086ZM181.762 759.375L181.689 758.378C179.07 758.569 176.457 758.748 173.853 758.913L173.917 759.911L173.98 760.909C176.591 760.743 179.209 760.564 181.835 760.373L181.762 759.375ZM165.994 760.375L165.941 759.376C163.314 759.517 160.697 759.642 158.092 759.753L158.135 760.752L158.177 761.752C160.789 761.64 163.413 761.514 166.048 761.373L165.994 760.375ZM150.227 761.044L150.196 760.044C147.552 760.126 144.922 760.191 142.309 760.239L142.328 761.239L142.346 762.238C144.968 762.19 147.606 762.125 150.258 762.043L150.227 761.044ZM134.474 761.33L134.469 760.33C131.804 760.343 129.158 760.336 126.533 760.31L126.523 761.31L126.513 762.31C129.148 762.336 131.803 762.343 134.479 762.33L134.474 761.33ZM118.703 761.168L118.729 760.168C116.053 760.098 113.404 760.005 110.782 759.889L110.738 760.888L110.693 761.887C113.327 762.004 115.989 762.097 118.676 762.168L118.703 761.168ZM102.9 760.464L102.964 759.466C100.301 759.295 97.6702 759.098 95.0753 758.873L94.989 759.869L94.9028 760.866C97.5132 761.092 100.158 761.29 102.836 761.462L102.9 760.464ZM87.1531 759.095L87.2641 758.101C84.6144 757.805 82.007 757.478 79.445 757.118L79.3058 758.108L79.1667 759.098C81.7484 759.461 84.3746 759.791 87.0421 760.089L87.1531 759.095ZM71.5169 756.888L71.688 755.903C69.0543 755.445 66.4761 754.95 63.9569 754.414L63.7489 755.392L63.5409 756.37C66.086 756.911 68.6889 757.412 71.3458 757.873L71.5169 756.888ZM56.0987 753.594L56.3493 752.626C53.7435 751.951 51.2125 751.227 48.7609 750.453L48.4597 751.407L48.1585 752.36C50.6458 753.146 53.2106 753.879 55.848 754.562L56.0987 753.594ZM41.1203 748.845L41.4798 747.911C38.9448 746.935 36.5142 745.894 34.1939 744.786L33.763 745.688L33.3322 746.591C35.7027 747.722 38.1812 748.784 40.7608 749.778L41.1203 748.845ZM26.8338 741.985L27.3475 741.127C25.0767 739.767 22.9451 738.327 20.9603 736.801L20.351 737.594L19.7417 738.387C21.7924 739.963 23.9884 741.447 26.3202 742.843L26.8338 741.985ZM14.407 732.333L15.1233 731.635C13.3027 729.767 11.6667 727.794 10.2248 725.712L9.40267 726.281L8.58059 726.85C10.0891 729.029 11.7968 731.087 13.6908 733.031L14.407 732.333ZM5.53538 719.451L6.44715 719.04C5.40328 716.723 4.56293 714.287 3.93727 711.729L2.9659 711.967L1.99453 712.204C2.64897 714.88 3.52902 717.431 4.62361 719.861L5.53538 719.451ZM1.75518 704.274L2.75229 704.198C2.65288 702.893 2.60254 701.56 2.60254 700.198H1.60254H0.602539C0.602539 701.61 0.654705 702.993 0.758068 704.35L1.75518 704.274ZM1.60254 700.198H2.60254C2.60254 698.881 2.62676 697.567 2.67513 696.256L1.67581 696.219L0.67649 696.182C0.627209 697.518 0.602539 698.857 0.602539 700.198H1.60254ZM2.26088 688.313L3.25473 688.423C3.54468 685.82 3.93106 683.229 4.41341 680.65L3.43046 680.466L2.44751 680.283C1.95612 682.91 1.56245 685.549 1.26703 688.202L2.26088 688.313ZM5.17118 672.735L6.13816 672.99C6.80449 670.461 7.56454 667.946 8.41787 665.444L7.47139 665.121L6.52491 664.798C5.6565 667.345 4.88274 669.905 4.2042 672.48L5.17118 672.735ZM10.2782 657.726L11.2007 658.112C12.2036 655.715 13.2937 653.332 14.4705 650.961L13.5748 650.517L12.6791 650.072C11.4836 652.48 10.3756 654.903 9.35573 657.34L10.2782 657.726ZM17.3392 643.487L18.2061 643.986C19.4924 641.749 20.8574 639.524 22.3008 637.313L21.4634 636.767L20.6261 636.22C19.1625 638.462 17.7778 640.718 16.4723 642.989L17.3392 643.487ZM25.9885 630.225L26.7958 630.816C28.3273 628.721 29.9307 626.639 31.6057 624.57L30.8284 623.941L30.0511 623.312C28.3561 625.406 26.7327 627.513 25.1813 629.635L25.9885 630.225ZM35.9474 617.906L36.6953 618.57C38.4305 616.615 40.2309 614.672 42.0963 612.742L41.3772 612.047L40.6582 611.352C38.7736 613.302 36.954 615.266 35.1995 617.242L35.9474 617.906ZM46.9582 606.494L47.6499 607.217C49.5473 605.4 51.5035 603.594 53.5183 601.802L52.8535 601.054L52.1887 600.307C50.1562 602.116 48.182 603.938 46.2666 605.772L46.9582 606.494ZM58.8017 595.937L59.4413 596.706C61.4618 595.025 63.5349 593.355 65.6605 591.696L65.0454 590.908L64.4302 590.119C62.2885 591.79 60.199 593.474 58.162 595.169L58.8017 595.937ZM71.3052 586.168L71.8974 586.974C74.0209 585.413 76.192 583.863 78.4105 582.324L77.8405 581.503L77.2705 580.681C75.0374 582.23 72.8514 583.791 70.7129 585.363L71.3052 586.168ZM84.3378 577.116L84.8871 577.951C87.089 576.504 89.3338 575.067 91.6215 573.64L91.0923 572.792L90.5631 571.943C88.2623 573.378 86.004 574.824 83.7885 576.28L84.3378 577.116ZM97.8031 568.71L98.3134 569.57C100.571 568.23 102.867 566.9 105.202 565.58L104.71 564.709L104.217 563.839C101.871 565.165 99.5624 566.503 97.2927 567.85L97.8031 568.71ZM111.631 560.885L112.106 561.765C114.404 560.525 116.736 559.294 119.103 558.072L118.644 557.184L118.186 556.295C115.808 557.522 113.465 558.759 111.156 560.005L111.631 560.885ZM125.772 553.585L126.215 554.481C128.54 553.333 130.897 552.193 133.285 551.062L132.857 550.159L132.429 549.255C130.031 550.39 127.665 551.535 125.329 552.688L125.772 553.585ZM140.13 546.786L140.544 547.696C142.907 546.623 145.299 545.558 147.72 544.502L147.32 543.585L146.92 542.669C144.49 543.729 142.089 544.798 139.717 545.875L140.13 546.786ZM154.619 540.463L155.006 541.385C157.439 540.365 159.9 539.352 162.389 538.349L162.015 537.421L161.641 536.494C159.144 537.501 156.674 538.517 154.232 539.541L154.619 540.463ZM169.321 534.53L169.683 535.462C172.14 534.508 174.623 533.561 177.132 532.623L176.782 531.686L176.431 530.75C173.915 531.691 171.424 532.64 168.959 533.598L169.321 534.53ZM184.229 528.952L184.568 529.893C187.02 529.009 189.496 528.132 191.995 527.263L191.667 526.319L191.339 525.374C188.832 526.245 186.349 527.125 183.889 528.011L184.229 528.952ZM199.247 523.731L199.564 524.679C202.038 523.85 204.534 523.028 207.053 522.213L206.745 521.261L206.437 520.31C203.912 521.127 201.409 521.951 198.929 522.783L199.247 523.731ZM214.28 518.866L214.578 519.82C217.109 519.03 219.66 518.246 222.233 517.471L221.945 516.513L221.656 515.556C219.076 516.333 216.519 517.119 213.982 517.911L214.28 518.866ZM229.501 514.273L229.781 515.233C232.293 514.502 234.825 513.777 237.376 513.059L237.105 512.096L236.834 511.133C234.277 511.853 231.739 512.58 229.222 513.313L229.501 514.273ZM244.827 509.96L245.089 510.925C247.61 510.24 250.15 509.561 252.708 508.889L252.454 507.922L252.2 506.954C249.636 507.628 247.091 508.308 244.564 508.995L244.827 509.96ZM260.103 505.946L260.349 506.915C262.914 506.264 265.497 505.619 268.098 504.981L267.86 504.009L267.622 503.038C265.015 503.678 262.427 504.324 259.857 504.977L260.103 505.946ZM275.571 502.15L275.802 503.123C278.341 502.52 280.897 501.925 283.47 501.335L283.247 500.36L283.023 499.385C280.446 499.976 277.885 500.573 275.34 501.177L275.571 502.15ZM291.022 498.608L291.238 499.585C293.822 499.012 296.423 498.446 299.041 497.886L298.831 496.909L298.622 495.931C296 496.492 293.395 497.059 290.805 497.632L291.022 498.608ZM306.518 495.292L306.721 496.271C309.296 495.739 311.887 495.212 314.493 494.692L314.297 493.711L314.101 492.731C311.491 493.252 308.896 493.779 306.316 494.313L306.518 495.292ZM322.168 492.167L322.357 493.149C324.92 492.655 327.498 492.166 330.09 491.684L329.907 490.701L329.724 489.717C327.128 490.201 324.546 490.69 321.978 491.185L322.168 492.167ZM337.678 489.279L337.855 490.263C340.458 489.795 343.074 489.333 345.705 488.877L345.534 487.892L345.364 486.907C342.729 487.363 340.108 487.826 337.501 488.295L337.678 489.279ZM353.405 486.551L353.57 487.538C356.14 487.108 358.723 486.684 361.32 486.265L361.16 485.278L361.001 484.29C358.401 484.71 355.814 485.135 353.24 485.565L353.405 486.551ZM368.994 484.037L369.147 485.025C371.77 484.617 374.405 484.215 377.054 483.819L376.906 482.83L376.758 481.841C374.105 482.238 371.466 482.64 368.84 483.049L368.994 484.037ZM384.741 481.678L384.884 482.668C387.472 482.295 390.071 481.927 392.683 481.565L392.546 480.574L392.408 479.584C389.793 479.947 387.19 480.315 384.599 480.689L384.741 481.678ZM400.423 479.502L400.555 480.494C403.191 480.142 405.84 479.795 408.5 479.454L408.373 478.463L408.246 477.471C405.582 477.812 402.93 478.159 400.291 478.511L400.423 479.502ZM416.192 477.48L416.314 478.473C418.914 478.153 421.525 477.838 424.147 477.528L424.03 476.535L423.913 475.542C421.287 475.852 418.673 476.167 416.07 476.488L416.192 477.48ZM431.936 475.62L432.048 476.614C434.693 476.314 437.35 476.02 440.017 475.731L439.909 474.736L439.801 473.742C437.131 474.032 434.472 474.327 431.823 474.626L431.936 475.62ZM447.731 473.907L447.834 474.902C450.441 474.631 453.059 474.365 455.688 474.105L455.589 473.11L455.491 472.114C452.859 472.375 450.238 472.641 447.627 472.912L447.731 473.907ZM463.511 472.342L463.605 473.338C466.255 473.087 468.915 472.841 471.586 472.6L471.496 471.605L471.406 470.609C468.733 470.85 466.07 471.096 463.417 471.347L463.511 472.342ZM479.338 470.915L479.424 471.911C482.035 471.687 484.657 471.468 487.288 471.253L487.207 470.256L487.126 469.26C484.491 469.474 481.867 469.694 479.253 469.918L479.338 470.915ZM495.134 469.627L495.211 470.624C497.862 470.419 500.522 470.219 503.193 470.023L503.12 469.026L503.047 468.029C500.374 468.224 497.71 468.424 495.057 468.63L495.134 469.627ZM511.002 468.465L511.071 469.463C513.683 469.283 516.305 469.107 518.936 468.935L518.871 467.938L518.806 466.94C516.172 467.111 513.548 467.287 510.933 467.468L511.002 468.465ZM526.795 467.437L526.856 468.436C529.505 468.274 532.163 468.116 534.831 467.964L534.773 466.965L534.716 465.967C532.046 466.12 529.385 466.277 526.734 466.439L526.795 467.437ZM542.712 466.526L542.765 467.525C545.376 467.385 547.995 467.25 550.623 467.12L550.574 466.121L550.524 465.122C547.894 465.253 545.272 465.388 542.658 465.527L542.712 466.526ZM558.487 465.742L558.533 466.741C561.178 466.62 563.832 466.503 566.494 466.39L566.452 465.391L566.41 464.392C563.745 464.505 561.089 464.622 558.441 464.743L558.487 465.742ZM574.463 465.067L574.502 466.066C577.109 465.965 579.724 465.869 582.347 465.777L582.312 464.777L582.276 463.778C579.651 463.87 577.034 463.967 574.424 464.068L574.463 465.067ZM590.209 464.514L590.24 465.513C592.879 465.43 595.527 465.351 598.182 465.276L598.154 464.276L598.126 463.277C595.468 463.352 592.818 463.431 590.177 463.514L590.209 464.514ZM606.147 464.065L606.172 465.065C607.508 465.032 608.845 465 610.185 464.969L610.162 463.969L610.139 462.97C608.798 463 607.459 463.032 606.122 463.065L606.147 464.065ZM610.162 463.969L610.215 464.968C611.544 464.898 612.872 464.827 614.2 464.755L614.146 463.757L614.092 462.758C612.765 462.83 611.438 462.901 610.109 462.971L610.162 463.969ZM622.105 463.318L622.161 464.317C624.813 464.168 627.463 464.015 630.11 463.86L630.052 462.862L629.993 461.864C627.347 462.019 624.699 462.171 622.049 462.32L622.105 463.318ZM637.986 462.388L638.047 463.387C640.69 463.226 643.331 463.062 645.97 462.895L645.907 461.897L645.844 460.899C643.206 461.066 640.567 461.229 637.925 461.39L637.986 462.388ZM653.853 461.386L653.919 462.384C656.573 462.21 659.225 462.033 661.875 461.853L661.807 460.855L661.739 459.858C659.091 460.037 656.441 460.214 653.788 460.388L653.853 461.386ZM669.746 460.307L669.816 461.305C672.461 461.119 675.104 460.93 677.743 460.739L677.671 459.741L677.599 458.744C674.96 458.936 672.319 459.124 669.676 459.31L669.746 460.307ZM685.581 459.158L685.656 460.155C688.309 459.957 690.961 459.755 693.609 459.55L693.532 458.553L693.455 457.556C690.808 457.761 688.158 457.962 685.506 458.161L685.581 459.158ZM701.478 457.929L701.557 458.926C704.204 458.715 706.848 458.501 709.489 458.284L709.407 457.288L709.326 456.291C706.686 456.508 704.043 456.722 701.398 456.932L701.478 457.929ZM717.321 456.629L717.405 457.625C720.042 457.402 722.677 457.176 725.309 456.948L725.222 455.951L725.135 454.955C722.505 455.184 719.872 455.409 717.236 455.632L717.321 456.629ZM733.175 455.251L733.264 456.247C735.913 456.01 738.559 455.77 741.202 455.528L741.111 454.532L741.019 453.536C738.378 453.778 735.734 454.018 733.086 454.255L733.175 455.251ZM749.028 453.795L749.122 454.791C751.759 454.542 754.393 454.291 757.023 454.036L756.927 453.041L756.831 452.046C754.202 452.3 751.57 452.551 748.934 452.8L749.028 453.795ZM764.835 452.266L764.933 453.261C767.585 452.998 770.233 452.732 772.878 452.463L772.777 451.468L772.676 450.473C770.032 450.742 767.386 451.008 764.736 451.271L764.835 452.266ZM780.699 450.652L780.803 451.647C783.441 451.372 786.076 451.094 788.707 450.813L788.601 449.819L788.495 448.824C785.865 449.105 783.232 449.383 780.595 449.658L780.699 450.652ZM796.482 448.967L796.59 449.961C799.234 449.672 801.875 449.38 804.512 449.085L804.401 448.091L804.29 447.097C801.654 447.392 799.015 447.684 796.373 447.973L796.482 448.967ZM812.328 447.194L812.442 448.187C815.082 447.885 817.718 447.58 820.35 447.271L820.234 446.278L820.117 445.285C817.487 445.593 814.853 445.898 812.215 446.2L812.328 447.194ZM828.116 445.345L828.235 446.338C830.86 446.023 833.482 445.706 836.1 445.386L835.979 444.393L835.857 443.4C833.241 443.72 830.621 444.038 827.997 444.352L828.116 445.345ZM843.912 443.411L844.036 444.404C846.677 444.073 849.314 443.74 851.947 443.404L851.821 442.412L851.694 441.42C849.063 441.756 846.427 442.089 843.788 442.419L843.912 443.411ZM859.704 441.394L859.834 442.385C862.458 442.043 865.078 441.697 867.695 441.349L867.562 440.358L867.43 439.366C864.816 439.715 862.198 440.06 859.575 440.402L859.704 441.394ZM875.445 439.297L875.58 440.287C878.223 439.928 880.861 439.566 883.495 439.2L883.357 438.21L883.22 437.219C880.588 437.584 877.951 437.947 875.31 438.306L875.445 439.297ZM891.242 437.104L891.382 438.094C894.007 437.723 896.627 437.348 899.242 436.97L899.099 435.98L898.956 434.99C896.343 435.368 893.724 435.743 891.102 436.114L891.242 437.104ZM906.928 434.838L907.074 435.827C909.716 435.438 912.354 435.045 914.987 434.65L914.839 433.661L914.69 432.672C912.059 433.067 909.423 433.46 906.782 433.849L906.928 434.838ZM922.724 432.465L922.875 433.453C925.5 433.051 928.119 432.646 930.733 432.238L930.579 431.25L930.424 430.261C927.812 430.669 925.195 431.074 922.572 431.476L922.724 432.465ZM938.403 430.016L938.56 431.003C941.185 430.585 943.806 430.164 946.421 429.74L946.261 428.753L946.1 427.766C943.487 428.19 940.869 428.611 938.246 429.028L938.403 430.016ZM954.145 427.462L954.308 428.449C956.931 428.015 959.549 427.578 962.162 427.138L961.996 426.152L961.83 425.166C959.219 425.605 956.603 426.042 953.982 426.475L954.145 427.462ZM969.813 424.823L969.983 425.808C972.591 425.361 975.193 424.91 977.79 424.456L977.617 423.471L977.445 422.486C974.851 422.94 972.25 423.39 969.644 423.837L969.813 424.823ZM985.499 422.081L985.674 423.065C988.296 422.599 990.913 422.129 993.523 421.655L993.344 420.671L993.166 419.687C990.558 420.16 987.944 420.63 985.324 421.096L985.499 422.081ZM1001.15 419.242L1001.33 420.226C1003.93 419.746 1006.52 419.263 1009.11 418.777L1008.92 417.794L1008.74 416.811C1006.16 417.297 1003.57 417.78 1000.97 418.259L1001.15 419.242ZM1016.78 416.304L1016.97 417.286C1019.59 416.784 1022.2 416.279 1024.81 415.771L1024.62 414.79L1024.43 413.808C1021.82 414.316 1019.21 414.82 1016.59 415.322L1016.78 416.304ZM1032.41 413.256L1032.61 414.237C1035.2 413.722 1037.79 413.204 1040.37 412.683L1040.17 411.702L1039.97 410.722C1037.39 411.243 1034.81 411.761 1032.22 412.275L1032.41 413.256ZM1047.98 410.11L1048.18 411.089C1050.8 410.551 1053.41 410.009 1056.01 409.464L1055.81 408.485L1055.6 407.507C1053 408.051 1050.39 408.592 1047.78 409.13L1047.98 410.11ZM1063.59 406.841L1063.79 407.819C1066.38 407.267 1068.96 406.712 1071.54 406.154L1071.32 405.177L1071.11 404.199C1068.54 404.757 1065.96 405.312 1063.38 405.863L1063.59 406.841ZM1079.09 403.474L1079.31 404.451C1081.92 403.874 1084.52 403.293 1087.12 402.709L1086.9 401.734L1086.68 400.758C1084.09 401.342 1081.49 401.922 1078.88 402.498L1079.09 403.474ZM1094.66 399.973L1094.88 400.947C1097.46 400.356 1100.03 399.762 1102.6 399.164L1102.37 398.191L1102.14 397.217C1099.58 397.814 1097.01 398.408 1094.44 398.998L1094.66 399.973ZM1110.11 396.37L1110.34 397.343C1112.94 396.725 1115.54 396.103 1118.13 395.478L1117.89 394.506L1117.66 393.534C1115.07 394.159 1112.48 394.78 1109.88 395.397L1110.11 396.37ZM1125.62 392.621L1125.86 393.592C1128.43 392.959 1130.99 392.323 1133.54 391.684L1133.3 390.714L1133.06 389.744C1130.51 390.383 1127.95 391.018 1125.38 391.65L1125.62 392.621ZM1141.01 388.764L1141.26 389.733C1143.85 389.071 1146.44 388.405 1149.01 387.736L1148.76 386.768L1148.51 385.8C1145.93 386.469 1143.35 387.134 1140.76 387.795L1141.01 388.764ZM1156.45 384.751L1156.71 385.717C1159.26 385.041 1161.81 384.36 1164.35 383.676L1164.09 382.711L1163.83 381.745C1161.29 382.428 1158.75 383.108 1156.2 383.784L1156.45 384.751ZM1171.78 380.618L1172.04 381.582C1174.62 380.873 1177.2 380.161 1179.76 379.444L1179.49 378.481L1179.22 377.518C1176.66 378.234 1174.09 378.946 1171.51 379.654L1171.78 380.618ZM1187.13 376.322L1187.4 377.284C1189.94 376.56 1192.47 375.832 1194.99 375.101L1194.71 374.14L1194.43 373.18C1191.92 373.91 1189.39 374.637 1186.86 375.36L1187.13 376.322ZM1202.39 371.886L1202.68 372.845C1205.24 372.086 1207.79 371.323 1210.33 370.556L1210.05 369.599L1209.76 368.641C1207.22 369.407 1204.67 370.169 1202.11 370.928L1202.39 371.886ZM1217.63 367.288L1217.92 368.243C1220.45 367.465 1222.97 366.683 1225.47 365.897L1225.17 364.943L1224.87 363.989C1222.37 364.774 1219.86 365.555 1217.33 366.332L1217.63 367.288ZM1232.82 362.517L1233.13 363.469C1235.67 362.656 1238.2 361.838 1240.71 361.017L1240.4 360.066L1240.09 359.116C1237.58 359.936 1235.06 360.752 1232.52 361.565L1232.82 362.517ZM1247.9 357.592L1248.22 358.54C1250.75 357.696 1253.27 356.848 1255.78 355.995L1255.46 355.048L1255.13 354.102C1252.63 354.953 1250.11 355.8 1247.59 356.643L1247.9 357.592ZM1263.02 352.447L1263.35 353.392C1265.86 352.52 1268.36 351.643 1270.84 350.763L1270.51 349.82L1270.17 348.878C1267.69 349.757 1265.2 350.632 1262.69 351.502L1263.02 352.447ZM1277.93 347.159L1278.27 348.099C1280.8 347.181 1283.32 346.259 1285.82 345.332L1285.48 344.395L1285.13 343.457C1282.63 344.382 1280.12 345.303 1277.59 346.219L1277.93 347.159ZM1292.93 341.603L1293.29 342.539C1295.76 341.603 1298.21 340.663 1300.65 339.718L1300.29 338.786L1299.93 337.853C1297.5 338.796 1295.05 339.734 1292.58 340.668L1292.93 341.603ZM1307.75 335.867L1308.12 336.797C1310.61 335.811 1313.08 334.819 1315.54 333.824L1315.16 332.897L1314.79 331.97C1312.33 332.964 1309.86 333.953 1307.38 334.938L1307.75 335.867ZM1322.47 329.899L1322.85 330.822C1325.32 329.799 1327.77 328.77 1330.2 327.737L1329.81 326.816L1329.42 325.896C1326.99 326.927 1324.55 327.953 1322.09 328.975L1322.47 329.899ZM1337.16 323.65L1337.56 324.567C1340 323.505 1342.41 322.439 1344.81 321.368L1344.4 320.455L1344 319.542C1341.6 320.611 1339.19 321.674 1336.76 322.733L1337.16 323.65ZM1351.63 317.183L1352.05 318.092C1354.49 316.969 1356.92 315.841 1359.33 314.707L1358.9 313.802L1358.48 312.898C1356.08 314.028 1353.65 315.154 1351.21 316.274L1351.63 317.183ZM1366.05 310.391L1366.48 311.291C1368.88 310.13 1371.26 308.964 1373.61 307.793L1373.16 306.897L1372.72 306.002C1370.37 307.17 1368 308.333 1365.61 309.491L1366.05 310.391ZM1380.32 303.282L1380.78 304.171C1383.15 302.959 1385.49 301.741 1387.81 300.517L1387.34 299.633L1386.87 298.748C1384.56 299.968 1382.23 301.183 1379.87 302.392L1380.32 303.282ZM1394.35 295.877L1394.83 296.755C1397.19 295.467 1399.53 294.174 1401.84 292.874L1401.35 292.002L1400.86 291.13C1398.56 292.425 1396.23 293.715 1393.87 294.999L1394.35 295.877ZM1408.2 288.092L1408.7 288.957C1411.03 287.604 1413.33 286.246 1415.6 284.881L1415.09 284.024L1414.57 283.167C1412.31 284.526 1410.02 285.88 1407.7 287.227L1408.2 288.092ZM1421.89 279.863L1422.42 280.712C1424.66 279.314 1426.88 277.909 1429.06 276.498L1428.52 275.658L1427.98 274.818C1425.8 276.223 1423.6 277.622 1421.36 279.014L1421.89 279.863ZM1435.25 271.223L1435.81 272.053C1438.03 270.565 1440.21 269.069 1442.36 267.567L1441.78 266.748L1441.21 265.928C1439.07 267.423 1436.9 268.911 1434.7 270.393L1435.25 271.223ZM1448.26 262.122L1448.85 262.929C1451.02 261.339 1453.16 259.742 1455.26 258.137L1454.66 257.342L1454.05 256.548C1451.96 258.143 1449.83 259.732 1447.67 261.314L1448.26 262.122ZM1460.85 252.5L1461.48 253.281C1463.6 251.58 1465.68 249.871 1467.72 248.154L1467.07 247.39L1466.43 246.625C1464.41 248.331 1462.34 250.029 1460.23 251.72L1460.85 252.5ZM1473.04 242.233L1473.7 242.98C1475.73 241.179 1477.7 239.369 1479.64 237.551L1478.95 236.823L1478.26 236.095C1476.35 237.9 1474.38 239.696 1472.37 241.485L1473.04 242.233ZM1484.63 231.304L1485.34 232.01C1487.25 230.1 1489.1 228.18 1490.9 226.251L1490.17 225.569L1489.44 224.887C1487.66 226.798 1485.82 228.702 1483.93 230.597L1484.63 231.304ZM1495.49 219.664L1496.24 220.319C1497.11 219.326 1497.95 218.33 1498.79 217.333L1498.02 216.692L1497.25 216.05C1496.43 217.038 1495.59 218.024 1494.73 219.008L1495.49 219.664ZM1498.02 216.692L1498.79 217.333C1499.66 216.295 1500.52 215.256 1501.37 214.217L1500.6 213.581L1499.83 212.944C1498.98 213.98 1498.12 215.015 1497.25 216.05L1498.02 216.692ZM1505.7 207.324L1506.48 207.951C1508.18 205.84 1509.85 203.729 1511.5 201.616L1510.72 201L1509.93 200.385C1508.28 202.49 1506.61 204.594 1504.92 206.698L1505.7 207.324ZM1515.64 194.604L1516.43 195.208C1518.07 193.046 1519.68 190.884 1521.26 188.721L1520.46 188.131L1519.65 187.541C1518.07 189.694 1516.47 191.847 1514.84 194.001L1515.64 194.604ZM1525.16 181.575L1525.98 182.151C1527.54 179.93 1529.07 177.71 1530.57 175.491L1529.74 174.932L1528.91 174.373C1527.42 176.581 1525.9 178.79 1524.34 181L1525.16 181.575ZM1534.17 168.195L1535.01 168.736C1536.48 166.447 1537.92 164.159 1539.31 161.873L1538.45 161.353L1537.6 160.833C1536.22 163.105 1534.79 165.379 1533.33 167.655L1534.17 168.195ZM1542.56 154.4L1543.43 154.897C1544.78 152.531 1546.09 150.168 1547.35 147.807L1546.47 147.336L1545.59 146.865C1544.34 149.208 1543.04 151.554 1541.69 153.904L1542.56 154.4ZM1550.15 140.155L1551.05 140.597C1552.26 138.148 1553.41 135.704 1554.5 133.263L1553.58 132.855L1552.67 132.447C1551.59 134.864 1550.45 137.286 1549.26 139.714L1550.15 140.155ZM1556.73 125.433L1557.66 125.804C1558.67 123.261 1559.62 120.724 1560.5 118.192L1559.55 117.864L1558.61 117.536C1557.74 120.038 1556.8 122.547 1555.8 125.062L1556.73 125.433ZM1562.01 110.175L1562.97 110.455C1563.74 107.83 1564.42 105.212 1565.02 102.601L1564.05 102.376L1563.08 102.151C1562.48 104.723 1561.81 107.305 1561.05 109.896L1562.01 110.175ZM1565.62 94.4596L1566.61 94.6233C1567.06 91.9238 1567.41 89.2335 1567.67 86.5534L1566.67 86.4581L1565.68 86.3627C1565.43 88.9953 1565.08 91.64 1564.64 94.2959L1565.62 94.4596ZM1567.15 78.4105L1568.15 78.4309C1568.2 75.7019 1568.15 72.9848 1567.99 70.2807L1566.99 70.3411L1565.99 70.4016C1566.15 73.0504 1566.2 75.7135 1566.15 78.3902L1567.15 78.4105ZM1566.16 62.3177L1567.15 62.1724C1566.75 59.4885 1566.24 56.8191 1565.61 54.1654L1564.64 54.3973L1563.67 54.6292C1564.28 57.2249 1564.78 59.8365 1565.17 62.463L1566.16 62.3177ZM1562.42 46.6439L1563.37 46.3265C1562.51 43.7695 1561.54 41.229 1560.44 38.7058L1559.52 39.1051L1558.61 39.5043C1559.68 41.974 1560.64 44.4599 1561.47 46.9613L1562.42 46.6439ZM1556 31.8649L1556.88 31.39C1556.23 30.1988 1555.56 29.0118 1554.86 27.8293L1554 28.3395L1553.14 28.8497C1553.83 30.0092 1554.49 31.1726 1555.12 32.3398L1556 31.8649ZM1554 28.3395L1554.8 27.7418C1554 26.6643 1553.17 25.6139 1552.32 24.5915L1551.55 25.2312L1550.78 25.871C1551.61 26.8659 1552.42 27.8883 1553.2 28.9373L1554 28.3395ZM1546.17 19.436L1546.86 18.7161C1544.92 16.8411 1542.89 15.094 1540.78 13.4829L1540.18 14.2769L1539.57 15.0709C1541.61 16.6354 1543.58 18.3329 1545.47 20.1559L1546.17 19.436ZM1533.62 9.84913L1534.13 8.98849C1531.81 7.61297 1529.42 6.39287 1526.98 5.33744L1526.58 6.25523L1526.19 7.17303C1528.55 8.19441 1530.86 9.37614 1533.11 10.7098L1533.62 9.84913ZM1519.14 3.6035L1519.41 2.64093C1516.81 1.91033 1514.18 1.36338 1511.53 1.01026L1511.4 2.00151L1511.26 2.99277C1513.82 3.33308 1516.36 3.86051 1518.86 4.56606L1519.14 3.6035ZM1503.51 1.54294L1503.49 0.543088C1500.81 0.589431 1498.13 0.839231 1495.47 1.30237L1495.64 2.28762L1495.81 3.27287C1498.37 2.82766 1500.95 2.58737 1503.52 2.54279L1503.51 1.54294ZM1487.98 4.24035L1487.66 3.2934C1485.16 4.14182 1482.69 5.19177 1480.26 6.45118L1480.72 7.33922L1481.18 8.22726C1483.52 7.01376 1485.9 6.00328 1488.3 5.1873L1487.98 4.24035ZM1473.98 11.464L1473.4 10.6494C1471.27 12.163 1469.19 13.8548 1467.16 15.7306L1467.84 16.4643L1468.52 17.198C1470.49 15.3789 1472.5 13.7413 1474.56 12.2786L1473.98 11.464ZM1462.37 22.1618L1461.61 21.5103C1459.93 23.4715 1458.29 25.5793 1456.72 27.8375L1457.54 28.41L1458.36 28.9825C1459.9 26.777 1461.49 24.7222 1463.13 22.8134L1462.37 22.1618ZM1453.3 35.0933L1452.43 34.5948C1451.15 36.8344 1449.91 39.1934 1448.72 41.6746L1449.62 42.1055L1450.53 42.5364C1451.69 40.0996 1452.91 37.7857 1454.17 35.5919L1453.3 35.0933ZM1446.47 49.3353L1445.54 48.9653C1445.05 50.1931 1444.57 51.4465 1444.11 52.7257L1445.05 53.0671L1445.99 53.4084C1446.45 52.1481 1446.92 50.9137 1447.4 49.7052L1446.47 49.3353Z" fill="#C4C4C4"/>
</svg>
