<svg width="463" height="20" viewBox="0 0 463 20" fill="none" xmlns="http://www.w3.org/2000/svg">
<path d="M434.635 10.2715C434.002 10.2874 433.363 10.2984 432.744 10.3221C432.342 10.337 432.167 10.2938 431.898 10.2712C431.808 10.2633 431.712 10.2476 431.629 10.2496C431.003 10.2655 430.377 10.2834 429.751 10.3012C429.56 10.3396 429.44 10.3908 429.147 10.4096C428.86 10.4273 428.521 10.4274 428.202 10.4364C427.78 10.4473 427.358 10.4582 426.937 10.4681C426.726 10.4731 426.554 10.4918 426.485 10.5273C426.472 10.5332 426.613 10.5479 426.69 10.5567C426.947 10.5862 427.198 10.6196 427.48 10.6421C427.749 10.6637 428.081 10.6282 428.369 10.6557C429.018 10.7175 429.024 10.7165 429.516 10.7046C429.938 10.6937 430.359 10.6818 430.781 10.6738C430.864 10.6718 430.96 10.6866 431.05 10.6944C431.32 10.716 431.494 10.7651 431.89 10.7464C432.19 10.7315 432.522 10.7285 432.835 10.7205C433.099 10.749 433.343 10.7814 433.625 10.804C433.888 10.8256 433.965 10.8423 433.826 10.8708C433.699 10.8974 433.52 10.9083 433.283 10.9103C433.072 10.9113 432.862 10.9202 432.651 10.9252C432.542 10.9282 432.44 10.9302 432.338 10.9332C431.935 10.9441 431.935 10.9441 431.198 10.8813C430.909 10.8568 430.584 10.8913 430.308 10.8677C430.122 10.852 429.962 10.8285 429.782 10.8118C429.705 10.8049 429.583 10.804 429.488 10.806C429.168 10.8129 428.849 10.8179 428.542 10.8308C428.325 10.8397 428.198 10.8673 428.225 10.8948C428.232 10.9056 428.386 10.9213 428.475 10.9223C428.68 10.9242 428.897 10.9104 429.095 10.9172C429.287 10.9241 429.486 10.9437 429.628 10.9653C429.917 11.0105 430.242 10.9701 430.517 10.9818C430.805 10.9945 431.043 11.0338 431.319 11.0574C431.39 11.0632 431.524 11.0534 431.632 11.0504C431.945 11.0434 432.259 11.0375 432.572 11.0305C432.835 11.059 433.117 11.0845 433.355 11.1169C433.786 11.1758 434.247 11.1983 434.802 11.1697C435.115 11.1538 435.422 11.1597 435.673 11.198C435.93 11.2373 436.224 11.2333 436.55 11.2253C436.85 11.2174 437.156 11.1957 437.464 11.2231C438.132 11.284 438.138 11.2869 438.924 11.2631C439.16 11.2562 439.339 11.2542 439.519 11.2767C439.686 11.2974 439.866 11.315 440.039 11.3347C440.352 11.3277 440.672 11.3207 440.985 11.3128C441.387 11.3019 441.611 11.3156 441.709 11.3707C441.768 11.4041 441.795 11.4346 441.936 11.4572C442.104 11.4847 442.283 11.4837 442.525 11.4757C442.755 11.4688 442.921 11.4579 443.016 11.4225C443.054 11.4077 443.13 11.3939 443.2 11.3821C443.257 11.3732 443.346 11.3595 443.397 11.3614C443.493 11.3653 443.621 11.3761 443.654 11.3889C443.972 11.5078 443.972 11.5088 444.293 11.5432C444.646 11.5815 445.012 11.6158 445.333 11.659C445.622 11.6973 445.909 11.6805 446.222 11.6805C446.459 11.6804 446.614 11.7059 446.595 11.7315C446.583 11.7463 446.494 11.7679 446.418 11.7699C445.792 11.7897 445.159 11.8066 444.527 11.8206C444.45 11.8225 444.353 11.8049 444.264 11.796C444.084 11.7784 443.923 11.7508 443.731 11.745C443.539 11.7391 443.316 11.7539 443.105 11.7589C442.894 11.7639 442.671 11.7767 442.478 11.7689C442.286 11.7611 442.132 11.7326 441.952 11.7139C441.869 11.7051 441.753 11.6923 441.683 11.6953C441.217 11.719 440.87 11.6867 440.536 11.6434C440.466 11.6346 440.344 11.6287 440.255 11.6307C439.513 11.6476 438.779 11.6675 438.038 11.6863C437.737 11.6943 437.493 11.6599 437.427 11.6019C437.394 11.5694 437.329 11.537 437.328 11.5045C437.325 11.4455 436.972 11.4131 436.717 11.4201C436.295 11.43 435.867 11.438 435.452 11.4528C435.114 11.4647 434.825 11.453 434.594 11.4176C434.324 11.3773 434.017 11.3853 433.711 11.3962C433.481 11.4041 433.418 11.4366 433.434 11.5182C433.449 11.5841 433.341 11.6048 432.926 11.6158C432.402 11.6297 431.871 11.6436 431.341 11.6545C431.258 11.6565 431.162 11.6398 431.078 11.631C430.898 11.6133 430.737 11.5848 430.545 11.5789C430.353 11.5721 430.13 11.5869 429.919 11.5929C429.708 11.5978 429.485 11.6117 429.293 11.6048C429.101 11.598 428.94 11.5685 428.767 11.5499C428.683 11.541 428.58 11.5283 428.497 11.5302C428.076 11.5382 427.654 11.5501 427.232 11.561C426.76 11.573 426.76 11.573 426.086 11.5121C425.778 11.4847 425.472 11.5064 425.172 11.5143C424.852 11.5223 424.552 11.5263 424.301 11.487C424.134 11.4614 423.948 11.4458 423.75 11.4507C423.219 11.4626 422.696 11.4775 422.165 11.4895C422.076 11.4915 421.954 11.4866 421.883 11.4777C421.543 11.4365 421.209 11.4041 420.737 11.4249C420.328 11.4427 419.887 11.4438 419.478 11.4606C419.255 11.4695 419.154 11.501 419.199 11.5256C419.225 11.5384 419.36 11.5531 419.45 11.5531C419.654 11.554 419.878 11.5392 420.07 11.5451C420.467 11.5568 420.668 11.6393 421.185 11.6166C421.491 11.6028 421.811 11.5978 422.131 11.5937C422.214 11.5927 422.304 11.6114 422.394 11.6212C422.651 11.6477 422.876 11.6821 423.246 11.6643C423.552 11.6505 423.878 11.6465 424.191 11.6385C424.69 11.6256 424.69 11.6266 425.338 11.6864C425.646 11.7149 425.952 11.6922 426.252 11.6852C426.476 11.6803 426.686 11.6704 426.866 11.6841C427.142 11.7047 427.342 11.7519 427.68 11.7488C428 11.7458 428.313 11.732 428.632 11.727C428.831 11.724 429.017 11.7397 429.177 11.7662C429.345 11.7927 429.524 11.8045 429.741 11.7985C430.054 11.7906 430.374 11.7807 430.693 11.7757C430.783 11.7747 430.886 11.7835 430.969 11.7913C431.149 11.809 431.322 11.8296 431.495 11.8483C431.808 11.8423 432.128 11.8403 432.435 11.8284C432.671 11.8195 432.837 11.8234 433.03 11.843C433.274 11.8695 433.474 11.9167 433.869 11.8939C434.067 11.8831 434.298 11.886 434.495 11.8761C434.738 11.8632 434.904 11.8681 435.078 11.8976C435.406 11.9536 435.816 11.9545 436.237 11.9327C436.696 11.909 437.043 11.9365 437.39 11.9797C437.756 12.0248 437.756 12.0238 438.041 12.133C438.125 12.1644 438.362 12.1791 438.56 12.1732C438.893 12.1633 439.181 12.1681 439.425 12.2054C439.682 12.2457 439.989 12.2407 440.302 12.2298C440.717 12.215 441.132 12.2021 441.473 12.2591C441.641 12.2866 441.82 12.2934 442.043 12.2865C442.676 12.2686 443.315 12.2576 443.934 12.2359C444.311 12.222 444.53 12.2534 444.786 12.2799C445.133 12.3162 445.512 12.3486 445.514 12.4263C445.515 12.4391 445.605 12.4538 445.682 12.4637C445.849 12.4843 446.029 12.5019 446.202 12.5216C446.459 12.551 446.709 12.5756 447.06 12.5597C447.367 12.5469 447.693 12.5429 448.006 12.5339C448.319 12.525 448.606 12.52 448.889 12.5573C449.217 12.5996 449.564 12.6398 449.936 12.6712C450.199 12.6938 450.543 12.6553 450.825 12.6858C450.998 12.7044 451.165 12.726 451.351 12.7417C451.428 12.7486 451.55 12.7436 451.652 12.7416C451.863 12.7376 452.08 12.7346 452.285 12.7248C452.521 12.7139 452.7 12.7158 452.88 12.7384C453.047 12.759 453.214 12.7875 453.406 12.7933C453.694 12.8021 454.012 12.7627 454.302 12.8079C454.45 12.8305 454.636 12.8521 454.828 12.8589C455.02 12.8658 455.243 12.8509 455.448 12.8519C455.538 12.8519 455.647 12.8676 455.698 12.8804C455.731 12.8872 455.687 12.9059 455.642 12.9158C455.585 12.9276 455.503 12.9434 455.42 12.9454C454.787 12.9632 454.155 12.9781 453.522 12.995C453.145 13.0049 453.145 13.0049 452.382 12.9431C452.202 12.9284 452.004 12.9314 451.781 12.9383C451.481 12.9473 451.174 12.9641 450.86 12.9464C450.449 12.8796 449.943 12.8739 449.407 12.8996C449.184 12.9104 448.979 12.9105 448.812 12.8918C448.459 12.8545 448.087 12.8202 447.772 12.776C447.528 12.7416 447.412 12.7387 447.312 12.786C447.28 12.8007 447.249 12.8165 447.256 12.8302C447.296 12.8794 447.368 12.9276 447.408 12.9768C447.421 12.9905 447.371 13.0063 447.34 13.0211C447.239 13.0624 447.104 13.0595 446.879 13.0251C446.654 12.9907 446.385 12.9682 446.027 12.984C445.721 12.9978 445.388 12.996 445.082 13.0108C444.609 13.0325 444.276 13.0011 443.935 12.9589C443.865 12.9501 443.743 12.9452 443.653 12.9472C442.702 12.97 441.756 12.9958 440.804 13.0187C440.6 13.0237 440.414 13.009 440.253 12.9824C440.086 12.9559 439.9 12.9422 439.695 12.9472C438.852 12.968 438.008 12.9869 437.165 13.0127C436.82 13.0236 436.545 13.0109 436.307 12.9765C436.127 12.9509 435.96 12.9431 435.737 12.9461C435.494 12.9491 435.322 12.959 435.201 12.9876C435.087 13.0152 435.171 13.0319 435.427 13.0534C435.703 13.077 435.96 13.1074 436.223 13.1349C436.434 13.1309 436.645 13.123 436.85 13.1239C436.939 13.1239 437.023 13.1416 437.113 13.1514C437.37 13.1799 437.607 13.2084 437.971 13.1925C438.278 13.1787 438.604 13.1756 438.917 13.1667C439.351 13.1558 439.351 13.1558 440.057 13.2176C440.236 13.2333 440.428 13.2323 440.658 13.2234C440.856 13.2164 441.061 13.2301 441.203 13.2596C441.261 13.2714 441.243 13.2911 441.123 13.3561C441.125 13.4043 441.259 13.3826 441.302 13.3511C441.371 13.3058 441.236 13.2911 440.981 13.3158C440.803 13.3335 440.714 13.3591 440.76 13.3798C440.786 13.3906 440.908 13.4043 441.123 13.3561C441.684 13.2969 442.112 13.2899 442.521 13.2741C442.763 13.2652 442.917 13.269 443.11 13.2946C443.341 13.325 443.573 13.3574 443.949 13.3416C444.358 13.3238 444.793 13.3217 445.208 13.3069C445.591 13.293 445.791 13.3362 446.035 13.3618C446.33 13.3922 446.655 13.3577 446.924 13.3753C447.206 13.393 447.406 13.4362 447.732 13.444C448.204 13.4173 448.507 13.4664 448.866 13.4988C449.148 13.5233 449.48 13.5016 449.78 13.4907C450.119 13.4788 450.4 13.4896 450.638 13.525C450.908 13.5652 451.209 13.5563 451.515 13.5474C452.231 13.5275 452.256 13.5246 452.674 13.5786C452.976 13.6178 453.263 13.6001 453.563 13.5951C453.827 13.6216 454.083 13.65 454.359 13.6736C454.43 13.6795 454.564 13.6696 454.672 13.6666C454.985 13.6587 455.305 13.6507 455.618 13.6428C455.829 13.6378 456.052 13.623 456.244 13.6289C456.436 13.6357 456.597 13.6642 456.77 13.6829C456.944 13.7015 457.123 13.7202 457.29 13.7398C457.547 13.7692 457.791 13.7938 458.149 13.7789C458.455 13.7661 458.775 13.7621 459.094 13.7531C459.497 13.7422 459.484 13.7452 460.234 13.804C460.638 13.8364 461.052 13.7969 461.462 13.7929C461.666 13.7909 461.865 13.8017 462.006 13.8302C462.064 13.8419 462.046 13.8616 462.066 13.8783C461.012 13.9052 459.951 13.928 458.91 13.9608C458.507 13.9736 458.295 13.9383 458.077 13.9088C457.717 13.8617 457.246 13.9306 456.905 13.8697C456.699 13.8334 456.404 13.8128 456.053 13.8306C455.849 13.8405 455.631 13.8395 455.421 13.8485C454.884 13.8702 454.392 13.8713 453.961 13.8036C453.813 13.78 453.602 13.7672 453.447 13.7447C453.267 13.7201 453.094 13.7064 452.883 13.7113C451.931 13.7352 450.986 13.759 450.04 13.7848C449.957 13.7868 449.875 13.8016 449.805 13.8124C449.627 13.84 449.685 13.8616 449.973 13.8793C450.07 13.8852 450.147 13.8979 450.237 13.9077C450.41 13.9264 450.571 13.9559 450.763 13.9627C450.955 13.9695 451.179 13.9557 451.389 13.9507C451.6 13.9458 451.824 13.931 452.016 13.9368C452.208 13.9437 452.368 13.9722 452.548 13.9898C452.632 13.9987 452.735 14.0134 452.818 14.0124C453.24 14.0064 453.655 13.9955 454.076 13.9865C454.34 14.013 454.565 14.0513 454.878 14.0601C455.077 14.066 455.288 14.0551 455.492 14.057C455.582 14.058 455.697 14.0727 455.743 14.0855C455.768 14.0933 455.686 14.113 455.623 14.1229C455.381 14.1603 455.048 14.1535 454.748 14.1654C454.422 14.1783 454.128 14.1744 453.877 14.1361C453.71 14.1105 453.524 14.0968 453.32 14.1018C452.789 14.1147 452.265 14.1296 451.735 14.1405C451.646 14.1425 451.537 14.1337 451.453 14.1268C450.78 14.067 450.78 14.065 450.307 14.0779C449.611 14.0968 449.611 14.0968 449.142 14.0447C449.052 14.0349 448.955 14.0163 448.879 14.0173C448.137 14.0332 447.403 14.0491 446.668 14.0719C446.425 14.0788 446.259 14.0789 446.079 14.0534C445.925 14.0317 445.745 14.0072 445.553 14.0013C445.354 13.9955 445.138 14.0103 444.927 14.0153C444.716 14.0202 444.493 14.0331 444.307 14.0252C444.115 14.0174 443.947 13.9899 443.78 13.9703C443.607 13.9497 443.422 13.9507 443.185 13.9586C442.457 13.9814 442.451 13.9785 441.726 13.9176C441.642 13.9108 441.533 13.9029 441.444 13.9049C440.914 13.9169 440.39 13.9317 439.86 13.9437C439.655 13.9486 439.456 13.9359 439.315 13.9074C439.257 13.8956 439.275 13.8759 439.235 13.8376C439.19 13.8287 439.242 13.8445 439.255 13.8592C439.351 13.8572 439.466 13.8592 439.536 13.8513C439.715 13.8325 439.803 13.8079 439.758 13.7873C439.732 13.7765 439.61 13.7627 439.533 13.7627C439.393 13.7628 439.272 13.7844 439.235 13.8376C438.834 13.8701 438.405 13.8771 437.99 13.893C437.748 13.9029 437.594 13.898 437.401 13.8725C437.17 13.841 436.932 13.8106 436.556 13.8264C436.147 13.8442 435.712 13.8473 435.291 13.8612C434.805 13.877 434.591 13.7885 434.182 13.7906C433.76 13.7926 433.338 13.8095 432.917 13.8214C432.546 13.8313 432.546 13.8313 431.777 13.7675C431.494 13.744 431.163 13.7785 430.887 13.754C430.701 13.7383 430.54 13.7147 430.361 13.698C430.284 13.6912 430.162 13.6912 430.067 13.6932C429.536 13.7051 428.999 13.7131 428.489 13.7349C427.908 13.7606 427.465 13.7332 427.048 13.6752C426.524 13.6862 425.993 13.6922 425.476 13.711C425.099 13.7249 424.88 13.6925 424.624 13.666C424.534 13.6571 424.457 13.6424 424.36 13.6385C424.264 13.6346 424.149 13.6425 424.047 13.6454C423.626 13.6564 423.191 13.6614 422.782 13.6792C422.278 13.7019 422.083 13.6213 421.693 13.6116C421.432 13.6598 421.294 13.7258 420.776 13.7308C420.355 13.7349 419.933 13.7507 419.511 13.7616C419.301 13.7666 419.09 13.7726 418.879 13.7775C418.54 13.7865 418.382 13.8249 418.454 13.8839C418.494 13.9163 418.527 13.9488 418.56 13.9812C418.626 14.0393 418.468 14.0885 418.2 14.0954C417.459 14.1143 416.724 14.1342 415.983 14.1511C415.785 14.156 415.592 14.1393 415.432 14.1128C415.264 14.0863 415.079 14.0745 414.874 14.0795C414.133 14.0984 413.398 14.1182 412.657 14.1351C412.574 14.1371 412.465 14.1273 412.382 14.1195C412.202 14.1018 412.029 14.0812 411.855 14.0625C411.433 14.0715 411.018 14.0775 410.603 14.0894C409.932 14.1073 409.932 14.1082 409.438 14.0543C409.348 14.0444 409.258 14.0258 409.175 14.0268C408.855 14.0308 408.542 14.0407 408.223 14.0496C407.284 14.0754 407.283 14.0754 407.007 14.046C406.757 14.0185 406.532 13.9851 406.155 14.0009C405.747 14.0187 405.312 14.0247 404.89 14.0347C404.577 14.0416 404.264 14.0496 403.951 14.0516C403.868 14.0526 403.778 14.034 403.688 14.0242C403.431 13.9937 403.181 13.9692 402.829 13.986C402.625 13.9959 402.408 13.9979 402.197 14.0029C401.648 14.0168 401.648 14.0168 400.744 13.958C400.654 13.9521 400.545 13.9452 400.456 13.9482C399.715 13.9661 398.98 13.9859 398.239 14.0028C398.149 14.0048 398.04 13.9989 397.951 13.994C396.938 13.9372 396.938 13.9372 395.865 13.965C395.456 13.975 395.443 13.9789 395.013 13.9269C394.82 13.9043 394.66 13.8935 394.437 13.9004C393.593 13.9243 392.743 13.9402 391.907 13.968C391.53 13.9798 391.311 13.9504 391.055 13.9239C390.965 13.915 390.868 13.8954 390.791 13.8964C389.948 13.9153 389.105 13.9381 388.261 13.957C388.185 13.959 388.088 13.9394 387.998 13.9305C387.825 13.9129 387.658 13.8863 387.466 13.8805C387.267 13.8746 387.05 13.8894 386.833 13.8944C386.303 13.9073 386.303 13.9063 385.687 13.8484C385.603 13.8406 385.494 13.8298 385.411 13.8318C384.568 13.8517 383.718 13.8686 382.881 13.8973C382.402 13.9132 382.075 13.8847 381.735 13.8435C381.664 13.8346 381.542 13.8307 381.453 13.8327C380.501 13.8556 379.555 13.8814 378.603 13.9042C378.405 13.9092 378.213 13.8925 378.052 13.867C377.795 13.8267 377.495 13.8317 377.175 13.8406C376.441 13.8615 376.434 13.8605 375.998 13.8134C375.908 13.8036 375.83 13.7908 375.734 13.7859C375.645 13.781 375.53 13.784 375.434 13.786C375.012 13.7959 374.591 13.8068 374.169 13.8177C373.747 13.8287 373.319 13.8347 372.904 13.8515C372.393 13.8723 372.148 13.8084 371.788 13.779C371.265 13.7919 370.728 13.7999 370.211 13.8207C369.815 13.8365 369.628 13.7933 369.365 13.7707C369.275 13.7628 369.178 13.7461 369.095 13.7481C368.143 13.77 367.191 13.7938 366.246 13.8206C366.016 13.8266 365.862 13.8188 365.67 13.7952C365.239 13.7422 365.22 13.7441 364.504 13.764C364.191 13.7729 363.891 13.7809 363.621 13.7406C363.383 13.7042 363.095 13.6955 362.757 13.7073C362.342 13.7222 361.913 13.7302 361.492 13.7401C361.07 13.751 360.649 13.7659 360.227 13.7709C359.888 13.7759 359.682 13.7297 359.412 13.7062C359.329 13.6993 359.214 13.6984 359.118 13.7003C358.696 13.7093 358.262 13.7163 357.853 13.7331C357.355 13.7539 357.078 13.6999 356.725 13.6685C356.648 13.6616 356.52 13.6656 356.424 13.6685C355.683 13.6864 354.949 13.7063 354.208 13.7251C353.944 13.6986 353.675 13.6731 353.412 13.6466C352.99 13.6566 352.568 13.6675 352.147 13.6774C351.827 13.6854 351.501 13.6884 351.201 13.7032C350.812 13.723 350.618 13.6768 350.355 13.6542C350.266 13.6464 350.169 13.6297 350.086 13.6317C349.556 13.6426 349.025 13.6546 348.502 13.6714C348.003 13.6883 347.802 13.5998 347.393 13.6008C346.971 13.6019 346.536 13.6148 346.128 13.6326C345.655 13.6534 345.322 13.622 344.981 13.5798C344.911 13.5709 344.789 13.5661 344.699 13.568C344.169 13.58 343.645 13.5949 343.115 13.6068C343.026 13.6088 342.917 13.6039 342.827 13.598C341.814 13.5402 341.814 13.5392 341.374 13.5511C341.061 13.5591 340.741 13.569 340.422 13.574C340.332 13.576 340.223 13.5671 340.14 13.5593C339.472 13.4994 339.472 13.4985 338.993 13.5104C338.572 13.5213 338.15 13.5322 337.728 13.5431C337.465 13.5166 337.196 13.4911 336.932 13.4646C336.409 13.4776 335.872 13.4875 335.354 13.5053C335.112 13.5133 334.952 13.5104 334.765 13.4858C334.534 13.4564 334.303 13.422 333.92 13.4388C333.511 13.4566 333.076 13.4587 332.661 13.4735C332.163 13.4914 331.955 13.4019 331.552 13.403C331.13 13.4041 330.696 13.4169 330.287 13.4347C329.815 13.4555 329.481 13.4241 329.141 13.3819C329.07 13.3731 328.948 13.3682 328.859 13.3702C327.696 13.399 326.54 13.4278 325.377 13.4585C324.662 13.4774 324.662 13.4784 323.298 13.4246C323.202 13.4207 323.099 13.4168 323.003 13.4188C322.581 13.4277 322.147 13.4347 321.738 13.4516C321.24 13.4723 320.963 13.4193 320.61 13.3869C320.533 13.38 320.412 13.384 320.31 13.386C319.99 13.3929 319.677 13.4019 319.358 13.4098C318.936 13.4208 318.515 13.4317 318.093 13.4426C317.83 13.4171 317.56 13.3906 317.297 13.3651C316.773 13.378 316.236 13.385 315.719 13.4058C315.323 13.4216 315.136 13.3803 314.873 13.3568C314.783 13.3489 314.687 13.3322 314.604 13.3332C313.652 13.3551 312.7 13.378 311.755 13.4057C311.365 13.4176 311.184 13.3734 310.921 13.3508C310.831 13.344 310.729 13.3312 310.646 13.3332C310.013 13.3471 309.381 13.364 308.748 13.3809C308.39 13.3908 308.39 13.3908 307.608 13.33C307.518 13.3231 307.416 13.3163 307.326 13.3183C305.32 13.3679 303.32 13.4206 301.314 13.4702C301.11 13.4752 300.924 13.4605 300.763 13.434C300.596 13.4074 300.41 13.3937 300.205 13.3987C299.362 13.4195 298.512 13.4384 297.676 13.4642C297.331 13.4751 297.055 13.4624 296.817 13.428C296.637 13.4025 296.471 13.3927 296.247 13.3986C295.826 13.4105 295.404 13.4205 294.982 13.4314C294.561 13.4423 294.139 13.4533 293.717 13.4642C293.296 13.4751 292.867 13.4811 292.452 13.4979C291.942 13.5187 291.69 13.4578 291.337 13.4274C290.705 13.4423 290.072 13.4572 289.446 13.4731C288.603 13.4939 287.759 13.5168 286.916 13.5366C286.839 13.5386 286.743 13.5209 286.653 13.5121C286.39 13.4876 286.197 13.4532 285.807 13.4641C283.916 13.5167 282.012 13.5614 280.115 13.613C279.719 13.6239 279.545 13.5817 279.275 13.5591C279.185 13.5523 279.083 13.5385 279 13.5405C277.945 13.5653 276.891 13.5931 275.837 13.62C275.409 13.6309 275.409 13.6309 274.691 13.5701C274.607 13.5632 274.498 13.5544 274.409 13.5563C273.035 13.5901 271.668 13.6259 270.294 13.6606C270.09 13.6656 269.904 13.6519 269.737 13.6254C269.576 13.5988 269.384 13.5841 269.185 13.5891C267.92 13.6209 266.649 13.6517 265.391 13.6864C265.052 13.6963 264.77 13.6875 264.526 13.6522C264.352 13.6266 264.179 13.6159 263.962 13.6218C262.065 13.6705 260.167 13.7172 258.27 13.7688C257.906 13.7787 257.649 13.7601 257.418 13.7277C257.232 13.7021 257.071 13.6973 256.841 13.7012C256.599 13.7062 256.452 13.7171 256.319 13.7466C256.148 13.785 256.041 13.8333 255.631 13.8363C255.209 13.8394 254.781 13.8513 254.366 13.8681C253.971 13.8849 253.784 13.8407 253.533 13.8142C253.347 13.7955 253.174 13.7926 252.938 13.8015C252.721 13.8095 252.587 13.8262 252.46 13.8577C252.182 13.9247 252.156 13.9247 251.809 13.8825C251.623 13.8599 251.456 13.8422 251.251 13.8462C250.408 13.8661 249.565 13.8879 248.721 13.9108C248.236 13.9237 248.23 13.9256 247.863 13.8765C247.683 13.852 247.51 13.8402 247.299 13.8462C244.98 13.9058 242.661 13.9634 240.342 14.0259C239.985 14.0358 239.741 14.0152 239.484 13.9858C239.4 13.976 239.317 13.9622 239.221 13.9583C239.125 13.9544 239.016 13.9583 238.914 13.9603C237.227 14.003 235.534 14.0438 233.854 14.0914C233.471 14.1023 233.265 14.0709 233.002 14.0454C232.912 14.0365 232.835 14.0228 232.739 14.0189C232.643 14.0159 232.528 14.0229 232.426 14.0258C230.739 14.0685 229.046 14.1093 227.366 14.1569C226.963 14.1678 226.789 14.1265 226.526 14.105C226.436 14.0971 226.34 14.0824 226.257 14.0844C225.727 14.0953 225.203 14.1102 224.673 14.1231C223.408 14.1559 222.142 14.1867 220.878 14.2204C220.392 14.2333 220.178 14.1458 219.769 14.1499C219.238 14.1549 218.715 14.1747 218.184 14.1886C217.763 14.1995 217.341 14.2095 216.919 14.2214C216.504 14.2323 216.504 14.2323 215.466 14.1755C215.376 14.1706 215.267 14.1637 215.178 14.1657C213.702 14.2025 212.22 14.2392 210.751 14.2789C210.412 14.2879 210.13 14.283 209.886 14.2467C209.713 14.2211 209.533 14.2084 209.322 14.2143C207.105 14.271 204.895 14.3276 202.678 14.3832C202.595 14.3852 202.486 14.3754 202.402 14.3675C202.223 14.3498 202.049 14.3292 201.876 14.3106C201.749 14.3332 201.583 14.3539 201.501 14.3795C201.387 14.414 201.234 14.4239 200.991 14.4298C200.749 14.4358 200.595 14.4339 200.402 14.4083C200.171 14.3769 199.934 14.3524 199.557 14.3623C197.238 14.4248 194.918 14.4815 192.599 14.543C192.216 14.5529 192.036 14.5097 191.766 14.4871C191.676 14.4803 191.573 14.4695 191.49 14.4715C190.538 14.4943 189.593 14.5191 188.641 14.543C186.003 14.6105 183.364 14.6751 180.732 14.7465C180.253 14.7594 179.926 14.7349 179.585 14.6927C179.515 14.6839 179.393 14.679 179.304 14.681C175.611 14.7743 171.918 14.8687 168.232 14.963C168.034 14.968 167.841 14.9523 167.681 14.9267C167.513 14.9002 167.327 14.8875 167.123 14.8924C165.436 14.9351 163.75 14.9779 162.063 15.0216C161.642 15.0325 161.635 15.0334 161.199 14.9863C161.109 14.9765 161.012 14.9579 160.942 14.9598C160.795 14.9648 160.655 14.9894 160.554 15.0229C160.453 15.0583 160.294 15.0682 160.057 15.0751C159.814 15.0821 159.655 15.0792 159.468 15.0556C159.231 15.0262 159.012 14.9977 158.629 15.0076C153.78 15.1347 148.931 15.2569 144.082 15.383C143.692 15.3929 143.511 15.3516 143.242 15.3291C143.152 15.3222 143.062 15.3124 142.966 15.3104C142.864 15.3085 142.756 15.3144 142.653 15.3174C134.744 15.519 126.835 15.7216 118.926 15.9232C118.453 15.9351 118.459 15.9351 117.945 16.0257C117.881 16.0366 117.799 16.0513 117.709 16.0533C115.288 16.1169 112.86 16.1784 110.432 16.24C109.378 16.2668 108.324 16.2946 107.27 16.3205C106.893 16.3294 106.893 16.3294 105.995 16.4359C105.919 16.4447 105.83 16.4566 105.74 16.4586C101.524 16.5668 97.3072 16.675 93.0842 16.7813C92.752 16.7893 92.4841 16.807 92.3323 16.8543C92.2248 16.8878 92.0849 16.9075 91.8741 16.9134C88.9225 16.9889 85.9711 17.0654 83.013 17.1389C82.6616 17.1478 82.4515 17.1754 82.2804 17.2168C82.2233 17.2306 82.1727 17.2463 82.09 17.2562C82.0135 17.265 81.8986 17.268 81.8028 17.271C79.2728 17.3355 76.7431 17.4021 74.2066 17.4637C73.8297 17.4726 73.6774 17.509 73.4934 17.5475C73.4299 17.5603 73.3858 17.578 73.303 17.5869C73.2201 17.5947 73.0987 17.5948 72.9964 17.5968C70.8881 17.6504 68.7799 17.705 66.6717 17.7586C66.2622 17.7538 66.1747 17.8109 65.9778 17.8454C65.9079 17.8572 65.8574 17.8729 65.7745 17.8808C65.6853 17.8887 65.57 17.8878 65.4614 17.8898C63.7747 17.9325 62.0883 17.9781 60.3951 18.0179C60.0054 18.0268 59.9305 18.077 59.7207 18.1115C59.6507 18.1223 59.5811 18.1391 59.4981 18.1421C58.444 18.1708 57.3899 18.1976 56.3357 18.2235C55.9844 18.2324 55.9843 18.2314 55.3676 18.329C55.2977 18.3398 55.2149 18.3516 55.1255 18.3546C53.5475 18.3963 51.9631 18.436 50.3787 18.4768C50.1743 18.4817 50.0345 18.5054 49.9334 18.5388C49.8323 18.5723 49.686 18.594 49.4816 18.599C48.2167 18.6317 46.9516 18.6655 45.6866 18.6953C45.3352 18.7032 45.1059 18.7279 44.9541 18.7722C44.8402 18.8057 44.7001 18.8224 44.4765 18.8284C43.2115 18.8602 41.9467 18.8949 40.6752 18.9228C40.3046 18.9307 40.1139 18.9642 39.9619 19.0056C39.8416 19.039 39.7014 19.0509 39.465 19.0568C37.1458 19.1145 34.8204 19.1721 32.5078 19.2356C32.1181 19.2465 31.9186 19.2121 31.6619 19.1876C31.2962 19.1532 30.956 19.1159 30.9532 19.0392C30.9527 19.0274 30.8435 19.0137 30.7664 19.0038C30.1946 18.9302 30.1946 18.9302 30.1021 18.8515C30.0492 18.8033 29.9899 18.7541 29.9433 18.705C29.8572 18.6243 29.6518 18.6037 29.064 18.6186C28.8532 18.6236 28.6424 18.6305 28.4315 18.6345C28.1184 18.6415 27.8807 18.609 27.821 18.55C27.7878 18.5176 27.7483 18.4851 27.7152 18.4527C28.0346 18.4447 28.0281 18.4437 28.5865 18.3246C28.8212 18.2743 28.8213 18.2743 28.3655 18.2243C28.1921 18.2056 28.0251 18.185 27.839 18.1673C27.7556 18.1595 27.6467 18.1546 27.5573 18.1566C27.0269 18.1685 26.5031 18.1824 25.9792 18.1963C25.1359 18.2182 25.1358 18.2182 24.2753 18.118C24.2047 18.1102 24.0954 18.0954 24.1079 18.0876C24.1769 18.0512 24.349 18.0354 24.5663 18.0314C24.8858 18.0254 25.1987 18.0155 25.5118 18.0075C25.7226 18.0026 25.9334 17.9966 26.1443 17.9917C26.3411 17.9542 26.5445 17.9178 26.7286 17.8794C27.0206 17.8203 27.0204 17.8183 26.616 17.7771C26.3592 17.7496 26.0834 17.7251 25.8202 17.6995C25.5072 17.7075 25.1878 17.7164 24.8747 17.7234C24.4786 17.7323 24.318 17.7137 24.2134 17.6498C24.1218 17.5937 24.2287 17.5455 24.5352 17.5336C24.8481 17.5217 25.1421 17.5138 25.3002 17.4636C25.4519 17.4153 25.7197 17.3966 26.0521 17.3926C26.263 17.3896 26.4738 17.3826 26.6846 17.3767C26.9593 17.3687 27.1045 17.3185 27.0449 17.2625C27.0116 17.2261 26.9465 17.1956 26.6969 17.1878C25.5893 17.1536 25.5765 17.1546 25.0241 17.0878C24.9728 17.0819 24.9338 17.0643 24.9527 17.0554C24.9841 17.0406 25.0537 17.019 25.1303 17.016C25.8649 16.9942 26.5995 16.9743 27.3344 16.9594C27.5772 16.9544 27.756 16.9475 27.8378 16.9111C27.9511 16.8609 27.8982 16.8146 27.6732 16.7803C27.6024 16.7695 27.4867 16.7557 27.41 16.7567C26.5666 16.7746 25.7297 16.7975 24.8863 16.8154C24.8096 16.8173 24.6684 16.8007 24.636 16.7879C24.5712 16.7643 24.6659 16.7328 24.8893 16.7219C25.1829 16.7071 25.4834 16.706 25.6798 16.6568C25.9522 16.5869 26.2888 16.5229 26.5933 16.4559C26.644 16.4441 26.7264 16.4214 26.7072 16.4194C26.5465 16.3978 26.3604 16.3812 26.1934 16.3605C25.9108 16.3262 25.909 16.278 25.9712 16.2317C26.021 16.1943 26.2123 16.1795 26.4489 16.1795C26.5512 16.1794 26.6791 16.1794 26.7619 16.1705C26.9785 16.1489 27.0479 16.1213 26.9384 16.1006C26.874 16.0889 26.7584 16.0722 26.6817 16.0742C25.3145 16.1069 23.9407 16.1388 22.5801 16.1794C22.1777 16.1913 21.991 16.154 21.747 16.1275C21.5608 16.1069 21.3878 16.099 21.1581 16.1138C20.9412 16.1277 20.7299 16.1199 20.5945 16.0874C20.4848 16.0609 20.6758 16.0382 21.1928 16.0125C21.2885 16.0076 21.3971 16.0046 21.4671 15.9947C22.205 15.8883 22.2049 15.8873 22.716 15.8734C23.2143 15.8605 23.2144 15.8595 23.4744 15.8024C23.595 15.7758 23.7282 15.7492 23.8423 15.7217C23.8866 15.7108 23.9628 15.6911 23.937 15.6852C23.7952 15.6548 23.603 15.6479 23.3794 15.6549C22.8813 15.6717 22.2925 15.6581 22.0338 15.7516C21.9328 15.787 21.7732 15.7969 21.5433 15.8029C19.2305 15.8605 16.9178 15.922 14.5986 15.9777C14.2216 15.9866 14.0504 16.0231 13.9048 16.0634C13.7781 16.0969 13.6378 16.1068 13.395 16.1128C13.1522 16.1187 12.9604 16.1217 12.8185 16.0893C12.7347 16.0696 12.804 16.0421 12.9948 16.0145C13.2684 15.9751 13.2154 15.9259 13.1242 15.8797C13.0591 15.8492 12.8601 15.8276 12.6491 15.8296C12.336 15.8336 12.0359 15.8445 11.7723 15.8052C11.618 15.7826 11.4255 15.7669 11.2521 15.7473C10.9181 15.707 10.5841 15.6658 10.1183 15.6925C9.79817 15.6827 9.57307 15.6474 9.31627 15.6199C8.88618 15.5747 8.84756 15.5678 9.15274 15.5196C9.49606 15.4654 9.22485 15.3946 9.41474 15.3414C9.61728 15.2843 9.89691 15.2341 10.1444 15.1809C10.2078 15.1671 10.2649 15.1543 10.3283 15.1405C10.1805 15.1209 10.0454 15.0963 9.87223 15.0826C9.64777 15.065 9.53187 15.0433 9.54243 14.9823C9.49734 14.9735 9.51722 14.9961 9.56859 15.002C9.62636 15.0079 9.76697 15.0029 9.83706 14.996C10.0154 14.9773 10.104 14.9527 10.0584 14.932C10.0325 14.9212 9.91055 14.9075 9.83382 14.9075C9.69313 14.9075 9.57245 14.9292 9.53602 14.9823C8.8213 15.0228 8.08013 15.0427 7.33893 15.0586C7.26226 15.0606 7.16568 15.041 7.0758 15.0311C6.78042 14.9978 6.78042 14.9987 5.91679 14.9891C5.82723 14.9881 5.70529 14.9744 5.66002 14.9606C5.47238 14.9007 5.47641 14.8348 5.38455 14.7708C5.5493 14.7295 5.71395 14.6891 5.88513 14.6487C6.22745 14.567 6.67255 14.4951 6.93784 14.4055C6.87853 14.3573 6.80002 14.3091 7.07994 14.2697C7.87747 14.2203 7.87112 14.2203 8.08681 14.173C8.70219 14.0391 9.31111 13.9042 9.95214 13.7722C10.1235 13.7377 10.1229 13.719 9.8154 13.7044C9.71933 13.7004 9.61685 13.6995 9.5146 13.7015C9.19512 13.7084 8.87605 13.7262 8.56257 13.7224C8.24912 13.7195 8.01733 13.6762 7.76058 13.6497C7.49739 13.6223 7.23418 13.5938 6.97096 13.5653C6.67052 13.5684 6.37103 13.596 6.06887 13.5518C5.8374 13.5174 5.54876 13.4929 5.28554 13.4644C5.48104 13.3896 5.84989 13.3324 6.13524 13.2665C6.39522 13.2064 6.40151 13.2074 7.10322 13.161C7.43495 13.1392 7.54599 13.0281 7.26344 12.9957C6.92309 12.9564 6.56373 12.9201 6.21706 12.8828C5.91662 12.8858 5.61071 12.9124 5.32133 12.8682C5.0963 12.8348 4.83963 12.8123 4.46921 12.8251C3.84333 12.8469 3.20429 12.8579 2.57187 12.8758C2.35467 12.8817 2.11785 12.8779 2.02071 12.8444C1.9559 12.8208 2.14017 12.7883 2.35094 12.7814C2.67031 12.7715 2.9576 12.7596 3.11567 12.7104C3.26734 12.6612 3.54813 12.6463 3.8804 12.6394C3.96985 12.6374 4.07181 12.6255 4.11614 12.6137C4.34426 12.5566 4.59826 12.5074 5.09072 12.5092C5.29463 12.4895 5.40237 12.4649 5.33756 12.4413C5.29872 12.4285 5.16389 12.4118 5.08723 12.4138C4.55684 12.4238 4.02646 12.4337 3.50915 12.4516C3.26644 12.4595 3.08097 12.4615 2.92641 12.432C2.81699 12.4124 2.87356 12.3858 3.07714 12.3572C3.25529 12.3326 3.30546 12.304 3.29145 12.2706C3.25663 12.1929 3.06393 12.1703 2.45023 12.1754C2.00914 12.1794 1.89996 12.1666 1.80159 12.0998C1.77544 12.084 1.71081 12.0624 1.75518 12.0516C2.0277 11.9846 2.20374 11.9019 2.72055 11.8703C2.92474 11.8585 3.14207 11.8584 3.26903 11.8328C3.39599 11.8072 3.51007 11.7777 3.64345 11.753C3.80863 11.7235 3.92262 11.6959 3.8452 11.6772C3.71608 11.6438 3.51141 11.6409 3.27524 11.6528C3.07098 11.6627 2.8536 11.6637 2.6428 11.6697C2.26591 11.6806 1.9581 11.6551 1.91175 11.6118C1.78608 11.4977 1.65401 11.3846 1.54113 11.2705C1.52783 11.2567 1.55907 11.239 1.6098 11.2272C1.78733 11.1858 1.97781 11.1464 2.16178 11.1061C2.3775 11.0598 2.72319 11.0686 3.01702 11.0596C3.4322 11.0467 3.43209 11.0477 3.98497 10.9531C4.20102 10.9157 4.57886 10.9304 4.80145 10.8969C4.87139 10.886 4.97945 10.8683 4.95991 10.8585C4.93386 10.8457 4.80568 10.8359 4.70954 10.83C4.6198 10.8241 4.51101 10.8212 4.4152 10.8242C3.25242 10.853 2.09615 10.8838 0.933333 10.9116C0.73528 10.9165 0.517065 10.895 0.445608 10.8645C0.374223 10.836 0.392085 10.8015 0.378107 10.7691C0.562075 10.7287 0.771649 10.6912 0.92993 10.6479C1.0502 10.6144 1.19037 10.5997 1.43329 10.5976C1.75292 10.5946 2.06585 10.5827 2.42363 10.5738C3.08341 10.43 3.73011 10.2793 4.44105 10.1355C4.72669 10.0774 4.6543 10.0184 4.70958 9.9564C4.76505 9.89933 5.19379 9.90809 5.48093 9.8913C5.71063 9.87747 5.78612 9.84597 5.6958 9.82434C5.64418 9.81157 5.5286 9.79684 5.43907 9.79686C5.22805 9.79691 5.01736 9.80581 4.80651 9.81078C4.59567 9.81575 4.35258 9.81287 4.18054 9.82963C4.01485 9.84541 3.90731 9.87888 3.79964 9.90743C3.6793 9.93894 3.51994 9.94981 3.27702 9.95183C2.96375 9.95388 2.65076 9.9628 2.33767 9.96976C1.99096 9.93148 1.63142 9.89419 1.29742 9.85393C1.23319 9.84608 1.2195 9.82346 1.22536 9.8087C1.23674 9.77033 1.13998 9.74673 0.928278 9.72809C0.748653 9.7124 0.600737 9.68981 0.433757 9.67017C0.560677 9.64358 0.700472 9.61796 0.801742 9.58941C1.02336 9.52934 1.30317 9.486 1.78923 9.48785C1.97967 9.44944 2.13137 9.40218 2.37978 9.37556C2.61545 9.34992 3.01926 9.3754 3.19619 9.31731C3.28467 9.28876 3.41784 9.25627 3.59007 9.24442C3.86435 9.22566 4.2228 9.23542 4.38065 9.18029C4.47542 9.14879 4.615 9.12022 4.80016 9.11231C5.01086 9.1034 5.22815 9.10139 5.38093 9.08266C5.4637 9.0728 5.55266 9.05704 5.55216 9.04327C5.55184 9.03441 5.42354 9.02067 5.3338 9.01479C5.25042 9.00792 5.1414 9.00303 5.04556 9.00502C4.72604 9.011 4.41311 9.02189 4.09359 9.02787C4.00414 9.02986 3.90161 9.023 3.80547 9.01712C3.52353 9.00145 3.54196 8.98177 3.76447 8.9463C3.98703 8.91182 4.14536 8.8675 4.32933 8.82712C4.5337 8.82019 4.78956 8.82308 4.92955 8.80435C5.16504 8.7738 5.32964 8.72949 5.52007 8.69108C5.73088 8.68512 5.94821 8.68311 6.14605 8.67224C6.22903 8.66829 6.26664 8.64663 6.33651 8.63383C6.46351 8.6092 6.57101 8.57376 6.74323 8.56192C7.02394 8.54414 7.3695 8.55094 7.53378 8.49679C7.62855 8.46529 7.77434 8.43181 7.95332 8.4298C8.45196 8.42575 8.661 8.37158 8.91492 8.32036C9.10535 8.28195 9.51534 8.30153 9.72496 8.26311C9.86474 8.23849 9.966 8.20796 10.1058 8.18432C10.163 8.17447 10.2843 8.16952 10.3801 8.16655C10.9039 8.15167 11.4343 8.14072 11.958 8.12485C12.0411 8.12188 12.1173 8.10711 12.1808 8.09529C12.3142 8.06968 12.3959 8.03424 12.5616 8.01748C12.7272 8.00071 12.9638 8.00066 13.1682 7.99569C13.8263 7.98078 13.8777 7.98469 14.1752 7.901C14.4157 7.83306 15.0122 7.88113 15.2077 7.80631C15.3212 7.763 15.5309 7.72754 15.908 7.72253C16.4385 7.71551 16.9621 7.6967 17.4924 7.68378C17.9652 7.67186 17.9588 7.67186 18.467 7.58024C18.6957 7.53887 19.0349 7.5447 19.3352 7.53676C19.6546 7.52881 19.9483 7.51694 20.1 7.46771C20.2517 7.41947 20.5325 7.40366 20.8583 7.39669C21.1586 7.38973 21.4978 7.39458 21.733 7.35517C22.305 7.26059 22.2986 7.2596 22.7011 7.24967C23.3336 7.23378 23.9661 7.21789 24.5985 7.20101C25.0202 7.19009 25.4613 7.18802 25.857 7.16628C26.1442 7.15047 26.27 7.09535 26.454 7.05694C26.9779 7.04206 27.5017 7.02717 28.0255 7.01327C28.7602 6.99342 29.5013 6.97554 30.2424 6.95667C30.5607 6.91921 30.6026 6.83656 31.1396 6.8325C31.4592 6.83045 31.7721 6.81759 32.0915 6.80964C32.6218 6.79574 33.1455 6.77791 33.676 6.7709C34.0787 6.76588 34.147 6.71274 34.3568 6.67924C34.4267 6.66741 34.4901 6.65068 34.5731 6.64771C35.4034 6.61997 36.26 6.61386 37.0706 6.57333C37.1536 6.56937 37.2296 6.54869 37.2482 6.53393C37.2607 6.52606 37.1515 6.51134 37.0809 6.50447C36.9975 6.49662 36.8885 6.48877 36.7991 6.49076C34.1605 6.5573 31.522 6.62484 28.8835 6.69138C28.5129 6.70131 28.5129 6.70032 27.6152 6.80875C27.5388 6.81762 27.4496 6.82748 27.3537 6.83045C26.9321 6.84236 26.504 6.84935 26.0888 6.86421C25.7504 6.8761 25.4687 6.86435 25.2244 6.82899C25.0508 6.80345 24.8714 6.79563 24.654 6.79765C24.4111 6.80066 24.2517 6.81152 24.112 6.83812C23.9279 6.87456 23.8337 6.9218 23.444 6.93173C21.6487 6.97447 19.8534 7.02212 18.0646 7.0678C17.8147 7.05409 17.6924 7.03346 17.7555 7.00885C17.7933 6.99408 17.8693 6.97439 17.946 6.9724C18.6806 6.95157 19.4217 6.93369 20.1564 6.91384C20.2586 6.91086 20.3993 6.91278 20.4565 6.90293C20.7363 6.85859 20.8361 6.78676 21.3666 6.78171C21.6735 6.77869 21.9862 6.76386 22.2799 6.75002C22.3629 6.74606 22.4389 6.72538 22.4575 6.71062C22.4636 6.70275 22.3607 6.68801 22.2838 6.68114C22.0013 6.65268 21.6765 6.6872 21.3945 6.6676C21.2983 6.66073 21.1636 6.65092 21.1439 6.63912C21.1308 6.6283 21.2388 6.61057 21.3152 6.59973C21.3852 6.58987 21.4807 6.581 21.5765 6.57802C22.4198 6.5552 23.2631 6.53138 24.1066 6.51347C24.4516 6.5065 24.6937 6.48185 24.8455 6.43656C24.9594 6.40308 25.0994 6.38534 25.3166 6.38037C26.7924 6.34362 28.2681 6.30293 29.7504 6.26913C30.121 6.26117 30.3117 6.22866 30.4637 6.18633C30.5839 6.15285 30.7242 6.14101 30.9606 6.13505C33.0753 6.08339 35.177 6.02583 37.2918 5.97613C37.6816 5.96718 37.7952 5.92485 37.9921 5.8884C38.062 5.8756 38.1061 5.85985 38.1953 5.85196C38.2845 5.84407 38.3997 5.84501 38.5083 5.84302C40.1949 5.80031 41.8816 5.75466 43.5747 5.71491C43.9708 5.70596 44.0457 5.65675 44.249 5.62226C44.319 5.61143 44.3823 5.59371 44.4653 5.59074C45.7303 5.55699 46.9952 5.5252 48.2601 5.49244C49.1034 5.47059 49.9467 5.44874 50.7901 5.42788C51.2053 5.41794 51.2053 5.41695 51.7646 5.32336C51.8282 5.31253 51.9173 5.29971 52.0003 5.29674C54.428 5.2332 56.8493 5.17262 59.277 5.11006C59.4814 5.10509 59.6276 5.08242 59.7287 5.04895C59.8298 5.01547 59.9762 4.99281 60.1742 4.98785C62.0716 4.9382 63.969 4.88955 65.8729 4.84285C66.218 4.8349 66.46 4.81123 66.6119 4.76692C66.7258 4.73345 66.8658 4.71571 67.083 4.71074C68.9805 4.66307 70.878 4.61243 72.7819 4.56672C73.1461 4.55778 73.3238 4.52429 73.5014 4.4849C73.5649 4.47111 73.6152 4.44847 73.6919 4.44649C74.6373 4.41871 75.5762 4.38996 76.5283 4.37104C76.9245 4.36307 77.0573 4.32172 77.2158 4.28233C77.3425 4.25082 77.4892 4.23997 77.7321 4.23597C78.2625 4.22699 78.7862 4.21015 79.3036 4.1933C79.3802 4.19033 79.4754 4.16867 79.4813 4.15489C79.4931 4.12931 79.3453 4.11163 79.102 4.10284C76.5721 4.16739 74.0358 4.23194 71.5059 4.29649C71.0906 4.30741 71.0906 4.30742 70.5313 4.40101C70.4678 4.41185 70.3786 4.42466 70.2892 4.42763C67.8615 4.49019 65.4403 4.55177 63.0126 4.61432C62.8081 4.61929 62.6619 4.64195 62.5608 4.67543C62.4597 4.7089 62.3134 4.73156 62.1153 4.73653C59.7962 4.79611 57.4772 4.85668 55.1516 4.91331C54.8066 4.92126 54.5645 4.94394 54.4127 4.98923C54.2988 5.0227 54.1588 5.04045 53.9415 5.04542C51.7246 5.10104 49.5141 5.15961 47.2907 5.21327C47.0671 5.21824 46.8999 5.18975 46.9117 5.16318C46.9176 5.14941 47.0126 5.12677 47.0892 5.12479C48.2455 5.09204 49.3954 5.05832 50.5583 5.03344C50.9481 5.02548 51.0615 4.98216 51.2584 4.94572C51.3219 4.93291 51.3725 4.91618 51.4553 4.90927C51.5446 4.90138 51.6597 4.90234 51.7684 4.90035C54.5091 4.82984 57.2499 4.75836 59.9971 4.69178C60.3932 4.68185 60.4681 4.63362 60.6715 4.59914C60.7414 4.58732 60.8047 4.5696 60.8878 4.56761C61.731 4.5438 62.5743 4.52294 63.4177 4.50208C64.8934 4.46434 66.3692 4.4266 67.8514 4.38886C68.2794 4.37794 68.2794 4.37793 68.826 4.28533C68.8895 4.27449 68.9786 4.26071 69.0617 4.25872C72.9652 4.15842 76.8687 4.05812 80.7722 3.95881C80.9767 3.95384 81.1229 3.93118 81.224 3.89771C81.3251 3.86522 81.4713 3.84158 81.6693 3.83563C86.9464 3.70057 92.217 3.56551 97.4942 3.43242C97.8391 3.42348 98.0813 3.40276 98.2331 3.35649C98.3406 3.32301 98.487 3.30527 98.7042 3.29932C104.505 3.15135 110.306 3.00338 116.113 2.85442C120.017 2.75511 123.92 2.65383 127.824 2.55648C128.182 2.54754 128.372 2.51699 128.55 2.47662C128.607 2.46283 128.664 2.44019 128.74 2.4382C129.577 2.41341 130.414 2.39058 131.251 2.36776C131.514 2.39426 131.777 2.41978 132.04 2.44627C132.237 2.40884 132.428 2.37043 132.625 2.333C133.89 2.30417 135.135 2.2596 136.413 2.24552C136.497 2.24451 136.587 2.26319 136.677 2.273C137.274 2.33484 137.612 2.32984 137.987 2.24711C138.12 2.21756 138.234 2.19098 138.438 2.18601C139.071 2.16815 139.71 2.15619 140.336 2.13538C140.674 2.12448 140.956 2.13425 141.2 2.1696C141.374 2.19514 141.553 2.20592 141.764 2.19997C142.927 2.17018 144.083 2.14137 145.246 2.10961C145.329 2.10762 145.405 2.09087 145.469 2.07905C145.602 2.05344 145.716 2.02588 145.843 1.99928C146.016 2.01597 146.209 2.02871 146.35 2.05032C146.53 2.07586 146.696 2.07581 146.939 2.06887C151.577 1.94872 156.222 1.83152 160.86 1.71039C161.256 1.70046 161.43 1.74174 161.7 1.76332C161.789 1.77117 161.879 1.78098 161.975 1.78292C162.078 1.78486 162.186 1.77894 162.288 1.77596C165.77 1.68659 169.252 1.59819 172.734 1.50882C173.194 1.49691 173.194 1.49691 173.88 1.55774C173.964 1.56559 174.073 1.57441 174.162 1.57144C175.747 1.53269 177.331 1.491 178.909 1.45127C179.113 1.4463 179.287 1.462 179.473 1.48458C179.839 1.52876 179.865 1.52876 180.131 1.46377C180.258 1.43324 180.391 1.41451 180.602 1.4056C180.832 1.39571 181.017 1.39863 181.197 1.41629C181.454 1.44083 181.641 1.48209 182.03 1.47118C183.717 1.42454 185.41 1.38577 187.09 1.33814C187.473 1.32723 187.679 1.36063 187.936 1.38516C188.026 1.39399 188.109 1.40775 188.205 1.41068C188.301 1.4136 188.416 1.40668 188.518 1.40371C190.627 1.35008 192.741 1.29744 194.843 1.23988C195.239 1.22896 195.413 1.27122 195.683 1.29279C195.773 1.30064 195.875 1.3144 195.958 1.31241C197.223 1.28161 198.495 1.24883 199.76 1.21606C200.213 1.20415 200.213 1.20513 200.906 1.26498C200.99 1.27283 201.099 1.28067 201.188 1.27869C202.664 1.24193 204.146 1.20419 205.622 1.16646C206.075 1.15454 206.075 1.15454 207.388 1.20539C207.484 1.2093 207.587 1.21518 207.683 1.21319C209.369 1.17049 211.062 1.12876 212.749 1.0831C213.087 1.07416 213.369 1.08197 213.613 1.11732C213.787 1.14286 213.966 1.15364 214.177 1.14769C216.075 1.09903 217.979 1.05234 219.87 1.00073C220.234 0.990805 220.471 1.01238 220.728 1.04085C220.811 1.05067 220.895 1.06442 220.991 1.06834C221.087 1.07225 221.196 1.06828 221.298 1.06531C223.195 1.01665 225.099 0.970941 226.99 0.918348C227.373 0.907434 227.579 0.940831 227.836 0.965364C227.926 0.974197 228.022 0.991882 228.099 0.99088C228.84 0.973979 229.581 0.95905 230.316 0.934279C230.712 0.920412 230.886 0.965615 231.156 0.987194C231.245 0.994059 231.348 1.0088 231.431 1.00681C233.016 0.968064 234.6 0.927352 236.178 0.885656C236.402 0.8797 236.568 0.888505 236.748 0.91404C236.986 0.948416 237.262 0.962123 237.607 0.951219C238.341 0.928416 239.082 0.912502 239.823 0.893633C240.258 0.882707 240.258 0.882711 241.59 0.933548C241.686 0.93746 241.788 0.943334 241.884 0.941343C243.149 0.909559 244.421 0.87876 245.679 0.844026C246.018 0.834107 246.299 0.842891 246.544 0.878249C246.717 0.903785 246.89 0.914571 247.107 0.908616C248.27 0.878825 249.427 0.849032 250.589 0.81924C251.011 0.808318 251.432 0.78952 251.854 0.789419C252.161 0.790329 252.387 0.837495 252.663 0.861039C252.74 0.867907 252.867 0.860015 252.97 0.858023C254.445 0.820286 255.928 0.785496 257.397 0.742841C257.78 0.731928 257.986 0.765325 258.243 0.789858C258.333 0.798691 258.429 0.816376 258.506 0.815374C259.036 0.804426 259.56 0.789542 260.09 0.776626C260.723 0.760734 261.362 0.748776 261.988 0.726983C262.499 0.709152 262.693 0.794691 263.103 0.797544C263.416 0.800421 263.735 0.783623 264.048 0.775678C264.681 0.759786 265.313 0.741928 265.946 0.728004C266.17 0.723031 266.342 0.707243 266.411 0.671811C266.423 0.664921 266.314 0.650197 266.243 0.64136C265.389 0.54122 265.389 0.541215 264.533 0.563063C264.003 0.576963 263.479 0.590864 262.949 0.602796C262.859 0.604785 262.757 0.59694 262.667 0.591059C262.411 0.574396 262.435 0.554716 262.651 0.519249C262.868 0.483781 263.032 0.440459 263.216 0.400081C263.479 0.425596 263.736 0.451103 263.999 0.476618C264.21 0.471649 264.421 0.465704 264.632 0.460735C265.686 0.434904 266.74 0.408088 267.794 0.384225C267.871 0.382239 267.968 0.401894 268.057 0.41171C268.314 0.440178 268.545 0.464711 268.916 0.4538C269.861 0.425044 270.813 0.404157 271.759 0.379336C272.174 0.368415 272.174 0.368416 272.905 0.429235C272.989 0.436101 273.098 0.443946 273.187 0.441957C274.139 0.419102 275.084 0.394284 276.036 0.370445C276.241 0.365478 276.44 0.378219 276.588 0.406713C276.646 0.418504 276.634 0.438178 276.883 0.599458C277.642 0.730118 278.159 0.716228 278.683 0.704297C278.907 0.699324 279.105 0.694353 279.251 0.674643C279.328 0.663803 279.423 0.648037 279.423 0.635248C279.422 0.625411 279.281 0.609701 279.191 0.607755C278.558 0.588232 277.958 0.629699 277.338 0.638702C277.05 0.642706 276.8 0.608333 276.747 0.552271C276.733 0.536534 276.713 0.519815 276.694 0.50408C276.674 0.488344 276.661 0.471624 276.641 0.455888C276.391 0.451029 276.245 0.46877 276.137 0.502244C276.049 0.52981 275.922 0.561322 275.75 0.576119C275.578 0.591901 275.341 0.589012 275.13 0.593981C274.926 0.598949 274.702 0.61179 274.51 0.60495C274.318 0.597126 274.164 0.568628 273.984 0.550963C273.901 0.542129 273.798 0.52937 273.715 0.531357C272.98 0.548257 272.252 0.56515 271.523 0.586967C271.14 0.598864 270.947 0.557599 270.703 0.532079C270.51 0.512449 270.319 0.517408 270.288 0.562669C270.209 0.670903 270.505 0.716083 271.156 0.695268C271.693 0.677432 272.179 0.674373 272.603 0.741168C272.661 0.750008 272.796 0.753909 272.879 0.751922C273.403 0.739991 273.92 0.725109 274.444 0.713178C274.54 0.711188 274.642 0.715092 274.732 0.719006C276.038 0.771817 276.038 0.772806 276.479 0.760895C276.69 0.754942 276.894 0.749973 276.87 0.600446C277.267 0.439995 277.906 0.429023 278.525 0.405264C278.928 0.390411 279.102 0.433657 279.365 0.456221C279.455 0.464069 279.551 0.479784 279.634 0.477796C281.008 0.445003 282.375 0.410238 283.742 0.373511C283.972 0.367553 284.139 0.373417 284.319 0.398952C284.55 0.431361 284.807 0.451963 285.171 0.440071C285.899 0.416286 286.64 0.401355 287.381 0.381502C287.758 0.371574 287.758 0.371564 288.521 0.432375C288.605 0.439241 288.713 0.447086 288.803 0.445097C289.544 0.428195 290.279 0.407366 291.014 0.389482C291.218 0.384514 291.404 0.398241 291.565 0.424765C291.726 0.451288 291.918 0.465013 292.116 0.460047C292.857 0.442161 293.592 0.422316 294.327 0.404432C294.416 0.402443 294.525 0.409303 294.608 0.41617C295.391 0.476976 295.391 0.476966 295.748 0.467043C296.272 0.45216 296.809 0.445153 297.326 0.425354C297.831 0.405557 298.095 0.462548 298.442 0.493946C299.387 0.471093 300.339 0.452178 301.278 0.424407C301.661 0.41251 301.867 0.444922 302.124 0.470439C302.214 0.479271 302.304 0.497943 302.387 0.49694C302.707 0.492928 303.02 0.482033 303.333 0.474088C303.646 0.466143 303.965 0.458197 304.278 0.450252C304.637 0.478695 304.877 0.545534 305.387 0.522785C305.694 0.508938 306.02 0.505909 306.333 0.497964C306.646 0.490019 306.965 0.482073 307.278 0.474128C307.489 0.469158 307.706 0.466151 307.911 0.457248C308.287 0.442401 308.475 0.490567 308.744 0.512145C308.834 0.51901 308.937 0.530783 309.02 0.528796C309.652 0.514871 310.291 0.502914 310.911 0.480138C311.39 0.462316 311.717 0.491754 312.057 0.532991C312.128 0.541828 312.25 0.546718 312.339 0.544729C313.08 0.527827 313.815 0.506986 314.549 0.489102C314.748 0.484136 314.94 0.49983 315.101 0.525369C315.268 0.551891 315.454 0.564645 315.658 0.559677C316.393 0.541793 317.134 0.521934 317.869 0.504051C317.958 0.502062 318.067 0.509907 318.151 0.517757C318.869 0.578579 318.869 0.579564 319.291 0.567658C319.393 0.564682 319.502 0.56268 319.604 0.559705C320.128 0.545806 320.671 0.540764 321.182 0.517031C321.769 0.490329 322.199 0.523675 322.617 0.57965C323.14 0.56772 323.677 0.560703 324.188 0.540905C324.571 0.526057 324.777 0.563389 325.034 0.587922C325.124 0.596754 325.22 0.614439 325.297 0.612453C326.038 0.595551 326.779 0.580623 327.508 0.555854C327.904 0.541986 328.078 0.586206 328.347 0.608768C328.437 0.616617 328.533 0.630374 328.616 0.628386C329.038 0.620415 329.46 0.608503 329.882 0.597581C330.374 0.584674 330.373 0.585656 331.028 0.64551C331.336 0.673966 331.642 0.651264 331.942 0.644306C332.262 0.636359 332.562 0.630387 332.819 0.67066C332.98 0.696199 333.173 0.711894 333.371 0.707912C333.792 0.698957 334.221 0.690004 334.636 0.675148C334.968 0.663263 335.256 0.67106 335.5 0.707401C335.674 0.732938 335.853 0.745692 336.064 0.739739C337.01 0.715901 337.961 0.69107 338.907 0.668217C338.99 0.666229 339.105 0.675059 339.183 0.683894C339.362 0.701559 339.536 0.721189 339.709 0.740823C340.124 0.731869 340.553 0.727842 340.961 0.713971C341.396 0.700094 341.792 0.695079 342.133 0.749105C342.204 0.760893 342.307 0.777583 342.39 0.77658C342.709 0.772568 343.022 0.762658 343.335 0.754713C343.648 0.746768 343.968 0.738822 344.281 0.730877C344.646 0.755384 344.879 0.826159 345.39 0.803409C345.696 0.789563 346.022 0.786534 346.335 0.778589C346.648 0.770643 346.968 0.761714 347.281 0.754752C347.383 0.75276 347.498 0.747811 347.588 0.751725C347.684 0.755637 347.767 0.769393 347.851 0.77921C348.108 0.807678 348.345 0.836154 348.709 0.819343C349.016 0.805496 349.342 0.802466 349.655 0.793537C350.083 0.782613 350.083 0.782615 350.795 0.844422C351.083 0.869931 351.408 0.836406 351.684 0.857983C351.87 0.872695 352.031 0.897246 352.211 0.913927C352.288 0.920795 352.409 0.923713 352.499 0.921724C352.92 0.912769 353.348 0.903817 353.764 0.888961C354.102 0.877074 354.384 0.888811 354.622 0.924169C354.795 0.949706 354.968 0.960492 355.185 0.954537C356.24 0.926739 357.294 0.902868 358.342 0.87212C358.699 0.861213 358.988 0.877872 359.187 0.91324C359.528 0.974153 360.005 0.902224 360.359 0.951328C360.577 0.981773 360.796 1.01714 361.192 1.00229C361.92 0.976534 362.661 0.962576 363.396 0.944692C363.659 0.971191 363.922 0.997696 364.192 1.02419C364.613 1.01327 365.035 1.00234 365.457 0.992403C365.77 0.984457 366.089 0.975528 366.402 0.968566C366.505 0.966574 366.613 0.962612 366.709 0.967508C366.805 0.972404 366.883 0.985177 366.972 0.994994C367.415 1.04309 367.415 1.04408 368.144 1.02423C368.457 1.0153 368.757 1.00933 369.021 1.04862C369.265 1.08496 369.553 1.09177 369.885 1.08087C370.511 1.06104 371.144 1.04614 371.783 1.03221C371.981 1.02724 372.167 1.04392 372.334 1.06946C372.585 1.10974 372.892 1.10573 373.205 1.09483C373.62 1.08096 374.028 1.06709 374.382 1.1221C374.453 1.13389 374.562 1.15058 374.639 1.14957C375.163 1.14158 375.694 1.13555 376.204 1.11674C376.715 1.09792 376.967 1.15886 377.32 1.18828C377.844 1.17537 378.374 1.16245 378.898 1.14954C379 1.14656 379.121 1.13768 379.211 1.14258C379.589 1.16315 379.809 1.23688 380.326 1.21413C380.626 1.20127 380.952 1.19726 381.265 1.19423C381.348 1.19323 381.458 1.20992 381.516 1.22269C381.548 1.22957 381.517 1.24827 381.479 1.25812C381.365 1.28569 381.225 1.31131 381.124 1.33986C381.111 1.3438 381.233 1.36147 381.304 1.36933C381.477 1.38699 381.675 1.384 381.905 1.37607C382.103 1.36914 382.308 1.38286 382.45 1.41234C382.508 1.42413 382.489 1.44381 382.37 1.50877C382.372 1.55698 382.506 1.5353 382.549 1.5038C382.618 1.45853 382.483 1.44381 382.228 1.46847C382.05 1.48622 381.961 1.51182 382.007 1.53247C382.033 1.54328 382.155 1.55703 382.37 1.50877C382.931 1.44961 383.353 1.43869 383.774 1.42777C383.883 1.42479 384.01 1.41492 384.087 1.4208C384.363 1.44435 384.62 1.47282 384.89 1.49932C385.196 1.49334 385.484 1.47851 385.785 1.5168C386.209 1.57081 386.229 1.56589 386.637 1.55497C386.848 1.54901 387.059 1.54405 387.27 1.53908C387.481 1.53411 387.647 1.54883 387.834 1.57141C388.213 1.61756 388.245 1.61754 388.492 1.55452C388.637 1.51612 388.739 1.50331 388.925 1.52097C389.541 1.58084 389.548 1.58477 390.072 1.56693C390.506 1.55207 390.915 1.54804 391.237 1.60404C391.456 1.64334 391.526 1.63447 391.697 1.59311C392.153 1.4838 392.364 1.48571 393.231 1.56421C393.635 1.60149 394.049 1.56106 394.458 1.55605C394.803 1.55203 395.047 1.57558 395.075 1.63755C395.096 1.67591 395.154 1.70345 395.385 1.71618C395.474 1.72108 395.583 1.72794 395.673 1.72595C396.203 1.71402 396.727 1.70012 397.257 1.68622C397.526 1.67926 397.671 1.633 397.618 1.57202C397.558 1.5071 397.659 1.48346 398.042 1.46468C398.272 1.4538 398.458 1.45573 398.644 1.4734C398.849 1.49302 398.792 1.51074 398.614 1.5462C398.189 1.63288 398.242 1.68598 398.794 1.74586C398.987 1.76647 399.141 1.78513 399.187 1.81562C399.213 1.83135 399.188 1.85202 399.246 1.86381C399.562 1.92964 399.998 1.97185 400.485 2.00321C400.951 1.97654 401.273 2.02072 401.632 2.05605C401.914 2.08353 402.246 2.05985 402.546 2.04994C402.885 2.03903 403.166 2.04683 403.411 2.08317C403.584 2.10871 403.764 2.12047 403.975 2.1155C404.396 2.10458 404.824 2.09759 405.239 2.08175C405.597 2.06789 405.866 2.08751 406.091 2.1209C406.374 2.16314 406.687 2.13453 406.981 2.14036C407.378 2.14715 407.579 2.23465 408.096 2.21092C408.403 2.19707 408.722 2.19208 409.042 2.18807C409.125 2.18706 409.228 2.20377 409.299 2.21556C409.64 2.26958 410.036 2.26653 410.47 2.25069C410.77 2.2398 411.064 2.22989 411.36 2.2672C411.848 2.33005 412.387 2.38502 412.901 2.44293C412.973 2.48817 412.924 2.5413 413.289 2.56777C413.481 2.5815 413.661 2.60212 413.809 2.62471C413.989 2.65123 414.156 2.65808 414.386 2.65114C414.801 2.63727 415.236 2.6342 415.644 2.6164C416.021 2.60056 416.259 2.63298 416.49 2.66342C416.676 2.68797 416.849 2.69973 417.073 2.68197C417.302 2.66519 417.469 2.67597 417.655 2.70249C417.919 2.73882 417.938 2.73489 418.808 2.7455C418.897 2.74646 419.007 2.76119 419.058 2.77396C419.084 2.78084 419.027 2.80054 418.983 2.81039C418.926 2.82221 418.837 2.836 418.754 2.83897C417.808 2.86477 416.856 2.88763 415.911 2.91343C415.815 2.91641 415.713 2.92333 415.643 2.93318C415.567 2.94402 415.471 2.95879 415.472 2.97256C415.472 2.9824 415.6 2.99418 415.69 3.00104C415.972 3.0236 416.304 2.98909 416.579 3.0146C416.766 3.03128 416.92 3.05485 417.106 3.07055C417.183 3.07742 417.304 3.07641 417.4 3.07442C417.72 3.06745 418.033 3.05754 418.352 3.05156C418.442 3.05056 418.544 3.06038 418.628 3.06823C419.244 3.1271 419.244 3.1271 419.774 3.11419C419.985 3.10922 420.208 3.0944 420.407 3.10026C420.599 3.10612 420.766 3.13264 420.939 3.14932C421.299 3.18465 421.639 3.219 421.667 3.29573C421.681 3.32524 421.893 3.35076 422.104 3.35268C422.309 3.3546 422.526 3.34373 422.737 3.33778C423.235 3.32585 423.235 3.32585 423.883 3.38571C424.063 3.40239 424.254 3.40431 424.484 3.39442C424.574 3.39046 424.683 3.39437 424.779 3.39927C425.093 3.41395 425.093 3.43264 424.89 3.4681C424.604 3.52031 424.63 3.52523 425.437 3.5693C425.745 3.58595 425.982 3.61738 426.239 3.64486C426.656 3.68903 426.65 3.68903 426.377 3.74713C426.314 3.75994 426.257 3.77373 426.193 3.78752C426.009 3.82593 425.864 3.86728 425.48 3.8713C425.058 3.87534 424.637 3.89119 424.215 3.90211C423.806 3.91303 423.698 3.93666 423.739 4.00354C423.787 4.0842 423.871 4.09304 424.606 4.09188C424.817 4.09183 425.003 4.09965 425.163 4.12617C425.088 4.15767 424.948 4.1823 424.744 4.18825C424.22 4.20314 423.69 4.21606 423.166 4.22897C422.744 4.23989 422.322 4.25081 421.901 4.26173C421.639 4.26868 421.474 4.31988 421.547 4.37692C421.586 4.40938 421.619 4.44183 421.653 4.47429C421.725 4.5392 421.86 4.5559 422.289 4.55285C422.397 4.55184 422.499 4.54393 422.602 4.54588C423.018 4.55266 423.219 4.63427 423.717 4.61742C424.132 4.60355 424.567 4.6005 424.976 4.58269C425.352 4.56686 425.564 4.60224 425.828 4.62873C425.917 4.63757 426.014 4.65623 426.091 4.65522C426.621 4.64427 427.152 4.63333 427.669 4.61452C427.912 4.60659 428.059 4.61246 428.251 4.63602C428.714 4.69297 428.727 4.69001 429.41 4.67214C429.909 4.65825 429.915 4.66021 430.557 4.72007C430.736 4.73675 430.928 4.7367 431.158 4.72878C431.458 4.71887 431.771 4.70305 432.085 4.71773C432.181 4.72165 432.303 4.73343 432.335 4.74621C432.355 4.75506 432.266 4.77672 432.19 4.78363C431.629 4.83492 430.97 4.82622 430.357 4.84703C430.165 4.85298 429.972 4.83433 429.812 4.80781C429.644 4.78128 429.465 4.77051 429.248 4.77548C428.826 4.7864 428.398 4.79339 427.983 4.80923C427.625 4.82309 427.375 4.80052 427.125 4.77008C427.041 4.76026 426.944 4.74159 426.861 4.7426C425.916 4.7625 424.964 4.78241 424.025 4.81018C423.648 4.82207 423.429 4.79065 423.172 4.76415C423.083 4.75531 422.992 4.73664 422.909 4.73765C422.59 4.74166 422.277 4.75255 421.957 4.7605C420.795 4.79029 419.638 4.82008 418.475 4.84791C418.399 4.84989 418.302 4.82925 418.212 4.82042C418.039 4.80275 417.859 4.78607 417.68 4.76939C417.36 4.77734 417.047 4.78725 416.728 4.79323C416.498 4.79722 416.293 4.81105 416.263 4.84844C416.245 4.87303 416.457 4.89561 416.68 4.89359C416.898 4.89157 417.115 4.87971 417.294 4.89245C418.185 4.9552 418.185 4.95619 418.741 4.94327C419.227 4.93134 419.175 4.92151 419.605 4.97552C419.792 4.99908 419.959 5.01282 420.169 5.00687C420.693 4.99297 421.224 4.97907 421.754 4.96714C421.837 4.96515 421.946 4.97497 422.029 4.98282C422.658 5.04169 422.658 5.04366 423.176 5.02878C423.853 5.01091 423.878 5.00598 424.335 5.06588C424.649 5.10712 424.936 5.07853 425.237 5.07649C425.583 5.11477 425.962 5.14912 426.277 5.19233C426.65 5.24339 427.039 5.23444 427.461 5.21958C427.774 5.20868 428.081 5.20468 428.338 5.24495C428.582 5.28227 428.876 5.28615 429.209 5.27623C429.509 5.2673 429.815 5.24853 430.129 5.2701C430.213 5.27598 430.341 5.29071 430.335 5.29957C430.329 5.31334 430.247 5.33304 430.164 5.33896C429.577 5.37944 428.931 5.37861 428.311 5.39745C428.228 5.40042 428.119 5.38962 428.036 5.38177C427.856 5.3641 427.683 5.34349 427.509 5.32484C427.196 5.33082 426.877 5.33286 426.57 5.34473C426.334 5.35365 426.155 5.35271 425.981 5.32914C425.82 5.30754 425.647 5.28101 425.455 5.27417C425.263 5.26733 425.039 5.28214 424.829 5.2881C424.618 5.29405 424.375 5.29115 424.209 5.30693C424.043 5.32271 423.942 5.35717 423.835 5.38474C423.714 5.41527 423.548 5.42515 423.305 5.42816C423.082 5.43117 422.903 5.42727 422.735 5.39977C422.665 5.38798 422.568 5.37914 422.472 5.3713C422.382 5.36443 422.28 5.35363 422.196 5.35562C421.245 5.37847 420.299 5.4033 419.347 5.42714C418.874 5.43906 418.881 5.43905 417.894 5.38124C417.804 5.37635 417.695 5.36949 417.606 5.37148C417.075 5.38341 416.552 5.39731 416.021 5.41121C415.485 5.42511 415.491 5.42314 414.574 5.36138C414.408 5.34962 414.165 5.36542 413.967 5.3635C413.551 5.35868 413.343 5.27609 412.858 5.29195C412.443 5.30582 412.008 5.30888 411.593 5.32668C411.216 5.34251 410.998 5.30814 410.741 5.28164C410.651 5.2728 410.554 5.25315 410.478 5.25514C409.526 5.27701 408.58 5.30183 407.314 5.30508C407.001 5.30516 407.142 5.32579 407.347 5.33262C407.642 5.34337 407.737 5.32269 407.576 5.28338C407.46 5.25586 407.293 5.24212 407.159 5.24904C407.089 5.25299 407 5.27171 407.314 5.30508C407.648 5.34239 407.63 5.36305 407.688 5.37484C407.829 5.40333 408.028 5.41509 408.233 5.41111C408.552 5.40414 408.865 5.39423 409.185 5.38825C409.274 5.38626 409.383 5.39313 409.466 5.40098C410.172 5.4618 410.179 5.46574 410.926 5.44195C411.162 5.43501 411.335 5.43496 411.521 5.45361C411.778 5.47913 411.965 5.52236 412.354 5.5085C412.872 5.48968 413.402 5.47874 413.932 5.46779C414.015 5.4658 414.105 5.48349 414.202 5.49134C414.465 5.51488 414.658 5.55911 415.048 5.54032C415.348 5.52549 415.674 5.52147 415.993 5.51844C416.076 5.51744 416.205 5.53315 416.244 5.54593C416.321 5.56854 416.226 5.59513 416.01 5.61388C415.92 5.62177 415.799 5.61983 415.697 5.6228C415.275 5.63372 414.853 5.64562 414.432 5.65458C414.208 5.65955 413.997 5.67437 413.973 5.71077C413.955 5.73537 414.186 5.75695 414.403 5.75493C414.723 5.75191 415.042 5.74396 415.349 5.7311C415.892 5.70932 416.365 5.71511 416.808 5.77698C417.123 5.82019 417.104 5.80446 417.441 5.93227C417.525 5.96472 417.775 5.96761 417.992 5.96559C418.516 5.96054 418.76 5.97524 418.716 6.00575C418.66 6.04315 418.475 6.05499 418.238 6.05997C417.817 6.06794 417.395 6.08084 416.973 6.09176C416.871 6.09473 416.756 6.10066 416.66 6.09871C416.564 6.09677 416.474 6.08499 416.391 6.07615C416.211 6.0575 416.057 6.02901 415.865 6.02217C415.673 6.01533 415.449 6.03014 415.238 6.03609C415.028 6.04106 414.804 6.05587 414.612 6.04903C414.42 6.04219 414.259 6.01272 414.086 5.99506C414.002 5.98622 413.9 5.97247 413.817 5.97347C413.395 5.98144 412.973 5.99434 412.552 6.00427C412.034 6.01719 412.034 6.01719 411.405 5.95635C411.225 5.93868 411.04 5.93971 410.804 5.94764C410.293 5.9635 410.286 5.96054 409.351 5.90371C409.261 5.89783 409.152 5.89097 409.062 5.89394C408.11 5.9168 407.165 5.94162 406.219 5.96545C405.408 5.98631 405.408 5.98632 404.964 6.0848C404.634 6.15768 404.628 6.15767 404.955 6.19104C405.218 6.21853 405.456 6.2588 405.745 6.27349C406.014 6.2872 406.345 6.24285 406.64 6.28803C406.788 6.31062 406.981 6.33518 407.167 6.33907C407.461 6.34391 407.773 6.31531 408.056 6.35852C408.198 6.38013 408.41 6.40272 408.589 6.40366C408.902 6.40555 409.221 6.38972 409.534 6.38276C409.63 6.38077 409.739 6.38075 409.829 6.38565C409.925 6.39153 410.008 6.40331 410.092 6.41313C410.349 6.44652 410.624 6.46219 410.956 6.44539C411.499 6.41771 411.985 6.43137 412.41 6.49423C412.467 6.50307 412.608 6.50402 412.698 6.50007C412.927 6.49017 413.126 6.48914 413.299 6.50779C413.37 6.51564 413.472 6.52938 413.46 6.53824C413.441 6.553 413.365 6.5727 413.282 6.57764C412.682 6.61123 412.037 6.61532 411.417 6.63318C411.334 6.63517 411.231 6.6224 411.148 6.61356C410.968 6.5959 410.814 6.56643 410.621 6.55959C410.429 6.55275 410.206 6.56559 409.995 6.57056C409.784 6.57553 409.561 6.59034 409.369 6.58448C409.177 6.57764 408.997 6.55309 408.843 6.53148C408.663 6.50693 408.49 6.50403 408.254 6.51392C407.947 6.52678 407.628 6.52882 407.315 6.53578C407.141 6.51713 406.968 6.49651 406.788 6.47884C406.705 6.47001 406.602 6.45922 406.512 6.46022C406.091 6.4682 405.669 6.4801 405.247 6.49102C404.826 6.50194 404.826 6.50195 404.107 6.44113C404.024 6.43426 403.915 6.42642 403.825 6.42841C403.295 6.44034 402.771 6.45521 402.241 6.46714C402.037 6.47211 401.851 6.45839 401.683 6.43186C401.523 6.40534 401.33 6.39063 401.132 6.3956C400.289 6.41646 399.445 6.43634 398.602 6.46114C398.264 6.47105 397.976 6.46227 397.744 6.42691C397.474 6.38664 397.174 6.39655 396.861 6.4045C396.152 6.42434 396.145 6.42335 395.689 6.37329C395.6 6.36347 395.509 6.3448 395.426 6.34581C394.691 6.36074 393.95 6.37469 393.222 6.39848C392.839 6.41136 392.633 6.37698 392.376 6.35146C392.286 6.34263 392.19 6.32396 392.113 6.32594C391.583 6.33689 391.052 6.34686 390.535 6.36666C390.018 6.38646 389.816 6.29502 389.426 6.2961C388.895 6.29721 388.372 6.31996 387.848 6.33386C387.426 6.34478 387.005 6.3557 386.583 6.36662C386.162 6.37754 385.74 6.38649 385.318 6.39939C385.095 6.40633 384.928 6.39751 384.742 6.37296C384.504 6.34055 384.222 6.31505 383.965 6.2856C383.573 6.24339 383.573 6.24339 383.1 6.2553C382.998 6.25828 382.89 6.26027 382.787 6.26325C382.014 6.28507 382.014 6.28311 381.027 6.22137C380.982 6.21843 380.868 6.22928 380.823 6.23716C380.69 6.26277 380.569 6.29034 380.449 6.31693C380.276 6.30123 380.064 6.29243 379.948 6.26983C379.62 6.20597 379.112 6.29364 378.777 6.23076C378.654 6.20718 378.443 6.18657 378.25 6.18071C378.052 6.17486 377.829 6.18869 377.624 6.19464C377.094 6.20952 377.094 6.20854 376.643 6.29621C376.415 6.33955 376.082 6.33175 375.782 6.34166C375.469 6.35256 375.168 6.35853 374.905 6.31826C374.667 6.28192 374.379 6.27314 374.04 6.28502C373.625 6.29988 373.197 6.30883 372.775 6.31779C372.686 6.31978 372.577 6.31489 372.487 6.30901C371.507 6.2512 371.507 6.25022 371.034 6.26312C370.823 6.26907 370.606 6.27108 370.401 6.27999C370.057 6.29581 369.794 6.27521 369.543 6.24379C369.46 6.23398 369.363 6.21532 369.28 6.21632C368.858 6.22134 368.443 6.23029 368.028 6.23924C367.708 6.24621 367.389 6.25022 367.082 6.26407C366.571 6.28682 366.32 6.22292 365.967 6.19349C365.443 6.20641 364.913 6.21539 364.389 6.23322C364.146 6.24115 363.986 6.23824 363.8 6.21468C363.562 6.18522 363.343 6.15183 362.96 6.16668C362.45 6.18647 361.913 6.19349 361.389 6.20542C361.036 6.17501 360.778 6.11308 360.274 6.13583C359.967 6.14968 359.641 6.15271 359.328 6.16065C358.906 6.17158 358.485 6.18152 358.063 6.19343C357.609 6.20534 357.616 6.20239 356.917 6.14451C356.513 6.11018 356.098 6.14864 355.689 6.15464C355.37 6.15964 355.211 6.20493 355.29 6.26295C355.369 6.32098 355.198 6.36627 354.904 6.37421C354.17 6.39308 353.428 6.41293 352.694 6.42983C352.604 6.43181 352.495 6.42496 352.412 6.41809C351.623 6.3563 351.623 6.35729 351.272 6.36623C350.748 6.38111 350.211 6.3891 349.694 6.40792C349.336 6.42079 349.073 6.40021 348.842 6.36681C348.662 6.34128 348.495 6.33541 348.265 6.34137C345.736 6.40789 343.205 6.46949 340.682 6.53797C340.305 6.5479 340.087 6.51943 339.83 6.49293C339.74 6.4841 339.656 6.46542 339.567 6.46544C339.356 6.46549 339.145 6.4744 338.934 6.48035C337.989 6.50419 337.043 6.53294 336.091 6.55088C335.689 6.55885 335.582 6.60413 335.41 6.64155C335.277 6.67011 335.124 6.68195 334.888 6.68594C334.658 6.68993 334.491 6.68505 334.311 6.65952C334.08 6.62612 333.817 6.60553 333.459 6.61938C333.044 6.63522 332.622 6.64222 332.194 6.65314C331.977 6.65811 331.811 6.67586 331.742 6.71129C331.73 6.7172 331.865 6.73193 331.942 6.74076C332.198 6.77021 332.443 6.80459 332.731 6.82518C333.026 6.84576 333.345 6.82207 333.652 6.81609C333.76 6.8141 333.862 6.80818 333.965 6.80914C334.061 6.8101 334.176 6.81499 334.247 6.82383C334.581 6.86802 334.934 6.89843 335.393 6.87176C335.79 6.88445 335.998 6.96605 336.502 6.94429C336.809 6.93143 337.128 6.92545 337.448 6.92045C337.531 6.91945 337.621 6.93714 337.711 6.94597C337.967 6.9705 338.174 7.0098 338.557 6.99299C338.965 6.97518 339.4 6.97213 339.815 6.95825C340.045 6.95033 340.211 6.95718 340.391 6.98271C340.623 7.01512 340.886 7.03964 341.243 7.02382C341.55 7.00997 341.876 7.00694 342.189 6.99801C342.598 6.98709 342.598 6.98808 343.329 7.0489C343.412 7.05576 343.521 7.06361 343.611 7.06162C344.141 7.04969 344.665 7.0348 345.195 7.02287C345.4 7.0179 345.598 7.03064 345.74 7.05914C345.798 7.07093 345.78 7.09062 345.799 7.10734C344.745 7.13416 343.691 7.15703 342.643 7.18975C342.248 7.20263 342.067 7.16234 341.804 7.13977C341.714 7.13193 341.618 7.11523 341.535 7.11721C340.793 7.13412 340.059 7.15199 339.324 7.17381C339.094 7.18075 338.921 7.17686 338.748 7.14837C338.304 7.07273 337.768 7.11418 337.27 7.12512C336.886 7.13308 336.766 7.16361 336.813 7.22853C336.873 7.30525 337.104 7.3288 337.692 7.31489C337.903 7.30992 338.114 7.30298 338.325 7.29899C338.529 7.29501 338.715 7.30775 338.882 7.33427C339.043 7.3608 339.235 7.37452 339.434 7.37054C339.855 7.36159 340.283 7.35263 340.692 7.33778C341.031 7.32589 341.312 7.33566 341.55 7.372C341.814 7.41228 342.121 7.40335 342.427 7.39442C343.143 7.37457 343.149 7.37556 343.598 7.42464C343.688 7.43446 343.779 7.45313 343.862 7.45213C344.597 7.43719 345.338 7.42423 346.06 7.40044C346.436 7.38855 346.655 7.41997 346.905 7.44549C346.995 7.45432 347.085 7.47398 347.169 7.47199C347.699 7.46104 348.229 7.45009 348.746 7.43127C348.989 7.42236 349.136 7.42823 349.335 7.45179C349.811 7.50972 349.824 7.50775 350.494 7.48889C350.699 7.48294 350.922 7.47207 351.114 7.47989C351.306 7.48772 351.461 7.51622 351.641 7.53388C351.724 7.54173 351.827 7.55252 351.916 7.55053C352.338 7.54256 352.76 7.53066 353.181 7.51974C353.577 7.50882 353.577 7.50981 354.321 7.57062C354.623 7.59613 354.935 7.57441 355.236 7.56646C355.562 7.55753 355.856 7.55747 356.106 7.59577C356.357 7.63408 356.658 7.63203 356.977 7.62409C357.277 7.61614 357.584 7.59444 357.891 7.62093C358.597 7.68175 358.597 7.68272 359.032 7.67081C359.664 7.65394 360.29 7.63805 360.929 7.62314C361.012 7.62115 361.121 7.63294 361.205 7.64079C361.384 7.65845 361.539 7.68792 361.731 7.69476C361.923 7.70259 362.146 7.69073 362.351 7.68478C363.009 7.66593 363.053 7.65903 363.497 7.72386C363.87 7.77689 364.327 7.70005 364.675 7.76096C364.874 7.79534 365.144 7.82282 365.514 7.80601C365.821 7.79216 366.14 7.78815 366.46 7.7802C366.964 7.76729 366.964 7.76829 367.606 7.82716C367.689 7.83501 367.799 7.84481 367.882 7.84282C368.303 7.83485 368.732 7.82787 369.14 7.81006C369.619 7.78929 369.927 7.8266 370.287 7.86292C370.569 7.89138 370.901 7.86768 371.201 7.85777C371.527 7.84786 371.821 7.85073 372.065 7.88904C372.323 7.92833 372.623 7.92334 372.943 7.91539C373.243 7.90844 373.549 7.88573 373.857 7.91321C374.518 7.97404 374.518 7.97404 374.997 7.96212C375.419 7.9512 375.84 7.9393 376.262 7.93133C376.345 7.92934 376.448 7.9421 376.531 7.95093C376.711 7.9686 376.865 7.99808 377.058 8.00492C377.25 8.01176 377.473 7.99892 377.684 7.99395C377.895 7.98898 378.118 7.97417 378.31 7.98003C378.502 7.98588 378.682 8.01044 378.836 8.03204C379.016 8.05758 379.183 8.06048 379.425 8.05059C379.732 8.03772 380.051 8.0347 380.364 8.02774C380.538 8.04639 380.717 8.06503 380.884 8.08565C381.058 8.10725 381.243 8.10524 381.48 8.0983C382.265 8.0745 382.272 8.07745 382.933 8.13829C383.234 8.16576 383.547 8.14306 383.847 8.1361C384.167 8.12815 384.467 8.12415 384.718 8.16344C384.962 8.20077 385.263 8.20561 385.582 8.19372C385.787 8.1858 386.004 8.18084 386.215 8.17784C386.311 8.17683 386.426 8.18074 386.496 8.18859C386.837 8.22983 387.171 8.26714 387.637 8.24046C388.046 8.24824 388.254 8.32885 388.745 8.313C389.161 8.29912 389.595 8.29606 390.004 8.27825C390.381 8.26242 390.65 8.28991 390.843 8.3243C391.191 8.38521 391.674 8.30246 392.021 8.36238C392.221 8.39677 392.478 8.42425 392.861 8.4094C393.282 8.39356 393.417 8.41418 393.541 8.47613C393.613 8.51153 393.601 8.54007 393.474 8.56764C393.347 8.5962 393.206 8.59132 393.001 8.5589C392.763 8.52256 392.481 8.51573 392.142 8.52368C391.81 8.53163 391.604 8.48054 391.328 8.46093C391.052 8.44033 390.727 8.47484 390.439 8.44835C389.759 8.38654 389.759 8.38654 389.299 8.39845C388.986 8.4064 388.66 8.41041 388.353 8.42426C387.989 8.44107 387.751 8.41062 387.501 8.38314C387.411 8.37332 387.321 8.35465 387.244 8.35565C386.509 8.37058 385.768 8.38454 385.04 8.40931C384.657 8.42219 384.451 8.38682 384.194 8.36229C384.104 8.35346 384.008 8.33577 383.931 8.33776C383.299 8.35168 382.673 8.36954 382.04 8.38642C381.92 8.41301 381.786 8.43861 381.672 8.46717C381.552 8.49671 381.386 8.50954 381.143 8.50862C380.74 8.50871 380.345 8.55013 379.94 8.49809C379.523 8.44506 379.491 8.44802 379.089 8.46091C378.578 8.47775 378.034 8.47395 377.556 8.51243C377.473 8.51934 377.384 8.53804 377.384 8.55181C377.378 8.56067 377.513 8.57343 377.597 8.58128C377.879 8.60482 378.204 8.57032 378.486 8.59484C378.672 8.61054 378.826 8.63411 379.012 8.65079C379.089 8.65765 379.204 8.65665 379.307 8.65564C379.415 8.65463 379.517 8.64772 379.62 8.64868C379.716 8.64964 379.818 8.65551 379.895 8.66435C380.248 8.70165 380.621 8.736 380.935 8.78019C381.244 8.8234 381.531 8.79382 381.837 8.79178C383.068 8.86035 383.068 8.86133 383.892 8.83949C384.096 8.83452 384.307 8.82857 384.518 8.82951C384.608 8.82948 384.692 8.84716 384.782 8.85698C385.038 8.88643 385.282 8.91294 385.64 8.89711C385.946 8.88326 386.272 8.88023 386.585 8.87131C387.007 8.86038 387.007 8.86038 387.725 8.92219C387.905 8.93789 388.097 8.93588 388.327 8.92795C388.525 8.92102 388.73 8.93573 388.872 8.96422C388.93 8.97601 388.911 8.99569 388.931 9.01241C388.298 9.0283 387.659 9.03928 387.046 9.06304C386.65 9.07789 386.47 9.03563 386.207 9.01307C386.117 9.00522 386.021 8.98852 385.937 8.99051C385.311 9.00541 384.685 9.02228 384.059 9.0421C383.983 9.04409 383.888 9.06674 383.882 9.08051C383.87 9.10609 384.03 9.13065 384.261 9.12961C384.568 9.12855 384.868 9.11176 385.144 9.15202C385.376 9.18738 385.664 9.20307 386.002 9.18724C386.206 9.17834 386.424 9.17829 386.628 9.17037C387.171 9.14663 387.663 9.15143 388.075 9.21822C388.389 9.23586 388.696 9.21906 388.996 9.21014C389.219 9.2032 389.436 9.19625 389.597 9.2149C389.937 9.25417 390.271 9.29345 390.737 9.26677C391.243 9.2942 391.629 9.35215 392.053 9.39927C392.252 9.42185 392.406 9.43461 392.636 9.41979C392.731 9.41387 392.846 9.41383 392.949 9.41086C393.159 9.40589 393.383 9.39108 393.575 9.39693C393.767 9.40377 393.928 9.43227 394.101 9.44993C394.185 9.45877 394.281 9.4735 394.364 9.4725C394.684 9.4675 394.997 9.45759 395.31 9.44964C395.623 9.44268 395.936 9.43572 396.249 9.42876C396.512 9.45428 396.781 9.4798 397.045 9.50531C397.466 9.49439 397.888 9.48346 398.303 9.47352C398.77 9.4616 398.77 9.46259 399.443 9.52342C399.745 9.5509 400.064 9.53311 400.351 9.52025C400.83 9.49948 401.151 9.53679 401.492 9.57606C401.562 9.58391 401.69 9.5888 401.773 9.58484C402.105 9.57099 402.393 9.58174 402.638 9.61808C402.811 9.64362 402.984 9.65539 403.195 9.65042C403.93 9.63155 404.665 9.61169 405.399 9.59479C405.489 9.5928 405.591 9.60164 405.675 9.60949C406.329 9.66934 406.336 9.67229 406.815 9.65643C407.243 9.64256 407.639 9.63656 407.98 9.69058C408.051 9.70237 408.16 9.71907 408.237 9.71807C408.761 9.70811 409.291 9.69716 409.808 9.68031C410.045 9.67238 410.211 9.6753 410.397 9.69788C410.635 9.72635 410.847 9.76074 411.237 9.74785C412.316 9.7112 412.323 9.71708 413.604 9.78466C413.694 9.78956 413.815 9.78166 413.917 9.7777C414.134 9.76781 414.295 9.78155 414.487 9.80413C414.918 9.85518 414.93 9.85223 415.339 9.84131C415.652 9.83238 415.978 9.83033 416.285 9.8155C416.757 9.79375 417.072 9.83204 417.425 9.86836C417.707 9.89682 418.033 9.87313 418.333 9.8642C418.659 9.85429 418.953 9.85716 419.197 9.89449C419.364 9.92002 419.544 9.93376 419.755 9.92879C420.489 9.91091 421.224 9.89105 421.959 9.87317C422.048 9.87118 422.157 9.87902 422.241 9.88589C422.972 9.94671 422.972 9.94967 423.694 9.92687C423.924 9.91992 424.116 9.91791 424.289 9.93853C424.456 9.95816 424.636 9.97681 424.809 9.99546C425.122 9.9885 425.442 9.98646 425.748 9.97458C425.985 9.96567 426.151 9.96956 426.337 9.99018C426.581 10.0167 426.787 10.0629 427.17 10.0401C427.368 10.0293 427.598 10.0322 427.796 10.0223C428.032 10.0094 428.193 10.0173 428.379 10.0428C428.61 10.0732 428.848 10.1047 429.218 10.0888C429.627 10.071 430.062 10.068 430.477 10.0541C430.707 10.0462 430.867 10.054 431.053 10.0795C431.285 10.112 431.548 10.1326 431.905 10.1197C432.633 10.0949 432.64 10.0998 433.352 10.1616C433.532 10.1773 433.723 10.1753 433.953 10.1674C434.151 10.1605 434.356 10.1752 434.498 10.2037C434.634 10.2351 434.621 10.2548 434.635 10.2715ZM377.328 1.41259C377.117 1.41756 376.906 1.42351 376.596 1.33799C376.576 1.32324 376.589 1.30553 376.543 1.29276C376.44 1.26622 376.28 1.24757 376.088 1.24466C375.742 1.24081 375.328 1.27435 375.335 1.29993C375.342 1.32157 375.452 1.34023 375.663 1.35789C375.753 1.36475 375.824 1.37654 375.907 1.38439C376.151 1.40696 376.345 1.45119 376.695 1.42848C376.629 1.3675 376.662 1.39799 376.695 1.42848C376.665 1.46587 376.762 1.49241 376.992 1.50318C377.056 1.50611 377.152 1.50412 377.203 1.4982C377.401 1.47651 377.431 1.447 377.282 1.36932C377.256 1.38211 377.276 1.40473 377.334 1.41061C377.392 1.4165 377.532 1.41156 377.603 1.40465C377.781 1.38592 377.87 1.3613 377.824 1.34065C377.798 1.32984 377.676 1.31609 377.599 1.31611C377.465 1.31615 377.344 1.33782 377.328 1.41259ZM429.452 12.8089C428.986 12.8277 428.449 12.821 427.983 12.8594C427.9 12.8664 427.818 12.8841 427.812 12.8979C427.806 12.9067 427.934 12.9195 428.011 12.9263C428.185 12.942 428.376 12.9371 428.6 12.9321C428.939 12.9251 429.138 12.9703 429.401 12.9929C429.485 12.9998 429.594 13.0047 429.683 13.0027C430.201 12.9907 430.712 12.9778 431.229 12.9639C431.319 12.961 431.414 12.9541 431.491 12.9452C431.745 12.9166 431.719 12.8979 431.469 12.8763C431.193 12.8528 430.974 12.8135 430.692 12.7948C430.288 12.7684 429.88 12.8039 429.452 12.8089ZM393.164 13.5358C392.85 13.5437 392.544 13.5517 392.231 13.5596C392.128 13.5626 392.02 13.5636 391.924 13.5675C391.726 13.5745 391.58 13.5952 391.485 13.6277C391.633 13.6532 391.813 13.6679 392.011 13.6649C392.324 13.6589 392.63 13.6461 392.944 13.6431C393.282 13.639 393.482 13.6833 393.745 13.7058C393.829 13.7127 393.931 13.7136 394.027 13.7146C394.5 13.7184 394.786 13.6672 394.694 13.5954C394.628 13.5394 394.384 13.506 394.09 13.5129C393.783 13.5199 393.47 13.5278 393.164 13.5358ZM431.586 11.3544C431.662 11.3376 431.745 11.3258 431.783 11.3111C431.896 11.2609 431.85 11.2235 431.637 11.1842C431.38 11.136 431.068 11.1686 430.78 11.1736C430.71 11.1746 430.634 11.1952 430.596 11.208C430.571 11.2169 430.571 11.2356 430.61 11.2405C430.925 11.2798 431.258 11.3161 431.586 11.3544ZM376.006 8.46164C375.7 8.46959 375.387 8.47557 375.08 8.48646C375.003 8.48943 374.934 8.50814 374.889 8.52094C374.807 8.54457 374.898 8.57701 375.16 8.5799C375.461 8.58376 375.774 8.56696 376.087 8.55902C376.483 8.54908 376.718 8.51263 376.57 8.48118C376.428 8.45072 376.236 8.44487 376.006 8.46164ZM39.3231 6.43998C39.5275 6.43501 39.7384 6.43102 39.9428 6.42409C40.1343 6.41716 40.2807 6.39548 40.3755 6.36299C40.2147 6.33745 40.0351 6.32372 39.8369 6.32672C39.5238 6.3327 39.2172 6.34064 38.9106 6.35055C38.719 6.3565 38.5344 6.37819 38.4909 6.41165C38.447 6.43724 38.8759 6.45189 39.3231 6.43998ZM348.881 6.21431C348.964 6.22315 349.048 6.24084 349.131 6.24082C349.336 6.24077 349.547 6.23481 349.738 6.22493C349.821 6.22097 349.885 6.20325 349.922 6.18947C349.948 6.18061 349.941 6.16488 349.902 6.15701C349.715 6.10984 348.974 6.12674 348.854 6.18088C348.842 6.19072 348.874 6.20349 348.881 6.21431ZM328.509 0.832048C328.529 0.847784 328.536 0.863521 328.562 0.879255C328.614 0.908755 328.755 0.930369 328.961 0.945076C329.12 0.920444 329.202 0.892883 329.194 0.863371C329.187 0.847633 329.167 0.831887 329.141 0.816153C329.089 0.786652 328.948 0.765051 328.743 0.750343C328.584 0.773992 328.508 0.801551 328.509 0.832048ZM446.45 13.6942C446.393 13.707 446.335 13.7198 446.272 13.7316C446.446 13.7601 446.606 13.7689 446.727 13.7531C446.803 13.7433 446.847 13.7285 446.905 13.7157C446.731 13.6872 446.577 13.6794 446.45 13.6942ZM442.477 13.8289C442.561 13.8378 442.638 13.8496 442.728 13.8554C442.875 13.8652 443.009 13.8485 443.11 13.813C443.026 13.8042 442.949 13.7924 442.859 13.7865C442.712 13.7767 442.578 13.7935 442.477 13.8289ZM444.99 13.6483C444.946 13.6719 445.036 13.6916 445.274 13.7082C445.331 13.6954 445.407 13.6836 445.445 13.6698C445.508 13.6472 445.398 13.6266 445.168 13.6109C445.104 13.6227 445.047 13.6355 444.99 13.6483ZM431.452 12.591C431.408 12.6147 431.498 12.6343 431.736 12.651C431.793 12.6382 431.869 12.6263 431.907 12.6126C431.97 12.5899 431.861 12.5693 431.63 12.5536C431.566 12.5654 431.509 12.5782 431.452 12.591ZM412.807 5.63431C412.749 5.64712 412.692 5.65992 412.629 5.67174C412.803 5.70023 412.963 5.70904 413.084 5.69327C413.16 5.68342 413.204 5.66865 413.261 5.65584C413.088 5.62736 412.934 5.61953 412.807 5.63431ZM395.054 1.94548C395.208 1.95233 395.335 1.93853 395.443 1.9021C395.359 1.89327 395.282 1.88148 395.192 1.8756C395.045 1.8658 394.911 1.88256 394.81 1.918C394.894 1.92782 394.977 1.93664 395.054 1.94548ZM385.69 1.71653C385.633 1.72934 385.576 1.74214 385.513 1.75396C385.686 1.78245 385.847 1.79126 385.968 1.77549C386.044 1.76564 386.088 1.75087 386.145 1.73807C385.972 1.70958 385.818 1.70273 385.69 1.71653ZM322.217 0.832571C322.16 0.845374 322.102 0.858177 322.039 0.869997C322.213 0.898485 322.373 0.907298 322.494 0.891528C322.57 0.881672 322.614 0.866905 322.671 0.854102C322.498 0.825614 322.344 0.818767 322.217 0.832571ZM6.62162 8.91216C6.53817 8.90333 6.45479 8.8945 6.3777 8.88468C6.19322 8.91129 6.13659 8.93589 6.23959 8.95456C6.30397 8.96635 6.40006 8.97322 6.48352 8.98205C6.67438 8.95544 6.71826 8.93181 6.62162 8.91216Z" fill="#F9A307"/>
</svg>
