<svg width="22" height="22" viewBox="0 0 22 22" fill="none" xmlns="http://www.w3.org/2000/svg">
<path d="M0 6C0 2.68629 2.68629 0 6 0H16C19.3137 0 22 2.68629 22 6V16C22 19.3137 19.3137 22 16 22H6C2.68629 22 0 19.3137 0 16V6Z" fill="#F7910F"/>
<path d="M15.2614 6.47425C15.4713 6.27436 15.7507 6.16385 16.0406 6.16605C16.3305 6.16824 16.6082 6.28296 16.8151 6.486C17.022 6.68904 17.1419 6.96452 17.1496 7.25431C17.1573 7.5441 17.0521 7.82554 16.8562 8.03923L10.9092 15.4766C10.807 15.5868 10.6836 15.6752 10.5464 15.7365C10.4092 15.7979 10.261 15.8309 10.1107 15.8337C9.96046 15.8365 9.81117 15.8089 9.67179 15.7527C9.53241 15.6965 9.40581 15.6127 9.29954 15.5064L5.35578 11.5627C5.24596 11.4603 5.15787 11.3369 5.09677 11.1998C5.03567 11.0627 5.00282 10.9147 5.00017 10.7646C4.99753 10.6145 5.02514 10.4654 5.08136 10.3262C5.13758 10.187 5.22126 10.0606 5.32741 9.95441C5.43356 9.84826 5.56 9.76458 5.69919 9.70836C5.83838 9.65214 5.98747 9.62453 6.13756 9.62718C6.28766 9.62983 6.43568 9.66268 6.5728 9.72377C6.70992 9.78487 6.83333 9.87296 6.93567 9.98279L10.0567 13.1023L15.2331 6.50704C15.2424 6.49556 15.2523 6.48461 15.2629 6.47425H15.2614Z" fill="white"/>
</svg>
