<svg xmlns="http://www.w3.org/2000/svg" xmlns:xlink="http://www.w3.org/1999/xlink" id="Layer_1" data-name="Layer 1" viewBox="0 0 382.68 124.72"><defs><style>.cls-1,.cls-4{opacity:0.33;}.cls-1{fill:url(#linear-gradient);}.cls-2,.cls-5{opacity:0.66;}.cls-2{fill:url(#linear-gradient-2);}.cls-3{fill:url(#linear-gradient-3);}.cls-4{fill:url(#linear-gradient-4);}.cls-5{fill:url(#linear-gradient-5);}.cls-6{fill:url(#linear-gradient-6);}.cls-7{fill:#fff;}</style><linearGradient id="linear-gradient" x1="9.66" y1="61.91" x2="64.83" y2="61.91" gradientUnits="userSpaceOnUse"><stop offset="0" stop-color="#85be43"></stop><stop offset="0.08" stop-color="#87be43"></stop><stop offset="1" stop-color="#3caa49"></stop></linearGradient><linearGradient id="linear-gradient-2" x1="16.75" y1="61.91" x2="71.91" y2="61.91" xlink:href="#linear-gradient"></linearGradient><linearGradient id="linear-gradient-3" x1="23.83" y1="61.91" x2="79" y2="61.91" xlink:href="#linear-gradient"></linearGradient><linearGradient id="linear-gradient-4" x1="97" y1="61.91" x2="152.17" y2="61.91" gradientUnits="userSpaceOnUse"><stop offset="0" stop-color="#3caa49"></stop><stop offset="0.92" stop-color="#87be43"></stop><stop offset="1" stop-color="#85be43"></stop></linearGradient><linearGradient id="linear-gradient-5" x1="89.91" y1="61.91" x2="145.08" y2="61.91" xlink:href="#linear-gradient-4"></linearGradient><linearGradient id="linear-gradient-6" x1="82.82" y1="61.91" x2="137.99" y2="61.91" xlink:href="#linear-gradient-4"></linearGradient></defs><path class="cls-1" d="M64.83,100.38c-55.17,0-55.17,0-55.17-76.94C64.83,23.44,64.83,23.44,64.83,100.38Z"></path><path class="cls-2" d="M71.91,100.38c-55.16,0-55.16,0-55.16-76.93C71.91,23.45,71.91,23.45,71.91,100.38Z"></path><path class="cls-3" d="M79,100.38c-55.17,0-55.17,0-55.17-76.93C79,23.45,79,23.45,79,100.38Z"></path><path class="cls-4" d="M97,100.38c55.17,0,55.17,0,55.17-76.93C97,23.45,97,23.45,97,100.38Z"></path><path class="cls-5" d="M89.91,100.38c55.17,0,55.17,0,55.17-76.93C89.91,23.45,89.91,23.45,89.91,100.38Z"></path><path class="cls-6" d="M82.82,100.38c55.17,0,55.17,0,55.17-76.93C82.82,23.45,82.82,23.45,82.82,100.38Z"></path><path class="cls-7" d="M211.41,85.71l-25.63,0-4.9,9.52-18.83,0,36.51-68,36.61,67.94-18.83,0ZM204.8,73,198.61,61,192.35,73Z"></path><path class="cls-7" d="M255.87,37.8l0,57.27h0c-9,0-16.23-4.87-16.24-10.9l0-57.27h0C248.58,26.88,255.86,31.76,255.87,37.8Z"></path><path class="cls-7" d="M321.29,75.65c0,18-19.53,19.59-19.53,19.59l-36.93.06-.1-68,31.49,0s15.48,0,19.37,13.25a19.52,19.52,0,0,1-2.7,16.64S321.27,60.9,321.29,75.65Zm-40.2-20.54,14.54,0a7.58,7.58,0,1,0,0-15.16l-14.54,0ZM301,67.52l-19.87,0,0,15.17,19.88,0a7.5,7.5,0,0,0,7.52-7.54A7.6,7.6,0,0,0,301,67.52Z"></path><path class="cls-7" d="M355.34,43.31,355.42,95,339.1,95,339,43.33l-17.68,0,0-16.32L373,27l0,16.32Z"></path></svg>