<?xml version="1.0" encoding="UTF-8"?>
<svg width="642px" height="218px" viewBox="0 0 642 218" version="1.1" xmlns="http://www.w3.org/2000/svg" xmlns:xlink="http://www.w3.org/1999/xlink">
    <title>Hader-Logo-POS</title>
    <g id="Page-1" stroke="none" stroke-width="1" fill="none" fill-rule="evenodd">
        <g id="Hader-Logo-POS" fill-rule="nonzero">
            <g id="Image">
                <circle id="Oval" fill="#F5CA57" cx="54.33" cy="54.33" r="54.33"></circle>
                <circle id="Oval" fill="#C97BF0" cx="54.33" cy="162.98" r="54.33"></circle>
                <circle id="Oval" fill="#198F75" cx="162.98" cy="162.98" r="54.33"></circle>
                <circle id="Oval" fill="#4864E4" cx="162.98" cy="54.33" r="54.33"></circle>
            </g>
            <g id="Text" transform="translate(255.700000, 13.920000)" fill="#5A5758">
                <polygon id="Path" points="12.51 33.29 34.05 33.29 34.05 55.73 46.25 55.73 46.25 -1.77635684e-15 34.05 -1.77635684e-15 34.05 21.99 12.51 21.99 12.51 -1.77635684e-15 0.31 -1.77635684e-15 0.31 55.73 12.51 55.73"></polygon>
                <path d="M69.45,43.99 L87.45,43.99 L91.37,55.74 L104.32,55.74 L84.51,0.01 L72.61,0.01 L52.73,55.74 L65.46,55.74 L69.45,43.99 L69.45,43.99 Z M76.98,21.85 C77.33,20.85 77.65,19.85 77.92,18.87 C78.2,17.89 78.38,17.08 78.48,16.42 C78.58,17.07 78.78,17.9 79.08,18.91 C79.38,19.91 79.68,20.89 79.98,21.85 L83.97,33.75 L72.97,33.75 L76.96,21.85 L76.98,21.85 Z" id="Shape"></path>
                <path d="M146.68,52.19 C150.72,49.83 153.88,46.57 156.17,42.4 C158.45,38.23 159.6,33.44 159.6,28.02 C159.6,22.6 158.42,17.63 156.06,13.41 C153.7,9.19 150.45,5.9 146.31,3.54 C142.17,1.18 137.36,0 131.89,0 L110.8,0 L110.8,55.73 L132.64,55.73 C137.96,55.73 142.64,54.55 146.69,52.19 L146.68,52.19 Z M122.99,44.43 L122.99,11.3 L130.67,11.3 C134.03,11.3 136.91,11.97 139.29,13.3 C141.67,14.63 143.51,16.54 144.79,19.02 C146.07,21.51 146.71,24.51 146.71,28.02 C146.71,31.53 146.11,34.37 144.9,36.83 C143.69,39.29 141.95,41.17 139.67,42.48 C137.38,43.79 134.64,44.44 131.42,44.44 L122.98,44.44 L122.99,44.43 Z" id="Shape"></path>
                <polygon id="Path" points="203.51 44.44 180.31 44.44 180.31 32.91 200.87 32.91 200.87 22.22 180.31 22.22 180.31 11.3 203.51 11.3 203.51 -1.77635684e-15 168.11 -1.77635684e-15 168.11 55.73 203.51 55.73"></polygon>
                <path d="M225.72,36.23 L235.13,36.23 L243.49,55.74 L256.82,55.74 L247.03,33.6 C250.14,31.99 252.46,29.91 254,27.35 C255.53,24.79 256.3,21.7 256.3,18.09 C256.3,12.32 254.45,7.86 250.76,4.72 C247.07,1.58 241.84,0.01 235.06,0.01 L213.52,0.01 L213.52,55.74 L225.72,55.74 L225.72,36.23 L225.72,36.23 Z M225.72,10.85 L235.06,10.85 C237.77,10.85 239.84,11.47 241.27,12.69 C242.7,13.92 243.42,15.72 243.42,18.07 C243.42,20.42 242.68,22.26 241.2,23.57 C239.72,24.88 237.65,25.53 234.99,25.53 L225.73,25.53 L225.73,10.84 L225.72,10.85 Z" id="Shape"></path>
                <rect id="Rectangle" x="0.31" y="73.32" width="12.2" height="55.73"></rect>
                <polygon id="Path" points="59.65 108.77 36.16 73.32 24.11 73.32 24.11 129.06 36.16 129.06 36.16 93.68 59.65 129.06 71.71 129.06 71.71 73.32 59.65 73.32"></polygon>
                <path d="M116.89,101.9 C114.48,99.41 110.79,97.67 105.82,96.67 L97.46,94.94 C95.5,94.54 94.07,93.89 93.17,92.98 C92.27,92.08 91.81,90.77 91.81,89.06 C91.81,87.2 92.55,85.75 94.03,84.69 C95.51,83.64 97.48,83.11 99.94,83.11 C102.25,83.11 104.08,83.67 105.44,84.8 C106.8,85.93 107.47,87.47 107.47,89.43 L119.6,89.43 C119.6,85.92 118.81,82.88 117.23,80.32 C115.65,77.76 113.4,75.78 110.49,74.37 C107.58,72.96 104.11,72.26 100.1,72.26 C96.09,72.26 92.61,73 89.52,74.48 C86.43,75.96 84.01,78 82.25,80.58 C80.49,83.17 79.61,86.14 79.61,89.5 C79.61,94.07 80.88,97.76 83.41,100.57 C85.94,103.38 89.7,105.29 94.67,106.29 L103.18,108.02 C105.04,108.37 106.36,108.97 107.13,109.83 C107.91,110.68 108.3,111.89 108.3,113.45 C108.3,115.21 107.5,116.6 105.89,117.63 C104.28,118.66 102.1,119.17 99.34,119.17 C96.58,119.17 94.54,118.62 93.09,117.51 C91.63,116.41 90.91,114.85 90.91,112.84 L78.78,112.84 C78.78,116.3 79.62,119.33 81.3,121.92 C82.98,124.51 85.37,126.5 88.45,127.91 C91.53,129.32 95.14,130.02 99.26,130.02 C103.38,130.02 107.26,129.29 110.44,127.84 C113.63,126.38 116.1,124.31 117.86,121.63 C119.62,118.94 120.5,115.82 120.5,112.25 C120.5,107.83 119.29,104.38 116.88,101.89 L116.89,101.9 Z" id="Path"></path>
                <polygon id="Path" points="151.54 129.06 151.54 84.62 167.36 84.62 167.36 73.32 123.52 73.32 123.52 84.62 139.34 84.62 139.34 129.06"></polygon>
                <rect id="Rectangle" x="174.66" y="73.32" width="12.2" height="55.73"></rect>
                <polygon id="Path" points="209.98 129.06 222.18 129.06 222.18 84.62 238 84.62 238 73.32 194.17 73.32 194.17 84.62 209.98 84.62"></polygon>
                <path d="M244.93,73.32 L244.93,108.12 C244.93,112.54 245.87,116.39 247.75,119.68 C249.63,122.97 252.29,125.51 255.73,127.29 C259.17,129.07 263.2,129.96 267.82,129.96 C272.44,129.96 276.56,129.06 280.02,127.25 C283.48,125.44 286.16,122.91 288.04,119.64 C289.92,116.38 290.86,112.54 290.86,108.12 L290.86,73.32 L278.66,73.32 L278.66,107.29 C278.66,110.71 277.72,113.37 275.84,115.27 C273.96,117.18 271.28,118.13 267.82,118.13 C264.36,118.13 261.77,117.2 259.91,115.34 C258.05,113.48 257.12,110.8 257.12,107.28 L257.12,73.31 L244.92,73.31 L244.93,73.32 Z" id="Path"></path>
                <polygon id="Path" points="313.62 129.06 325.82 129.06 325.82 84.62 341.63 84.62 341.63 73.32 297.8 73.32 297.8 84.62 313.62 84.62"></polygon>
                <polygon id="Path" points="384.34 117.76 361.14 117.76 361.14 106.24 381.7 106.24 381.7 95.54 361.14 95.54 361.14 84.62 384.34 84.62 384.34 73.32 348.94 73.32 348.94 129.06 384.34 129.06"></polygon>
                <path d="M28.5,151.22 C25.69,149.49 22.44,148.63 18.73,148.63 C15.02,148.63 11.82,149.49 9.01,151.22 C6.2,152.95 4,155.32 2.4,158.34 C0.8,161.36 0,164.85 0,168.81 C0,172.77 0.79,176.31 2.38,179.34 C3.96,182.36 6.17,184.73 8.99,186.44 C11.81,188.15 15.04,189 18.68,189 C22.32,189 25.65,188.15 28.48,186.44 C31.3,184.73 33.52,182.36 35.12,179.32 C36.72,176.28 37.52,172.78 37.52,168.82 C37.52,164.86 36.72,161.37 35.12,158.35 C33.52,155.33 31.31,152.95 28.51,151.23 L28.5,151.22 Z M30.31,176.7 C29.21,178.97 27.67,180.74 25.7,182.02 C23.72,183.3 21.4,183.94 18.74,183.94 C16.08,183.94 13.81,183.31 11.83,182.05 C9.85,180.79 8.31,179.03 7.22,176.76 C6.12,174.49 5.57,171.85 5.57,168.83 C5.57,165.81 6.12,163.16 7.22,160.9 C8.32,158.63 9.86,156.88 11.83,155.64 C13.81,154.4 16.11,153.78 18.74,153.78 C21.37,153.78 23.72,154.4 25.7,155.64 C27.68,156.88 29.22,158.64 30.31,160.9 C31.41,163.17 31.96,165.81 31.96,168.83 C31.96,171.85 31.41,174.44 30.31,176.71 L30.31,176.7 Z" id="Shape"></path>
                <polygon id="Path" points="44.64 149.33 44.26 149.33 44.26 188.35 49.55 188.35 49.55 171.78 64.88 171.78 64.88 166.98 49.55 166.98 49.55 154.19 67.8 154.19 67.8 149.33 49.55 149.33"></polygon>
                <polygon id="Path" points="88.95 188.35 112.76 188.35 112.76 183.44 94.24 183.44 94.24 171.08 110.92 171.08 110.92 166.38 94.24 166.38 94.24 154.19 112.76 154.19 112.76 149.33 88.95 149.33"></polygon>
                <path d="M143.33,151.78 C140.4,150.14 136.99,149.32 133.1,149.32 L120.42,149.32 L120.42,188.34 L133.32,188.34 C137.17,188.34 140.54,187.52 143.44,185.88 C146.34,184.24 148.59,181.96 150.21,179.03 C151.83,176.1 152.64,172.71 152.64,168.86 C152.64,165.01 151.82,161.57 150.18,158.63 C148.54,155.7 146.26,153.41 143.33,151.77 L143.33,151.78 Z M145.38,176.61 C144.21,178.79 142.57,180.47 140.47,181.66 C138.37,182.85 135.86,183.44 132.94,183.44 L125.71,183.44 L125.71,154.19 L132.73,154.19 C135.72,154.19 138.28,154.78 140.42,155.97 C142.56,157.16 144.22,158.85 145.39,161.04 C146.56,163.24 147.14,165.84 147.14,168.87 C147.14,171.9 146.55,174.44 145.39,176.62 L145.38,176.61 Z" id="Shape"></path>
                <path d="M183.62,174.16 C183.62,177.25 182.79,179.65 181.14,181.34 C179.48,183.03 177.13,183.88 174.07,183.88 C171.01,183.88 168.59,183.04 166.92,181.37 C165.25,179.7 164.41,177.29 164.41,174.16 L164.41,149.33 L159.12,149.33 L159.12,174.48 C159.12,177.47 159.72,180.05 160.93,182.23 C162.14,184.41 163.86,186.08 166.11,187.25 C168.36,188.42 171.01,189 174.07,189 C177.13,189 179.77,188.41 182,187.22 C184.23,186.03 185.95,184.36 187.15,182.2 C188.36,180.04 188.96,177.47 188.96,174.48 L188.96,149.33 L183.62,149.33 L183.62,174.16 L183.62,174.16 Z" id="Path"></path>
                <path d="M221.54,181.74 C219.44,183.16 216.94,183.87 214.06,183.87 C211.47,183.87 209.18,183.25 207.21,182.01 C205.23,180.77 203.7,179.01 202.62,176.75 C201.54,174.49 201,171.84 201,168.82 C201,165.8 201.54,163.11 202.62,160.86 C203.7,158.61 205.22,156.87 207.18,155.62 C209.14,154.38 211.43,153.76 214.06,153.76 C216.9,153.76 219.35,154.48 221.4,155.92 C223.45,157.36 224.84,159.36 225.56,161.91 L231.23,161.91 C230.76,159.25 229.74,156.93 228.15,154.95 C226.57,152.97 224.59,151.43 222.21,150.33 C219.83,149.23 217.17,148.68 214.22,148.68 C210.51,148.68 207.25,149.53 204.42,151.22 C201.59,152.91 199.39,155.27 197.81,158.29 C196.23,161.31 195.43,164.84 195.43,168.87 C195.43,172.9 196.2,176.42 197.75,179.42 C199.3,182.42 201.46,184.76 204.23,186.44 C207,188.11 210.24,188.95 213.95,188.95 C216.9,188.95 219.59,188.41 222.02,187.33 C224.45,186.25 226.48,184.74 228.12,182.8 C229.76,180.86 230.85,178.59 231.39,176 L225.78,176 C225.06,178.41 223.65,180.33 221.54,181.75 L221.54,181.74 Z" id="Path"></path>
                <path d="M246.77,149.33 L232.52,188.35 L238.03,188.35 L241.48,178.63 L257.89,178.63 L261.4,188.35 L266.96,188.35 L252.66,149.33 L246.78,149.33 L246.77,149.33 Z M243.1,174.05 L249.04,157.75 C249.18,157.35 249.31,156.95 249.42,156.54 C249.53,156.13 249.62,155.78 249.69,155.49 C249.73,155.78 249.82,156.13 249.96,156.54 C250.1,156.95 250.23,157.36 250.34,157.75 L256.33,174.05 L243.11,174.05 L243.1,174.05 Z" id="Shape"></path>
                <polygon id="Path" points="264.86 154.19 276.62 154.19 276.62 188.35 281.91 188.35 281.91 154.19 293.62 154.19 293.62 149.33 264.86 149.33"></polygon>
                <rect id="Rectangle" x="298.97" y="149.33" width="5.29" height="39.02"></rect>
                <path d="M339.56,151.22 C336.75,149.49 333.5,148.63 329.79,148.63 C326.08,148.63 322.88,149.49 320.07,151.22 C317.26,152.95 315.06,155.32 313.46,158.34 C311.86,161.36 311.06,164.85 311.06,168.81 C311.06,172.77 311.85,176.31 313.44,179.34 C315.02,182.36 317.23,184.73 320.05,186.44 C322.87,188.15 326.1,189 329.74,189 C333.38,189 336.71,188.15 339.54,186.44 C342.36,184.73 344.58,182.36 346.18,179.32 C347.78,176.28 348.58,172.78 348.58,168.82 C348.58,164.86 347.78,161.37 346.18,158.35 C344.58,155.33 342.37,152.95 339.57,151.23 L339.56,151.22 Z M341.37,176.7 C340.27,178.97 338.73,180.74 336.76,182.02 C334.78,183.3 332.46,183.94 329.8,183.94 C327.14,183.94 324.87,183.31 322.89,182.05 C320.91,180.79 319.37,179.03 318.28,176.76 C317.18,174.49 316.63,171.85 316.63,168.83 C316.63,165.81 317.18,163.16 318.28,160.9 C319.38,158.63 320.92,156.88 322.89,155.64 C324.87,154.4 327.17,153.78 329.8,153.78 C332.43,153.78 334.78,154.4 336.76,155.64 C338.74,156.88 340.28,158.64 341.37,160.9 C342.47,163.17 343.02,165.81 343.02,168.83 C343.02,171.85 342.47,174.44 341.37,176.71 L341.37,176.7 Z" id="Shape"></path>
                <polygon id="Path" points="380.58 149.33 380.58 179.51 360.61 149.33 355.32 149.33 355.32 188.35 360.61 188.35 360.61 158.17 380.58 188.35 385.87 188.35 385.87 149.33"></polygon>
            </g>
        </g>
    </g>
</svg>