<svg width="51" height="51" viewBox="0 0 51 51" fill="none" xmlns="http://www.w3.org/2000/svg">
<g filter="url(#filter0_d_19744_9660)">
<rect x="3" y="3" width="43" height="43" rx="10" fill="url(#paint0_linear_19744_9660)"/>
</g>
<path d="M26 15C25.2916 14.9989 24.6056 15.2487 24.0636 15.7049C23.5216 16.1612 23.1585 16.7945 23.0387 17.4928C22.919 18.1911 23.0502 18.9092 23.4092 19.52C23.7681 20.1309 24.3317 20.5949 25 20.83V23H22C21.2044 23 20.4413 23.3161 19.8787 23.8787C19.3161 24.4413 19 25.2044 19 26V27.17C18.3325 27.4059 17.7699 27.8702 17.4117 28.4808C17.0534 29.0914 16.9225 29.809 17.0422 30.5068C17.1619 31.2046 17.5244 31.8375 18.0657 32.2939C18.6069 32.7502 19.2921 33.0005 20 33.0005C20.708 33.0005 21.3931 32.7502 21.9344 32.2939C22.4757 31.8375 22.8382 31.2046 22.9578 30.5068C23.0775 29.809 22.9467 29.0914 22.5884 28.4808C22.2301 27.8702 21.6675 27.4059 21 27.17V26C21 25.7348 21.1054 25.4804 21.2929 25.2929C21.4805 25.1054 21.7348 25 22 25H30C30.2652 25 30.5196 25.1054 30.7071 25.2929C30.8947 25.4804 31 25.7348 31 26V27.17C30.3325 27.4059 29.7699 27.8702 29.4117 28.4808C29.0534 29.0914 28.9225 29.809 29.0422 30.5068C29.1619 31.2046 29.5244 31.8375 30.0657 32.2939C30.6069 32.7502 31.2921 33.0005 32 33.0005C32.708 33.0005 33.3931 32.7502 33.9344 32.2939C34.4757 31.8375 34.8382 31.2046 34.9578 30.5068C35.0775 29.809 34.9467 29.0914 34.5884 28.4808C34.2301 27.8702 33.6675 27.4059 33 27.17V26C33 25.2044 32.684 24.4413 32.1214 23.8787C31.5587 23.3161 30.7957 23 30 23H27V20.83C27.6672 20.5939 28.2294 20.1295 28.5874 19.519C28.9454 18.9085 29.0761 18.1912 28.9565 17.4937C28.8368 16.7961 28.4745 16.1633 27.9335 15.707C27.3926 15.2508 26.7077 15.0003 26 15Z" fill="white"/>
<defs>
<filter id="filter0_d_19744_9660" x="0" y="0" width="51" height="51" filterUnits="userSpaceOnUse" color-interpolation-filters="sRGB">
<feFlood flood-opacity="0" result="BackgroundImageFix"/>
<feColorMatrix in="SourceAlpha" type="matrix" values="0 0 0 0 0 0 0 0 0 0 0 0 0 0 0 0 0 0 127 0" result="hardAlpha"/>
<feOffset dx="1" dy="1"/>
<feGaussianBlur stdDeviation="2"/>
<feComposite in2="hardAlpha" operator="out"/>
<feColorMatrix type="matrix" values="0 0 0 0 0 0 0 0 0 0 0 0 0 0 0 0 0 0 0.25 0"/>
<feBlend mode="normal" in2="BackgroundImageFix" result="effect1_dropShadow_19744_9660"/>
<feBlend mode="normal" in="SourceGraphic" in2="effect1_dropShadow_19744_9660" result="shape"/>
</filter>
<linearGradient id="paint0_linear_19744_9660" x1="24.5" y1="3" x2="24.5" y2="46" gradientUnits="userSpaceOnUse">
<stop stop-color="#24556D"/>
<stop offset="1" stop-color="#46A5D3"/>
</linearGradient>
</defs>
</svg>
