<svg width="51" height="51" viewBox="0 0 51 51" fill="none" xmlns="http://www.w3.org/2000/svg">
<g filter="url(#filter0_d_19744_9658)">
<rect x="3" y="3" width="43" height="43" rx="10" fill="url(#paint0_linear_19744_9658)"/>
</g>
<g clip-path="url(#clip0_19744_9658)">
<path d="M34.5278 17.5L28.375 23.5797V17.5H26.7566L20.875 23.4656V13.75H13.75V36.25H36.25V17.5H34.5278ZM34.75 34.75H15.25V15.25H19.375V25.375H21.099L26.875 19.5165V25.375H28.6921L34.75 19.3891V34.75Z" fill="white"/>
<path d="M19.375 28.375V28.75H20.875V27.25H19.375V28.375ZM19.375 30.625H20.875V32.125H19.375V30.625ZM23.125 28.375V28.75H24.625V27.25H23.125V28.375ZM23.125 30.625H24.625V32.125H23.125V30.625ZM26.875 28.375V28.75H28.375V27.25H26.875V28.375ZM26.875 30.625H28.375V32.125H26.875V30.625ZM30.625 27.25H32.125V28.75H30.625V27.25ZM30.625 30.625H32.125V32.125H30.625V30.625Z" fill="white"/>
</g>
<defs>
<filter id="filter0_d_19744_9658" x="0" y="0" width="51" height="51" filterUnits="userSpaceOnUse" color-interpolation-filters="sRGB">
<feFlood flood-opacity="0" result="BackgroundImageFix"/>
<feColorMatrix in="SourceAlpha" type="matrix" values="0 0 0 0 0 0 0 0 0 0 0 0 0 0 0 0 0 0 127 0" result="hardAlpha"/>
<feOffset dx="1" dy="1"/>
<feGaussianBlur stdDeviation="2"/>
<feComposite in2="hardAlpha" operator="out"/>
<feColorMatrix type="matrix" values="0 0 0 0 0 0 0 0 0 0 0 0 0 0 0 0 0 0 0.25 0"/>
<feBlend mode="normal" in2="BackgroundImageFix" result="effect1_dropShadow_19744_9658"/>
<feBlend mode="normal" in="SourceGraphic" in2="effect1_dropShadow_19744_9658" result="shape"/>
</filter>
<linearGradient id="paint0_linear_19744_9658" x1="24.5" y1="3" x2="24.5" y2="46" gradientUnits="userSpaceOnUse">
<stop stop-color="#24556D"/>
<stop offset="1" stop-color="#46A5D3"/>
</linearGradient>
<clipPath id="clip0_19744_9658">
<rect width="24" height="24" fill="white" transform="translate(13 13)"/>
</clipPath>
</defs>
</svg>
