<svg width="51" height="51" viewBox="0 0 51 51" fill="none" xmlns="http://www.w3.org/2000/svg">
<g filter="url(#filter0_d_19744_9661)">
<rect x="3" y="3" width="43" height="43" rx="10" fill="url(#paint0_linear_19744_9661)"/>
</g>
<g clip-path="url(#clip0_19744_9661)">
<path d="M32.5 30.9998C32.1022 30.9998 31.7206 31.1578 31.4393 31.4391C31.158 31.7204 31 32.102 31 32.4998C31 32.5568 31.0105 32.6115 31.0173 32.667C29.304 34.0203 27.1833 34.7544 25 34.7498C19.624 34.7498 15.25 30.3765 15.25 24.9998C15.25 23.4135 15.619 21.9 16.3465 20.5028L15.016 19.8105C14.1849 21.4141 13.7508 23.1937 13.75 24.9998C13.75 31.203 18.7968 36.2498 25 36.2498C27.5305 36.2498 29.9365 35.4098 31.9037 33.8753C32.1082 33.9642 32.33 34.0065 32.5529 33.9989C32.7757 33.9914 32.9941 33.9342 33.1921 33.8317C33.3901 33.7291 33.5627 33.5836 33.6975 33.4059C33.8322 33.2282 33.9256 33.0227 33.9708 32.8043C34.0161 32.586 34.0121 32.3603 33.9592 32.1437C33.9062 31.9271 33.8057 31.725 33.6648 31.5521C33.5239 31.3793 33.3462 31.24 33.1448 31.1444C32.9433 31.0489 32.723 30.9995 32.5 30.9998Z" fill="white"/>
<path d="M22.75 30.25V31.75H21.25V30.25H22.75ZM22.75 19.75V21.25H21.25V19.75H22.75ZM22.75 25V26.5H21.25V25H22.75Z" fill="white"/>
<path d="M25 13.75C22.4695 13.75 20.0635 14.59 18.0963 16.1245C17.8 15.9962 17.4702 15.9668 17.1559 16.0409C16.8417 16.115 16.5597 16.2884 16.3519 16.5356C16.1441 16.7827 16.0216 17.0903 16.0026 17.4126C15.9836 17.7349 16.0691 18.0547 16.2464 18.3246C16.4237 18.5944 16.6833 18.7998 16.9867 18.9103C17.2901 19.0208 17.621 19.0305 17.9303 18.9379C18.2396 18.8452 18.5108 18.6553 18.7035 18.3962C18.8962 18.1372 19.0002 17.8229 19 17.5C19 17.443 18.9895 17.3882 18.9828 17.3327C20.696 15.9794 22.8167 15.2454 25 15.25C26.2405 15.25 27.25 16.2595 27.25 17.5C27.25 18.7405 26.2405 19.75 25 19.75H24.25V21.25H25C27.0678 21.25 28.75 19.5677 28.75 17.5C28.749 17.32 28.7358 17.1435 28.7103 16.9705C29.4621 17.8496 29.8751 18.9683 29.875 20.125C29.875 22.813 27.688 25 25 25H24.25V26.5H25C28.5153 26.5 31.375 23.6403 31.375 20.125C31.375 19.5512 31.2917 18.997 31.1485 18.4675C32.0285 19.7222 32.5004 21.2175 32.5 22.75C32.5 26.8855 29.1355 30.25 25 30.25H24.25V31.75H25C29.9628 31.75 34 27.7128 34 22.75C34 22.075 33.9205 21.4195 33.7795 20.7865C34.4167 22.0998 34.7485 23.5403 34.75 25C34.75 26.5863 34.381 28.0998 33.6535 29.497L34.984 30.1893C35.8151 28.5857 36.2492 26.8061 36.25 25C36.25 18.7968 31.2033 13.75 25 13.75Z" fill="white"/>
</g>
<defs>
<filter id="filter0_d_19744_9661" x="0" y="0" width="51" height="51" filterUnits="userSpaceOnUse" color-interpolation-filters="sRGB">
<feFlood flood-opacity="0" result="BackgroundImageFix"/>
<feColorMatrix in="SourceAlpha" type="matrix" values="0 0 0 0 0 0 0 0 0 0 0 0 0 0 0 0 0 0 127 0" result="hardAlpha"/>
<feOffset dx="1" dy="1"/>
<feGaussianBlur stdDeviation="2"/>
<feComposite in2="hardAlpha" operator="out"/>
<feColorMatrix type="matrix" values="0 0 0 0 0 0 0 0 0 0 0 0 0 0 0 0 0 0 0.25 0"/>
<feBlend mode="normal" in2="BackgroundImageFix" result="effect1_dropShadow_19744_9661"/>
<feBlend mode="normal" in="SourceGraphic" in2="effect1_dropShadow_19744_9661" result="shape"/>
</filter>
<linearGradient id="paint0_linear_19744_9661" x1="24.5" y1="3" x2="24.5" y2="46" gradientUnits="userSpaceOnUse">
<stop stop-color="#24556D"/>
<stop offset="1" stop-color="#46A5D3"/>
</linearGradient>
<clipPath id="clip0_19744_9661">
<rect width="24" height="24" fill="white" transform="translate(13 13)"/>
</clipPath>
</defs>
</svg>
