<svg width="51" height="51" viewBox="0 0 51 51" fill="none" xmlns="http://www.w3.org/2000/svg">
<g filter="url(#filter0_d_19744_9656)">
<rect x="3" y="3" width="43" height="43" rx="10" fill="url(#paint0_linear_19744_9656)"/>
</g>
<path d="M31.0001 18L24.0001 15L17.0001 18L20.5001 19.5V21.5M31.0001 18L27.5001 19.5V21.5M31.0001 18V22M20.5001 21.5C20.5001 21.5 21.6671 21 24.0001 21C26.3331 21 27.5001 21.5 27.5001 21.5M20.5001 21.5V22.5C20.5001 22.9596 20.5906 23.4148 20.7665 23.8394C20.9424 24.264 21.2002 24.6499 21.5252 24.9749C21.8502 25.2999 22.236 25.5577 22.6607 25.7336C23.0853 25.9095 23.5404 26 24.0001 26C24.4597 26 24.9148 25.9095 25.3395 25.7336C25.7641 25.5577 26.1499 25.2999 26.4749 24.9749C26.7999 24.6499 27.0577 24.264 27.2336 23.8394C27.4095 23.4148 27.5001 22.9596 27.5001 22.5V21.5M19.7831 29.703C18.6831 30.388 15.7971 31.785 17.5541 33.534C18.4131 34.39 19.3701 35 20.5711 35H27.4291C28.6311 35 29.5871 34.389 30.4461 33.534C32.2031 31.785 29.3181 30.388 28.2171 29.704C26.9511 28.9174 25.4905 28.5005 24.0001 28.5005C22.5097 28.5005 21.049 28.9174 19.7831 29.704" stroke="white" stroke-width="1.5" stroke-linecap="round" stroke-linejoin="round"/>
<defs>
<filter id="filter0_d_19744_9656" x="0" y="0" width="51" height="51" filterUnits="userSpaceOnUse" color-interpolation-filters="sRGB">
<feFlood flood-opacity="0" result="BackgroundImageFix"/>
<feColorMatrix in="SourceAlpha" type="matrix" values="0 0 0 0 0 0 0 0 0 0 0 0 0 0 0 0 0 0 127 0" result="hardAlpha"/>
<feOffset dx="1" dy="1"/>
<feGaussianBlur stdDeviation="2"/>
<feComposite in2="hardAlpha" operator="out"/>
<feColorMatrix type="matrix" values="0 0 0 0 0 0 0 0 0 0 0 0 0 0 0 0 0 0 0.25 0"/>
<feBlend mode="normal" in2="BackgroundImageFix" result="effect1_dropShadow_19744_9656"/>
<feBlend mode="normal" in="SourceGraphic" in2="effect1_dropShadow_19744_9656" result="shape"/>
</filter>
<linearGradient id="paint0_linear_19744_9656" x1="24.5" y1="3" x2="24.5" y2="46" gradientUnits="userSpaceOnUse">
<stop stop-color="#24556D"/>
<stop offset="1" stop-color="#46A5D3"/>
</linearGradient>
</defs>
</svg>
